<svg width="20" height="20" viewBox="0 0 20 20" fill="none" xmlns="http://www.w3.org/2000/svg">
<g opacity="0.6">
<path d="M13.3337 7.5V5.83333C13.3337 4.94928 12.9825 4.10143 12.3573 3.47631C11.7322 2.85119 10.8844 2.5 10.0003 2.5C9.11627 2.5 8.26842 2.85119 7.6433 3.47631C7.01818 4.10143 6.66699 4.94928 6.66699 5.83333V7.5M15.0003 17.5H5.00033C4.77931 17.5 4.56735 17.4122 4.41107 17.2559C4.25479 17.0996 4.16699 16.8877 4.16699 16.6667V8.33333C4.16699 8.11232 4.25479 7.90036 4.41107 7.74408C4.56735 7.5878 4.77931 7.5 5.00033 7.5H15.0003C15.2213 7.5 15.4333 7.5878 15.5896 7.74408C15.7459 7.90036 15.8337 8.11232 15.8337 8.33333V16.6667C15.8337 16.8877 15.7459 17.0996 15.5896 17.2559C15.4333 17.4122 15.2213 17.5 15.0003 17.5Z" stroke="#231F20" stroke-width="2" stroke-linecap="round" stroke-linejoin="round"/>
</g>
</svg>
