<svg width="20" height="20" fill="none" xmlns="http://www.w3.org/2000/svg"><g clip-path="url(#clip0_473_3866)" stroke="#EE5238" stroke-width="2" stroke-linecap="round" stroke-linejoin="round"><path d="M11.767 11.767a2.502 2.502 0 01-3.596.063 2.5 2.5 0 01.063-3.597m6.717 6.717A8.392 8.392 0 0110 16.667C4.167 16.667.834 10 .834 10a15.375 15.375 0 014.217-4.95l9.9 9.9zM8.25 3.533a7.6 7.6 0 011.75-.2c5.833 0 9.166 6.667 9.166 6.667a15.414 15.414 0 01-1.8 2.658L8.251 3.533zM.834.833l18.333 18.334"/></g><defs><clipPath id="clip0_473_3866"><path fill="#fff" d="M0 0h20v20H0z"/></clipPath></defs></svg>