<svg width="20" height="20" fill="none" xmlns="http://www.w3.org/2000/svg"><g opacity=".4" clip-path="url(#clip0_537_683)" stroke="#000" stroke-width="2" stroke-linecap="round" stroke-linejoin="round"><path d="M11.766 11.767a2.5 2.5 0 11-3.533-3.534m6.717 6.717A8.391 8.391 0 0110 16.667C4.166 16.667.833 10 .833 10A15.375 15.375 0 015.05 5.05l9.9 9.9zM8.25 3.533a7.6 7.6 0 011.75-.2c5.833 0 9.166 6.667 9.166 6.667a15.414 15.414 0 01-1.8 2.658L8.25 3.533zM.833.833l18.333 18.334"/></g><defs><clipPath id="clip0_537_683"><path fill="#fff" d="M0 0h20v20H0z"/></clipPath></defs></svg>