<svg width="18" height="18" viewBox="0 0 18 18" fill="none" xmlns="http://www.w3.org/2000/svg">
<path d="M8.99998 6.75046V9.75046V6.75046ZM7.68748 3.14296L1.97248 13.5005C1.84024 13.7295 1.7709 13.9894 1.77149 14.2538C1.77207 14.5183 1.84256 14.7779 1.97582 15.0063C2.10907 15.2348 2.30034 15.4239 2.53025 15.5546C2.76016 15.6853 3.02054 15.7528 3.28498 15.7505H14.715C14.9794 15.7528 15.2398 15.6853 15.4697 15.5546C15.6996 15.4239 15.8909 15.2348 16.0241 15.0063C16.1574 14.7779 16.2279 14.5183 16.2285 14.2538C16.2291 13.9894 16.1597 13.7295 16.0275 13.5005L10.3125 3.14296C10.1828 2.9085 9.99261 2.71308 9.7618 2.577C9.53098 2.44091 9.26793 2.36914 8.99998 2.36914C8.73204 2.36914 8.46898 2.44091 8.23817 2.577C8.00735 2.71308 7.8172 2.9085 7.68748 3.14296Z" stroke="#EE5238" stroke-width="1.5" stroke-linecap="round" stroke-linejoin="round"/>
<path d="M9.03789 12.75H8.96289" stroke="#EE5238" stroke-width="1.5" stroke-linecap="round" stroke-linejoin="round"/>
</svg>
