<svg width="22" height="22" viewBox="0 0 22 22" fill="none" xmlns="http://www.w3.org/2000/svg">
<path d="M12.8334 1.8335H5.50008C5.01385 1.8335 4.54754 2.02665 4.20372 2.37047C3.8599 2.71428 3.66675 3.1806 3.66675 3.66683V18.3335C3.66675 18.8197 3.8599 19.286 4.20372 19.6299C4.54754 19.9737 5.01385 20.1668 5.50008 20.1668H16.5001C16.9863 20.1668 17.4526 19.9737 17.7964 19.6299C18.1403 19.286 18.3334 18.8197 18.3334 18.3335V7.3335L12.8334 1.8335Z" stroke-linecap="round" stroke-linejoin="round"/>
<path d="M12.8333 1.8335V7.3335H18.3333" stroke-linecap="round" stroke-linejoin="round"/>
<path d="M14.6666 11.9165H7.33325" stroke-linecap="round" stroke-linejoin="round"/>
<path d="M14.6666 15.5835H7.33325" stroke-linecap="round" stroke-linejoin="round"/>
<path d="M9.16658 8.25H8.24992H7.33325" stroke-linecap="round" stroke-linejoin="round"/>
</svg>
