<svg width="22" height="22" viewBox="0 0 22 22" xmlns="http://www.w3.org/2000/svg">
<path d="M4.58333 2.75L17.4167 2.75C18.4292 2.75 19.25 3.57081 19.25 4.58333L19.25 17.4167C19.25 18.4292 18.4292 19.25 17.4167 19.25L4.58333 19.25C3.57081 19.25 2.75 18.4292 2.75 17.4167L2.75 4.58333C2.75 3.57081 3.57081 2.75 4.58333 2.75Z" stroke-linecap="round" stroke-linejoin="round"/>
<path d="M14.2085 9.1665C13.4491 9.1665 12.8335 8.5509 12.8335 7.7915C12.8335 7.03211 13.4491 6.4165 14.2085 6.4165C14.9679 6.4165 15.5835 7.03211 15.5835 7.7915C15.5835 8.55089 14.9679 9.1665 14.2085 9.1665Z" stroke-linecap="round" stroke-linejoin="round"/>
<path d="M2.74984 13.7498L7.33317 9.1665L17.4165 19.2498" stroke-linecap="round" stroke-linejoin="round"/>
</svg>
