<svg width="20" height="20" viewBox="0 0 20 20" fill="none" xmlns="http://www.w3.org/2000/svg">
<g>
<path d="M12.5 15C12.5 15.663 12.2366 16.2989 11.7678 16.7678C11.2989 17.2366 10.663 17.5 10 17.5C9.33696 17.5 8.70107 17.2366 8.23223 16.7678C7.76339 16.2989 7.5 15.663 7.5 15M15.8333 15H4.16667V8.33333C4.16667 6.78624 4.78125 5.30251 5.87521 4.20854C6.96917 3.11458 8.4529 2.5 10 2.5V2.5C11.5471 2.5 13.0308 3.11458 14.1248 4.20854C15.2188 5.30251 15.8333 6.78624 15.8333 8.33333V15ZM2.5 15H17.5H2.5Z" stroke="#231F20" stroke-width="1.5" stroke-linecap="round" stroke-linejoin="round"/>
</g>
</svg>
