<svg width="25" height="24" viewBox="0 0 25 24" fill="none" xmlns="http://www.w3.org/2000/svg">
<path d="M19.3342 2.90234V16.2748L14.853 21.0973H5.23047V2.90234H19.3342Z" stroke="#EE5238" stroke-width="1.5" stroke-linecap="round"/>
<path d="M11.6821 9.09771L11.1174 9.59132L11.6373 10.186L12.2043 9.63606L11.6821 9.09771ZM7.375 18.4269H12.375V16.9269H7.375V18.4269ZM7.375 15.9819H12.4167V14.4819H7.375V15.9819ZM7.375 13.6944H17.3461V12.1944H7.375V13.6944ZM9.40367 7.63091L11.1174 9.59132L12.2467 8.60409L10.533 6.64368L9.40367 7.63091ZM12.2043 9.63606L15.8972 6.05397L14.8528 4.97728L11.1599 8.55936L12.2043 9.63606Z" fill="#EE5238"/>
<path d="M14.8447 21.0969L14.0947 21.0957C14.0942 21.4042 14.2827 21.6815 14.5696 21.7946C14.8566 21.9078 15.1836 21.8337 15.3937 21.6079L14.8447 21.0969ZM14.8522 16.2744V15.5244H14.1034L14.1022 16.2732L14.8522 16.2744ZM19.3335 16.2744L19.8825 16.7854C20.0858 16.5669 20.1403 16.2487 20.0211 15.975C19.902 15.7014 19.6319 15.5244 19.3335 15.5244V16.2744ZM15.5947 21.0981L15.6022 16.2756L14.1022 16.2732L14.0947 21.0957L15.5947 21.0981ZM14.8522 17.0244H19.3335V15.5244H14.8522V17.0244ZM18.7845 15.7634L14.2957 20.5859L15.3937 21.6079L19.8825 16.7854L18.7845 15.7634Z" fill="#EE5238"/>
</svg>
