<svg width="25" height="24" viewBox="0 0 25 24" fill="none" xmlns="http://www.w3.org/2000/svg">
<g clip-path="url(#clip0_1607_10914)">
<path d="M7.01527 15.9604H1.98277C1.82961 15.9604 1.68272 15.8986 1.57442 15.7886C1.46612 15.6785 1.40527 15.5293 1.40527 15.3737C1.40527 14.5958 1.70949 13.8497 2.251 13.2995C2.79251 12.7494 3.52696 12.4404 4.29277 12.4404H7.75777C8.52359 12.4404 9.25803 12.7494 9.79954 13.2995C9.99938 13.5026 10.1669 13.7322 10.2987 13.9804M8.33527 7.74706C8.33527 8.21118 8.19979 8.66489 7.94597 9.0508C7.69214 9.4367 7.33137 9.73748 6.90927 9.91509C6.48718 10.0927 6.02271 10.1392 5.57462 10.0486C5.12652 9.95809 4.71492 9.73459 4.39186 9.4064C4.0688 9.07821 3.84879 8.66008 3.75966 8.20487C3.67053 7.74966 3.71627 7.27782 3.89111 6.84903C4.06595 6.42023 4.36203 6.05373 4.74191 5.79588C5.12178 5.53802 5.5684 5.40039 6.02527 5.40039C6.63792 5.40039 7.22548 5.64763 7.65869 6.08771C8.0919 6.5278 8.33527 7.12468 8.33527 7.74706Z" stroke="#EE5238" stroke-width="1.5" stroke-linecap="round" stroke-linejoin="round"/>
<path d="M14.9521 13.9804C15.084 13.7322 15.2515 13.5026 15.4513 13.2995C15.9929 12.7494 16.7273 12.4404 17.4931 12.4404H20.9581C21.7239 12.4404 22.4584 12.7494 22.9999 13.2995C23.5414 13.8497 23.8456 14.5958 23.8456 15.3737C23.8456 15.5293 23.7848 15.6785 23.6765 15.7886C23.5682 15.8986 23.4213 15.9604 23.2681 15.9604H18.2357M21.5356 7.74706C21.5356 8.21118 21.4001 8.66489 21.1463 9.0508C20.8925 9.4367 20.5317 9.73748 20.1096 9.91509C19.6875 10.0927 19.2231 10.1392 18.775 10.0486C18.3269 9.95809 17.9153 9.73459 17.5922 9.4064C17.2691 9.07821 17.0491 8.66008 16.96 8.20487C16.8709 7.74966 16.9166 7.27782 17.0915 6.84903C17.2663 6.42023 17.5624 6.05373 17.9422 5.79588C18.3221 5.53802 18.7687 5.40039 19.2256 5.40039C19.8383 5.40039 20.4258 5.64763 20.859 6.08771C21.2922 6.5278 21.5356 7.12468 21.5356 7.74706Z" stroke="#EE5238" stroke-width="1.5" stroke-linecap="round" stroke-linejoin="round"/>
<path d="M15.5955 8.33372C15.5955 8.91388 15.4214 9.48101 15.095 9.9634C14.7687 10.4458 14.3048 10.8218 13.7621 11.0438C13.2194 11.2658 12.6223 11.3239 12.0461 11.2107C11.47 11.0975 10.9408 10.8181 10.5254 10.4079C10.1101 9.99767 9.82721 9.475 9.71261 8.90599C9.59802 8.33698 9.65683 7.74718 9.88162 7.21119C10.1064 6.67519 10.4871 6.21707 10.9755 5.89475C11.4639 5.57243 12.0381 5.40039 12.6255 5.40039C13.4132 5.40039 14.1687 5.70944 14.7257 6.25954C15.2826 6.80965 15.5955 7.55576 15.5955 8.33372ZM14.853 14.2004H10.398C9.41343 14.2004 8.46914 14.5867 7.77291 15.2743C7.07668 15.962 6.68555 16.8946 6.68555 17.8671C6.68555 18.0615 6.76377 18.2481 6.90302 18.3856C7.04227 18.5231 7.23112 18.6004 7.42805 18.6004H17.823C18.02 18.6004 18.2088 18.5231 18.3481 18.3856C18.4873 18.2481 18.5655 18.0615 18.5655 17.8671C18.5655 16.8946 18.1744 15.962 17.4782 15.2743C16.782 14.5867 15.8377 14.2004 14.853 14.2004Z" stroke="#EE5238" stroke-width="1.5" stroke-linecap="round" stroke-linejoin="round"/>
</g>
<defs>
<clipPath id="clip0_1607_10914">
<rect width="24" height="24" fill="white" transform="translate(0.625)"/>
</clipPath>
</defs>
</svg>
