<svg width="25" height="24" viewBox="0 0 25 24" fill="none" xmlns="http://www.w3.org/2000/svg">
<path d="M9.27586 7.58625C12.428 7.58625 14.9834 6.70649 14.9834 5.62125C14.9834 4.53601 12.428 3.65625 9.27586 3.65625C6.12369 3.65625 3.56836 4.53601 3.56836 5.62125C3.56836 6.70649 6.12369 7.58625 9.27586 7.58625Z" stroke="#EE5238" stroke-width="1.5" stroke-linecap="round"/>
<path d="M14.9871 8.17484C14.9871 9.25859 12.4296 10.1398 9.27586 10.1398C6.12211 10.1398 3.56836 9.25859 3.56836 8.17484M10.8921 12.5361H9.27586C6.12211 12.5361 3.56836 11.6548 3.56836 10.5711M9.96586 14.9998H9.27586C6.12211 14.9998 3.56836 14.1223 3.56836 13.0348M10.2621 17.4486C9.93423 17.4778 9.60491 17.4879 9.27586 17.4786C6.12211 17.4786 3.56836 16.5973 3.56836 15.5136M3.56836 15.5323V5.62859M14.9871 11.2536V5.62109" stroke="#EE5238" stroke-width="1.5" stroke-linecap="round"/>
<path d="M15.9741 15.3978C19.1263 15.3978 21.6816 14.518 21.6816 13.4328C21.6816 12.3475 19.1263 11.4678 15.9741 11.4678C12.8219 11.4678 10.2666 12.3475 10.2666 13.4328C10.2666 14.518 12.8219 15.3978 15.9741 15.3978Z" stroke="#EE5238" stroke-width="1.5" stroke-linecap="round"/>
<path d="M21.6814 15.9864C21.6814 17.0739 19.1277 17.9514 15.9739 17.9514C12.8202 17.9514 10.2627 17.0739 10.2627 15.9864M21.6814 18.3751C21.6814 19.4626 19.1277 20.3439 15.9739 20.3439C12.8202 20.3439 10.2627 19.4664 10.2627 18.3751M10.2627 18.3451V13.1514M21.6814 18.4539V13.3651" stroke="#EE5238" stroke-width="1.5" stroke-linecap="round"/>
</svg>
