<svg width="25" height="24" viewBox="0 0 25 24" fill="none" xmlns="http://www.w3.org/2000/svg">
<path d="M10.6447 8.96391C11.389 8.96391 12.0767 8.74665 12.625 8.38184" stroke="#EE5238" stroke-width="1.5" stroke-linecap="round"/>
<circle cx="7.29134" cy="6.66634" r="1.33333" stroke="#EE5238" stroke-width="1.5"/>
<path d="M9.20109 19.4243L9.73142 19.9546L9.95109 19.7349V19.4243H9.20109ZM5.38177 19.4243L4.75667 19.0098C4.55951 19.3072 4.59915 19.7023 4.85144 19.9546L5.38177 19.4243ZM5.38177 10.3065H6.13177V9.85693L5.73521 9.64504L5.38177 10.3065ZM9.20109 10.3065L8.84764 9.64504L8.45109 9.85693V10.3065H9.20109ZM7.29143 21.3339L6.7611 21.8642L7.29143 22.3946L7.82176 21.8642L7.29143 21.3339ZM5.38177 15.1037L4.75667 14.6892C4.59013 14.9404 4.59013 15.2669 4.75667 15.5181L5.38177 15.1037ZM5.38177 12.9434H4.63177C4.63177 13.0908 4.67521 13.2349 4.75667 13.3578L5.38177 12.9434ZM6.09789 14.0235L6.72299 14.4379C6.88952 14.1867 6.88952 13.8603 6.72299 13.6091L6.09789 14.0235ZM5.38177 17.264L4.75667 16.8495C4.59013 17.1007 4.59013 17.4272 4.75667 17.6784L5.38177 17.264ZM6.09789 16.1838L6.72299 16.5982C6.88952 16.347 6.88952 16.0206 6.72299 15.7694L6.09789 16.1838ZM6.09789 18.3441L6.72299 18.7585C6.88952 18.5073 6.88952 18.1809 6.72299 17.9297L6.09789 18.3441ZM3.9834 6.72502C3.9834 4.89805 5.46445 3.41699 7.29143 3.41699V1.91699C4.63603 1.91699 2.4834 4.06962 2.4834 6.72502H3.9834ZM7.29143 3.41699C9.1184 3.41699 10.5995 4.89805 10.5995 6.72502H12.0995C12.0995 4.06962 9.94683 1.91699 7.29143 1.91699V3.41699ZM8.45109 10.783V19.4243H9.95109V10.783H8.45109ZM5.73521 9.64504C4.69112 9.08717 3.9834 7.98817 3.9834 6.72502H2.4834C2.4834 8.56347 3.51548 10.1597 5.02832 10.968L5.73521 9.64504ZM6.13177 10.783V10.3065H4.63177V10.783H6.13177ZM10.5995 6.72502C10.5995 7.98817 9.89173 9.08717 8.84764 9.64504L9.55453 10.968C11.0674 10.1597 12.0995 8.56347 12.0995 6.72502H10.5995ZM9.95109 10.783V10.3065H8.45109V10.783H9.95109ZM8.67076 18.8939L6.7611 20.8036L7.82176 21.8642L9.73142 19.9546L8.67076 18.8939ZM7.82176 20.8036L5.9121 18.8939L4.85144 19.9546L6.7611 21.8642L7.82176 20.8036ZM6.13177 12.9434V10.783H4.63177V12.9434H6.13177ZM6.00686 15.5181L6.72299 14.4379L5.47279 13.6091L4.75667 14.6892L6.00686 15.5181ZM6.72299 13.6091L6.00686 12.5289L4.75667 13.3578L5.47279 14.4379L6.72299 13.6091ZM6.00686 17.6784L6.72299 16.5982L5.47279 15.7694L4.75667 16.8495L6.00686 17.6784ZM6.72299 15.7694L6.00686 14.6892L4.75667 15.5181L5.47279 16.5982L6.72299 15.7694ZM6.00686 19.8387L6.72299 18.7585L5.47279 17.9297L4.75667 19.0098L6.00686 19.8387ZM6.72299 17.9297L6.00686 16.8495L4.75667 17.6784L5.47279 18.7585L6.72299 17.9297Z" fill="#EE5238"/>
<path d="M22.4731 10.6177L18.5759 14.515C18.4675 14.6233 18.3189 14.6824 18.1627 14.6793C18.0065 14.6763 17.8554 14.6113 17.7428 14.4986L12.8556 9.61143C12.8265 9.58257 12.8033 9.5483 12.7875 9.51073C12.7718 9.47315 12.7637 9.43305 12.7638 9.39288L12.8129 5.30222C12.8154 5.22941 12.8447 5.16114 12.8953 5.11055C12.9459 5.05995 13.0142 5.03058 13.087 5.0281L17.3494 4.81511C17.3909 4.81377 17.4326 4.82108 17.4719 4.83658C17.5111 4.85208 17.547 4.87542 17.5774 4.90514L22.4568 9.78457C22.5694 9.89721 22.6344 10.0483 22.6375 10.2045C22.6406 10.3607 22.5814 10.5094 22.4731 10.6177Z" stroke="#EE5238" stroke-width="1.5" stroke-linecap="round"/>
<path d="M7.40855 6.18973C7.40855 4.65835 8.33615 3 10.8747 3C12.6246 3 15.208 3.33333 15.208 6.66685" stroke="#EE5238" stroke-width="1.5" stroke-linecap="round"/>
</svg>
