<svg width="25" height="24" viewBox="0 0 25 24" fill="none" xmlns="http://www.w3.org/2000/svg">
<path d="M21.2122 3.59961H4.03848C3.596 3.59961 3.2373 3.95831 3.2373 4.40079V16.4343C3.2373 16.8768 3.596 17.2355 4.03848 17.2355H21.2122C21.6547 17.2355 22.0134 16.8768 22.0134 16.4343V4.40079C22.0134 3.95831 21.6547 3.59961 21.2122 3.59961Z" stroke="#EE5238" stroke-width="1.5"/>
<path d="M3.2373 14.6406H22.0134M9.07558 20.3996C9.65337 20.1293 10.1141 19.6594 10.3728 19.0763C10.6315 18.4933 10.6709 17.8364 10.4836 17.2266M16.5281 20.3996C15.9497 20.13 15.4885 19.6601 15.2297 19.0768C14.9709 18.4936 14.932 17.8363 15.1201 17.2266" stroke="#EE5238" stroke-width="1.5"/>
<path d="M6.87402 20.4004H18.3761" stroke="#EE5238" stroke-width="1.5" stroke-linecap="round"/>
<path d="M6.59627 6.91557L7.74647 7.72071L9.17035 5.71777M6.42969 10.8025L7.57593 11.6036L8.9998 9.6007M11.2764 7.03456H19.5341M11.2764 11.0722H19.5341" stroke="#EE5238" stroke-width="1.5"/>
</svg>
