<svg width="25" height="24" viewBox="0 0 25 24" fill="none" xmlns="http://www.w3.org/2000/svg">
<path d="M4.82279 14.5196H11.7365M15.4696 17.645H7.10129L4.43614 19.7992L4.46376 17.645H3.49712C3.41452 17.645 3.33274 17.6287 3.25649 17.5969C3.18024 17.5652 3.11102 17.5187 3.05283 17.46C2.99464 17.4014 2.94862 17.3319 2.91744 17.2554C2.88625 17.1789 2.8705 17.097 2.87111 17.0144V7.92804C2.87111 7.84544 2.88745 7.76366 2.9192 7.68741C2.95095 7.61116 2.99747 7.54194 3.05609 7.48375C3.11471 7.42556 3.18426 7.37954 3.26075 7.34835C3.33723 7.31717 3.41913 7.30142 3.50172 7.30203H15.4696C15.5533 7.29956 15.6367 7.31394 15.7148 7.34429C15.7929 7.37465 15.8641 7.42037 15.9242 7.47874C15.9843 7.53712 16.0321 7.60697 16.0647 7.68415C16.0973 7.76132 16.114 7.84426 16.114 7.92804V17.0006C16.114 17.1715 16.0461 17.3354 15.9253 17.4563C15.8044 17.5771 15.6405 17.645 15.4696 17.645V17.645ZM4.82279 9.86131H13.7757H4.82279ZM4.82279 12.1904H9.72501H4.82279Z" stroke="#C79569" stroke-width="1.5"/>
<path d="M17.2924 13.9123H18.1486L20.8138 15.7167L20.8046 13.9123H21.7528C21.9188 13.9123 22.078 13.8464 22.1954 13.729C22.3128 13.6116 22.3788 13.4524 22.3788 13.2863V4.19536C22.3788 4.11277 22.3624 4.03098 22.3307 3.95473C22.2989 3.87848 22.2524 3.80926 22.1938 3.75107C22.1352 3.69288 22.0656 3.64687 21.9891 3.61568C21.9127 3.58449 21.8308 3.56875 21.7482 3.56935H9.78031C9.61428 3.56935 9.45505 3.63531 9.33765 3.75271C9.22025 3.87011 9.1543 4.02934 9.1543 4.19536V6.08721" stroke="#C79569" stroke-width="1.5"/>
</svg>
