<svg width="25" height="24" viewBox="0 0 25 24" fill="none" xmlns="http://www.w3.org/2000/svg">
<path d="M15.8258 4.5332L12.6258 6.66654L9.42578 4.5332" stroke="#C79569" stroke-width="1.5" stroke-linecap="round" stroke-linejoin="round"/>
<path d="M20.0923 8.7998L17.959 11.9998L20.0923 15.1998" stroke="#C79569" stroke-width="1.5" stroke-linecap="round" stroke-linejoin="round"/>
<path d="M15.8258 19.4673L12.6258 17.334L9.42578 19.4673" stroke="#C79569" stroke-width="1.5" stroke-linecap="round" stroke-linejoin="round"/>
<path d="M5.15918 15.1998L7.29251 11.9998L5.15918 8.7998" stroke="#C79569" stroke-width="1.5" stroke-linecap="round" stroke-linejoin="round"/>
<path d="M12.6254 2.40039V9.86706V2.40039ZM22.2254 12.0004H14.7587H22.2254ZM12.6254 21.6004V14.1337V21.6004ZM3.02539 12.0004H10.4921H3.02539ZM10.4921 12.0004C10.4921 12.4223 10.6172 12.8348 10.8516 13.1856C11.086 13.5364 11.4192 13.8099 11.809 13.9713C12.1988 14.1328 12.6278 14.175 13.0416 14.0927C13.4554 14.0104 13.8355 13.8072 14.1339 13.5089C14.4322 13.2105 14.6354 12.8304 14.7177 12.4166C14.8 12.0028 14.7578 11.5738 14.5963 11.184C14.4349 10.7942 14.1614 10.461 13.8106 10.2266C13.4598 9.99217 13.0473 9.86706 12.6254 9.86706C12.0596 9.86706 11.517 10.0918 11.1169 10.4919C10.7168 10.892 10.4921 11.4346 10.4921 12.0004Z" stroke="#C79569" stroke-width="1.5" stroke-linecap="round" stroke-linejoin="round"/>
</svg>
