<svg width="365" height="70" fill="none" xmlns="http://www.w3.org/2000/svg"><path d="M8.076 50.316l3.815 8.087h.053l3.867-8.087-3.867-3.884-3.868 3.884z" fill="#ED5338"/><path d="M11.943 11.956c-.848.425-11.55 6.118-11.55 15.216 0 7.768 6.304 19.58 6.304 19.58l5.246-5.268 5.245 5.267s6.305-11.758 6.305-19.579c-.053-9.098-10.756-14.79-11.55-15.216zm3.444 25.963l-3.444-3.458-3.444 3.458c-.16-.478-2.49-6.757-2.49-10.853 0-5.534 5.51-8.62 5.934-8.832.424.16 5.934 3.298 5.934 8.832 0 4.096-2.332 10.375-2.49 10.853zm8.081-29.894l-3.934 3.95 3.934 3.95 3.933-3.95-3.933-3.95z" fill="#C59368"/><path d="M14.697 26.799a2.718 2.718 0 01-2.702 2.713c-1.483 0-2.702-1.223-2.702-2.713s1.219-2.714 2.702-2.714c1.484 0 2.702 1.224 2.702 2.714z" fill="#C59368"/><path d="M38.245 30.573v-12.13h3.62l3.619 4.106 3.337-4.107h3.526v12.131h-4.043v-5.947l-2.914 3.351h-.094l-3.055-3.351v5.947h-3.996zm15.873-6.089c0-1.84.611-3.351 1.833-4.579 1.222-1.227 2.868-1.793 4.889-1.793 2.021 0 3.666.614 4.841 1.794 1.223 1.227 1.834 2.737 1.834 4.578 0 1.841-.611 3.352-1.834 4.579-1.222 1.227-2.82 1.794-4.841 1.794-2.021 0-3.667-.614-4.889-1.794-1.222-1.18-1.833-2.69-1.833-4.579zm6.675 2.643c1.41 0 2.397-.99 2.397-2.596 0-1.51-1.034-2.596-2.397-2.596-1.363 0-2.397 1.039-2.397 2.596 0 1.464.987 2.597 2.397 2.597zm12.41 3.446h-3.996v-12.13h4.043v6.324l4.277-6.325h4.043v12.131h-4.043v-6.325l-4.325 6.325zm1.128-18.031c0 1.039.376 1.558 1.128 1.558.658 0 1.034-.52 1.034-1.558h3.478c0 2.643-1.598 4.579-4.512 4.579-3.15 0-4.607-1.841-4.607-4.579h3.479zm20.257.614c-.423.613-.94.99-1.551 1.227a8.858 8.858 0 01-2.256.52c-.893.14-1.646.377-2.35.66-1.834.85-2.82 2.785-3.056 5.853h.047c.8-1.7 2.726-2.832 4.748-2.832 3.431 0 5.593 2.36 5.593 6.042 0 1.7-.61 3.21-1.739 4.39-1.175 1.227-2.632 1.794-4.465 1.794-1.975 0-3.526-.661-4.654-2.03-1.175-1.322-1.692-3.163-1.692-5.523 0-5.24 1.504-8.496 4.465-9.77.706-.331 1.505-.52 2.35-.662 1.693-.283 2.633-.472 3.338-1.416l1.222 1.747zm-4.982 15.671c1.175 0 2.115-.425 2.82-1.18.752-.802 1.128-1.747 1.128-2.927 0-2.454-1.41-4.106-3.854-4.106-1.082 0-1.975.283-2.727.897-.752.613-1.222 1.368-1.41 2.17-.047 3.116 1.645 5.146 4.043 5.146zm10.295 1.746H97.74v-12.13h2.162v9.015l6.957-9.016h2.163v12.131h-2.163v-9.015l-6.957 9.015zm12.927-.188c-.987-.33-1.692-.708-2.068-1.18l1.081-1.605c.987.802 2.444 1.321 3.572 1.321 1.833 0 3.15-.802 3.15-1.982 0-.991-.893-1.558-2.351-1.558h-2.021v-1.746h1.88c1.222 0 2.069-.756 2.069-1.7 0-1.085-.988-1.746-2.586-1.746-1.269 0-2.491.472-3.619 1.369l-.846-1.652c.987-.992 2.82-1.605 4.747-1.605 2.915 0 4.513 1.227 4.513 3.257 0 1.416-.705 2.36-2.115 2.832v.047c1.598.189 2.538 1.369 2.538 2.832 0 2.219-2.068 3.635-5.124 3.635-.846-.095-1.833-.236-2.82-.52zm18.989.188v-5.145h-6.722v5.098h-2.162V18.442h2.162V23.4h6.722v-4.957h2.162v12.131h-2.162zm15.043-1.322c-1.176 1.039-2.68 1.605-4.513 1.605-1.974 0-3.525-.566-4.7-1.7-1.176-1.18-1.787-2.69-1.787-4.578 0-1.84.564-3.351 1.646-4.531 1.081-1.228 2.632-1.794 4.559-1.794 1.598 0 2.914.52 3.996 1.558 1.081 1.038 1.598 2.36 1.598 3.965 0 .566-.047 1.038-.141 1.463h-9.213c.188 2.266 1.833 3.634 4.183 3.634 1.598 0 2.82-.424 3.714-1.274l.658 1.652zm-8.696-5.806h7.332c-.094-2.03-1.41-3.21-3.478-3.21-2.162-.047-3.619 1.275-3.854 3.21zm21.433 5.381c-.987 1.275-2.726 2.03-4.653 2.03-1.927 0-3.479-.566-4.701-1.7-1.175-1.18-1.786-2.69-1.786-4.578 0-1.794.611-3.304 1.739-4.484 1.175-1.227 2.633-1.841 4.372-1.841 2.115 0 3.713.52 4.747 1.605l-.987 1.7c-.893-.85-2.068-1.275-3.478-1.275-1.128 0-2.068.424-2.915 1.227-.799.802-1.222 1.84-1.222 3.068 0 1.275.423 2.36 1.222 3.116.847.802 1.881 1.18 3.103 1.18 1.41 0 2.538-.52 3.478-1.558l1.081 1.51z" fill="#562212"/><path d="M38.914 58.518h-.945l3.31-7.51h.802l3.309 7.51h-1l-.99-2.261h-3.507l-.979 2.261zm4.123-3.115l-1.385-3.19-1.385 3.19h2.77zm3.728 3.105V51.06a90.211 90.211 0 012.111-.042c.836 0 1.455.163 1.858.49.41.32.616.772.616 1.355 0 .434-.117.797-.352 1.088-.235.292-.557.505-.967.64v.022c.498.078.886.27 1.165.576.286.306.429.704.429 1.195 0 .71-.25 1.251-.748 1.621-.498.363-1.18.544-2.045.544-.843 0-1.532-.014-2.067-.042zm2.177-3.393H47.7v2.54c.3.028.696.042 1.187.042.58 0 1.023-.114 1.33-.342.316-.234.473-.576.473-1.024 0-.39-.154-.69-.462-.896-.3-.213-.729-.32-1.286-.32zm-.088-3.243c-.22 0-.605.01-1.154.032v2.411h1.231c.433 0 .788-.11 1.067-.33.278-.228.417-.534.417-.918 0-.797-.52-1.195-1.56-1.195zm6.401.032H52.56v-.853h6.322v.853h-2.694v6.614h-.934v-6.614zm3.975 2.881c0-1.082.37-1.992 1.11-2.732.74-.74 1.678-1.109 2.815-1.109 1.128 0 2.063.36 2.803 1.077.748.719 1.122 1.64 1.122 2.764 0 1.095-.374 2.012-1.122 2.752-.748.725-1.682 1.088-2.803 1.088-1.122 0-2.06-.36-2.815-1.078-.74-.718-1.11-1.639-1.11-2.762zm.99 0c0 .839.281 1.55.846 2.133.564.57 1.26.854 2.089.854.864 0 1.568-.285 2.11-.854.55-.569.825-1.28.825-2.133 0-.854-.282-1.565-.847-2.134-.564-.57-1.26-.854-2.088-.854-.843 0-1.543.281-2.1.843-.557.562-.836 1.277-.836 2.145zm14.725 3.733h-.934v-3.382h-4.233v3.382h-.934v-7.467h.934v3.232h4.233v-3.232h.934v7.467zm1.755-3.733c0-1.082.37-1.992 1.111-2.732.74-.74 1.679-1.109 2.815-1.109 1.128 0 2.063.36 2.803 1.077.748.719 1.122 1.64 1.122 2.764 0 1.095-.374 2.012-1.122 2.752-.747.725-1.682 1.088-2.803 1.088-1.122 0-2.06-.36-2.815-1.078-.74-.718-1.11-1.639-1.11-2.762zm.99 0c0 .839.282 1.55.847 2.133.564.57 1.26.854 2.089.854.865 0 1.568-.285 2.11-.854.55-.569.825-1.28.825-2.133 0-.854-.282-1.565-.846-2.134-.565-.57-1.261-.854-2.09-.854-.842 0-1.542.281-2.1.843-.556.562-.835 1.277-.835 2.145zm9.56 3.733h-.935v-7.467h.945l2.892 3.83 2.77-3.83h.891v7.467h-.934V52.48l-2.727 3.713h-.143l-2.76-3.68v6.005zm15.024 0h-.934v-3.382h-4.233v3.382h-.935v-7.467h.935v3.232h4.233v-3.232h.934v7.467zm9.342 0h-.935v-7.467h.935v7.467zm-5.091-3.894a8.85 8.85 0 00-.956.064v2.966l.923.032c1.305 0 1.957-.53 1.957-1.59 0-.476-.165-.839-.494-1.087-.33-.257-.807-.385-1.43-.385zm-1.891-3.573h.935v2.773a19.12 19.12 0 011.022-.053c.931 0 1.638.203 2.122.608.484.398.726.964.726 1.696 0 .783-.268 1.39-.803 1.825-.535.426-1.286.64-2.254.64-.366 0-.685-.004-.956-.011-.264-.007-.528-.01-.792-.01V51.05zm14.84 1.493l-4.673 5.974h-.825v-7.467h.935v5.974l4.673-5.974h.824v7.467h-.934v-5.974zm-4.266-3.2h.879c.176.462.568.693 1.177.693.645 0 1.022-.231 1.132-.693h.88c-.052.398-.268.722-.649.97-.374.242-.828.363-1.363.363-.565 0-1.034-.12-1.407-.362-.367-.242-.583-.566-.649-.971zm9.483 5.441c0-1.082.37-1.992 1.11-2.732.741-.74 1.679-1.109 2.815-1.109 1.129 0 2.063.36 2.803 1.077.748.719 1.122 1.64 1.122 2.764 0 1.095-.374 2.012-1.122 2.752-.747.725-1.682 1.088-2.803 1.088-1.122 0-2.06-.36-2.815-1.078-.74-.718-1.11-1.639-1.11-2.762zm.989 0c0 .839.283 1.55.847 2.133.564.57 1.261.854 2.089.854.865 0 1.568-.285 2.111-.854.549-.569.824-1.28.824-2.133 0-.854-.282-1.565-.846-2.134-.565-.57-1.261-.854-2.089-.854-.843 0-1.543.281-2.1.843-.557.562-.836 1.277-.836 2.145zm13.122-3.735h1.132l-3.43 3.51 3.606 3.958h-1.198l-3.486-3.894 3.376-3.573zm-3.563 7.468h-.934v-7.467h.934v7.467zm7.238-2.869v2.87h-.934V51.05c.308 0 .634-.004.978-.011.345-.007.689-.01 1.034-.01 1.011 0 1.737.22 2.177.66.447.435.67.986.67 1.654 0 .648-.242 1.202-.725 1.664-.469.456-1.151.683-2.045.683-.469 0-.854-.014-1.155-.042zm1.166-3.766c-.132 0-.521.007-1.166.021v2.88c.462.036.836.054 1.122.054.564 0 1.008-.132 1.33-.395.323-.27.484-.64.484-1.11 0-.462-.15-.817-.451-1.066-.293-.256-.733-.384-1.319-.384zm9.218-.833h.945l-2.66 5.761c-.271.598-.557 1.032-.858 1.302-.293.27-.645.405-1.055.405-.396 0-.708-.089-.935-.266l.33-.769c.191.129.389.193.594.193.374 0 .689-.253.945-.758l.132-.277-3.485-5.59h1.056l2.88 4.683 2.111-4.683zm3.254 7.468h-.934v-7.467h4.288v.853h-3.354v6.614zM44.544 45.809h-1.05v-3.192h-1.617l-2.234 3.192h-1.185l2.395-3.376a2.818 2.818 0 01-1.235-.933 2.422 2.422 0 01-.469-1.473c0-.827.284-1.506.852-2.038.568-.54 1.407-.81 2.518-.81.033 0 .379.008 1.037.025.33.008.659.012.988.012v8.593zm-2.79-4.174h1.74v-3.437a32.52 32.52 0 00-1.172-.037c-.642 0-1.148.168-1.519.503-.362.328-.543.761-.543 1.302 0 .441.148.814.445 1.117a1.76 1.76 0 001.049.552zm6.494 4.174h-1.05v-8.593h1.062l3.247 4.407 3.111-4.407h1v8.593h-1.05V38.86l-3.06 4.272h-.161l-3.099-4.235v6.91zm9.97 0h-1.062l3.716-8.642h.901l3.716 8.642h-1.123l-1.111-2.603h-3.938l-1.099 2.603zm4.63-3.585l-1.556-3.67-1.556 3.67h3.111zm10.411 3.585h-1.05v-7.611h-3.135l-.148 1.62a25.612 25.612 0 01-.383 2.738c-.156.753-.325 1.346-.506 1.78-.181.433-.395.769-.642 1.006-.239.237-.473.385-.704.442a2.09 2.09 0 01-.79.025l.012-1.044a.867.867 0 00.445-.037c.123-.057.263-.184.42-.38.172-.205.329-.512.469-.92.329-.917.568-2.415.716-4.493l.123-1.72h5.173v8.594zm1.97-4.297c0-1.244.416-2.291 1.247-3.142.831-.851 1.885-1.277 3.16-1.277 1.268 0 2.317.413 3.148 1.24.84.827 1.26 1.886 1.26 3.18 0 1.26-.42 2.315-1.26 3.166-.84.835-1.889 1.252-3.148 1.252-1.259 0-2.313-.413-3.16-1.24-.831-.826-1.247-1.886-1.247-3.179zm1.111 0c0 .966.317 1.784.95 2.455.634.655 1.416.982 2.346.982.971 0 1.761-.327 2.37-.982.618-.654.926-1.473.926-2.455s-.317-1.8-.95-2.455c-.634-.654-1.416-.982-2.346-.982-.946 0-1.732.323-2.358.97-.625.646-.938 1.469-.938 2.467zm12.409 1.412h-2.95v-.92h2.95v.92zm9.131 2.885h-1.049v-3.892h-4.753v3.892h-1.05v-8.593h1.05v3.72h4.753v-3.72h1.05v8.593zm7.65 0h-5v-8.593h4.877v.982h-3.827v2.774h3.456v.982h-3.456v2.873h3.95v.982zm9.014 0h-1.049v-3.892h-4.753v3.892h-1.049v-8.593h1.049v3.72h4.753v-3.72h1.049v8.593zm7.65 0h-5v-8.593h4.877v.982h-3.827v2.774h3.456v.982h-3.456v2.873h3.95v.982zm9.076 0h-6.913v-8.593h1.049v7.61h4.63v-7.61h1.049v7.61h1.173v2.578h-.988V45.81zm7.77-8.593h1.272l-3.852 4.038 4.049 4.555h-1.345l-3.914-4.48 3.79-4.113zm-4 8.593h-1.049v-8.593h1.049v8.593zm13.251-6.875l-5.247 6.875h-.926v-8.593h1.049v6.874l5.247-6.874h.926v8.593h-1.049v-6.874zm9.875 0l-5.247 6.875h-.926v-8.593h1.05v6.874l5.246-6.874h.926v8.593h-1.049v-6.874zm-4.79-3.682h.988c.197.532.637.798 1.32.798.725 0 1.149-.266 1.272-.798h.988c-.058.458-.301.83-.729 1.117-.419.278-.93.417-1.531.417-.633 0-1.16-.139-1.58-.417-.411-.278-.654-.65-.728-1.117z" fill="#C59368"/><path fill-rule="evenodd" clip-rule="evenodd" d="M44.797 46.06h-1.556v-3.19H42.01l-2.235 3.191H37.97l2.5-3.525a3.021 3.021 0 01-1.054-.885l-.002-.002a2.672 2.672 0 01-.518-1.621c0-.89.31-1.638.931-2.22.632-.6 1.544-.88 2.693-.88l1.044.025c.327.008.654.012.98.012h.254v9.096zm-4.796-8.07c-.568.531-.852 1.21-.852 2.037 0 .556.156 1.047.47 1.473a2.766 2.766 0 001.234.933l-2.395 3.376h1.185l2.234-3.192h1.617v3.192h1.05v-8.593c-.33 0-.659-.004-.988-.012-.658-.017-1.004-.025-1.037-.025-1.11 0-1.95.27-2.518.81zm.973.86c-.303.275-.46.638-.46 1.116 0 .38.124.688.372.941l.003.002c.255.268.548.423.883.474h1.469V38.44a26.347 26.347 0 00-.92-.026c-.596 0-1.035.155-1.347.438zm2.52-.652v3.437h-1.74a1.76 1.76 0 01-1.05-.552 1.535 1.535 0 01-.444-1.117c0-.54.181-.974.543-1.302.37-.335.877-.503 1.519-.503.214 0 .605.012 1.172.037zm5.008 7.862h-1.557v-9.096h1.444l3.114 4.226 2.983-4.226h1.386v9.096h-1.557v-6.41l-2.677 3.736h-.42L48.5 39.672v6.387zm-.254-7.162l3.099 4.235h.16l3.062-4.272v6.948h1.049v-8.593h-1l-3.11 4.407-3.248-4.407H47.2v8.593h1.049v-6.911zm10.139 7.162h-1.615l3.933-9.145h1.236l3.71 8.628.012-1.068.286.04a.62.62 0 00.308-.018c.069-.034.177-.123.322-.305l.002-.003.002-.003c.144-.17.288-.444.424-.84v-.003c.318-.883.555-2.35.703-4.426l.14-1.953h5.662v9.096h-1.556v-7.61h-2.65l-.128 1.391c-.1 1.07-.228 1.992-.387 2.765-.158.76-.33 1.371-.52 1.826-.19.454-.42.821-.698 1.09-.258.256-.53.434-.82.506a2.34 2.34 0 01-.88.031v.002h-1.675l-1.111-2.603h-3.602l-1.098 2.602zm.93-2.854h3.938l1.11 2.603h1.124l-3.716-8.642h-.9l-3.717 8.642h1.062l1.099-2.603zm9.757-5.008h3.136v7.61h1.049v-8.592h-5.173l-.123 1.718c-.148 2.08-.387 3.577-.716 4.493-.14.41-.297.716-.47.92-.156.197-.296.324-.42.381a.698.698 0 01-.19.045 1.066 1.066 0 01-.254-.008l-.012 1.044c.296.04.56.032.79-.025.23-.057.465-.205.704-.442.247-.237.46-.573.642-1.006.18-.434.35-1.027.506-1.78.156-.761.284-1.674.383-2.738l.148-1.62zm13.891 6.658l-.001.001c-.89.885-2.006 1.326-3.328 1.326-1.321 0-2.44-.436-3.338-1.312l-.002-.001c-.884-.88-1.32-2.006-1.32-3.358 0-1.306.438-2.417 1.318-3.318.882-.903 2.003-1.353 3.342-1.353 1.329 0 2.444.436 3.327 1.313.892.88 1.334 2.006 1.334 3.358 0 1.322-.443 2.443-1.332 3.344zm-.18-6.523c.839.827 1.258 1.886 1.258 3.18 0 1.26-.42 2.315-1.259 3.166-.84.835-1.889 1.252-3.148 1.252-1.259 0-2.313-.413-3.16-1.24-.831-.826-1.247-1.886-1.247-3.179 0-1.244.416-2.291 1.247-3.142.831-.851 1.885-1.277 3.16-1.277 1.268 0 2.317.413 3.148 1.24zm-.965 5.463h.001c.57-.604.858-1.36.858-2.284 0-.922-.296-1.676-.88-2.28-.585-.605-1.3-.905-2.163-.905-.881 0-1.6.298-2.175.892-.575.595-.867 1.352-.867 2.293 0 .905.294 1.66.88 2.282.585.603 1.3.903 2.162.903.907 0 1.627-.302 2.184-.9zm-4.53.171c-.633-.67-.95-1.49-.95-2.455 0-.998.313-1.82.938-2.467.626-.647 1.412-.97 2.358-.97.93 0 1.712.328 2.346.982.633.655.95 1.473.95 2.455s-.308 1.8-.926 2.455c-.609.655-1.399.982-2.37.982-.93 0-1.712-.327-2.345-.982zm11.713-.791h-3.458V41.75h3.458v1.425zm9.131 2.884h-1.556v-3.89h-4.246v3.89h-1.557v-9.096h1.557v3.72h4.246v-3.72h1.556v9.096zm-1.303-8.844h1.05v8.593h-1.05v-3.892h-4.753v3.892h-1.05v-8.593h1.05v3.72h4.753v-3.72zm8.953 8.844h-5.507v-9.096h5.383v1.486h-3.827v2.27h3.457v1.486h-3.457v2.369h3.951v1.485zm-4.204-1.233v-2.873h3.456v-.982h-3.456v-2.774h3.827v-.982h-4.877v8.593h5v-.982h-3.95zm13.218 1.233h-1.556v-3.89h-4.246v3.89h-1.557v-9.096h1.557v3.72h4.246v-3.72h1.556v9.096zm-1.303-8.844h1.049v8.593h-1.049v-3.892h-4.753v3.892h-1.049v-8.593h1.049v3.72h4.753v-3.72zm8.953 8.844h-5.507v-9.096h5.383v1.486h-3.827v2.27h3.457v1.486h-3.457v2.369h3.951v1.485zm-4.204-1.233v-2.873h3.456v-.982h-3.456v-2.774h3.827v-.982h-4.877v8.593h5v-.982h-3.95zm5.859 1.233v-9.096h1.557v7.61h4.122v-7.61h1.557v7.61h1.172v3.082h-1.494V46.06h-6.914zm7.167-.251v1.595h.988v-2.577h-1.173v-7.611h-1.049v7.61h-4.63v-7.61h-1.049v8.593h6.913zm7.659-8.845h1.972l-4.097 4.296 4.268 4.8h-2.024l-3.754-4.297v4.297h-1.557v-9.096h1.557v3.944l3.635-3.944zm.111.252h1.272l-3.852 4.038 4.049 4.555h-1.345l-3.914-4.48 3.79-4.113zm-4 0h-1.049v8.593h1.049v-8.593zm8.13 8.844h-1.305v-9.096h1.556v6.377l4.867-6.377h1.306v9.096h-1.557v-6.377l-4.867 6.377zm5.121-7.126v6.875h1.049v-8.593h-.926l-5.247 6.874v-6.874h-1.049v8.593h.926l5.247-6.874zm4.754 7.127h-1.305v-9.097h1.556v6.377l4.867-6.377h1.306v9.096h-1.557v-6.377l-4.867 6.377zm5.121-7.127v6.875h1.049v-8.593h-.926l-5.246 6.874v-6.874h-1.05v8.593h.926l5.247-6.874zM153.079 35h1.461l.061.165c.082.218.207.37.373.47.169.102.401.163.71.163.335 0 .569-.062.726-.16a.666.666 0 00.299-.443l.045-.195h1.477l-.036.283c-.068.54-.357.973-.838 1.295h-.001c-.469.311-1.03.46-1.672.46-.671 0-1.249-.147-1.72-.46h-.002c-.467-.316-.751-.748-.837-1.287l-.046-.291zm-91.787 3.554l-1.556 3.67h3.111l-1.555-3.67zm0 .65l-1.174 2.768h2.347l-1.173-2.769zm92.084-3.952a1.63 1.63 0 00.728 1.117c.42.278.947.417 1.58.417.601 0 1.112-.139 1.531-.417.347-.232.572-.52.676-.865a1.58 1.58 0 00.053-.252h-.988c-.123.532-.547.798-1.272.798-.683 0-1.123-.266-1.32-.798h-.988zm-64.627 7.672v-.92h-2.95v.92h2.95z" fill="#C59368"/><path d="M220.353 30.948h-2.62v-7.632h-2.711l-.068 1.093c-.197 1.853-.486 3.266-.866 4.238-.364.972-.835 1.632-1.412 1.982-.562.334-1.344.508-2.347.523l-.227-2.551a1.5 1.5 0 00.934-.273c.334-.243.63-.752.888-1.527.258-.774.425-1.746.501-2.916l.16-3.19h7.768v10.253zm9.638-6.493l-4.784 6.493h-2.62V20.696h2.62v6.493l4.784-6.493h2.62v10.252h-2.62v-6.493zm10.51-3.759h2.62v10.252h-2.62v-3.532c-.759.395-1.61.593-2.551.593-1.276 0-2.218-.334-2.825-1.003-.592-.668-.888-1.678-.888-3.03v-3.28h2.802v2.961c0 1.261.554 1.891 1.663 1.891.713 0 1.313-.136 1.799-.41v-4.442zm14.585 10.252h-2.62v-3.919h-4.488v3.919h-2.619V20.696h2.619v3.873h4.488v-3.873h2.62v10.252zm5.916 0h-3.69V20.696h2.619v2.802h1.276c1.534 0 2.666.319 3.395.957.744.638 1.116 1.503 1.116 2.597 0 1.17-.395 2.11-1.185 2.825-.789.714-1.967 1.07-3.531 1.07zm8.794 0h-2.62V20.696h2.62v10.252zm-8.817-5.354h-1.048v3.075h1.026c1.321 0 1.982-.508 1.982-1.526 0-1.033-.653-1.55-1.96-1.55zm18.448-1.139l-4.784 6.493h-2.62V20.696h2.62v6.493l4.784-6.493h2.62v10.252h-2.62v-6.493zm-5.877-8.885h2.392c0 .501.098.904.296 1.207.197.304.493.456.888.456.35 0 .615-.152.798-.456.197-.318.296-.72.296-1.207h2.392c0 1.063-.312 1.921-.934 2.574-.623.638-1.473.957-2.552.957-1.184 0-2.08-.311-2.688-.934-.592-.638-.888-1.503-.888-2.597zm21.284 5.126h3.303l-3.941 4.875 4.419 5.377h-3.417l-4.055-5.172 3.691-5.08zm-3.782 10.252h-2.62V20.696h2.62v10.252zm9.218-7.61l-.66-1.913a7.007 7.007 0 013.622-.98c1.427 0 2.468.35 3.121 1.048.653.699.979 1.77.979 3.212v6.243h-2.278v-1.185c-.607.88-1.617 1.321-3.03 1.321-.972 0-1.754-.28-2.346-.843-.577-.577-.866-1.344-.866-2.3 0-1.064.342-1.884 1.025-2.461.684-.577 1.588-.866 2.711-.866.927 0 1.701.22 2.324.66.03-.91-.106-1.579-.41-2.004-.289-.425-.79-.638-1.504-.638-.789 0-1.685.236-2.688.706zm2.62 5.536c.881 0 1.542-.311 1.982-.934v-1.048c-.425-.334-1.025-.5-1.8-.5-.486 0-.881.113-1.184.34-.304.229-.456.54-.456.935 0 .364.137.66.41.888.274.213.623.32 1.048.32zm14.145-14.124l1.367 2.141c-.365.456-.82.79-1.367 1.003-.486.167-1.094.334-1.823.501-.714.137-1.306.326-1.777.57-1.26.592-1.997 1.868-2.209 3.827h.045c.319-.562.813-1.018 1.481-1.367a4.359 4.359 0 012.119-.547c1.412 0 2.543.456 3.394 1.367.85.927 1.276 2.15 1.276 3.668 0 1.473-.501 2.726-1.504 3.759-1.002 1.017-2.293 1.526-3.873 1.526-1.716 0-3.075-.585-4.077-1.754-.988-1.17-1.481-2.749-1.481-4.739 0-4.374 1.291-7.122 3.873-8.246a8.374 8.374 0 011.868-.547c.774-.152 1.344-.296 1.708-.433a2.63 2.63 0 00.98-.729zm-5.627 10.502c.015 1.033.266 1.876.752 2.529s1.131.98 1.936.98c.79 0 1.428-.259 1.914-.775.486-.517.729-1.17.729-1.96 0-.804-.228-1.457-.684-1.959-.44-.5-1.055-.751-1.845-.751-.684 0-1.276.182-1.777.547a2.61 2.61 0 00-1.025 1.39zm17.128-.797l-4.784 6.493h-2.62V20.696h2.62v6.493l4.784-6.493h2.62v10.252h-2.62v-6.493zm14.588 6.493h-2.62v-3.919h-4.488v3.919h-2.619V20.696h2.619v3.873h4.488v-3.873h2.62v10.252zm10.267-2.871l.752 1.845c-1.017.85-2.324 1.276-3.918 1.276-1.64 0-2.977-.494-4.01-1.48-1.002-.973-1.503-2.271-1.503-3.896 0-1.52.493-2.795 1.48-3.828.988-1.032 2.301-1.549 3.942-1.549 1.351 0 2.498.448 3.44 1.344.941.896 1.412 2.035 1.412 3.418 0 .607-.053 1.078-.159 1.412h-7.404c.106.744.433 1.329.979 1.754.562.425 1.261.638 2.096.638 1.139 0 2.104-.311 2.893-.934zm-3.371-5.445c-1.489 0-2.385.744-2.688 2.233h5.034c.015-.653-.197-1.185-.638-1.595-.425-.425-.994-.638-1.708-.638zm8.582.684h-3.371v-2.62h9.34v2.62h-3.349v7.632h-2.62v-7.632zM219.191 51.197h-1.62v-7.593h-4.961v7.593h-1.62v-9.112h8.201v9.112zm4.148 4.051h-1.62V42.085h1.62v1.073c.324-.378.769-.681 1.336-.911a4.428 4.428 0 011.762-.364c1.296 0 2.315.431 3.058 1.295.769.851 1.154 1.958 1.154 3.322 0 1.39-.439 2.558-1.316 3.503-.864.931-2.005 1.397-3.423 1.397-1.093 0-1.95-.21-2.571-.628v4.476zm2.632-11.847c-1.08 0-1.957.419-2.632 1.256v4.516c.715.472 1.525.708 2.43.708.958 0 1.721-.303 2.288-.911.58-.621.871-1.424.871-2.41 0-.958-.264-1.721-.79-2.288-.527-.58-1.249-.87-2.167-.87zm13.784 5.529l.506 1.275c-.878.797-2.018 1.195-3.422 1.195-1.485 0-2.667-.432-3.544-1.296-.891-.864-1.337-2.018-1.337-3.463 0-1.363.419-2.497 1.256-3.402.823-.904 1.971-1.356 3.442-1.356 1.215 0 2.221.391 3.018 1.174.81.77 1.215 1.768 1.215 2.997 0 .392-.034.756-.102 1.093h-7.006c.067.851.385 1.52.952 2.005.58.486 1.323.73 2.227.73 1.188 0 2.12-.318 2.795-.953zm-3.18-5.529c-.796 0-1.458.223-1.984.668-.513.446-.817 1.033-.911 1.762h5.528c-.041-.756-.297-1.35-.77-1.782-.459-.432-1.08-.648-1.863-.648zm6.014 10.024h-1.519v-3.746h1.134c.337-.419.634-1.094.891-2.025.256-.945.425-1.998.506-3.16l.142-2.409h6.217v7.594h1.518v3.746h-1.518v-2.227h-7.371v2.227zm2.673-9.821l-.102 1.519a13.942 13.942 0 01-.486 2.774c-.243.837-.492 1.43-.749 1.782h4.415v-6.075h-3.078zm15.776 7.593h-1.62v-7.593h-4.962v7.593h-1.62v-9.112h8.202v9.112zm4.147 4.051h-1.62V42.085h1.62v1.073c.324-.378.769-.681 1.336-.911a4.432 4.432 0 011.762-.364c1.296 0 2.315.431 3.058 1.295.769.851 1.154 1.958 1.154 3.322 0 1.39-.439 2.558-1.316 3.503-.864.931-2.005 1.397-3.422 1.397-1.094 0-1.951-.21-2.572-.628v4.476zm2.632-11.847c-1.08 0-1.957.419-2.632 1.256v4.516c.715.472 1.525.708 2.43.708.958 0 1.721-.303 2.288-.911.581-.621.871-1.424.871-2.41 0-.958-.263-1.721-.79-2.288-.526-.58-1.249-.87-2.167-.87zm13.48 1.013l-5.265 6.783h-1.62v-9.112h1.62v6.784l5.265-6.784h1.62v9.112h-1.62v-6.783zm12.463 6.783h-1.62V47.35h-5.063v3.847h-1.62v-9.112h1.62v3.746h5.063v-3.746h1.62v9.112zm9.409-6.783l-5.265 6.783h-1.62v-9.112h1.62v6.784l5.265-6.784h1.62v9.112h-1.62v-6.783zm5.78 6.783h-1.62v-9.112h1.479l3.503 4.516 3.321-4.516h1.438v9.112h-1.62v-6.642l-3.159 4.233h-.061l-3.281-4.232v6.642zm11.137-7.188l-.425-1.296c.905-.554 1.917-.83 3.038-.83 1.228 0 2.119.303 2.673.91.553.608.83 1.547.83 2.816v5.588h-1.539v-1.174c-.716.877-1.688 1.316-2.916 1.316-.837 0-1.512-.25-2.025-.749-.513-.513-.77-1.202-.77-2.066 0-.89.318-1.593.952-2.105.635-.527 1.465-.79 2.491-.79.958 0 1.714.196 2.268.587 0-1.026-.142-1.762-.425-2.207-.284-.446-.831-.669-1.641-.669-.823 0-1.66.223-2.511.669zm2.228 5.872c.904 0 1.687-.391 2.349-1.174v-1.154c-.567-.405-1.249-.608-2.045-.608-.554 0-1.02.135-1.398.405-.364.256-.546.621-.546 1.093 0 .446.141.797.425 1.053.297.257.702.385 1.215.385zm8.383-6.176h-3.342v-1.62h8.303v1.62h-3.341v7.492h-1.62v-7.492zm13.218 5.225l.507 1.275c-.878.797-2.019 1.195-3.423 1.195-1.485 0-2.666-.432-3.543-1.296-.891-.864-1.337-2.018-1.337-3.463 0-1.363.419-2.497 1.256-3.402.823-.904 1.971-1.356 3.442-1.356 1.215 0 2.221.391 3.017 1.174.81.77 1.215 1.768 1.215 2.997 0 .392-.033.756-.101 1.093h-7.006c.067.851.384 1.52.951 2.005.581.486 1.323.73 2.228.73 1.188 0 2.119-.318 2.794-.953zm-3.179-5.529c-.796 0-1.458.223-1.984.668-.513.446-.817 1.033-.912 1.762h5.529c-.041-.756-.297-1.35-.77-1.782-.459-.432-1.08-.648-1.863-.648zm13.607 7.796h-1.62v-7.492h-3.199l-.101 1.539c-.108 1.255-.27 2.302-.486 3.139-.203.823-.473 1.444-.811 1.863-.324.405-.668.688-1.032.85-.365.149-.81.223-1.337.223l-.121-1.58c.148.014.303-.006.466-.06.162-.068.337-.203.526-.405a2.63 2.63 0 00.527-.81c.162-.338.303-.81.425-1.418.135-.62.223-1.33.263-2.126l.162-2.835h6.338v9.112zm6.505-9.112h2.835v9.112h-1.62V48.16h-1.762l-2.227 3.038h-1.964l2.632-3.443c-.553-.122-1.019-.419-1.397-.891-.378-.486-.567-1.066-.567-1.741 0-.932.337-1.668 1.012-2.208.675-.553 1.695-.83 3.058-.83zm-2.349 3.078c0 .432.169.79.506 1.073.338.27.736.405 1.195.405h1.863v-3.037h-1.478c-.689 0-1.208.142-1.559.425-.351.283-.527.661-.527 1.134z" fill="#562212"/><path stroke="url(#paint0_linear_704_3573)" d="M186.5 0v70"/><defs><linearGradient id="paint0_linear_704_3573" x1="186" y1="0" x2="186" y2="70" gradientUnits="userSpaceOnUse"><stop stop-color="#231F20" stop-opacity="0"/><stop offset=".5" stop-color="#231F20" stop-opacity=".2"/><stop offset="1" stop-color="#231F20" stop-opacity="0"/></linearGradient></defs></svg>