<svg width="33" height="32" fill="none" xmlns="http://www.w3.org/2000/svg"><path d="M26.565 19.186l-.96 7.64A1.333 1.333 0 0124.272 28H7.965a1.334 1.334 0 01-1.333-1.174l-.96-7.64" stroke="#231F20" stroke-width="2" stroke-linecap="round" stroke-linejoin="round"/><path d="M27.218 18.973l-6.04 2.014a16 16 0 01-10.107 0l-6.04-2.014a1.333 1.333 0 01-.906-1.333V9.333h24v8.374a1.334 1.334 0 01-.907 1.266zM14.791 16h2.667-2.666zm8-8a4 4 0 00-4-4h-5.333a4 4 0 00-4 4v1.333h13.333V8z" stroke="#231F20" stroke-width="2" stroke-linecap="round" stroke-linejoin="round"/></svg>