<svg width="32" height="32" fill="none" xmlns="http://www.w3.org/2000/svg"><path d="M16 3c1.8 0 3.561.538 5.058 1.547a9.162 9.162 0 013.354 4.118 9.24 9.24 0 01.518 5.302 9.199 9.199 0 01-2.492 4.698 9.083 9.083 0 01-4.662 2.512 9.038 9.038 0 01-5.26-.523 9.12 9.12 0 01-4.086-3.38 9.228 9.228 0 01-1.535-5.098c0-2.433.96-4.767 2.667-6.488A9.069 9.069 0 0116 3v0zm-.94 8.259l-2.095.29 1.518 1.362-.365 1.942L16 13.935l1.882.918-.365-1.942 1.518-1.362-2.094-.29L16 9.5l-.94 1.759zm7.435 7.341a9.082 9.082 0 01-4.978 2.63L20.552 29l2.276-1.912L26 27.41l-3.505-8.81zM6 27.47l3.171-.32L11.448 29l3.034-7.77a9.081 9.081 0 01-4.977-2.63L6 27.47z" stroke="#000" stroke-width="2" stroke-linecap="round" stroke-linejoin="round"/></svg>