<svg width="130" height="36" fill="none" xmlns="http://www.w3.org/2000/svg"><path d="M44.062 21.18a.162.162 0 00-.082-.087.174.174 0 00-.122-.006c-.684.25-1.82.455-2.714.455-1.958 0-2.89-.522-2.89-3.488 0-2.371.286-3.488 2.89-3.488.738 0 1.63.105 2.502.355.07.02.147-.011.18-.075a68.14 68.14 0 00.85-2l.102-.246a.15.15 0 00.003-.128.16.16 0 00-.098-.088 12.975 12.975 0 00-3.743-.572c-4.101 0-5.928 1.91-5.928 6.198 0 4.349 1.827 6.288 5.928 6.288 1.027 0 3.052-.213 4.03-.598a.155.155 0 00.088-.195l-.996-2.325zm-31.718-8.895c0-.082.066-.148.149-.148h8.42c.106 0 .177.108.136.205l-1.043 2.48a.145.145 0 01-.15.09h-4.359v8.914a.148.148 0 01-.148.148h-2.857a.148.148 0 01-.148-.148V12.285z" fill="#0066B3"/><path fill-rule="evenodd" clip-rule="evenodd" d="M21.756 18.01c0-4.46 1.56-6.198 5.57-6.198 4.041 0 5.617 1.738 5.617 6.198 0 4.527-1.576 6.288-5.617 6.288-4.01 0-5.57-1.76-5.57-6.288zm3.174.044c0 3.144.57 3.646 2.396 3.646 1.861 0 2.442-.502 2.442-3.646 0-3.348-.633-3.646-2.442-3.646-1.774 0-2.396.298-2.396 3.646z" fill="#0066B3"/><path d="M68.054 21.18a.16.16 0 00-.082-.087.174.174 0 00-.121-.006c-.685.25-1.82.455-2.715.455-1.958 0-2.89-.522-2.89-3.488 0-2.371.286-3.488 2.89-3.488.738 0 1.631.105 2.502.355.07.02.147-.011.18-.075.242-.526.593-1.375.85-2l.102-.246c.02-.04.02-.088.003-.128a.16.16 0 00-.097-.088 12.974 12.974 0 00-3.744-.572c-4.1 0-5.928 1.91-5.928 6.198 0 4.349 1.827 6.288 5.928 6.288 1.027 0 3.053-.213 4.03-.598a.155.155 0 00.088-.195l-.996-2.325zm2.5 2.794h2.933a.148.148 0 00.14-.1 41.423 41.423 0 001.191-4.741c.291-1.492.47-2.906.575-4.221h2.867v8.914c0 .081.066.148.148.148h2.857a.148.148 0 00.148-.148V12.285a.148.148 0 00-.148-.148h-8.717a.147.147 0 00-.149.142 48.764 48.764 0 01-.633 5.897c-.354 2.078-.865 3.953-1.355 5.609a.149.149 0 00.143.189zm26.579-11.837a.148.148 0 00-.149.148v11.54a.15.15 0 00.15.149h2.855a.148.148 0 00.149-.148v-8.914h4.359a.144.144 0 00.15-.09l1.043-2.48a.147.147 0 00-.136-.205h-8.42zm-50.704 0a.147.147 0 00-.14.196l4.34 11.642a145.478 145.478 0 01-2.07 4.12.148.148 0 00.13.218h3.088a.15.15 0 00.133-.082c2.284-4.612 3.965-8.7 6.264-15.899a.149.149 0 00-.141-.195h-2.868a.15.15 0 00-.143.108c-.885 3.078-1.7 5.487-2.646 7.809l-2.916-7.821a.148.148 0 00-.14-.096h-2.89zm36.777.196a.146.146 0 01.14-.196h2.892a.15.15 0 01.14.096l2.914 7.82c.946-2.321 1.762-4.73 2.647-7.808a.15.15 0 01.143-.108h2.868c.1 0 .172.1.14.195-2.298 7.2-3.979 11.287-6.263 15.9a.15.15 0 01-.133.08h-3.087a.148.148 0 01-.132-.216 144.943 144.943 0 002.07-4.12l-4.339-11.643zm31.451-.196h2.854c.084 0 .149.065.146.147V23.15a.15.15 0 01-.101.144c-1.323.5-3.553 1.004-5.552 1.004-3.422 0-4.808-1.484-4.876-5.275-.003-.009-.003-6.72-.003-6.72v-.019c0-.082.065-.147.149-.147h2.854c.083 0 .149.065.149.147v6.674c.065 2.015.568 2.498 2.298 2.498.696 0 1.315-.082 1.933-.253v-8.918c0-.083.065-.148.149-.148z" fill="#EE2F53"/></svg>