<svg width="24" height="24" fill="none" xmlns="http://www.w3.org/2000/svg"><path d="M19.29 9.39l1.9 1.9a1 1 0 010 1.42l-1.9 1.9a1 1 0 00-.29.7V18a1 1 0 01-1 1h-2.69a1 1 0 00-.7.29l-1.9 1.9a1 1 0 01-1.42 0l-1.9-1.9a1 1 0 00-.7-.29H6a1 1 0 01-1-1v-2.69a1 1 0 00-.29-.7l-1.9-1.9a1 1 0 010-1.42l1.9-1.9a1 1 0 00.29-.7V6a1 1 0 011-1h2.69a1 1 0 00.7-.29l1.9-1.9a.999.999 0 011.42 0l1.9 1.9a1 1 0 00.7.29H18a1 1 0 011 1v2.69a1 1 0 00.29.7zM12 9a3 3 0 100 6 3 3 0 000-6z" stroke="#000" stroke-width="2" stroke-linecap="round" stroke-linejoin="round"/></svg>