<svg width="101" height="92" fill="none" xmlns="http://www.w3.org/2000/svg"><path d="M41.421 5.32L1.891 76.53a10.265 10.265 0 00.022 10.353 10.346 10.346 0 003.835 3.77A10.426 10.426 0 0010.97 92h79.062c1.83.016 3.63-.449 5.22-1.347a10.345 10.345 0 003.836-3.77 10.268 10.268 0 00.023-10.353L59.579 5.32a10.341 10.341 0 00-3.81-3.891 10.423 10.423 0 00-10.538 0 10.342 10.342 0 00-3.81 3.891z" fill="#F4F4F4"/><path d="M50.5 30v26" stroke="#EE5238" stroke-width="6" stroke-linecap="round" stroke-linejoin="round"/><path d="M50.55 72h-.1" stroke="#EE5238" stroke-width="8" stroke-linecap="round" stroke-linejoin="round"/></svg>