<svg width="188" height="52" fill="none" xmlns="http://www.w3.org/2000/svg"><path d="M63.6 30.594a.233.233 0 00-.12-.127.25.25 0 00-.174-.008c-.99.363-2.63.657-3.922.657-2.827 0-4.175-.754-4.175-5.038 0-3.425.414-5.039 4.175-5.039 1.066 0 2.357.152 3.615.514a.223.223 0 00.26-.11c.349-.758.855-1.985 1.228-2.889l.147-.354a.217.217 0 00.004-.185.232.232 0 00-.14-.127 18.738 18.738 0 00-5.408-.826c-5.923 0-8.563 2.76-8.563 8.953 0 6.28 2.64 9.082 8.563 9.082 1.484 0 4.41-.307 5.82-.863a.224.224 0 00.129-.282L63.6 30.594zM17.785 17.745c0-.118.096-.213.215-.213h12.164c.152 0 .255.155.196.295l-1.506 3.582a.21.21 0 01-.218.13.216.216 0 01-.021 0H22.34v12.876a.214.214 0 01-.215.214H18a.214.214 0 01-.215-.214v-16.67z" fill="#0066B3"/><path fill-rule="evenodd" clip-rule="evenodd" d="M31.379 26.014c0-6.442 2.255-8.951 8.046-8.951 5.837 0 8.113 2.509 8.113 8.95 0 6.54-2.276 9.084-8.113 9.084-5.791 0-8.046-2.543-8.046-9.083zm4.585.064c0 4.541.822 5.266 3.46 5.266 2.69 0 3.528-.725 3.528-5.266 0-4.836-.915-5.266-3.527-5.266-2.563 0-3.46.43-3.46 5.266z" fill="#0066B3"/><path d="M98.257 30.594a.232.232 0 00-.295-.135c-.99.363-2.63.657-3.921.657-2.828 0-4.175-.754-4.175-5.038 0-3.425.414-5.039 4.175-5.039 1.066 0 2.356.152 3.614.514a.223.223 0 00.26-.11c.35-.758.856-1.985 1.229-2.889l.146-.354a.218.218 0 00.004-.185.232.232 0 00-.14-.127 18.738 18.738 0 00-5.407-.826c-5.924 0-8.563 2.76-8.563 8.953 0 6.28 2.64 9.082 8.563 9.082 1.484 0 4.409-.307 5.82-.863a.224.224 0 00.128-.282l-1.438-3.358zm3.609 4.034h4.236c.09 0 .176-.06.202-.145.653-2.034 1.232-4.323 1.722-6.847a54.55 54.55 0 00.829-6.097h4.142v12.876c0 .118.096.213.215.213h4.125a.214.214 0 00.215-.213v-16.67a.214.214 0 00-.215-.214h-12.591c-.116 0-.21.09-.215.205a70.383 70.383 0 01-.914 8.518c-.511 3.002-1.249 5.71-1.957 8.101a.214.214 0 00.206.273zm38.392-17.097a.214.214 0 00-.215.213v16.671c0 .118.096.213.215.213h4.125a.214.214 0 00.215-.213V21.539h6.275l.021-.001a.209.209 0 00.217-.13l1.507-3.581a.213.213 0 00-.196-.296h-12.164zm-73.24.001a.211.211 0 00-.201.283l6.268 16.816a209.979 209.979 0 01-2.99 5.952.214.214 0 00.189.313h4.46a.217.217 0 00.192-.117c3.299-6.662 5.727-12.567 9.047-22.966a.215.215 0 00-.203-.281h-4.142a.217.217 0 00-.208.156c-1.278 4.446-2.456 7.925-3.822 11.279l-4.21-11.297a.214.214 0 00-.202-.138h-4.178zm53.124.282a.212.212 0 01.202-.283h4.177c.09 0 .17.056.201.139l4.211 11.296c1.366-3.353 2.544-6.833 3.823-11.278a.216.216 0 01.207-.157h4.142c.146 0 .248.145.203.282-3.32 10.398-5.748 16.303-9.048 22.965a.216.216 0 01-.192.117h-4.459a.215.215 0 01-.19-.312 208.103 208.103 0 002.991-5.952l-6.268-16.817zm45.429-.283h4.123c.12 0 .215.094.21.213v15.694a.215.215 0 01-.146.209c-1.911.723-5.132 1.45-8.019 1.45-4.943 0-6.945-2.144-7.043-7.62-.005-.012-.005-9.707-.005-9.707v-.026c0-.12.095-.213.215-.213h4.123c.12 0 .215.094.215.213v9.64c.094 2.91.82 3.608 3.32 3.608 1.005 0 1.899-.12 2.792-.366V17.744c0-.12.094-.213.215-.213z" fill="#EE2F53"/></svg>