<svg width="41" height="40" viewBox="0 0 41 40" fill="none" xmlns="http://www.w3.org/2000/svg">
<path d="M8.625 36H13.625M26.625 15L26.625 12.0711C26.6265 11.7753 26.5518 11.4838 26.4077 11.223C26.2637 10.9623 26.0548 10.7405 25.8 10.5778L15.625 4L5.45002 10.5778C5.19523 10.7405 4.98635 10.9623 4.84229 11.223C4.69823 11.4838 4.62355 11.7753 4.62502 12.0711V36H26.625L26.625 31M8.625 15V21H13.625V15H8.625ZM8.625 25.5V31.5H13.625V25.5H8.625Z" stroke="#C79569" stroke-width="1.5" stroke-linecap="round" stroke-linejoin="round"/>
<path d="M22.625 19V15H17.625V21H21.625" stroke="#C79569" stroke-width="1.5" stroke-linecap="round" stroke-linejoin="round"/>
<circle cx="29.625" cy="23" r="8" stroke="#EE5238" stroke-width="1.5"/>
<circle cx="29.625" cy="23" r="5" stroke="#EE5238" stroke-width="1.5"/>
</svg>
