<svg width="36" height="36" viewBox="0 0 36 36" fill="none" xmlns="http://www.w3.org/2000/svg">
<path d="M28.5004 22.3617C27.5456 22.3617 26.6299 22.0408 25.9548 21.4695C25.2797 20.8983 24.9004 20.1235 24.9004 19.3156V14.7463C24.9004 13.9385 25.2797 13.1637 25.9548 12.5924C26.6299 12.0211 27.5456 11.7002 28.5004 11.7002C29.4552 11.7002 30.3708 12.0211 31.046 12.5924C31.7211 13.1637 32.1004 13.9385 32.1004 14.7463V19.3156C32.1004 20.1235 31.7211 20.8983 31.046 21.4695C30.3708 22.0408 29.4552 22.3617 28.5004 22.3617ZM28.5004 22.3617V31.5002M28.5004 22.3617V18.9002" stroke="#EE5238" stroke-width="1.5" stroke-linecap="round" stroke-linejoin="round"/>
<path d="M4.49995 31.5H31.4999M11.9999 13.5V31.5M11.9999 13.5L14.2499 11.25M11.9999 13.5L10.5001 12.0001M19.4999 12.75C19.5009 11.7317 19.2048 10.7352 18.6479 9.88267C18.0911 9.03011 17.2977 8.35846 16.3649 7.94997C16.1211 6.97695 15.5591 6.11331 14.7683 5.49621C13.9774 4.87911 13.0031 4.54395 11.9999 4.54395C10.9968 4.54395 10.0225 4.87911 9.23163 5.49621C8.44079 6.11331 7.87881 6.97695 7.63495 7.94997C6.70018 8.35685 5.90455 9.02782 5.34574 9.88051C4.78693 10.7332 4.48926 11.7305 4.48926 12.75C4.48926 13.7695 4.78693 14.7668 5.34574 15.6194C5.90455 16.4721 6.70018 17.1431 7.63495 17.55C7.87881 18.523 8.44079 19.3866 9.23163 20.0037C10.0225 20.6208 10.9968 20.956 11.9999 20.956C13.0031 20.956 13.9774 20.6208 14.7683 20.0037C15.5591 19.3866 16.1211 18.523 16.3649 17.55C17.2977 17.1415 18.0911 16.4698 18.6479 15.6173C19.2048 14.7647 19.5009 13.7683 19.4999 12.75Z" stroke="#C79569" stroke-width="1.5" stroke-linecap="round" stroke-linejoin="round"/>
</svg>
