<svg width="37" height="36" viewBox="0 0 37 36" fill="none" xmlns="http://www.w3.org/2000/svg">
<path d="M13.6023 11.3794C18.3305 11.3794 22.1635 10.0597 22.1635 8.43187C22.1635 6.80402 18.3305 5.48438 13.6023 5.48438C8.87402 5.48438 5.04102 6.80402 5.04102 8.43187C5.04102 10.0597 8.87402 11.3794 13.6023 11.3794Z" stroke="#EE5238" stroke-width="1.5" stroke-linecap="round"/>
<path d="M22.1691 12.2623C22.1691 13.8879 18.3329 15.2098 13.6023 15.2098C8.87164 15.2098 5.04102 13.8879 5.04102 12.2623M16.0266 18.8041H13.6023C8.87164 18.8041 5.04102 17.4823 5.04102 15.8566M14.6373 22.4998H13.6023C8.87164 22.4998 5.04102 21.1835 5.04102 19.5523M15.0816 26.1729C14.5898 26.2168 14.0958 26.2318 13.6023 26.2179C8.87164 26.2179 5.04102 24.896 5.04102 23.2704M5.04102 23.2985V8.44289M22.1691 16.8804V8.43164" stroke="#EE5238" stroke-width="1.5" stroke-linecap="round"/>
<path d="M23.6482 23.0962C28.3764 23.0962 32.2094 21.7765 32.2094 20.1487C32.2094 18.5208 28.3764 17.2012 23.6482 17.2012C18.9199 17.2012 15.0869 18.5208 15.0869 20.1487C15.0869 21.7765 18.9199 23.0962 23.6482 23.0962Z" stroke="#EE5238" stroke-width="1.5" stroke-linecap="round"/>
<path d="M32.2092 23.9791C32.2092 25.6103 28.3786 26.9266 23.6479 26.9266C18.9173 26.9266 15.0811 25.6103 15.0811 23.9791M32.2092 27.5622C32.2092 29.1934 28.3786 30.5153 23.6479 30.5153C18.9173 30.5153 15.0811 29.1991 15.0811 27.5622M15.0811 27.5172V19.7266M32.2092 27.6803V20.0472" stroke="#EE5238" stroke-width="1.5" stroke-linecap="round"/>
</svg>
