<svg width="18" height="18" viewBox="0 0 18 18" fill="none" xmlns="http://www.w3.org/2000/svg">
<path d="M16.0802 8.28768L9.18772 15.1802C8.34333 16.0246 7.19811 16.4989 6.00397 16.4989C4.80983 16.4989 3.6646 16.0246 2.82022 15.1802C1.97583 14.3358 1.50146 13.1906 1.50146 11.9964C1.50146 10.8023 1.97583 9.65707 2.82022 8.81268L9.71272 1.92018C10.2756 1.35726 11.0391 1.04102 11.8352 1.04102C12.6313 1.04102 13.3948 1.35726 13.9577 1.92018C14.5206 2.48311 14.8369 3.24659 14.8369 4.04268C14.8369 4.83878 14.5206 5.60226 13.9577 6.16518L7.05772 13.0577C6.77626 13.3391 6.39451 13.4973 5.99647 13.4973C5.59842 13.4973 5.21668 13.3391 4.93522 13.0577C4.65376 12.7762 4.49563 12.3945 4.49563 11.9964C4.49563 11.5984 4.65376 11.2166 4.93522 10.9352L11.3027 4.57518" stroke="#EE5238" stroke-linecap="round" stroke-linejoin="round"/>
</svg>
