<?xml version="1.0" encoding="utf-8"?><svg xmlns="http://www.w3.org/2000/svg" xmlns:xlink="http://www.w3.org/1999/xlink"><symbol viewBox="0 0 33 32" id="about-arctic" xmlns="http://www.w3.org/2000/svg"><path d="M16.625 4v9.333V4zm12 12h-9.333 9.333zm-12 12v-9.333V28zm-12-12h9.333-9.333zm9.333 0a2.667 2.667 0 105.334 0 2.667 2.667 0 00-5.334 0zM20.625 6.667l-4 2.666-4-2.667M25.959 12l-2.667 4 2.667 4M20.625 25.333l-4-2.666-4 2.666M7.292 20l2.667-4-2.667-4" stroke-width="2" stroke-linecap="round" stroke-linejoin="round"/></symbol><symbol viewBox="0 0 33 32" id="about-business" xmlns="http://www.w3.org/2000/svg"><path d="M17.708 6.667h4A1.333 1.333 0 0123.041 8v5.333M9.708 6.667h-4A1.333 1.333 0 004.375 8v18.666A1.333 1.333 0 005.708 28h16a1.333 1.333 0 001.334-1.334v-5.333" stroke-width="2" stroke-linecap="round" stroke-linejoin="round"/><path d="M17.708 5.333A1.334 1.334 0 0016.375 4H11.04a1.333 1.333 0 00-1.333 1.333v4h8v-4zm10.28 8.92l-1.867-1.866a1.333 1.333 0 00-1.866 0l-6.547 6.546v3.734h3.733l6.547-6.547a1.333 1.333 0 000-1.867v0z" stroke-width="2" stroke-linecap="round" stroke-linejoin="round"/></symbol><symbol viewBox="0 0 33 32" id="about-consult" xmlns="http://www.w3.org/2000/svg"><path d="M18.791 2.667H8.125a2.667 2.667 0 00-2.667 2.666v21.334a2.667 2.667 0 002.667 2.666h16a2.667 2.667 0 002.666-2.666v-16l-8-8z" stroke-width="2" stroke-linecap="round" stroke-linejoin="round"/><path d="M18.792 2.667v8h8M21.459 17.334H10.792M21.459 22.666H10.792M13.459 12h-2.667" stroke-width="2" stroke-linecap="round" stroke-linejoin="round"/></symbol><symbol viewBox="0 0 33 32" id="about-coworking" xmlns="http://www.w3.org/2000/svg"><g clip-path="url(#adclip0_61_1928)" stroke-width="2" stroke-linecap="round" stroke-linejoin="round"><path d="M23.041 28v-2.667A5.333 5.333 0 0017.708 20H7.041a5.333 5.333 0 00-5.333 5.333V28M12.375 14.667a5.333 5.333 0 100-10.667 5.333 5.333 0 000 10.667zM31.042 28v-2.667a5.333 5.333 0 00-4-5.16M21.708 4.173a5.333 5.333 0 010 10.334"/></g><defs><clipPath id="adclip0_61_1928"><path transform="translate(.375)" d="M0 0h32v32H0z"/></clipPath></defs></symbol><symbol viewBox="0 0 33 32" id="about-ecp" xmlns="http://www.w3.org/2000/svg"><path d="M12.286 6.667h-4A1.333 1.333 0 006.951 8v18.666A1.333 1.333 0 008.285 28h16a1.333 1.333 0 001.334-1.334V8a1.334 1.334 0 00-1.334-1.333h-4" stroke-width="2" stroke-linecap="round" stroke-linejoin="round"/><path d="M12.285 18.667l2.667 2.666L20.285 16m0-10.667A1.333 1.333 0 0018.952 4h-5.334a1.333 1.333 0 00-1.333 1.333v4h8v-4z" stroke-width="2" stroke-linecap="round" stroke-linejoin="round"/></symbol><symbol viewBox="0 0 33 32" id="about-events" xmlns="http://www.w3.org/2000/svg"><path d="M26.208 5.333H7.542A2.667 2.667 0 004.875 8v18.667a2.667 2.667 0 002.667 2.666h18.666a2.667 2.667 0 002.667-2.666V8a2.667 2.667 0 00-2.667-2.667zM22.208 2.667V8M11.542 2.667V8M4.875 13.334h24" stroke-width="2" stroke-linecap="round" stroke-linejoin="round"/></symbol><symbol viewBox="0 0 33 32" id="about-finance" xmlns="http://www.w3.org/2000/svg"><path d="M23.225 20h.133M28.625 13.333v13.334A1.334 1.334 0 0127.292 28H5.958a1.334 1.334 0 01-1.333-1.333V13.333A1.333 1.333 0 015.958 12h21.334a1.334 1.334 0 011.333 1.333zM23.572 12l2.386-3.413L19.412 4l-5.614 8h9.774zM12.745 4l-5.613 8h6.666l3.414-4.867L12.745 4z" stroke-width="2" stroke-linecap="round" stroke-linejoin="round"/></symbol><symbol viewBox="0 0 32 32" id="about-grant" xmlns="http://www.w3.org/2000/svg"><path d="M16 3c1.8 0 3.561.538 5.058 1.547a9.162 9.162 0 013.354 4.118c.689 1.677.87 3.522.518 5.302a9.199 9.199 0 01-2.492 4.698 9.083 9.083 0 01-4.662 2.512 9.038 9.038 0 01-5.26-.523 9.12 9.12 0 01-4.086-3.38 9.228 9.228 0 01-1.535-5.098c0-2.433.96-4.767 2.667-6.488A9.069 9.069 0 0116 3v0zm-.94 8.259l-2.095.29 1.518 1.362-.365 1.942L16 13.935l1.882.918-.365-1.942 1.518-1.362-2.094-.29L16 9.5l-.94 1.759zm7.435 7.341a9.082 9.082 0 01-4.978 2.63L20.552 29l2.276-1.912L26 27.41 22.495 18.6zM6 27.47l3.171-.32L11.448 29l3.034-7.77a9.081 9.081 0 01-4.977-2.63L6 27.47z" stroke-width="2" stroke-linecap="round" stroke-linejoin="round"/></symbol><symbol viewBox="0 0 33 32" id="about-lizing" xmlns="http://www.w3.org/2000/svg"><path d="M12.857 20l8-8-8 8zm14.96-7.56c-.4-1.214-.133-2.774-.867-3.774-.733-1-2.306-1.253-3.32-2-1.013-.746-1.706-2.146-2.92-2.533-1.213-.387-2.52.347-3.853.347-1.333 0-2.667-.734-3.853-.347-1.187.387-1.907 1.813-2.92 2.533-1.014.72-2.56.974-3.32 2-.76 1.027-.467 2.56-.867 3.774-.4 1.213-1.52 2.226-1.52 3.56 0 1.333 1.147 2.386 1.52 3.56.373 1.173.133 2.773.867 3.773.733 1 2.306 1.253 3.32 1.987 1.013.733 1.706 2.16 2.92 2.546 1.213.387 2.52-.346 3.853-.346 1.333 0 2.667.733 3.853.346 1.187-.386 1.907-1.813 2.92-2.546 1.014-.734 2.587-.96 3.32-1.987.734-1.027.467-2.56.867-3.773.4-1.214 1.52-2.227 1.52-3.56 0-1.334-1.147-2.387-1.52-3.56zM13.457 12.666h.133M20.124 19.334h.133" stroke-width="2" stroke-linecap="round" stroke-linejoin="round"/></symbol><symbol viewBox="0 0 33 32" id="about-lock" xmlns="http://www.w3.org/2000/svg"><path d="M21.905 12V9.333a5.334 5.334 0 00-10.667 0V12m13.334 16h-16a1.333 1.333 0 01-1.334-1.333V13.333A1.333 1.333 0 018.572 12h16a1.333 1.333 0 011.333 1.333v13.334A1.333 1.333 0 0124.572 28z" stroke-width="2" stroke-linecap="round" stroke-linejoin="round"/></symbol><symbol viewBox="0 0 33 32" id="about-projects" xmlns="http://www.w3.org/2000/svg"><path d="M23.542 22.667v4A1.333 1.333 0 0122.208 28h-16a1.334 1.334 0 01-1.333-1.333V5.333A1.333 1.333 0 016.208 4h16" stroke-width="2" stroke-linecap="round" stroke-linejoin="round"/><path d="M10.208 22.667V16v6.667zm5.333 0V20v2.667zM28.875 20L25.1 16.227 28.875 20zm-10.667-6.666a4 4 0 108 0 4 4 0 00-8 0z" stroke-width="2" stroke-linecap="round" stroke-linejoin="round"/></symbol><symbol viewBox="0 0 33 32" id="about-refund" xmlns="http://www.w3.org/2000/svg"><path d="M19.38 4h-12a1.333 1.333 0 00-1.333 1.333V28l3.12-1.333L12.274 28l3.106-1.333L18.487 28l3.107-1.333L24.713 28v-4M16.38 20h-5.333m5.333-5h-5.333" stroke-width="2" stroke-linecap="round" stroke-linejoin="round"/><path d="M25.667 5a1 1 0 10-2 0h2zm-2 12.5a1 1 0 102 0h-2zM22.5 13.9a1 1 0 100 2v-2zm4.723 2a1 1 0 100-2v2zM22.5 5.233a1 1 0 100 2v-2zm0 5.2a1 1 0 100 2v-2zM23.667 5v9.9h2V5h-2zm0 9.9v2.6h2v-2.6h-2zm-1.167 1h2.167v-2H22.5v2zm2.167 0h2.555v-2h-2.555v2zM29 8.833c0 .86-.722 1.6-1.666 1.6v2c2 0 3.666-1.588 3.666-3.6h-2zm-1.666-1.6c.944 0 1.666.74 1.666 1.6h2c0-2.012-1.665-3.6-3.666-3.6v2zm0-2H22.5v2h4.834v-2zm0 6.2v-1h-.006-.001-.001-.001-.004-.001-.001-.002-.001-.002-.001-.002-.002-.001-.002-.002-.002-.002-.002-.002-.002-.005-.002-.002-.003-.002-.003-.005H27.258h-.003-.016-.01-.007-.011H22.5v2H27.333v-1z"/></symbol><symbol viewBox="0 0 33 32" id="about-social" xmlns="http://www.w3.org/2000/svg"><path d="M26.565 19.186l-.96 7.64A1.333 1.333 0 0124.272 28H7.965a1.334 1.334 0 01-1.333-1.174l-.96-7.64" stroke-width="2" stroke-linecap="round" stroke-linejoin="round"/><path d="M27.218 18.973l-6.04 2.014a16 16 0 01-10.107 0l-6.04-2.014a1.333 1.333 0 01-.906-1.333V9.333h24v8.374a1.334 1.334 0 01-.907 1.266zM14.791 16h2.667-2.666zm8-8a4 4 0 00-4-4h-5.333a4 4 0 00-4 4v1.333h13.333V8z" stroke-width="2" stroke-linecap="round" stroke-linejoin="round"/></symbol><symbol viewBox="0 0 24 24" id="account" xmlns="http://www.w3.org/2000/svg"><path d="M17 8A5 5 0 117 8a5 5 0 0110 0zm-8 5a5 5 0 00-5 5v1s2 2 8 2 8-2 8-2v-1a5 5 0 00-5-5H9z" stroke-width="2" stroke-linecap="round" stroke-linejoin="round"/></symbol><symbol viewBox="0 0 24 24" id="add" xmlns="http://www.w3.org/2000/svg"><path d="M12 5v14m-7-7h14H5z" stroke-width="1.5" stroke-linecap="round" stroke-linejoin="round"/></symbol><symbol viewBox="0 0 24 24" id="arrow-back" xmlns="http://www.w3.org/2000/svg"><path d="M14 17l-5-5 5-5" stroke-width="2" stroke-linecap="round" stroke-linejoin="round"/></symbol><symbol viewBox="0 0 24 24" id="arrow-right" xmlns="http://www.w3.org/2000/svg"><path d="M10 17l5-5-5-5" stroke-width="2" stroke-linecap="round" stroke-linejoin="round"/></symbol><symbol viewBox="0 0 20 20" id="arrow-top" xmlns="http://www.w3.org/2000/svg"><path d="M15.834 7.5V4.167H12.5M4.167 15.833L15.834 4.167 4.167 15.833z" stroke-width="2" stroke-linecap="round" stroke-linejoin="round"/></symbol><symbol viewBox="0 0 18 18" id="cross" xmlns="http://www.w3.org/2000/svg"><path d="M13.5 4.5l-9 9M4.5 4.5l9 9" stroke-width="1.5" stroke-linecap="round" stroke-linejoin="round"/></symbol><symbol viewBox="0 0 24 24" id="drop-down" xmlns="http://www.w3.org/2000/svg"><path d="M7 10l5 5 5-5" stroke-width="2" stroke-linecap="round" stroke-linejoin="round"/></symbol><symbol viewBox="0 0 122.88 88.86" id="email-icon" xmlns="http://www.w3.org/2000/svg"><path d="M7.05 0h108.78a7.07 7.07 0 017 7.05v74.76a7 7 0 01-1.22 4 2.78 2.78 0 01-.66 1 2.62 2.62 0 01-.66.46 7 7 0 01-4.51 1.65H7.05a7.07 7.07 0 01-7-7V7.05a7.07 7.07 0 017-7.05zm-.3 78.84l36.78-38.22L6.75 9.54v69.3zm42.32-33.45L9.77 83.45h103L75.22 45.39l-11 9.21a2.7 2.7 0 01-3.45 0l-11.7-9.21zm31.6-4.84l35.46 38.6V9.2L80.67 40.55zM10.21 5.41L62.39 47.7l49.88-42.29z"/></symbol><symbol viewBox="0 0 90 170" id="fb" xmlns="http://www.w3.org/2000/svg"><path d="M23.41 170.797c-.38-.38-.69-19.515-.69-42.523V86.441h-7.3c-4.344 0-7.786-.486-8.5-1.2-1.659-1.66-1.659-24.941 0-26.6.714-.714 4.156-1.2 8.5-1.2h7.3V45.124c0-20.585 2.263-28.224 10.514-35.486 7.422-6.534 11.259-7.466 32.764-7.957l18.777-.429-.277 14.845-.278 14.844-10.475.287c-14.579.4-15.025.857-15.025 15.387v10.826h12.532c10.407 0 12.632.263 13.127 1.553.746 1.944-1.607 23.325-2.828 25.697-.774 1.504-2.428 1.75-11.759 1.75-9.13 0-10.958.26-11.486 1.636-.345.9-.598 19.912-.562 42.25l.066 40.614-16.856.272c-9.27.15-17.165-.037-17.544-.416z"/></symbol><symbol viewBox="0 0 18 18" id="icon-accept" xmlns="http://www.w3.org/2000/svg"><path d="M9 15.75a6.75 6.75 0 100-13.5 6.75 6.75 0 000 13.5z" stroke-width="1.5" stroke-linecap="round" stroke-linejoin="round"/><path d="M6 9l2.25 2.25L12 7.5" stroke-width="1.5" stroke-linecap="round" stroke-linejoin="round"/></symbol><symbol viewBox="0 0 7 12" id="icon-arrow-slider" xmlns="http://www.w3.org/2000/svg"><path d="M5.667 10.166L1.5 6l4.167-4.167" stroke-width="2" stroke-linecap="round" stroke-linejoin="round"/></symbol><symbol viewBox="0 0 18 18" id="icon-attach" xmlns="http://www.w3.org/2000/svg"><path d="M16.08 8.288L9.188 15.18A4.502 4.502 0 012.82 8.813L9.713 1.92a3.002 3.002 0 114.245 4.245l-6.9 6.893a1.501 1.501 0 01-2.123-2.123l6.368-6.36"/></symbol><symbol viewBox="0 0 18 18" id="icon-attantion" xmlns="http://www.w3.org/2000/svg"><path d="M9 6.75v3-3zM7.687 3.143L1.972 13.5a1.5 1.5 0 001.313 2.25h11.43a1.5 1.5 0 001.313-2.25L10.313 3.144a1.5 1.5 0 00-2.626 0zM9.038 12.75h-.075" stroke-width="1.5" stroke-linecap="round" stroke-linejoin="round"/></symbol><symbol viewBox="0 0 24 24" id="icon-back" xmlns="http://www.w3.org/2000/svg"><path d="M14.5 6.5l-5 5 5 5" stroke-width="2" stroke-linecap="round" stroke-linejoin="round"/></symbol><symbol viewBox="0 0 24 24" id="icon-case" xmlns="http://www.w3.org/2000/svg"><path d="M20 7H4a2 2 0 00-2 2v10a2 2 0 002 2h16a2 2 0 002-2V9a2 2 0 00-2-2z"/><path d="M16 10V5a2 2 0 00-2-2h-4a2 2 0 00-2 2v5"/></symbol><symbol viewBox="0 0 18 18" id="icon-clock" xmlns="http://www.w3.org/2000/svg"><path d="M9 15.75a6.75 6.75 0 100-13.5 6.75 6.75 0 000 13.5z" stroke-width="1.5" stroke-linecap="round" stroke-linejoin="round"/><path d="M9 5.25V9l1.5 2.25" stroke-width="1.5" stroke-linecap="round" stroke-linejoin="round"/></symbol><symbol viewBox="0 0 37 36" id="icon-compensation" xmlns="http://www.w3.org/2000/svg"><path d="M13.602 11.38c4.729 0 8.561-1.32 8.561-2.948s-3.832-2.948-8.56-2.948c-4.729 0-8.562 1.32-8.562 2.948s3.833 2.947 8.561 2.947zM22.17 12.262c0 1.626-3.837 2.948-8.568 2.948-4.73 0-8.561-1.322-8.561-2.948m10.986 6.542h-2.425c-4.73 0-8.561-1.322-8.561-2.947m9.596 6.643h-1.035c-4.73 0-8.561-1.317-8.561-2.948m10.04 6.62c-.491.045-.985.06-1.479.046-4.73 0-8.561-1.322-8.561-2.948m0 .029V8.443m17.128 8.437V8.432" stroke-width="1.5" stroke-linecap="round"/><path d="M23.648 23.096c4.728 0 8.561-1.32 8.561-2.947 0-1.628-3.833-2.948-8.56-2.948-4.73 0-8.562 1.32-8.562 2.948 0 1.627 3.833 2.947 8.561 2.947zM32.21 23.98c0 1.63-3.831 2.947-8.562 2.947-4.73 0-8.567-1.317-8.567-2.948m17.128 3.583c0 1.631-3.83 2.953-8.561 2.953-4.73 0-8.567-1.316-8.567-2.953m0-.045v-7.79M32.21 27.68v-7.633" stroke-width="1.5" stroke-linecap="round"/></symbol><symbol viewBox="0 0 20 20" id="icon-delete" xmlns="http://www.w3.org/2000/svg"><g opacity=".3"><path d="M15 5L5 15M15 15L5 5"/></g></symbol><symbol viewBox="0 0 22 22" id="icon-doc" xmlns="http://www.w3.org/2000/svg"><path d="M12.833 1.833H5.5a1.833 1.833 0 00-1.833 1.834v14.666A1.834 1.834 0 005.5 20.168h11a1.833 1.833 0 001.833-1.834v-11l-5.5-5.5z"/><path d="M12.833 1.833v5.5h5.5M14.667 11.916H7.333M14.667 15.584H7.333M9.167 8.25H7.333"/></symbol><symbol viewBox="0 0 18.889 18.889" id="icon-doc-2" xmlns="http://www.w3.org/2000/svg"><path d="M4.495 3.444h10.048V5.19H4.495zM4.495 6.829h10.048v1.809H4.495zM4.495 10.049h10.048v1.809H4.495zM4.495 13.467h10.048v1.809H4.495z"/><path d="M17.165 0H1.485v18.889h15.919V0h-.239zm-1.23 17.261H3.027V1.711h12.908v15.55z"/></symbol><symbol viewBox="0 0 28 28" id="icon-dzen" xmlns="http://www.w3.org/2000/svg"><path d="M16.7 16.7c-2.2 2.27-2.36 5.1-2.55 11.3 5.78 0 9.77-.02 11.83-2.02 2-2.06 2.02-6.24 2.02-11.83-6.2.2-9.03.35-11.3 2.55M0 14.15c0 5.59.02 9.77 2.02 11.83 2.06 2 6.05 2.02 11.83 2.02-.2-6.2-.35-9.03-2.55-11.3-2.27-2.2-5.1-2.36-11.3-2.55M13.85 0C8.08 0 4.08.02 2.02 2.02.02 4.08 0 8.26 0 13.85c6.2-.2 9.03-.35 11.3-2.55 2.2-2.27 2.36-5.1 2.55-11.3m2.85 11.3C14.5 9.03 14.34 6.2 14.15 0c5.78 0 9.77.02 11.83 2.02 2 2.06 2.02 6.24 2.02 11.83-6.2-.2-9.03-.35-11.3-2.55"/></symbol><symbol viewBox="0 0 18 18" id="icon-error" xmlns="http://www.w3.org/2000/svg"><path d="M9 16.5a7.5 7.5 0 100-15 7.5 7.5 0 000 15zM11.25 6.75l-4.5 4.5M6.75 6.75l4.5 4.5" stroke-width="1.5" stroke-linecap="round" stroke-linejoin="round"/></symbol><symbol viewBox="0 0 100 100" id="icon-error-index" xmlns="http://www.w3.org/2000/svg"><path d="M50 97c25.957 0 47-21.043 47-47S75.957 3 50 3 3 24.043 3 50s21.043 47 47 47z" stroke-width="6"/><path d="M37 37l26 26m0-26L37 63" stroke-width="6" stroke-linecap="round"/></symbol><symbol viewBox="0 0 130 36" id="icon-gos" xmlns="http://www.w3.org/2000/svg"><path d="M44.062 21.18a.162.162 0 00-.082-.087.174.174 0 00-.122-.006c-.684.25-1.82.455-2.714.455-1.958 0-2.89-.522-2.89-3.488 0-2.371.286-3.488 2.89-3.488.738 0 1.63.105 2.502.355.07.02.147-.011.18-.075.241-.526.592-1.375.85-2l.102-.246a.15.15 0 00.003-.128.16.16 0 00-.098-.088 12.975 12.975 0 00-3.743-.572c-4.101 0-5.928 1.91-5.928 6.198 0 4.349 1.827 6.288 5.928 6.288 1.027 0 3.052-.213 4.03-.598a.155.155 0 00.088-.195l-.996-2.325zM12.344 12.285c0-.082.066-.148.149-.148h8.42c.106 0 .177.108.136.205l-1.043 2.48a.145.145 0 01-.15.09h-4.359v8.914a.148.148 0 01-.148.148h-2.857a.148.148 0 01-.148-.148V12.285z"/><path fill-rule="evenodd" clip-rule="evenodd" d="M21.756 18.01c0-4.46 1.56-6.198 5.57-6.198 4.041 0 5.617 1.738 5.617 6.198 0 4.527-1.576 6.288-5.617 6.288-4.01 0-5.57-1.76-5.57-6.288zm3.174.044c0 3.144.57 3.646 2.396 3.646 1.861 0 2.442-.502 2.442-3.646 0-3.348-.633-3.646-2.442-3.646-1.774 0-2.396.298-2.396 3.646z"/><path d="M68.054 21.18a.16.16 0 00-.082-.087.174.174 0 00-.121-.006c-.685.25-1.82.455-2.715.455-1.958 0-2.89-.522-2.89-3.488 0-2.371.286-3.488 2.89-3.488.738 0 1.631.105 2.502.355.07.02.147-.011.18-.075.242-.526.593-1.375.85-2l.102-.246c.02-.04.02-.088.003-.128a.16.16 0 00-.097-.088 12.974 12.974 0 00-3.744-.572c-4.1 0-5.928 1.91-5.928 6.198 0 4.349 1.827 6.288 5.928 6.288 1.027 0 3.053-.213 4.03-.598a.155.155 0 00.088-.195l-.996-2.325zM70.554 23.974h2.933a.148.148 0 00.14-.1 41.423 41.423 0 001.191-4.741c.291-1.492.47-2.906.575-4.221h2.867v8.914c0 .081.066.148.148.148h2.857a.148.148 0 00.148-.148V12.285a.148.148 0 00-.148-.148h-8.717a.147.147 0 00-.149.142 48.764 48.764 0 01-.633 5.897c-.354 2.078-.865 3.953-1.355 5.609a.149.149 0 00.143.189zM97.133 12.137a.148.148 0 00-.149.148v11.54c0 .082.067.149.15.149h2.855a.148.148 0 00.149-.148v-8.914h4.359a.144.144 0 00.15-.09l1.043-2.48a.147.147 0 00-.136-.205h-8.42zM46.429 12.137c-.103 0-.175.101-.14.196l4.34 11.642a145.478 145.478 0 01-2.07 4.12.148.148 0 00.13.218h3.088a.15.15 0 00.133-.082c2.284-4.612 3.965-8.7 6.264-15.899a.149.149 0 00-.141-.195h-2.868a.15.15 0 00-.143.108c-.885 3.078-1.7 5.487-2.646 7.809l-2.916-7.821a.148.148 0 00-.14-.096H46.43zM83.206 12.333a.146.146 0 01.14-.196h2.892c.062 0 .118.038.14.096l2.914 7.82c.946-2.321 1.762-4.73 2.647-7.808a.15.15 0 01.143-.108h2.868c.1 0 .172.1.14.195-2.298 7.2-3.979 11.287-6.263 15.9a.15.15 0 01-.133.08h-3.087a.148.148 0 01-.132-.216 144.943 144.943 0 002.07-4.12l-4.339-11.643zM114.657 12.137h2.854c.084 0 .149.065.146.147V23.15a.15.15 0 01-.101.144c-1.323.5-3.553 1.004-5.552 1.004-3.422 0-4.808-1.484-4.876-5.275-.003-.009-.003-6.72-.003-6.72v-.019c0-.082.065-.147.149-.147h2.854c.083 0 .149.065.149.147v6.674c.065 2.015.568 2.498 2.298 2.498.696 0 1.315-.082 1.933-.253v-8.918c0-.083.065-.148.149-.148z"/></symbol><symbol viewBox="0 0 22 22" id="icon-image" xmlns="http://www.w3.org/2000/svg"><path d="M4.583 2.75h12.834c1.012 0 1.833.82 1.833 1.833v12.834c0 1.012-.82 1.833-1.833 1.833H4.583a1.833 1.833 0 01-1.833-1.833V4.583c0-1.012.82-1.833 1.833-1.833z"/><path d="M14.209 9.166a1.375 1.375 0 110-2.75 1.375 1.375 0 010 2.75zM2.75 13.75l4.583-4.584L17.417 19.25"/></symbol><symbol viewBox="0 0 24 24" id="icon-left-arrow" xmlns="http://www.w3.org/2000/svg"><path d="M14.5 17.5l-5-5 5-5" stroke-width="2" stroke-linecap="round" stroke-linejoin="round"/></symbol><symbol viewBox="0 0 24 24" id="icon-list" xmlns="http://www.w3.org/2000/svg"><path d="M14 2H6a2 2 0 00-2 2v16a2 2 0 002 2h12a2 2 0 002-2V8l-6-6z"/><path d="M14 2v6h6M16 13H8M16 17H8M10 9H8"/></symbol><symbol viewBox="0 0 24 24" id="icon-loan-simple" xmlns="http://www.w3.org/2000/svg"><path d="M16.95 15h.1M21 10v10a1 1 0 01-1 1H4a1 1 0 01-1-1V10a1 1 0 011-1h16a1 1 0 011 1zm-3.79-1L19 6.44 14.09 3 9.88 9h7.33zM9.09 3L4.88 9h5l2.56-3.65L9.09 3z" stroke-width="2" stroke-linecap="round" stroke-linejoin="round"/></symbol><symbol viewBox="0 0 474 474" id="icon-mail" xmlns="http://www.w3.org/2000/svg"><path d="M437.5 59.3h-401C16.4 59.3 0 75.7 0 95.8v282.4c0 20.1 16.4 36.5 36.5 36.5h401c20.1 0 36.5-16.4 36.5-36.5V95.8c0-20.1-16.4-36.5-36.5-36.5zm-5.3 27L239.5 251.1 46.8 86.3h385.4zM447 378.2c0 5.2-4.3 9.5-9.5 9.5h-401c-5.2 0-9.5-4.3-9.5-9.5V104.9l203.7 174.2c.1.1.3.2.4.3.1.1.3.2.4.3.3.2.5.4.8.5.1.1.2.1.3.2l1.2.6c.1 0 .2.1.3.1.3.1.6.3 1 .4.1 0 .3.1.4.1.3.1.6.2.9.2.1 0 .3.1.4.1.3.1.7.1 1 .2h.3c.4 0 .9.1 1.3.1s.9 0 1.3-.1h.3c.3 0 .7-.1 1-.2.1 0 .3-.1.4-.1.3-.1.6-.2.9-.2.1 0 .3-.1.4-.1.3-.1.6-.2 1-.4.1 0 .2-.1.3-.1l1.2-.6c.1-.1.2-.1.3-.2.3-.2.5-.3.8-.5.1-.1.3-.2.4-.3.1-.1.3-.2.4-.3L447 109.2v269z"/></symbol><symbol viewBox="0 0 12 19" id="icon-ok" xmlns="http://www.w3.org/2000/svg"><path d="M5.806.063C3.146.063.988 2.23.988 4.904c0 2.675 2.157 4.843 4.818 4.843 2.661 0 4.818-2.168 4.818-4.843 0-2.674-2.157-4.843-4.818-4.843zm0 6.844c-1.1 0-1.991-.896-1.991-2.002 0-1.105.891-2.002 1.991-2.002s1.992.897 1.992 2.002a1.997 1.997 0 01-1.992 2.002zm1.702 6.694c1.928-.395 3.084-1.313 3.145-1.362a1.321 1.321 0 00.203-1.851 1.305 1.305 0 00-1.842-.204c-.012.01-1.244.96-3.273.962-2.028-.002-3.287-.952-3.299-.962a1.305 1.305 0 00-1.841.204 1.321 1.321 0 00.202 1.85c.062.05 1.266.993 3.248 1.379l-2.763 2.902a1.322 1.322 0 00.034 1.862 1.302 1.302 0 001.852-.034l2.567-2.749 2.827 2.767a1.305 1.305 0 001.852-.001 1.322 1.322 0 00-.001-1.863l-2.911-2.9zm-1.766-2.455c-.005 0 .004 0 0 0-.005 0 .004 0 0 0z"/></symbol><symbol viewBox="0 0 18 18" id="icon-pan" xmlns="http://www.w3.org/2000/svg"><path d="M15 6.18l-9.57 9.57H2.25v-3.18L11.82 3A2.25 2.25 0 0115 3v0a2.25 2.25 0 010 3.18z" stroke-width="1.5" stroke-linecap="round" stroke-linejoin="round"/></symbol><symbol viewBox="0 0 20 20" id="icon-profile" xmlns="http://www.w3.org/2000/svg"><path d="M14.166 6.667a4.166 4.166 0 11-8.332 0 4.166 4.166 0 018.332 0zM7.5 10.833A4.167 4.167 0 003.333 15v.833S5 17.5 10 17.5s6.666-1.667 6.666-1.667V15a4.167 4.167 0 00-4.166-4.167h-5z" stroke-width="1.5" stroke-linecap="round" stroke-linejoin="round"/></symbol><symbol viewBox="0 0 24 24" id="icon-question" xmlns="http://www.w3.org/2000/svg"><path d="M12 13c0-2 3-1 3-4S9 6 9 9m12 3a9 9 0 11-17.999 0A9 9 0 0121 12v0zM12.05 17h-.1" stroke-width="2" stroke-linecap="round" stroke-linejoin="round"/></symbol><symbol viewBox="0 0 18 18" id="icon-red-pan" xmlns="http://www.w3.org/2000/svg"><path d="M7 2.778h4c.265 0 .52.093.707.26a.842.842 0 01.293.629v9.413a.842.842 0 01-.29.622L9 16.112l-2.71-2.41A.842.842 0 016 13.08V3.667c0-.236.105-.462.293-.629.187-.167.442-.26.707-.26v0zM9 16.11V17v-.889zM10 1H8v1.778h2V1z" stroke-width="1.5" stroke-linecap="round" stroke-linejoin="round"/></symbol><symbol fill-rule="evenodd" viewBox="0 0 20 20" id="icon-rutube" xmlns="http://www.w3.org/2000/svg"><path d="M16.405 1.525c.177-.003.354 0 .53.01.298.053.562.175.79.365.455.43.625.954.51 1.575a1.642 1.642 0 01-.975 1.13 1.661 1.661 0 01-1.535-.195c-.478-.373-.693-.865-.645-1.475.02-.123.046-.241.075-.355a.478.478 0 00.055-.135c.065-.13.145-.25.24-.36l.01-.03.145-.145.17-.13c.182-.118.38-.197.595-.235.017-.001.028-.008.035-.02z"/><path d="M.815 4.505c3.827-.003 7.653 0 11.48.01.461.013.915.078 1.36.195.492.167.914.435 1.265.805.036.048.075.095.115.14a.036.036 0 01-.01.015.72.72 0 01.08.08l-.01.01c.01.004.018.009.025.015.036.05.066.103.09.16a.092.092 0 00.025.015c.02.06.049.115.085.165.122.278.212.568.27.87.015.129.034.254.055.375.034.446.047.893.04 1.34.007.456-.006.91-.04 1.365-.038.34-.104.673-.2 1a7.24 7.24 0 01-.125.33.046.046 0 01-.025.025l.01.01c-.05.082-.093.164-.13.245a2.537 2.537 0 01-1.11.925 5.5 5.5 0 01-.98.28.34.34 0 01.075.115c.044.061.092.118.145.17.017.035.035.068.055.1a1.5 1.5 0 00.145.17c.017.035.035.068.055.1.026.024.051.049.075.075l-.01.01c.01.01.023.018.035.025l.1.16c.026.024.051.049.075.075l-.01.01c.075.09.142.18.2.27.01.004.018.009.025.015.033.06.07.116.11.17a.885.885 0 00.075.075l-.01.01c.01.004.018.009.025.015l.04.08c.043.06.091.116.145.165l-.01.01c.025.029.047.06.065.095.043.06.091.116.145.165l-.01.01c.025.029.047.06.065.095l.03.02.17.25c.031.039.064.075.1.11.01.024.021.048.035.07.034.036.066.072.095.11.06.097.126.187.2.27l.17.25c.05.054.094.114.13.18.036.035.069.071.1.11.037.05.07.104.1.16.031.039.064.075.1.11.037.05.07.104.1.16.026.007.037.024.035.05-1.17.003-2.34 0-3.51-.01-.895-1.325-1.791-2.66-2.69-4.005a1749.5 1749.5 0 00-5.93-.005v4.02H.815V4.505zm3.11 2.76c2.6-.005 5.2 0 7.8.015.088.006.174.017.26.035.059.021.119.04.18.055a.65.65 0 01.345.405c.015.09.033.179.055.265-.013.443-.013.887 0 1.33l-.06.285a.588.588 0 01-.48.435c-.14.023-.28.04-.42.05-2.56.005-5.12.007-7.68.005v-2.88z" opacity=".996"/></symbol><symbol viewBox="0 0 50 50" id="icon-succes" xmlns="http://www.w3.org/2000/svg"><circle cx="25" cy="25" r="25"/><path stroke-width="2" stroke-linecap="round" stroke-linejoin="round" stroke-miterlimit="10" d="M38 15L22 33l-10-8"/></symbol><symbol viewBox="0 0 29 26" id="icon-tg" xmlns="http://www.w3.org/2000/svg"><path d="M28.976 2.245c.226-1.496-1.162-2.677-2.46-2.093L.66 11.783c-.93.42-.863 1.864.103 2.179l5.332 1.74c1.017.332 2.12.16 3.008-.47l12.02-8.509c.363-.256.758.272.449.599l-8.653 9.14c-.84.888-.673 2.39.337 3.039l9.687 6.225c1.087.698 2.485-.003 2.688-1.349l3.344-22.132z"/></symbol><symbol viewBox="0 0 512 512" id="icon-tg-2" xmlns="http://www.w3.org/2000/svg"><path d="M470.435 45.423L16.827 221.249c-18.254 8.188-24.428 24.585-4.412 33.484l116.37 37.173 281.368-174.79c15.363-10.973 31.091-8.047 17.557 4.024L186.053 341.075l-7.591 93.076c7.031 14.371 19.905 14.438 28.117 7.295l66.858-63.589 114.505 86.187c26.595 15.826 41.066 5.613 46.788-23.394l75.105-357.47c7.798-35.705-5.5-51.437-39.4-37.757z"/></symbol><symbol viewBox="0 0 24 24" id="icon-user" xmlns="http://www.w3.org/2000/svg"><path d="M17 8A5 5 0 117 8a5 5 0 0110 0zm-8 5a5 5 0 00-5 5v1s2 2 8 2 8-2 8-2v-1a5 5 0 00-5-5H9z"/></symbol><symbol viewBox="0 0 310 170" id="icon-vk" xmlns="http://www.w3.org/2000/svg"><path d="M136.862 168.33c-38.732-6.675-66.574-30.204-100.236-84.707C25.74 65.994 1.184 18.043 1.184 14.41c0-1.455 1.07-3.29 2.635-4.522C6.33 7.914 7.666 7.816 32.07 7.82c23.692.003 25.857.15 28.835 1.967 2.596 1.582 4.857 5.315 11.66 19.246 13.774 28.2 31.154 52.373 39.09 54.364 3.668.921 7.21-2.628 9.015-9.035 3.55-12.597 2.628-44.485-1.523-52.622-1.977-3.875-6.49-7.276-11.221-8.457-1.518-.379-3.02-1.109-3.336-1.622-.997-1.613 2.463-5.737 6.57-7.832 3.68-1.878 5.858-2.013 32.337-2.013 27.9 0 28.451.04 31.79 2.281 5.211 3.499 5.726 7.084 5.818 40.509.074 27.011.232 29.588 2.038 33.126 3.514 6.89 8.252 6.97 14.97.252 11.308-11.309 23.905-31.269 33.728-53.444 2.978-6.724 6.549-13.237 7.935-14.474 2.494-2.227 2.833-2.25 32.215-2.249 26.267.002 30.098.204 33.194 1.75 2.91 1.454 3.551 2.363 3.804 5.387.704 8.437-7.114 21.643-30.705 51.862-19.376 24.82-21.145 28.2-17.962 34.316.625 1.2 10.206 11.184 21.29 22.184 14.87 14.756 21.127 21.698 23.864 26.477 4.747 8.29 4.96 12.926.786 17.1l-2.923 2.923h-28.54c-37.699 0-34.875 1.004-55.614-19.784-8.525-8.545-16.85-16.363-18.5-17.373-9.536-5.836-16.488 1.934-19.012 21.25-1.133 8.666-1.726 10.6-3.93 12.807-2.551 2.553-2.87 2.603-17.828 2.781-9.104.108-18.376-.361-23.052-1.167z"/></symbol><symbol viewBox="0 0 24 24" id="info" xmlns="http://www.w3.org/2000/svg"><path d="M12.05 8h-.1M12 13v3m-9-4a9 9 0 019-9v0a9 9 0 019 9v0a9 9 0 01-9 9v0a9 9 0 01-9-9v0z" stroke-width="2" stroke-linecap="round" stroke-linejoin="round"/></symbol><symbol viewBox="0 0 15 15" id="insta" xmlns="http://www.w3.org/2000/svg"><g clip-path="url(#ccclip0)"><path d="M8.804 8.804A2.288 2.288 0 009.5 7.125a2.29 2.29 0 00-.696-1.68 2.288 2.288 0 00-1.679-.695 2.29 2.29 0 00-1.68.696 2.288 2.288 0 00-.695 1.679c0 .656.232 1.215.696 1.68a2.288 2.288 0 001.679.695 2.29 2.29 0 001.68-.696zm.91-4.267c.71.71 1.066 1.574 1.066 2.588s-.355 1.877-1.067 2.588c-.71.712-1.574 1.067-2.588 1.067s-1.877-.355-2.588-1.067C3.825 9.003 3.47 8.14 3.47 7.125s.355-1.877 1.067-2.588c.71-.712 1.574-1.067 2.588-1.067s1.877.355 2.588 1.067zm1.818-1.819c.167.167.25.368.25.603a.822.822 0 01-.25.603.822.822 0 01-.603.25.822.822 0 01-.603-.25.822.822 0 01-.25-.603c0-.235.083-.436.25-.603a.822.822 0 01.603-.25c.235 0 .436.083.603.25zM7.835 1.276l-.71.004-.71-.004a50.37 50.37 0 00-.978 0c-.223.003-.522.012-.896.027a7.351 7.351 0 00-.955.093 3.72 3.72 0 00-.664.172 2.412 2.412 0 00-.816.538 2.407 2.407 0 00-.538.816c-.068.18-.125.4-.172.664a7.351 7.351 0 00-.093.955c-.015.374-.024.673-.027.896a50.37 50.37 0 000 .978l.004.71-.004.71c-.003.43-.003.756 0 .978.003.223.012.522.027.896.016.374.047.692.093.955.047.263.104.484.172.664.124.309.303.581.538.816.235.235.507.414.816.538.18.068.4.125.664.172.263.046.581.077.955.093.374.015.673.024.896.027.222.003.548.003.978 0l.71-.004.71.004c.43.003.756.003.978 0 .223-.003.522-.012.896-.027a7.51 7.51 0 00.955-.093c.263-.047.484-.104.664-.172.309-.124.581-.303.816-.538.235-.235.414-.507.538-.816.068-.18.125-.4.172-.664a7.51 7.51 0 00.093-.955c.015-.374.024-.673.027-.896.003-.222.003-.548 0-.978l-.004-.71.004-.71c.003-.43.003-.756 0-.978a34.288 34.288 0 00-.027-.896 7.358 7.358 0 00-.093-.955 3.715 3.715 0 00-.172-.664 2.406 2.406 0 00-.538-.816 2.406 2.406 0 00-.816-.538 3.77 3.77 0 00-.664-.172 7.352 7.352 0 00-.955-.093 34.376 34.376 0 00-.896-.027 50.37 50.37 0 00-.978 0zm6.369 2.908c.03.544.046 1.525.046 2.941s-.015 2.397-.046 2.94c-.062 1.287-.446 2.283-1.15 2.988-.706.705-1.702 1.089-2.988 1.15-.544.032-1.525.047-2.941.047s-2.397-.015-2.94-.046c-1.287-.062-2.283-.446-2.988-1.15-.705-.706-1.089-1.702-1.15-2.988C.014 9.522 0 8.54 0 7.125s.015-2.397.046-2.94c.062-1.287.446-2.283 1.15-2.988C1.903.492 2.899.108 4.185.047 4.728.014 5.71 0 7.125 0s2.397.015 2.94.046c1.287.062 2.283.446 2.988 1.15.705.706 1.089 1.702 1.15 2.988z"/></g><defs><clipPath id="ccclip0"><path d="M0 0h14.25v14.25H0z"/></clipPath></defs></symbol><symbol viewBox="0 0 20 20" id="notification" xmlns="http://www.w3.org/2000/svg"><path d="M12.5 15a2.5 2.5 0 01-5 0m8.333 0H4.167V8.333A5.833 5.833 0 0110 2.5v0a5.833 5.833 0 015.833 5.833V15zM2.5 15h15-15z" stroke-width="1.5" stroke-linecap="round" stroke-linejoin="round"/></symbol><symbol viewBox="0 0 120 180" id="od" xmlns="http://www.w3.org/2000/svg"><path d="M21.715 177.212c-3.876-2.364-6.624-8.097-5.687-11.867.38-1.523 7.745-9.75 17.71-19.781 10.99-11.063 16.864-17.684 16.509-18.61-.325-.846-2.647-1.714-5.646-2.112-8.42-1.117-19.107-5.273-26.435-10.28C8.15 107.719 5.664 102.739 9.02 96.248c3.88-7.502 9.05-7.734 22.211-.997 11.932 6.108 19.078 7.99 30.255 7.972 13.453-.024 20.704-2.236 36.024-10.994 5.19-2.967 10.529-2.632 14.041.88 5.669 5.669 5.138 11.463-1.628 17.77-7.17 6.684-25.424 14.358-34.152 14.358-1.17 0-2.428.487-2.795 1.08-.375.606 6.793 8.628 16.305 18.25 9.335 9.444 17.302 18.222 17.704 19.507 1.945 6.222-2.986 13.725-9.74 14.821-5.062.822-8.037-1.298-22.577-16.088-6.796-6.913-12.653-12.57-13.014-12.57-.362 0-6.5 5.881-13.643 13.07-16.742 16.849-19.272 18.187-26.296 13.905zm26.608-88.906c-21.365-6.83-34.675-27.867-31.678-50.069C18.98 20.927 32.963 5.222 49.985.79c21.292-5.544 43.236 4.918 52.839 25.19 3.049 6.436 3.201 7.331 3.201 18.758 0 11.438-.15 12.318-3.215 18.788-3.79 8.003-12.212 17.267-19.11 21.021-10.463 5.694-24.622 7.2-35.377 3.76zm22.92-23.422c7.29-3.77 12.238-11.916 12.238-20.147 0-18.567-21.929-28.774-35.98-16.746C31.04 42.08 42.2 68.76 63.72 66.777c2.584-.238 5.968-1.09 7.521-1.893z"/></symbol><symbol viewBox="0 0 24 24" id="orders" xmlns="http://www.w3.org/2000/svg"><path d="M16.95 15h.1M21 10v10a1 1 0 01-1 1H4a1 1 0 01-1-1V10a1 1 0 011-1h16a1 1 0 011 1zm-3.79-1L19 6.44 14.09 3 9.88 9h7.33zM9.09 3L4.88 9h5l2.56-3.65L9.09 3z" stroke-width="2" stroke-linecap="round" stroke-linejoin="round"/></symbol><symbol viewBox="0 0 18 18" id="pen" xmlns="http://www.w3.org/2000/svg"><path d="M15 6.18l-9.57 9.57H2.25v-3.18L11.82 3A2.25 2.25 0 0115 3v0a2.25 2.25 0 010 3.18z" stroke-width="1.5" stroke-linecap="round" stroke-linejoin="round"/></symbol><symbol viewBox="0 0 20 20" id="phone" xmlns="http://www.w3.org/2000/svg"><path d="M17.5 12.5v3.275a1.666 1.666 0 01-1.909 1.667A15 15 0 012.616 4.408 1.667 1.667 0 014.275 2.5H7.5a.833.833 0 01.833.742 8.95 8.95 0 00.833 3.15.833.833 0 01-.35 1.05L8.1 7.85a.833.833 0 00-.275 1.217 11.733 11.733 0 003.075 3.075.833.833 0 001.216-.275l.409-.717a.833.833 0 011.083-.317c.99.469 2.058.751 3.15.834a.834.834 0 01.742.833z" stroke-width="1.5" stroke-linecap="round" stroke-linejoin="round"/></symbol><symbol viewBox="0 0 24 24" id="save" xmlns="http://www.w3.org/2000/svg"><path d="M20 7v13a1 1 0 01-1 1H5a1 1 0 01-1-1V4a1 1 0 011-1h11l4 4zM8 7h2-2zm8 8H8v6h8v-6z" stroke-width="2" stroke-linecap="round" stroke-linejoin="round"/></symbol><symbol viewBox="0 0 24 24" id="sequrity" xmlns="http://www.w3.org/2000/svg"><path d="M16 9V7a4 4 0 10-8 0v2m10 12H6a1 1 0 01-1-1V10a1 1 0 011-1h12a1 1 0 011 1v10a1 1 0 01-1 1z" stroke-width="2" stroke-linecap="round" stroke-linejoin="round"/></symbol><symbol viewBox="0 0 24 24" id="settings" xmlns="http://www.w3.org/2000/svg"><path d="M19.29 9.39l1.9 1.9a1 1 0 010 1.42l-1.9 1.9a1 1 0 00-.29.7V18a1 1 0 01-1 1h-2.69a1 1 0 00-.7.29l-1.9 1.9a1 1 0 01-1.42 0l-1.9-1.9a1 1 0 00-.7-.29H6a1 1 0 01-1-1v-2.69a1 1 0 00-.29-.7l-1.9-1.9a1 1 0 010-1.42l1.9-1.9a1 1 0 00.29-.7V6a1 1 0 011-1h2.69a1 1 0 00.7-.29l1.9-1.9a.999.999 0 011.42 0l1.9 1.9a1 1 0 00.7.29H18a1 1 0 011 1v2.69a1 1 0 00.29.7zM12 9a3 3 0 100 6 3 3 0 000-6z" stroke-width="2" stroke-linecap="round" stroke-linejoin="round"/></symbol><symbol viewBox="0 0 25 24" id="showcase-brown-compensation" xmlns="http://www.w3.org/2000/svg"><path d="M9.276 7.586c3.152 0 5.707-.88 5.707-1.965s-2.555-1.965-5.707-1.965c-3.152 0-5.708.88-5.708 1.965s2.556 1.965 5.708 1.965zM14.987 8.175c0 1.084-2.557 1.965-5.711 1.965-3.154 0-5.708-.881-5.708-1.965m7.324 4.361H9.276c-3.154 0-5.708-.881-5.708-1.965M9.966 15h-.69c-3.154 0-5.708-.878-5.708-1.965m6.694 4.414c-.328.029-.657.039-.986.03-3.154 0-5.708-.882-5.708-1.965m0 .018V5.63m11.42 5.625V5.62" stroke-width="1.5" stroke-linecap="round"/><path d="M15.974 15.398c3.152 0 5.708-.88 5.708-1.965s-2.556-1.965-5.708-1.965-5.707.88-5.707 1.965 2.555 1.965 5.707 1.965zM21.681 15.986c0 1.088-2.553 1.965-5.707 1.965s-5.711-.877-5.711-1.965m11.418 2.39c0 1.087-2.553 1.968-5.707 1.968s-5.711-.878-5.711-1.969m0-.03v-5.194m11.418 5.303v-5.089" stroke-width="1.5" stroke-linecap="round"/></symbol><symbol viewBox="0 0 25 24" id="showcase-brown-coworking" xmlns="http://www.w3.org/2000/svg"><g clip-path="url(#cmclip0_1607_10589)" stroke-width="1.5" stroke-linecap="round" stroke-linejoin="round"><path d="M7.015 15.96H1.983a.573.573 0 01-.409-.171.592.592 0 01-.169-.415c0-.778.304-1.524.846-2.075a2.865 2.865 0 012.042-.859h3.465c.766 0 1.5.31 2.042.86.2.203.367.432.499.68M8.335 7.747c0 .464-.135.918-.389 1.304a2.318 2.318 0 01-1.037.864 2.276 2.276 0 01-1.334.134 2.299 2.299 0 01-1.183-.643 2.381 2.381 0 01-.5-2.557 2.34 2.34 0 01.85-1.053 2.284 2.284 0 012.917.292c.433.44.676 1.037.676 1.66zM14.952 13.98c.132-.248.3-.477.5-.68a2.865 2.865 0 012.041-.86h3.465c.766 0 1.5.31 2.042.86.541.55.846 1.296.846 2.074 0 .155-.061.304-.17.415a.573.573 0 01-.408.171h-5.032m3.3-8.213c0 .464-.136.918-.39 1.304a2.318 2.318 0 01-1.036.864 2.276 2.276 0 01-1.335.134 2.299 2.299 0 01-1.183-.643 2.381 2.381 0 01-.5-2.557 2.34 2.34 0 01.85-1.053 2.284 2.284 0 012.917.292c.433.44.677 1.037.677 1.66z"/><path d="M15.595 8.334c0 .58-.174 1.147-.5 1.63-.326.482-.79.858-1.333 1.08a3.004 3.004 0 01-3.237-.636 2.9 2.9 0 01-.644-3.197 2.942 2.942 0 011.095-1.316 2.996 2.996 0 013.75.365c.557.55.87 1.296.87 2.074zm-.742 5.866h-4.455c-.985 0-1.929.387-2.625 1.074a3.644 3.644 0 00-1.087 2.593c0 .194.078.381.217.519.14.137.328.214.525.214h10.395a.747.747 0 00.525-.214.729.729 0 00.218-.519c0-.972-.392-1.905-1.088-2.593a3.736 3.736 0 00-2.625-1.074z"/></g><defs><clipPath id="cmclip0_1607_10589"><path transform="translate(.625)" d="M0 0h24v24H0z"/></clipPath></defs></symbol><symbol viewBox="0 0 25 24" id="showcase-brown-ecp" xmlns="http://www.w3.org/2000/svg"><path d="M21.212 3.6H4.038a.801.801 0 00-.8.8v12.034c0 .443.358.801.8.801h17.174a.801.801 0 00.801-.8V4.4a.801.801 0 00-.8-.801z" stroke-width="1.5"/><path d="M3.237 14.64h18.776M9.076 20.4a2.645 2.645 0 001.408-3.173m6.044 3.173a2.641 2.641 0 01-1.408-3.173" stroke-width="1.5"/><path d="M6.874 20.4h11.502" stroke-width="1.5" stroke-linecap="round"/><path d="M6.596 6.916l1.15.805L9.17 5.718m-2.74 5.085l1.146.8L9 9.602m2.276-2.566h8.258m-8.258 4.037h8.258" stroke-width="1.5"/></symbol><symbol viewBox="0 0 25 24" id="showcase-brown-escort" xmlns="http://www.w3.org/2000/svg"><path d="M17.592 12.177h-1.5m1.5 1.95h-1.5m1.5 2.088h-1.5m1.5 1.946h-1.5M19.811 21h-5.942V7.478l5.741 3.347a.431.431 0 01.2.37V21z" stroke-width="1.5" stroke-linecap="round"/><path d="M19.81 21H13.87V7.478m-2.905 1.42H7.966m2.998 2.423H7.966m2.998 2.388H7.966m2.998 2.389H7.966m2.998 2.388H7.966M3.026 21h19.2m-8.4 0H5.253V7.734a.44.44 0 01.221-.377l7.722-4.304a.42.42 0 01.575.167.44.44 0 01.055.215V21z" stroke-width="1.5" stroke-linecap="round"/></symbol><symbol viewBox="0 0 25 24" id="showcase-brown-events" xmlns="http://www.w3.org/2000/svg"><path d="M19.871 10.46v5.384a.802.802 0 01-.117.43.767.767 0 01-.327.293l-5.275 2.396a4.492 4.492 0 01-4.1-.178L6.266 16.64a.78.78 0 01-.293-.292.812.812 0 01-.107-.405v-5.332" stroke-width="1.5" stroke-linecap="round"/><path d="M11.594 3.896L2.698 8.19a.378.378 0 00-.213.344.387.387 0 00.213.344l8.612 4.444a3.01 3.01 0 002.684 0l8.848-4.368a.378.378 0 00.212-.344.387.387 0 00-.212-.345l-8.608-4.341a2.97 2.97 0 00-2.64-.027v0z" stroke-width="1.5" stroke-linecap="round"/><path d="M12.763 8.624l-9.454.573.13 5.466M3.452 17.093c.61 0 1.104-.503 1.104-1.124 0-.621-.494-1.124-1.104-1.124-.61 0-1.103.503-1.103 1.124 0 .62.494 1.124 1.103 1.124z" stroke-width="1.5" stroke-linecap="round"/><path d="M3.832 17.021l.873 2.787H2.2l.886-2.787" stroke-width="1.5" stroke-linecap="round"/></symbol><symbol viewBox="0 0 25 24" id="showcase-brown-grants-1" xmlns="http://www.w3.org/2000/svg"><path d="M17.997 15.216a.75.75 0 00-1.301.746l1.301-.746zm1.974 4.952l-.65.373.002.003.648-.376zm-.086.206l-.282.695.009.003.273-.698zm-3.229-1.313l.283-.695-.027-.01-.027-.009-.229.714zm-.116.072l-.74-.121-.003.016-.002.017.745.088zm-.397 3.375l.734.152.007-.032.004-.033-.745-.087zm-.225-.023l-.657.363.004.007.004.007.649-.377zm-3.049-5.516l.656-.363a.75.75 0 00-1.324.022l.668.34zM10.053 22.5l.64.392.015-.025.013-.027-.668-.34zm-.225.026l-.743.103.005.04.01.04.728-.183zm-.477-3.45l.743-.102-.003-.024-.005-.024-.735.15zm-.116-.067l-.234-.713-.032.01-.03.014.296.689zm-3.139 1.354l.207.72.046-.013.044-.019-.297-.688zm-.09-.21l.645.383.006-.01-.65-.373zm3.276-4.19a.75.75 0 00-1.3-.748l1.3.748zm3.62-9.63l-.676.324.004.008.673-.331zm1.013 2.06l-.673.33.01.022.013.02.65-.372zm.03.018l.109-.742-.029-.004-.03-.002-.05.748zm2.25.33l-.109.742.055.008h.054v-.75zm.023.064l-.48-.576-.023.019-.02.02.523.537zm-1.643 1.601l-.523-.537-.075.073-.051.09.65.374zm-.004.017h-.75.75zm.004.017l.74-.123-.022-.134-.068-.118-.65.375zm.375 2.25l-.74.123.002.01.002.011.736-.144zm-.052.041l-.35.664.018.01.018.008.314-.682zm-2.033-1.068l-.482.574.062.052.071.037.35-.663zm-.034 0l.357.66.067-.037.059-.049-.482-.574zm-2.01 1.087l.275.698.042-.017.04-.021-.357-.66zm-.056-.041l-.74-.123-.005.035-.003.036.748.052zm.375-2.25l-.67-.338-.05.102-.02.112.74.124zm0-.034l.67-.337-.057-.113-.09-.088-.523.538zM9.494 8.824l-.61.436.039.055.048.046.523-.537zm.022-.064l-.107-.742-.048.007-.045.012.2.723zm2.27-.33l-.006-.75h-.052l-.05.008.107.742zm.03-.019l.671.334v-.002l-.672-.332zm1.015-2.058l.673.332.09-.182-.014-.202-.748.052zm3.865 9.609l2.625 4.579 1.301-.746-2.625-4.58-1.301.747zm2.627 4.582a.577.577 0 01-.017-.534c.047-.1.14-.228.304-.31a.679.679 0 01.549-.025l-.547 1.397a.822.822 0 00.667-.028.843.843 0 00.387-.4.924.924 0 00-.046-.853l-1.297.753zm.845-.865l-3.23-1.313-.564 1.39 3.229 1.313.565-1.39zm-3.283-1.332a.84.84 0 00-.357-.034l.18 1.49a.66.66 0 01-.28-.027l.457-1.429zm-.357-.034a.84.84 0 00-.338.118l.784 1.279a.66.66 0 01-.266.092l-.18-1.489zm-.338.118a.84.84 0 00-.258.248l1.245.836a.66.66 0 01-.203.195l-.784-1.28zm-.258.248a.839.839 0 00-.132.333l1.48.241a.66.66 0 01-.103.262l-1.245-.836zm-.137.366l-.397 3.375 1.49.175.397-3.375-1.49-.175zm-.387 3.31a.664.664 0 01.716-.52c.243.025.383.17.442.273l-1.297.754a.93.93 0 00.7.465.837.837 0 00.908-.668l-1.469-.303zm1.166-.233l-3.049-5.516-1.313.726 3.05 5.516 1.312-.726zm-4.373-5.494L9.384 22.16l1.337.68 2.816-5.53-1.336-.681zm-2.788 5.48a.566.566 0 01.423-.257.665.665 0 01.72.493l-1.456.364a.835.835 0 00.91.633c.33-.039.56-.25.682-.449l-1.279-.784zm1.158.316l-.477-3.45-1.485.205.476 3.45 1.486-.205zm-.485-3.498a.839.839 0 00-.14-.322l-1.219.876a.66.66 0 01-.11-.254l1.47-.3zm-.14-.322a.84.84 0 00-.26-.236l-.754 1.297a.66.66 0 01-.205-.185l1.218-.876zm-.26-.236a.84.84 0 00-.335-.11l-.157 1.493a.66.66 0 01-.262-.086l.753-1.297zm-.335-.11a.842.842 0 00-.35.038l.468 1.425a.66.66 0 01-.275.03l.157-1.492zm-.413.062L5.8 19.674l.594 1.377 3.14-1.353-.595-1.378zM5.89 19.641a.662.662 0 01.78.369.574.574 0 01-.019.525l-1.29-.765a.928.928 0 00-.061.848.838.838 0 001.003.466L5.89 19.64zm.767.886l2.625-4.564-1.3-.748-2.626 4.564 1.3.747zM12.23 6.664l1.012 2.059 1.346-.662-1.012-2.06-1.346.663zm1.035 2.1a.787.787 0 00.265.277l.795-1.272c.1.062.182.148.24.25l-1.3.746zm.265.277c.11.068.235.109.365.118l.1-1.497c.118.008.23.045.33.107l-.795 1.272zm.306.111l2.25.33L16.304 8l-2.25-.33-.218 1.484zm2.36.338a.716.716 0 01-.679-.48.715.715 0 01.22-.782l.96 1.152a.785.785 0 00.238-.86.784.784 0 00-.74-.53v1.5zm-.502-1.223L14.052 9.87l1.047 1.074 1.642-1.6-1.047-1.075zm-1.768 1.763a.784.784 0 00-.105.392h1.5c0 .126-.033.25-.096.358l-1.3-.75zm-.105.392c0 .138.036.273.105.392l1.299-.75a.716.716 0 01.096.358h-1.5zm.014.14l.375 2.25 1.48-.246-.375-2.25-1.48.246zm.38 2.271a.713.713 0 01.03-.385l1.407.523a.788.788 0 00.034-.426l-1.472.288zm.03-.385a.713.713 0 01.228-.312l.927 1.18a.788.788 0 00.252-.345l-1.406-.523zm.228-.312a.713.713 0 01.357-.147l.175 1.49a.787.787 0 00.395-.164l-.927-1.179zm.357-.147a.712.712 0 01.382.06l-.628 1.362c.132.061.277.084.421.067l-.175-1.49zm.417.078l-2.033-1.07-.698 1.328 2.033 1.07.698-1.329zm-1.9-.98a.776.776 0 00-.499-.182v1.5a.724.724 0 01-.465-.169l.964-1.149zm-.499-.182a.776.776 0 00-.499.182l.965 1.15a.723.723 0 01-.466.168v-1.5zm-.373.097l-2.01 1.087.713 1.32 2.01-1.088-.713-1.32zm-1.928 1.05a.71.71 0 01.35-.044l-.192 1.487a.79.79 0 00.391-.048l-.55-1.396zm.35-.044c.12.015.232.06.329.131l-.888 1.21c.108.079.234.13.367.146l.193-1.487zm.329.131c.096.07.173.165.223.274l-1.36.63a.791.791 0 00.25.306l.886-1.21zm.223.274c.05.108.073.228.064.347l-1.496-.104a.791.791 0 00.072.388l1.36-.631zm.056.418l.375-2.25-1.48-.247-.375 2.25 1.48.247zm.305-2.036a.787.787 0 00.084-.354h-1.5c0-.111.026-.221.076-.32l1.34.674zm.084-.354a.787.787 0 00-.084-.354l-1.34.675a.713.713 0 01-.076-.321h1.5zm-.23-.555l-1.647-1.6L8.97 9.36l1.646 1.602 1.046-1.076zm-1.56-1.5c.066.093.11.2.125.313l-1.485.211a.791.791 0 00.14.35l1.22-.874zm.125.313a.708.708 0 01-.033.336l-1.415-.5a.791.791 0 00-.037.375l1.485-.21zm-.033.336a.709.709 0 01-.185.282L8.987 8.222a.791.791 0 00-.206.314l1.415.5zm-.185.282a.709.709 0 01-.294.165l-.401-1.446a.791.791 0 00-.329.185l1.024 1.096zm-.387.184l2.27-.33-.217-1.484-2.268.33.215 1.484zm2.166-.322a.784.784 0 00.41-.119l-.795-1.272a.716.716 0 01.375-.109l.01 1.5zm.41-.119a.784.784 0 00.287-.316l-1.344-.667a.717.717 0 01.262-.289l.795 1.272zm.288-.318l1.016-2.058-1.345-.664-1.016 2.058 1.345.664zm1.092-2.442a.713.713 0 01-.132.464l-1.22-.874a.787.787 0 00-.145.513l1.497-.103zm-.132.464a.713.713 0 01-.398.274l-.382-1.45a.788.788 0 00-.44.302l1.22.874zm-.398.274a.712.712 0 01-.48-.043l.63-1.36a.787.787 0 00-.531-.048l.381 1.451zm-.48-.043a.713.713 0 01-.344-.339l1.353-.646a.788.788 0 00-.379-.375l-.63 1.36z"/><path d="M17.654 4.185l.323.979c.096.307.294.572.562.75l.836.54a1.444 1.444 0 01.537 1.733l-.315.783c-.14.347-.14.734 0 1.08l.311.75a1.436 1.436 0 01-.495 1.718l-.739.532c-.265.191-.458.466-.547.78l-.252.915a1.44 1.44 0 01-1.5 1.043l-.787-.068c-.37-.03-.738.083-1.027.315l-.75.611a1.436 1.436 0 01-1.82 0l-.663-.52a1.444 1.444 0 00-.919-.33H9.25a1.436 1.436 0 01-1.402-1.126l-.206-.881a1.433 1.433 0 00-.593-.866l-.686-.476a1.44 1.44 0 01-.544-1.68l.323-.885a1.447 1.447 0 000-.998l-.289-.773a1.448 1.448 0 01.566-1.717l.75-.491c.294-.192.509-.484.604-.821l.229-.818a1.444 1.444 0 011.5-1.046l.723.063c.37.03.738-.082 1.028-.315l.686-.554a1.44 1.44 0 011.826 0l.623.517c.287.24.658.36 1.031.33l.75-.056a1.44 1.44 0 011.485.982v0z" stroke-width="1.5"/></symbol><symbol viewBox="0 0 25 24" id="showcase-brown-grants-2" xmlns="http://www.w3.org/2000/svg"><path d="M19.334 2.902v13.373l-4.481 4.822H5.23V2.902h14.104z" stroke-width="1.5" stroke-linecap="round"/><path d="M11.682 9.098l-.565.493.52.595.567-.55-.522-.538zm-4.307 9.329h5v-1.5h-5v1.5zm0-2.445h5.042v-1.5H7.375v1.5zm0-2.288h9.971v-1.5H7.375v1.5zm2.029-6.063l1.713 1.96 1.13-.987-1.714-1.96-1.13.987zm2.8 2.005l3.693-3.582-1.044-1.077L11.16 8.56l1.044 1.077zM14.845 21.097l-.75-.001a.75.75 0 001.299.512l-.55-.511zm.007-4.823v-.75h-.749v.75h.75zm4.482 0l.549.511a.75.75 0 00-.55-1.26v.75zm-3.74 4.824l.008-4.822-1.5-.003-.007 4.823 1.5.002zm-.742-4.074h4.482v-1.5h-4.482v1.5zm3.933-1.26l-4.49 4.822 1.099 1.022 4.489-4.823-1.098-1.022z"/></symbol><symbol viewBox="0 0 25 24" id="showcase-brown-grants-3" xmlns="http://www.w3.org/2000/svg"><path d="M20.257 21.589H4.994V2.839a.037.037 0 01.06-.03l1.541 1.444a.045.045 0 00.05 0l1.237-1.46a.034.034 0 01.045 0l1.395 1.463a.041.041 0 00.048 0l1.234-1.459a.034.034 0 01.025-.01.034.034 0 01.024.01l1.072 1.452a.041.041 0 00.053 0L13 2.798a.033.033 0 01.025-.01.034.034 0 01.024.01l1.009 1.447a.037.037 0 00.052 0l1.08-1.448a.037.037 0 01.053 0l1.069 1.448a.038.038 0 00.052 0l1.024-1.44a.033.033 0 01.028-.015.034.034 0 01.028.015l.844 1.44a.041.041 0 00.049 0l1.875-1.451a.038.038 0 01.056.034l-.011 18.76zM7.908 15.661h9.975m-9.975 2.34h9.975" stroke-width="1.5" stroke-linecap="round"/><path d="M10.708 9.667l1.556 1.666L15.374 8" stroke-width="1.5" stroke-linecap="round"/></symbol><symbol viewBox="0 0 25 24" id="showcase-brown-guarantee" xmlns="http://www.w3.org/2000/svg"><g clip-path="url(#ctclip0_1607_10486)" stroke-width="1.5"><path d="M5.616 15.494l3.465-2.181a.982.982 0 01.755-.12c1.23.32 4.931 1.333 6.295 1.812 1.026.36 1.44 1.373 1.026 2.044-.56.888-1.412.8-2.025.626a1.606 1.606 0 01-.245-.088l-2.425-1.031M5.58 21.874L2.288 16.92a.538.538 0 01.151-.742l2.08-1.333a.533.533 0 01.728.143l3.359 4.886a.538.538 0 01-.143.747l-2.14 1.435a.534.534 0 01-.743-.182v0z" stroke-linecap="round"/><path d="M8.304 19.43l1.133-.649 6.41 1.777a.485.485 0 00.391-.062c.889-.582 4.758-3.14 6.664-4.487a1.066 1.066 0 00.133-1.777 1.377 1.377 0 00-1.648-.142c-.666.373-2.519 1.746-2.519 1.746" stroke-linecap="round"/><circle cx="17.699" cy="7.991" r="5.324"/><circle cx="17.708" cy="8" r="3.333"/></g><defs><clipPath id="ctclip0_1607_10486"><path transform="translate(.625)" d="M0 0h24v24H0z"/></clipPath></defs></symbol><symbol viewBox="0 0 25 24" id="showcase-brown-investments" xmlns="http://www.w3.org/2000/svg"><path d="M5.188 14.047h2.41v3.94h-2.41v-3.94zM9.663 8.92h2.409v9.069h-2.41V8.919zm4.474 1.749h2.409v7.32h-2.41v-7.32zm4.474-5.204h2.409V17.99h-2.41V5.464z" stroke-width="1.5"/><path d="M3.1 3.296v16.816h19.252" stroke-width="1.5"/></symbol><symbol viewBox="0 0 25 24" id="showcase-brown-leasing-1" xmlns="http://www.w3.org/2000/svg"><path d="M20.257 21.589H4.994V2.839a.037.037 0 01.06-.03l1.541 1.444a.045.045 0 00.05 0l1.237-1.46a.034.034 0 01.045 0l1.395 1.463a.041.041 0 00.048 0l1.234-1.459a.034.034 0 01.025-.01.034.034 0 01.024.01l1.072 1.452a.041.041 0 00.053 0L13 2.798a.033.033 0 01.025-.01.034.034 0 01.024.01l1.009 1.447a.037.037 0 00.052 0l1.08-1.448a.037.037 0 01.053 0l1.069 1.448a.038.038 0 00.052 0l1.024-1.44a.033.033 0 01.028-.015.034.034 0 01.028.015l.844 1.44a.041.041 0 00.049 0l1.875-1.451a.038.038 0 01.056.034l-.011 18.76zM7.908 16.327h9.975m-9.975 2.34h9.975" stroke-width="1.5" stroke-linecap="round"/><path d="M10.85 9.75a1 1 0 100-2 1 1 0 000 2zM14.85 13.25a1 1 0 100-2 1 1 0 000 2zM15.85 7.75l-6 5.5" stroke-width="1.5"/></symbol><symbol viewBox="0 0 25 24" id="showcase-brown-leasing-2" xmlns="http://www.w3.org/2000/svg"><path d="M5.425 21.6h3m7.8-12.6V7.243a1.04 1.04 0 00-.13-.509 1.08 1.08 0 00-.365-.387L9.625 2.4 3.52 6.347a1.08 1.08 0 00-.364.387 1.041 1.041 0 00-.13.51V21.6h13.2v-3M5.425 9v3.6h3V9h-3zm0 6.3v3.6h3v-3.6h-3z" stroke-width="1.5" stroke-linecap="round" stroke-linejoin="round"/><path d="M13.825 11.4V9h-3v3.6h2.4" stroke-width="1.5" stroke-linecap="round" stroke-linejoin="round"/><circle cx="18.025" cy="13.8" r="4.8" stroke-width="1.5"/><circle cx="18.025" cy="13.8" r="3" stroke-width="1.5"/></symbol><symbol viewBox="0 0 25 24" id="showcase-brown-leasing-3" xmlns="http://www.w3.org/2000/svg"><path d="M10.645 8.964c.744 0 1.432-.217 1.98-.582" stroke-width="1.5" stroke-linecap="round"/><circle cx="7.291" cy="6.666" r="1.333" stroke-width="1.5"/><path d="M9.201 19.424l.53.53.22-.22v-.31h-.75zm-3.82 0l-.624-.414a.75.75 0 00.094.945l.53-.53zm0-9.117h.75v-.45l-.396-.212-.353.662zm3.82 0l-.353-.662-.397.212v.45h.75zm-1.91 11.027l-.53.53.53.53.53-.53-.53-.53zm-1.91-6.23l-.624-.415a.75.75 0 000 .83l.625-.415zm0-2.16h-.75a.75.75 0 00.126.414l.625-.415zm.717 1.08l.625.414a.75.75 0 000-.829l-.625.415zm-.716 3.24l-.625-.415a.75.75 0 000 .83l.625-.415zm.716-1.08l.625.414a.75.75 0 000-.829l-.625.415zm0 2.16l.625.415a.75.75 0 000-.83l-.625.415zM3.983 6.725a3.308 3.308 0 013.308-3.308v-1.5a4.808 4.808 0 00-4.808 4.808h1.5zm3.308-3.308A3.308 3.308 0 0110.6 6.725h1.5A4.808 4.808 0 007.29 1.917v1.5zm1.16 7.366v8.641h1.5v-8.641h-1.5zM5.735 9.645a3.307 3.307 0 01-1.752-2.92h-1.5a4.807 4.807 0 002.545 4.243l.707-1.323zm.397 1.138v-.476h-1.5v.476h1.5zM10.6 6.725a3.307 3.307 0 01-1.752 2.92l.707 1.323A4.807 4.807 0 0012.1 6.725h-1.5zm-.649 4.058v-.476h-1.5v.476h1.5zm-1.28 8.11l-1.91 1.91 1.06 1.061 1.91-1.91-1.06-1.06zm-.85 1.91l-1.909-1.91-1.06 1.062 1.91 1.91 1.06-1.061zm-1.69-7.86v-2.16h-1.5v2.16h1.5zm-.124 2.575l.716-1.08-1.25-.829-.716 1.08 1.25.83zm.716-1.909l-.716-1.08-1.25.829.716 1.08 1.25-.829zm-.716 4.07l.716-1.08-1.25-.83-.716 1.08 1.25.83zm.716-1.91l-.716-1.08-1.25.83.716 1.08 1.25-.83zm-.716 4.07l.716-1.08-1.25-.83-.716 1.08 1.25.83zm.716-1.91l-.716-1.08-1.25.83.716 1.08 1.25-.83z"/><path d="M22.473 10.618l-3.897 3.897a.567.567 0 01-.413.164.612.612 0 01-.42-.18L12.856 9.61a.313.313 0 01-.092-.218l.049-4.09a.284.284 0 01.274-.275l4.262-.213a.307.307 0 01.228.09l4.88 4.88a.613.613 0 01.18.42.567.567 0 01-.164.413z" stroke-width="1.5" stroke-linecap="round"/><path d="M7.409 6.19c0-1.532.927-3.19 3.466-3.19 1.75 0 4.333.333 4.333 3.667" stroke-width="1.5" stroke-linecap="round"/></symbol><symbol viewBox="0 0 25 24" id="showcase-brown-loans" xmlns="http://www.w3.org/2000/svg"><path d="M17.578 13.313h.191M4.017 7.361l11.96-3.32a.613.613 0 01.775.578l.097 2.525-12.832.217zM17.578 13.313h.191M20.331 15.323v3.944a.722.722 0 01-.721.721H4.097a.722.722 0 01-.722-.721V8.083a.722.722 0 01.722-.722H19.61a.722.722 0 01.721.722v3.222" stroke-width="1.5" stroke-linecap="round"/><path d="M21.517 11.304h-5.779a.357.357 0 00-.357.357v3.305c0 .197.16.357.357.357h5.78c.197 0 .357-.16.357-.357V11.66a.357.357 0 00-.358-.357z" stroke-width="1.5" stroke-linecap="round"/></symbol><symbol viewBox="0 0 25 24" id="showcase-brown-residency-1" xmlns="http://www.w3.org/2000/svg"><path d="M19.626 14.908c-.637 0-1.247-.214-1.698-.595-.45-.381-.702-.898-.702-1.436V9.83c0-.539.252-1.056.703-1.436.45-.381 1.06-.595 1.697-.595.636 0 1.247.214 1.697.595.45.38.703.897.703 1.436v3.046c0 .538-.253 1.055-.703 1.436-.45.38-1.06.595-1.697.595zm0 0V21m0-6.092V12.6M3.625 21h18m-13-12v12m0-12l1.5-1.5M8.625 9l-1-1m6 .5a3.49 3.49 0 00-2.09-3.2 3 3 0 00-5.82 0 3.49 3.49 0 000 6.4 3 3 0 005.82 0 3.49 3.49 0 002.09-3.2z" stroke-width="1.5" stroke-linecap="round" stroke-linejoin="round"/></symbol><symbol viewBox="0 0 25 24" id="showcase-brown-residency-2" xmlns="http://www.w3.org/2000/svg"><path d="M15.826 4.533l-3.2 2.134-3.2-2.134M20.092 8.8L17.96 12l2.133 3.2M15.826 19.467l-3.2-2.133-3.2 2.133M5.16 15.2L7.292 12 5.159 8.8M12.625 2.4v7.467V2.4zm9.6 9.6H14.76h7.466zm-9.6 9.6v-7.466V21.6zm-9.6-9.6h7.467-7.467zm7.467 0a2.133 2.133 0 104.267 0 2.133 2.133 0 00-4.267 0z" stroke-width="1.5" stroke-linecap="round" stroke-linejoin="round"/></symbol><symbol viewBox="0 0 25 24" id="showcase-brown-social" xmlns="http://www.w3.org/2000/svg"><path d="M20.455 14.39l-.72 5.73a1 1 0 01-1 .88H6.505a1 1 0 01-1-.88l-.72-5.73" stroke-width="1.5" stroke-linecap="round" stroke-linejoin="round"/><path d="M20.945 14.23l-4.53 1.51a12 12 0 01-7.58 0l-4.53-1.51a1 1 0 01-.68-1V7h18v6.28a1 1 0 01-.68.95zM11.625 12h2-2zm6-6a3 3 0 00-3-3h-4a3 3 0 00-3 3v1h10V6z" stroke-width="1.5" stroke-linecap="round" stroke-linejoin="round"/></symbol><symbol viewBox="0 0 25 24" id="showcase-brown-tax" xmlns="http://www.w3.org/2000/svg"><path d="M4.823 14.52h6.913m3.734 3.125H7.1l-2.665 2.154.028-2.154h-.967a.625.625 0 01-.626-.63V7.927a.626.626 0 01.63-.626H15.47a.626.626 0 01.644.626v9.073a.645.645 0 01-.644.644v0zM4.823 9.861h8.953-8.953zm0 2.33h4.902-4.902z" stroke-width="1.5"/><path d="M17.292 13.912h.857l2.665 1.805-.01-1.805h.949a.626.626 0 00.626-.626v-9.09a.627.627 0 00-.63-.627H9.78a.626.626 0 00-.626.626v1.892" stroke-width="1.5"/></symbol><symbol viewBox="0 0 25 24" id="showcase-red-compensation" xmlns="http://www.w3.org/2000/svg"><path d="M9.276 7.586c3.152 0 5.707-.88 5.707-1.965s-2.555-1.965-5.707-1.965c-3.152 0-5.708.88-5.708 1.965s2.556 1.965 5.708 1.965zM14.987 8.175c0 1.084-2.557 1.965-5.711 1.965-3.154 0-5.708-.881-5.708-1.965m7.324 4.361H9.276c-3.154 0-5.708-.881-5.708-1.965M9.966 15h-.69c-3.154 0-5.708-.878-5.708-1.965m6.694 4.414c-.328.029-.657.039-.986.03-3.154 0-5.708-.882-5.708-1.965m0 .018V5.63m11.42 5.625V5.62" stroke-width="1.5" stroke-linecap="round"/><path d="M15.974 15.398c3.152 0 5.708-.88 5.708-1.965s-2.556-1.965-5.708-1.965-5.707.88-5.707 1.965 2.555 1.965 5.707 1.965zM21.681 15.986c0 1.088-2.553 1.965-5.707 1.965s-5.711-.877-5.711-1.965m11.418 2.39c0 1.087-2.553 1.968-5.707 1.968s-5.711-.878-5.711-1.969m0-.03v-5.194m11.418 5.303v-5.089" stroke-width="1.5" stroke-linecap="round"/></symbol><symbol viewBox="0 0 25 24" id="showcase-red-coworking" xmlns="http://www.w3.org/2000/svg"><g clip-path="url(#declip0_1607_10914)" stroke-width="1.5" stroke-linecap="round" stroke-linejoin="round"><path d="M7.015 15.96H1.983a.573.573 0 01-.409-.171.592.592 0 01-.169-.415c0-.778.304-1.524.846-2.075a2.865 2.865 0 012.042-.859h3.465c.766 0 1.5.31 2.042.86.2.203.367.432.499.68M8.335 7.747c0 .464-.135.918-.389 1.304a2.318 2.318 0 01-1.037.864 2.276 2.276 0 01-1.334.134 2.299 2.299 0 01-1.183-.643 2.381 2.381 0 01-.5-2.557 2.34 2.34 0 01.85-1.053 2.284 2.284 0 012.917.292c.433.44.676 1.037.676 1.66zM14.952 13.98c.132-.248.3-.477.5-.68a2.865 2.865 0 012.041-.86h3.465c.766 0 1.5.31 2.042.86.541.55.846 1.296.846 2.074 0 .155-.061.304-.17.415a.573.573 0 01-.408.171h-5.032m3.3-8.213c0 .464-.136.918-.39 1.304a2.318 2.318 0 01-1.036.864 2.276 2.276 0 01-1.335.134 2.299 2.299 0 01-1.183-.643 2.381 2.381 0 01-.5-2.557 2.34 2.34 0 01.85-1.053 2.284 2.284 0 012.917.292c.433.44.677 1.037.677 1.66z"/><path d="M15.595 8.334c0 .58-.174 1.147-.5 1.63-.326.482-.79.858-1.333 1.08a3.004 3.004 0 01-3.237-.636 2.9 2.9 0 01-.644-3.197 2.942 2.942 0 011.095-1.316 2.996 2.996 0 013.75.365c.557.55.87 1.296.87 2.074zm-.742 5.866h-4.455c-.985 0-1.929.387-2.625 1.074a3.644 3.644 0 00-1.087 2.593c0 .194.078.381.217.519.14.137.328.214.525.214h10.395a.747.747 0 00.525-.214.729.729 0 00.218-.519c0-.972-.392-1.905-1.088-2.593a3.736 3.736 0 00-2.625-1.074z"/></g><defs><clipPath id="declip0_1607_10914"><path transform="translate(.625)" d="M0 0h24v24H0z"/></clipPath></defs></symbol><symbol viewBox="0 0 25 24" id="showcase-red-ecp" xmlns="http://www.w3.org/2000/svg"><path d="M21.212 3.6H4.038a.801.801 0 00-.8.8v12.034c0 .443.358.801.8.801h17.174a.801.801 0 00.801-.8V4.4a.801.801 0 00-.8-.801z" stroke-width="1.5"/><path d="M3.237 14.64h18.776M9.076 20.4a2.645 2.645 0 001.408-3.173m6.044 3.173a2.641 2.641 0 01-1.408-3.173" stroke-width="1.5"/><path d="M6.874 20.4h11.502" stroke-width="1.5" stroke-linecap="round"/><path d="M6.596 6.916l1.15.805L9.17 5.718m-2.74 5.085l1.146.8L9 9.602m2.276-2.566h8.258m-8.258 4.037h8.258" stroke-width="1.5"/></symbol><symbol viewBox="0 0 25 24" id="showcase-red-escort" xmlns="http://www.w3.org/2000/svg"><path d="M17.592 12.177h-1.5m1.5 1.95h-1.5m1.5 2.088h-1.5m1.5 1.946h-1.5M19.811 21h-5.942V7.478l5.741 3.347a.431.431 0 01.2.37V21z" stroke-width="1.5" stroke-linecap="round"/><path d="M19.81 21H13.87V7.478m-2.905 1.42H7.966m2.998 2.423H7.966m2.998 2.388H7.966m2.998 2.389H7.966m2.998 2.388H7.966M3.026 21h19.2m-8.4 0H5.253V7.734a.44.44 0 01.221-.377l7.722-4.304a.42.42 0 01.575.167.44.44 0 01.055.215V21z" stroke-width="1.5" stroke-linecap="round"/></symbol><symbol viewBox="0 0 25 24" id="showcase-red-events" xmlns="http://www.w3.org/2000/svg"><path d="M19.871 10.46v5.384a.802.802 0 01-.117.43.767.767 0 01-.327.293l-5.275 2.396a4.492 4.492 0 01-4.1-.178L6.266 16.64a.78.78 0 01-.293-.292.812.812 0 01-.107-.405v-5.332" stroke-width="1.5" stroke-linecap="round"/><path d="M11.594 3.896L2.698 8.19a.378.378 0 00-.213.344.387.387 0 00.213.344l8.612 4.444a3.01 3.01 0 002.684 0l8.848-4.368a.378.378 0 00.212-.344.387.387 0 00-.212-.345l-8.608-4.341a2.97 2.97 0 00-2.64-.027v0z" stroke-width="1.5" stroke-linecap="round"/><path d="M12.763 8.624l-9.454.573.13 5.466M3.452 17.093c.61 0 1.104-.503 1.104-1.124 0-.621-.494-1.124-1.104-1.124-.61 0-1.103.503-1.103 1.124 0 .62.494 1.124 1.103 1.124z" stroke-width="1.5" stroke-linecap="round"/><path d="M3.832 17.021l.873 2.787H2.2l.886-2.787" stroke-width="1.5" stroke-linecap="round"/></symbol><symbol viewBox="0 0 25 24" id="showcase-red-grants-4" xmlns="http://www.w3.org/2000/svg"><path d="M17.997 15.216a.75.75 0 00-1.301.746l1.301-.746zm1.974 4.952l-.65.373.002.003.648-.376zm-.086.206l-.282.695.009.003.273-.698zm-3.229-1.313l.283-.695-.027-.01-.027-.009-.229.714zm-.116.072l-.74-.121-.003.016-.002.017.745.088zm-.397 3.375l.734.152.007-.032.004-.033-.745-.087zm-.225-.023l-.657.363.004.007.004.007.649-.377zm-3.049-5.516l.656-.363a.75.75 0 00-1.324.022l.668.34zM10.053 22.5l.64.392.015-.025.013-.027-.668-.34zm-.225.026l-.743.103.005.04.01.04.728-.183zm-.477-3.45l.743-.102-.003-.024-.005-.024-.735.15zm-.116-.067l-.234-.713-.032.01-.03.014.296.689zm-3.139 1.354l.207.72.046-.013.044-.019-.297-.688zm-.09-.21l.645.383.006-.01-.65-.373zm3.276-4.19a.75.75 0 00-1.3-.748l1.3.748zm3.62-9.63l-.676.324.004.008.673-.331zm1.013 2.06l-.673.33.01.022.013.02.65-.372zm.03.018l.109-.742-.029-.004-.03-.002-.05.748zm2.25.33l-.109.742.055.008h.054v-.75zm.023.064l-.48-.576-.023.019-.02.02.523.537zm-1.643 1.601l-.523-.537-.075.073-.051.09.65.374zm-.004.017h-.75.75zm.004.017l.74-.123-.022-.134-.068-.118-.65.375zm.375 2.25l-.74.123.002.01.002.011.736-.144zm-.052.041l-.35.664.018.01.018.008.314-.682zm-2.033-1.068l-.482.574.062.052.071.037.35-.663zm-.034 0l.357.66.067-.037.059-.049-.482-.574zm-2.01 1.087l.275.698.042-.017.04-.021-.357-.66zm-.056-.041l-.74-.123-.005.035-.003.036.748.052zm.375-2.25l-.67-.338-.05.102-.02.112.74.124zm0-.034l.67-.337-.057-.113-.09-.088-.523.538zM9.494 8.824l-.61.436.039.055.048.046.523-.537zm.022-.064l-.107-.742-.048.007-.045.012.2.723zm2.27-.33l-.006-.75h-.052l-.05.008.107.742zm.03-.019l.671.334v-.002l-.672-.332zm1.015-2.058l.673.332.09-.182-.014-.202-.748.052zm3.865 9.609l2.625 4.579 1.301-.746-2.625-4.58-1.301.747zm2.627 4.582a.577.577 0 01-.017-.534c.047-.1.14-.228.304-.31a.679.679 0 01.549-.025l-.547 1.397a.822.822 0 00.667-.028.843.843 0 00.387-.4.924.924 0 00-.046-.853l-1.297.753zm.845-.865l-3.23-1.313-.564 1.39 3.229 1.313.565-1.39zm-3.283-1.332a.84.84 0 00-.357-.034l.18 1.49a.66.66 0 01-.28-.027l.457-1.429zm-.357-.034a.84.84 0 00-.338.118l.784 1.279a.66.66 0 01-.266.092l-.18-1.489zm-.338.118a.84.84 0 00-.258.248l1.245.836a.66.66 0 01-.203.195l-.784-1.28zm-.258.248a.839.839 0 00-.132.333l1.48.241a.66.66 0 01-.103.262l-1.245-.836zm-.137.366l-.397 3.375 1.49.175.397-3.375-1.49-.175zm-.387 3.31a.664.664 0 01.716-.52c.243.025.383.17.442.273l-1.297.754a.93.93 0 00.7.465.837.837 0 00.908-.668l-1.469-.303zm1.166-.233l-3.049-5.516-1.313.726 3.05 5.516 1.312-.726zm-4.373-5.494L9.384 22.16l1.337.68 2.816-5.53-1.336-.681zm-2.788 5.48a.566.566 0 01.423-.257.665.665 0 01.72.493l-1.456.364a.835.835 0 00.91.633c.33-.039.56-.25.682-.449l-1.279-.784zm1.158.316l-.477-3.45-1.485.205.476 3.45 1.486-.205zm-.485-3.498a.839.839 0 00-.14-.322l-1.219.876a.66.66 0 01-.11-.254l1.47-.3zm-.14-.322a.84.84 0 00-.26-.236l-.754 1.297a.66.66 0 01-.205-.185l1.218-.876zm-.26-.236a.84.84 0 00-.335-.11l-.157 1.493a.66.66 0 01-.262-.086l.753-1.297zm-.335-.11a.842.842 0 00-.35.038l.468 1.425a.66.66 0 01-.275.03l.157-1.492zm-.413.062L5.8 19.674l.594 1.377 3.14-1.353-.595-1.378zM5.89 19.641a.662.662 0 01.78.369.574.574 0 01-.019.525l-1.29-.765a.928.928 0 00-.061.848.838.838 0 001.003.466L5.89 19.64zm.767.886l2.625-4.564-1.3-.748-2.626 4.564 1.3.747zM12.23 6.664l1.012 2.059 1.346-.662-1.012-2.06-1.346.663zm1.035 2.1a.787.787 0 00.265.277l.795-1.272c.1.062.182.148.24.25l-1.3.746zm.265.277c.11.068.235.109.365.118l.1-1.497c.118.008.23.045.33.107l-.795 1.272zm.306.111l2.25.33L16.304 8l-2.25-.33-.218 1.484zm2.36.338a.716.716 0 01-.679-.48.715.715 0 01.22-.782l.96 1.152a.785.785 0 00.238-.86.784.784 0 00-.74-.53v1.5zm-.502-1.223L14.052 9.87l1.047 1.074 1.642-1.6-1.047-1.075zm-1.768 1.763a.784.784 0 00-.105.392h1.5c0 .126-.033.25-.096.358l-1.3-.75zm-.105.392c0 .138.036.273.105.392l1.299-.75a.716.716 0 01.096.358h-1.5zm.014.14l.375 2.25 1.48-.246-.375-2.25-1.48.246zm.38 2.271a.713.713 0 01.03-.385l1.407.523a.788.788 0 00.034-.426l-1.472.288zm.03-.385a.713.713 0 01.228-.312l.927 1.18a.788.788 0 00.252-.345l-1.406-.523zm.228-.312a.713.713 0 01.357-.147l.175 1.49a.787.787 0 00.395-.164l-.927-1.179zm.357-.147a.712.712 0 01.382.06l-.628 1.362c.132.061.277.084.421.067l-.175-1.49zm.417.078l-2.033-1.07-.698 1.328 2.033 1.07.698-1.329zm-1.9-.98a.776.776 0 00-.499-.182v1.5a.724.724 0 01-.465-.169l.964-1.149zm-.499-.182a.776.776 0 00-.499.182l.965 1.15a.723.723 0 01-.466.168v-1.5zm-.373.097l-2.01 1.087.713 1.32 2.01-1.088-.713-1.32zm-1.928 1.05a.71.71 0 01.35-.044l-.192 1.487a.79.79 0 00.391-.048l-.55-1.396zm.35-.044c.12.015.232.06.329.131l-.888 1.21c.108.079.234.13.367.146l.193-1.487zm.329.131c.096.07.173.165.223.274l-1.36.63a.791.791 0 00.25.306l.886-1.21zm.223.274c.05.108.073.228.064.347l-1.496-.104a.791.791 0 00.072.388l1.36-.631zm.056.418l.375-2.25-1.48-.247-.375 2.25 1.48.247zm.305-2.036a.787.787 0 00.084-.354h-1.5c0-.111.026-.221.076-.32l1.34.674zm.084-.354a.787.787 0 00-.084-.354l-1.34.675a.713.713 0 01-.076-.321h1.5zm-.23-.555l-1.647-1.6L8.97 9.36l1.646 1.602 1.046-1.076zm-1.56-1.5c.066.093.11.2.125.313l-1.485.211a.791.791 0 00.14.35l1.22-.874zm.125.313a.708.708 0 01-.033.336l-1.415-.5a.791.791 0 00-.037.375l1.485-.21zm-.033.336a.709.709 0 01-.185.282L8.987 8.222a.791.791 0 00-.206.314l1.415.5zm-.185.282a.709.709 0 01-.294.165l-.401-1.446a.791.791 0 00-.329.185l1.024 1.096zm-.387.184l2.27-.33-.217-1.484-2.268.33.215 1.484zm2.166-.322a.784.784 0 00.41-.119l-.795-1.272a.716.716 0 01.375-.109l.01 1.5zm.41-.119a.784.784 0 00.287-.316l-1.344-.667a.717.717 0 01.262-.289l.795 1.272zm.288-.318l1.016-2.058-1.345-.664-1.016 2.058 1.345.664zm1.092-2.442a.713.713 0 01-.132.464l-1.22-.874a.787.787 0 00-.145.513l1.497-.103zm-.132.464a.713.713 0 01-.398.274l-.382-1.45a.788.788 0 00-.44.302l1.22.874zm-.398.274a.712.712 0 01-.48-.043l.63-1.36a.787.787 0 00-.531-.048l.381 1.451zm-.48-.043a.713.713 0 01-.344-.339l1.353-.646a.788.788 0 00-.379-.375l-.63 1.36z"/><path d="M17.654 4.185l.323.979c.096.307.294.572.562.75l.836.54a1.444 1.444 0 01.537 1.733l-.315.783c-.14.347-.14.734 0 1.08l.311.75a1.436 1.436 0 01-.495 1.718l-.739.532c-.265.191-.458.466-.547.78l-.252.915a1.44 1.44 0 01-1.5 1.043l-.787-.068c-.37-.03-.738.083-1.027.315l-.75.611a1.436 1.436 0 01-1.82 0l-.663-.52a1.444 1.444 0 00-.919-.33H9.25a1.436 1.436 0 01-1.402-1.126l-.206-.881a1.433 1.433 0 00-.593-.866l-.686-.476a1.44 1.44 0 01-.544-1.68l.323-.885a1.447 1.447 0 000-.998l-.289-.773a1.448 1.448 0 01.566-1.717l.75-.491c.294-.192.509-.484.604-.821l.229-.818a1.444 1.444 0 011.5-1.046l.723.063c.37.03.738-.082 1.028-.315l.686-.554a1.44 1.44 0 011.826 0l.623.517c.287.24.658.36 1.031.33l.75-.056a1.44 1.44 0 011.485.982v0z" stroke-width="1.5"/></symbol><symbol viewBox="0 0 25 24" id="showcase-red-grants-5" xmlns="http://www.w3.org/2000/svg"><path d="M19.334 2.902v13.373l-4.481 4.822H5.23V2.902h14.104z" stroke-width="1.5" stroke-linecap="round"/><path d="M11.682 9.098l-.565.493.52.595.567-.55-.522-.538zm-4.307 9.329h5v-1.5h-5v1.5zm0-2.445h5.042v-1.5H7.375v1.5zm0-2.288h9.971v-1.5H7.375v1.5zm2.029-6.063l1.713 1.96 1.13-.987-1.714-1.96-1.13.987zm2.8 2.005l3.693-3.582-1.044-1.077L11.16 8.56l1.044 1.077zM14.845 21.097l-.75-.001a.75.75 0 001.299.512l-.55-.511zm.007-4.823v-.75h-.749v.75h.75zm4.482 0l.549.511a.75.75 0 00-.55-1.26v.75zm-3.74 4.824l.008-4.822-1.5-.003-.007 4.823 1.5.002zm-.742-4.074h4.482v-1.5h-4.482v1.5zm3.933-1.26l-4.49 4.822 1.099 1.022 4.489-4.823-1.098-1.022z"/></symbol><symbol viewBox="0 0 25 24" id="showcase-red-grants-6" xmlns="http://www.w3.org/2000/svg"><path d="M20.257 21.589H4.994V2.839a.037.037 0 01.06-.03l1.541 1.444a.045.045 0 00.05 0l1.237-1.46a.034.034 0 01.045 0l1.395 1.463a.041.041 0 00.048 0l1.234-1.459a.034.034 0 01.025-.01.034.034 0 01.024.01l1.072 1.452a.041.041 0 00.053 0L13 2.798a.033.033 0 01.025-.01.034.034 0 01.024.01l1.009 1.447a.037.037 0 00.052 0l1.08-1.448a.037.037 0 01.053 0l1.069 1.448a.038.038 0 00.052 0l1.024-1.44a.033.033 0 01.028-.015.034.034 0 01.028.015l.844 1.44a.041.041 0 00.049 0l1.875-1.451a.038.038 0 01.056.034l-.011 18.76zM7.908 15.661h9.975m-9.975 2.34h9.975" stroke-width="1.5" stroke-linecap="round"/><path d="M10.708 9.667l1.556 1.666L15.374 8" stroke-width="1.5" stroke-linecap="round"/></symbol><symbol viewBox="0 0 25 24" id="showcase-red-guarantee" xmlns="http://www.w3.org/2000/svg"><g clip-path="url(#dlclip0_1607_10887)" stroke-width="1.5"><path d="M5.616 15.494l3.465-2.181a.982.982 0 01.755-.12c1.23.32 4.931 1.333 6.295 1.812 1.026.36 1.44 1.373 1.026 2.044-.56.888-1.412.8-2.025.626a1.606 1.606 0 01-.245-.088l-2.425-1.031M5.58 21.874L2.288 16.92a.538.538 0 01.151-.742l2.08-1.333a.533.533 0 01.728.143l3.359 4.886a.538.538 0 01-.143.747l-2.14 1.435a.534.534 0 01-.743-.182v0z" stroke-linecap="round"/><path d="M8.304 19.43l1.133-.649 6.41 1.777a.485.485 0 00.391-.062c.889-.582 4.758-3.14 6.664-4.487a1.066 1.066 0 00.133-1.777 1.377 1.377 0 00-1.648-.142c-.666.373-2.519 1.746-2.519 1.746" stroke-linecap="round"/><circle cx="17.699" cy="7.991" r="5.324"/><circle cx="17.708" cy="8" r="3.333"/></g><defs><clipPath id="dlclip0_1607_10887"><path transform="translate(.625)" d="M0 0h24v24H0z"/></clipPath></defs></symbol><symbol viewBox="0 0 25 24" id="showcase-red-investmentssvg" xmlns="http://www.w3.org/2000/svg"><path d="M5.188 14.047h2.41v3.94h-2.41v-3.94zM9.663 8.92h2.409v9.069h-2.41V8.919zm4.474 1.749h2.409v7.32h-2.41v-7.32zm4.474-5.204h2.409V17.99h-2.41V5.464z" stroke-width="1.5"/><path d="M3.1 3.296v16.816h19.252" stroke-width="1.5"/></symbol><symbol viewBox="0 0 25 24" id="showcase-red-leasing-4" xmlns="http://www.w3.org/2000/svg"><path d="M20.257 21.589H4.994V2.839a.037.037 0 01.06-.03l1.541 1.444a.045.045 0 00.05 0l1.237-1.46a.034.034 0 01.045 0l1.395 1.463a.041.041 0 00.048 0l1.234-1.459a.034.034 0 01.025-.01.034.034 0 01.024.01l1.072 1.452a.041.041 0 00.053 0L13 2.798a.033.033 0 01.025-.01.034.034 0 01.024.01l1.009 1.447a.037.037 0 00.052 0l1.08-1.448a.037.037 0 01.053 0l1.069 1.448a.038.038 0 00.052 0l1.024-1.44a.033.033 0 01.028-.015.034.034 0 01.028.015l.844 1.44a.041.041 0 00.049 0l1.875-1.451a.038.038 0 01.056.034l-.011 18.76zM7.908 16.327h9.975m-9.975 2.34h9.975" stroke-width="1.5" stroke-linecap="round"/><path d="M10.85 9.75a1 1 0 100-2 1 1 0 000 2zM14.85 13.25a1 1 0 100-2 1 1 0 000 2zM15.85 7.75l-6 5.5" stroke-width="1.5"/></symbol><symbol viewBox="0 0 25 24" id="showcase-red-leasing-5" xmlns="http://www.w3.org/2000/svg"><path d="M5.425 21.6h3m7.8-12.6V7.243a1.04 1.04 0 00-.13-.509 1.08 1.08 0 00-.365-.387L9.625 2.4 3.52 6.347a1.08 1.08 0 00-.364.387 1.041 1.041 0 00-.13.51V21.6h13.2v-3M5.425 9v3.6h3V9h-3zm0 6.3v3.6h3v-3.6h-3z" stroke-width="1.5" stroke-linecap="round" stroke-linejoin="round"/><path d="M13.825 11.4V9h-3v3.6h2.4" stroke-width="1.5" stroke-linecap="round" stroke-linejoin="round"/><circle cx="18.025" cy="13.8" r="4.8" stroke-width="1.5"/><circle cx="18.025" cy="13.8" r="3" stroke-width="1.5"/></symbol><symbol viewBox="0 0 25 24" id="showcase-red-leasing-6" xmlns="http://www.w3.org/2000/svg"><path d="M10.645 8.964c.744 0 1.432-.217 1.98-.582" stroke-width="1.5" stroke-linecap="round"/><circle cx="7.291" cy="6.666" r="1.333" stroke-width="1.5"/><path d="M9.201 19.424l.53.53.22-.22v-.31h-.75zm-3.82 0l-.624-.414a.75.75 0 00.094.945l.53-.53zm0-9.117h.75v-.45l-.396-.212-.353.662zm3.82 0l-.353-.662-.397.212v.45h.75zm-1.91 11.027l-.53.53.53.53.53-.53-.53-.53zm-1.91-6.23l-.624-.415a.75.75 0 000 .83l.625-.415zm0-2.16h-.75a.75.75 0 00.126.414l.625-.415zm.717 1.08l.625.414a.75.75 0 000-.829l-.625.415zm-.716 3.24l-.625-.415a.75.75 0 000 .83l.625-.415zm.716-1.08l.625.414a.75.75 0 000-.829l-.625.415zm0 2.16l.625.415a.75.75 0 000-.83l-.625.415zM3.983 6.725a3.308 3.308 0 013.308-3.308v-1.5a4.808 4.808 0 00-4.808 4.808h1.5zm3.308-3.308A3.308 3.308 0 0110.6 6.725h1.5A4.808 4.808 0 007.29 1.917v1.5zm1.16 7.366v8.641h1.5v-8.641h-1.5zM5.735 9.645a3.307 3.307 0 01-1.752-2.92h-1.5a4.807 4.807 0 002.545 4.243l.707-1.323zm.397 1.138v-.476h-1.5v.476h1.5zM10.6 6.725a3.307 3.307 0 01-1.752 2.92l.707 1.323A4.807 4.807 0 0012.1 6.725h-1.5zm-.649 4.058v-.476h-1.5v.476h1.5zm-1.28 8.11l-1.91 1.91 1.06 1.061 1.91-1.91-1.06-1.06zm-.85 1.91l-1.909-1.91-1.06 1.062 1.91 1.91 1.06-1.061zm-1.69-7.86v-2.16h-1.5v2.16h1.5zm-.124 2.575l.716-1.08-1.25-.829-.716 1.08 1.25.83zm.716-1.909l-.716-1.08-1.25.829.716 1.08 1.25-.829zm-.716 4.07l.716-1.08-1.25-.83-.716 1.08 1.25.83zm.716-1.91l-.716-1.08-1.25.83.716 1.08 1.25-.83zm-.716 4.07l.716-1.08-1.25-.83-.716 1.08 1.25.83zm.716-1.91l-.716-1.08-1.25.83.716 1.08 1.25-.83z"/><path d="M22.473 10.618l-3.897 3.897a.567.567 0 01-.413.164.612.612 0 01-.42-.18L12.856 9.61a.313.313 0 01-.092-.218l.049-4.09a.284.284 0 01.274-.275l4.262-.213a.307.307 0 01.228.09l4.88 4.88a.613.613 0 01.18.42.567.567 0 01-.164.413z" stroke-width="1.5" stroke-linecap="round"/><path d="M7.409 6.19c0-1.532.927-3.19 3.466-3.19 1.75 0 4.333.333 4.333 3.667" stroke-width="1.5" stroke-linecap="round"/></symbol><symbol viewBox="0 0 25 24" id="showcase-red-loans" xmlns="http://www.w3.org/2000/svg"><path d="M17.578 13.313h.191M4.017 7.361l11.96-3.32a.613.613 0 01.775.578l.097 2.525-12.832.217zM17.578 13.313h.191M20.331 15.323v3.944a.722.722 0 01-.721.721H4.097a.722.722 0 01-.722-.721V8.083a.722.722 0 01.722-.722H19.61a.722.722 0 01.721.722v3.222" stroke-width="1.5" stroke-linecap="round"/><path d="M21.517 11.304h-5.779a.357.357 0 00-.357.357v3.305c0 .197.16.357.357.357h5.78c.197 0 .357-.16.357-.357V11.66a.357.357 0 00-.358-.357z" stroke-width="1.5" stroke-linecap="round"/></symbol><symbol viewBox="0 0 25 24" id="showcase-red-residency-3" xmlns="http://www.w3.org/2000/svg"><path d="M19.626 14.908c-.637 0-1.247-.214-1.698-.595-.45-.381-.702-.898-.702-1.436V9.83c0-.539.252-1.056.703-1.436.45-.381 1.06-.595 1.697-.595.636 0 1.247.214 1.697.595.45.38.703.897.703 1.436v3.046c0 .538-.253 1.055-.703 1.436-.45.38-1.06.595-1.697.595zm0 0V21m0-6.092V12.6M3.625 21h18m-13-12v12m0-12l1.5-1.5M8.625 9l-1-1m6 .5a3.49 3.49 0 00-2.09-3.2 3 3 0 00-5.82 0 3.49 3.49 0 000 6.4 3 3 0 005.82 0 3.49 3.49 0 002.09-3.2z" stroke-width="1.5" stroke-linecap="round" stroke-linejoin="round"/></symbol><symbol viewBox="0 0 25 24" id="showcase-red-residency-4" xmlns="http://www.w3.org/2000/svg"><path d="M15.826 4.533l-3.2 2.134-3.2-2.134M20.092 8.8L17.96 12l2.133 3.2M15.826 19.467l-3.2-2.133-3.2 2.133M5.16 15.2L7.292 12 5.159 8.8M12.625 2.4v7.467V2.4zm9.6 9.6H14.76h7.466zm-9.6 9.6v-7.466V21.6zm-9.6-9.6h7.467-7.467zm7.467 0a2.133 2.133 0 104.267 0 2.133 2.133 0 00-4.267 0z" stroke-width="1.5" stroke-linecap="round" stroke-linejoin="round"/></symbol><symbol viewBox="0 0 25 24" id="showcase-red-social" xmlns="http://www.w3.org/2000/svg"><path d="M20.455 14.39l-.72 5.73a1 1 0 01-1 .88H6.505a1 1 0 01-1-.88l-.72-5.73" stroke-width="1.5" stroke-linecap="round" stroke-linejoin="round"/><path d="M20.945 14.23l-4.53 1.51a12 12 0 01-7.58 0l-4.53-1.51a1 1 0 01-.68-1V7h18v6.28a1 1 0 01-.68.95zM11.625 12h2-2zm6-6a3 3 0 00-3-3h-4a3 3 0 00-3 3v1h10V6z" stroke-width="1.5" stroke-linecap="round" stroke-linejoin="round"/></symbol><symbol viewBox="0 0 25 24" id="showcase-red-tax" xmlns="http://www.w3.org/2000/svg"><path d="M4.823 14.52h6.913m3.734 3.125H7.1l-2.665 2.154.028-2.154h-.967a.625.625 0 01-.626-.63V7.927a.626.626 0 01.63-.626H15.47a.626.626 0 01.644.626v9.073a.645.645 0 01-.644.644v0zM4.823 9.861h8.953-8.953zm0 2.33h4.902-4.902z" stroke-width="1.5"/><path d="M17.292 13.912h.857l2.665 1.805-.01-1.805h.949a.626.626 0 00.626-.626v-9.09a.627.627 0 00-.63-.627H9.78a.626.626 0 00-.626.626v1.892" stroke-width="1.5"/></symbol><symbol viewBox="0 0 24 24" id="sign-out" xmlns="http://www.w3.org/2000/svg"><path d="M13 8V4a1 1 0 00-1-1H4a1 1 0 00-1 1v16a1 1 0 001 1h8a1 1 0 001-1v-4M17 16l4-4-4-4m-9 4h13H8z" stroke-width="2" stroke-linecap="round" stroke-linejoin="round"/></symbol><symbol viewBox="0 0 24 24" id="signature" xmlns="http://www.w3.org/2000/svg"><g stroke-width="2" stroke-linecap="round" stroke-linejoin="round"><path d="M12 3H4a1 1 0 00-1 1v16a1 1 0 001 1h16a1 1 0 001-1v-8"/><path d="M14 10l-2 2m7.44-3.78C17.53 10.41 14 10 14 10s-.39-4 1.53-6.18c.167-.197.354-.375.56-.53L18 4l.47-1.82A8.19 8.19 0 0121 2s.36 4-1.56 6.22z"/></g></symbol><symbol viewBox="0 0 24 24" id="taxes" xmlns="http://www.w3.org/2000/svg"><g stroke-width="2" stroke-linecap="round" stroke-linejoin="round"><path d="M14 2H6a2 2 0 00-2 2v16a2 2 0 002 2h12a2 2 0 002-2V8l-6-6z"/><path d="M14 2v6h6M16 13H8M16 17H8M10 9H8"/></g></symbol><symbol viewBox="0 0 310 170" id="vk" xmlns="http://www.w3.org/2000/svg"><path d="M136.862 168.33c-38.732-6.675-66.574-30.204-100.236-84.707C25.74 65.994 1.184 18.043 1.184 14.41c0-1.455 1.07-3.29 2.635-4.522C6.33 7.914 7.666 7.816 32.07 7.82c23.692.003 25.857.15 28.835 1.967 2.596 1.582 4.857 5.315 11.66 19.246 13.774 28.2 31.154 52.373 39.09 54.364 3.668.921 7.21-2.628 9.015-9.035 3.55-12.597 2.628-44.485-1.523-52.622-1.977-3.875-6.49-7.276-11.221-8.457-1.518-.379-3.02-1.109-3.336-1.622-.997-1.613 2.463-5.737 6.57-7.832 3.68-1.878 5.858-2.013 32.337-2.013 27.9 0 28.451.04 31.79 2.281 5.211 3.499 5.726 7.084 5.818 40.509.074 27.011.232 29.588 2.038 33.126 3.514 6.89 8.252 6.97 14.97.252 11.308-11.309 23.905-31.269 33.728-53.444 2.978-6.724 6.549-13.237 7.935-14.474 2.494-2.227 2.833-2.25 32.215-2.249 26.267.002 30.098.204 33.194 1.75 2.91 1.454 3.551 2.363 3.804 5.387.704 8.437-7.114 21.643-30.705 51.862-19.376 24.82-21.145 28.2-17.962 34.316.625 1.2 10.206 11.184 21.29 22.184 14.87 14.756 21.127 21.698 23.864 26.477 4.747 8.29 4.96 12.926.786 17.1l-2.923 2.923h-28.54c-37.699 0-34.875 1.004-55.614-19.784-8.525-8.545-16.85-16.363-18.5-17.373-9.536-5.836-16.488 1.934-19.012 21.25-1.133 8.666-1.726 10.6-3.93 12.807-2.551 2.553-2.87 2.603-17.828 2.781-9.104.108-18.376-.361-23.052-1.167z"/></symbol></svg>