<?xml version="1.0" encoding="utf-8"?><svg xmlns="http://www.w3.org/2000/svg" xmlns:xlink="http://www.w3.org/1999/xlink"><symbol viewBox="0 0 33 32" id="about-arctic" xmlns="http://www.w3.org/2000/svg"><path d="M16.625 4v9.333V4zm12 12h-9.333 9.333zm-12 12v-9.333V28zm-12-12h9.333-9.333zm9.333 0a2.667 2.667 0 105.334 0 2.667 2.667 0 00-5.334 0zM20.625 6.667l-4 2.666-4-2.667M25.959 12l-2.667 4 2.667 4M20.625 25.333l-4-2.666-4 2.666M7.292 20l2.667-4-2.667-4" stroke-width="2" stroke-linecap="round" stroke-linejoin="round"/></symbol><symbol viewBox="0 0 33 32" id="about-business" xmlns="http://www.w3.org/2000/svg"><path d="M17.708 6.667h4A1.333 1.333 0 0123.041 8v5.333M9.708 6.667h-4A1.333 1.333 0 004.375 8v18.666A1.333 1.333 0 005.708 28h16a1.333 1.333 0 001.334-1.334v-5.333" stroke-width="2" stroke-linecap="round" stroke-linejoin="round"/><path d="M17.708 5.333A1.334 1.334 0 0016.375 4H11.04a1.333 1.333 0 00-1.333 1.333v4h8v-4zm10.28 8.92l-1.867-1.866a1.333 1.333 0 00-1.866 0l-6.547 6.546v3.734h3.733l6.547-6.547a1.333 1.333 0 000-1.867v0z" stroke-width="2" stroke-linecap="round" stroke-linejoin="round"/></symbol><symbol viewBox="0 0 33 32" id="about-consult" xmlns="http://www.w3.org/2000/svg"><path d="M18.791 2.667H8.125a2.667 2.667 0 00-2.667 2.666v21.334a2.667 2.667 0 002.667 2.666h16a2.667 2.667 0 002.666-2.666v-16l-8-8z" stroke-width="2" stroke-linecap="round" stroke-linejoin="round"/><path d="M18.792 2.667v8h8M21.459 17.334H10.792M21.459 22.666H10.792M13.459 12h-2.667" stroke-width="2" stroke-linecap="round" stroke-linejoin="round"/></symbol><symbol viewBox="0 0 33 32" id="about-coworking" xmlns="http://www.w3.org/2000/svg"><g clip-path="url(#adclip0_61_1928)" stroke-width="2" stroke-linecap="round" stroke-linejoin="round"><path d="M23.041 28v-2.667A5.333 5.333 0 0017.708 20H7.041a5.333 5.333 0 00-5.333 5.333V28M12.375 14.667a5.333 5.333 0 100-10.667 5.333 5.333 0 000 10.667zM31.042 28v-2.667a5.333 5.333 0 00-4-5.16M21.708 4.173a5.333 5.333 0 010 10.334"/></g><defs><clipPath id="adclip0_61_1928"><path transform="translate(.375)" d="M0 0h32v32H0z"/></clipPath></defs></symbol><symbol viewBox="0 0 33 32" id="about-ecp" xmlns="http://www.w3.org/2000/svg"><path d="M12.286 6.667h-4A1.333 1.333 0 006.951 8v18.666A1.333 1.333 0 008.285 28h16a1.333 1.333 0 001.334-1.334V8a1.334 1.334 0 00-1.334-1.333h-4" stroke-width="2" stroke-linecap="round" stroke-linejoin="round"/><path d="M12.285 18.667l2.667 2.666L20.285 16m0-10.667A1.333 1.333 0 0018.952 4h-5.334a1.333 1.333 0 00-1.333 1.333v4h8v-4z" stroke-width="2" stroke-linecap="round" stroke-linejoin="round"/></symbol><symbol viewBox="0 0 33 32" id="about-events" xmlns="http://www.w3.org/2000/svg"><path d="M26.208 5.333H7.542A2.667 2.667 0 004.875 8v18.667a2.667 2.667 0 002.667 2.666h18.666a2.667 2.667 0 002.667-2.666V8a2.667 2.667 0 00-2.667-2.667zM22.208 2.667V8M11.542 2.667V8M4.875 13.334h24" stroke-width="2" stroke-linecap="round" stroke-linejoin="round"/></symbol><symbol viewBox="0 0 33 32" id="about-finance" xmlns="http://www.w3.org/2000/svg"><path d="M23.225 20h.133M28.625 13.333v13.334A1.334 1.334 0 0127.292 28H5.958a1.334 1.334 0 01-1.333-1.333V13.333A1.333 1.333 0 015.958 12h21.334a1.334 1.334 0 011.333 1.333zM23.572 12l2.386-3.413L19.412 4l-5.614 8h9.774zM12.745 4l-5.613 8h6.666l3.414-4.867L12.745 4z" stroke-width="2" stroke-linecap="round" stroke-linejoin="round"/></symbol><symbol viewBox="0 0 32 32" id="about-grant" xmlns="http://www.w3.org/2000/svg"><path d="M16 3c1.8 0 3.561.538 5.058 1.547a9.162 9.162 0 013.354 4.118c.689 1.677.87 3.522.518 5.302a9.199 9.199 0 01-2.492 4.698 9.083 9.083 0 01-4.662 2.512 9.038 9.038 0 01-5.26-.523 9.12 9.12 0 01-4.086-3.38 9.228 9.228 0 01-1.535-5.098c0-2.433.96-4.767 2.667-6.488A9.069 9.069 0 0116 3v0zm-.94 8.259l-2.095.29 1.518 1.362-.365 1.942L16 13.935l1.882.918-.365-1.942 1.518-1.362-2.094-.29L16 9.5l-.94 1.759zm7.435 7.341a9.082 9.082 0 01-4.978 2.63L20.552 29l2.276-1.912L26 27.41 22.495 18.6zM6 27.47l3.171-.32L11.448 29l3.034-7.77a9.081 9.081 0 01-4.977-2.63L6 27.47z" stroke-width="2" stroke-linecap="round" stroke-linejoin="round"/></symbol><symbol viewBox="0 0 33 32" id="about-lizing" xmlns="http://www.w3.org/2000/svg"><path d="M12.857 20l8-8-8 8zm14.96-7.56c-.4-1.214-.133-2.774-.867-3.774-.733-1-2.306-1.253-3.32-2-1.013-.746-1.706-2.146-2.92-2.533-1.213-.387-2.52.347-3.853.347-1.333 0-2.667-.734-3.853-.347-1.187.387-1.907 1.813-2.92 2.533-1.014.72-2.56.974-3.32 2-.76 1.027-.467 2.56-.867 3.774-.4 1.213-1.52 2.226-1.52 3.56 0 1.333 1.147 2.386 1.52 3.56.373 1.173.133 2.773.867 3.773.733 1 2.306 1.253 3.32 1.987 1.013.733 1.706 2.16 2.92 2.546 1.213.387 2.52-.346 3.853-.346 1.333 0 2.667.733 3.853.346 1.187-.386 1.907-1.813 2.92-2.546 1.014-.734 2.587-.96 3.32-1.987.734-1.027.467-2.56.867-3.773.4-1.214 1.52-2.227 1.52-3.56 0-1.334-1.147-2.387-1.52-3.56zM13.457 12.666h.133M20.124 19.334h.133" stroke-width="2" stroke-linecap="round" stroke-linejoin="round"/></symbol><symbol viewBox="0 0 33 32" id="about-lock" xmlns="http://www.w3.org/2000/svg"><path d="M21.905 12V9.333a5.334 5.334 0 00-10.667 0V12m13.334 16h-16a1.333 1.333 0 01-1.334-1.333V13.333A1.333 1.333 0 018.572 12h16a1.333 1.333 0 011.333 1.333v13.334A1.333 1.333 0 0124.572 28z" stroke-width="2" stroke-linecap="round" stroke-linejoin="round"/></symbol><symbol viewBox="0 0 33 32" id="about-projects" xmlns="http://www.w3.org/2000/svg"><path d="M23.542 22.667v4A1.333 1.333 0 0122.208 28h-16a1.334 1.334 0 01-1.333-1.333V5.333A1.333 1.333 0 016.208 4h16" stroke-width="2" stroke-linecap="round" stroke-linejoin="round"/><path d="M10.208 22.667V16v6.667zm5.333 0V20v2.667zM28.875 20L25.1 16.227 28.875 20zm-10.667-6.666a4 4 0 108 0 4 4 0 00-8 0z" stroke-width="2" stroke-linecap="round" stroke-linejoin="round"/></symbol><symbol viewBox="0 0 33 32" id="about-refund" xmlns="http://www.w3.org/2000/svg"><path d="M19.38 4h-12a1.333 1.333 0 00-1.333 1.333V28l3.12-1.333L12.274 28l3.106-1.333L18.487 28l3.107-1.333L24.713 28v-4M16.38 20h-5.333m5.333-5h-5.333" stroke-width="2" stroke-linecap="round" stroke-linejoin="round"/><path d="M25.667 5a1 1 0 10-2 0h2zm-2 12.5a1 1 0 102 0h-2zM22.5 13.9a1 1 0 100 2v-2zm4.723 2a1 1 0 100-2v2zM22.5 5.233a1 1 0 100 2v-2zm0 5.2a1 1 0 100 2v-2zM23.667 5v9.9h2V5h-2zm0 9.9v2.6h2v-2.6h-2zm-1.167 1h2.167v-2H22.5v2zm2.167 0h2.555v-2h-2.555v2zM29 8.833c0 .86-.722 1.6-1.666 1.6v2c2 0 3.666-1.588 3.666-3.6h-2zm-1.666-1.6c.944 0 1.666.74 1.666 1.6h2c0-2.012-1.665-3.6-3.666-3.6v2zm0-2H22.5v2h4.834v-2zm0 6.2v-1h-.006-.001-.001-.001-.004-.001-.001-.002-.001-.002-.001-.002-.002-.001-.002-.002-.002-.002-.002-.002-.002-.005-.002-.002-.003-.002-.003-.005H27.258h-.003-.016-.01-.007-.011H22.5v2H27.333v-1z"/></symbol><symbol viewBox="0 0 33 32" id="about-social" xmlns="http://www.w3.org/2000/svg"><path d="M26.565 19.186l-.96 7.64A1.333 1.333 0 0124.272 28H7.965a1.334 1.334 0 01-1.333-1.174l-.96-7.64" stroke-width="2" stroke-linecap="round" stroke-linejoin="round"/><path d="M27.218 18.973l-6.04 2.014a16 16 0 01-10.107 0l-6.04-2.014a1.333 1.333 0 01-.906-1.333V9.333h24v8.374a1.334 1.334 0 01-.907 1.266zM14.791 16h2.667-2.666zm8-8a4 4 0 00-4-4h-5.333a4 4 0 00-4 4v1.333h13.333V8z" stroke-width="2" stroke-linecap="round" stroke-linejoin="round"/></symbol><symbol viewBox="0 0 24 24" id="account" xmlns="http://www.w3.org/2000/svg"><path d="M17 8A5 5 0 117 8a5 5 0 0110 0zm-8 5a5 5 0 00-5 5v1s2 2 8 2 8-2 8-2v-1a5 5 0 00-5-5H9z" stroke-width="2" stroke-linecap="round" stroke-linejoin="round"/></symbol><symbol viewBox="0 0 24 24" id="add" xmlns="http://www.w3.org/2000/svg"><path d="M12 5v14m-7-7h14H5z" stroke-width="1.5" stroke-linecap="round" stroke-linejoin="round"/></symbol><symbol viewBox="0 0 24 24" id="arrow-back" xmlns="http://www.w3.org/2000/svg"><path d="M14 17l-5-5 5-5" stroke-width="2" stroke-linecap="round" stroke-linejoin="round"/></symbol><symbol viewBox="0 0 24 24" id="arrow-right" xmlns="http://www.w3.org/2000/svg"><path d="M10 17l5-5-5-5" stroke-width="2" stroke-linecap="round" stroke-linejoin="round"/></symbol><symbol viewBox="0 0 20 20" id="arrow-top" xmlns="http://www.w3.org/2000/svg"><path d="M15.834 7.5V4.167H12.5M4.167 15.833L15.834 4.167 4.167 15.833z" stroke-width="2" stroke-linecap="round" stroke-linejoin="round"/></symbol><symbol viewBox="0 0 18 18" id="cross" xmlns="http://www.w3.org/2000/svg"><path d="M13.5 4.5l-9 9M4.5 4.5l9 9" stroke-width="1.5" stroke-linecap="round" stroke-linejoin="round"/></symbol><symbol viewBox="0 0 24 24" id="drop-down" xmlns="http://www.w3.org/2000/svg"><path d="M7 10l5 5 5-5" stroke-width="2" stroke-linecap="round" stroke-linejoin="round"/></symbol><symbol viewBox="0 0 90 170" id="fb" xmlns="http://www.w3.org/2000/svg"><path d="M23.41 170.797c-.38-.38-.69-19.515-.69-42.523V86.441h-7.3c-4.344 0-7.786-.486-8.5-1.2-1.659-1.66-1.659-24.941 0-26.6.714-.714 4.156-1.2 8.5-1.2h7.3V45.124c0-20.585 2.263-28.224 10.514-35.486 7.422-6.534 11.259-7.466 32.764-7.957l18.777-.429-.277 14.845-.278 14.844-10.475.287c-14.579.4-15.025.857-15.025 15.387v10.826h12.532c10.407 0 12.632.263 13.127 1.553.746 1.944-1.607 23.325-2.828 25.697-.774 1.504-2.428 1.75-11.759 1.75-9.13 0-10.958.26-11.486 1.636-.345.9-.598 19.912-.562 42.25l.066 40.614-16.856.272c-9.27.15-17.165-.037-17.544-.416z"/></symbol><symbol viewBox="0 0 18 18" id="icon-accept" xmlns="http://www.w3.org/2000/svg"><path d="M9 15.75a6.75 6.75 0 100-13.5 6.75 6.75 0 000 13.5z" stroke-width="1.5" stroke-linecap="round" stroke-linejoin="round"/><path d="M6 9l2.25 2.25L12 7.5" stroke-width="1.5" stroke-linecap="round" stroke-linejoin="round"/></symbol><symbol viewBox="0 0 18 18" id="icon-attach" xmlns="http://www.w3.org/2000/svg"><path d="M16.08 8.288L9.188 15.18A4.502 4.502 0 012.82 8.813L9.713 1.92a3.002 3.002 0 114.245 4.245l-6.9 6.893a1.501 1.501 0 01-2.123-2.123l6.368-6.36"/></symbol><symbol viewBox="0 0 18 18" id="icon-attantion" xmlns="http://www.w3.org/2000/svg"><path d="M9 6.75v3-3zM7.687 3.143L1.972 13.5a1.5 1.5 0 001.313 2.25h11.43a1.5 1.5 0 001.313-2.25L10.313 3.144a1.5 1.5 0 00-2.626 0zM9.038 12.75h-.075" stroke-width="1.5" stroke-linecap="round" stroke-linejoin="round"/></symbol><symbol viewBox="0 0 24 24" id="icon-back" xmlns="http://www.w3.org/2000/svg"><path d="M14.5 6.5l-5 5 5 5" stroke-width="2" stroke-linecap="round" stroke-linejoin="round"/></symbol><symbol viewBox="0 0 24 24" id="icon-case" xmlns="http://www.w3.org/2000/svg"><path d="M20 7H4a2 2 0 00-2 2v10a2 2 0 002 2h16a2 2 0 002-2V9a2 2 0 00-2-2z"/><path d="M16 10V5a2 2 0 00-2-2h-4a2 2 0 00-2 2v5"/></symbol><symbol viewBox="0 0 18 18" id="icon-clock" xmlns="http://www.w3.org/2000/svg"><path d="M9 15.75a6.75 6.75 0 100-13.5 6.75 6.75 0 000 13.5z" stroke-width="1.5" stroke-linecap="round" stroke-linejoin="round"/><path d="M9 5.25V9l1.5 2.25" stroke-width="1.5" stroke-linecap="round" stroke-linejoin="round"/></symbol><symbol viewBox="0 0 20 20" id="icon-delete" xmlns="http://www.w3.org/2000/svg"><g opacity=".3"><path d="M15 5L5 15M15 15L5 5"/></g></symbol><symbol viewBox="0 0 22 22" id="icon-doc" xmlns="http://www.w3.org/2000/svg"><path d="M12.833 1.833H5.5a1.833 1.833 0 00-1.833 1.834v14.666A1.834 1.834 0 005.5 20.168h11a1.833 1.833 0 001.833-1.834v-11l-5.5-5.5z"/><path d="M12.833 1.833v5.5h5.5M14.667 11.916H7.333M14.667 15.584H7.333M9.167 8.25H7.333"/></symbol><symbol viewBox="0 0 18 18" id="icon-error" xmlns="http://www.w3.org/2000/svg"><path d="M9 16.5a7.5 7.5 0 100-15 7.5 7.5 0 000 15zM11.25 6.75l-4.5 4.5M6.75 6.75l4.5 4.5" stroke-width="1.5" stroke-linecap="round" stroke-linejoin="round"/></symbol><symbol viewBox="0 0 100 100" id="icon-error-index" xmlns="http://www.w3.org/2000/svg"><path d="M50 97c25.957 0 47-21.043 47-47S75.957 3 50 3 3 24.043 3 50s21.043 47 47 47z" stroke-width="6"/><path d="M37 37l26 26m0-26L37 63" stroke-width="6" stroke-linecap="round"/></symbol><symbol viewBox="0 0 130 36" id="icon-gos" xmlns="http://www.w3.org/2000/svg"><path d="M44.062 21.18a.162.162 0 00-.082-.087.174.174 0 00-.122-.006c-.684.25-1.82.455-2.714.455-1.958 0-2.89-.522-2.89-3.488 0-2.371.286-3.488 2.89-3.488.738 0 1.63.105 2.502.355.07.02.147-.011.18-.075.241-.526.592-1.375.85-2l.102-.246a.15.15 0 00.003-.128.16.16 0 00-.098-.088 12.975 12.975 0 00-3.743-.572c-4.101 0-5.928 1.91-5.928 6.198 0 4.349 1.827 6.288 5.928 6.288 1.027 0 3.052-.213 4.03-.598a.155.155 0 00.088-.195l-.996-2.325zM12.344 12.285c0-.082.066-.148.149-.148h8.42c.106 0 .177.108.136.205l-1.043 2.48a.145.145 0 01-.15.09h-4.359v8.914a.148.148 0 01-.148.148h-2.857a.148.148 0 01-.148-.148V12.285z"/><path fill-rule="evenodd" clip-rule="evenodd" d="M21.756 18.01c0-4.46 1.56-6.198 5.57-6.198 4.041 0 5.617 1.738 5.617 6.198 0 4.527-1.576 6.288-5.617 6.288-4.01 0-5.57-1.76-5.57-6.288zm3.174.044c0 3.144.57 3.646 2.396 3.646 1.861 0 2.442-.502 2.442-3.646 0-3.348-.633-3.646-2.442-3.646-1.774 0-2.396.298-2.396 3.646z"/><path d="M68.054 21.18a.16.16 0 00-.082-.087.174.174 0 00-.121-.006c-.685.25-1.82.455-2.715.455-1.958 0-2.89-.522-2.89-3.488 0-2.371.286-3.488 2.89-3.488.738 0 1.631.105 2.502.355.07.02.147-.011.18-.075.242-.526.593-1.375.85-2l.102-.246c.02-.04.02-.088.003-.128a.16.16 0 00-.097-.088 12.974 12.974 0 00-3.744-.572c-4.1 0-5.928 1.91-5.928 6.198 0 4.349 1.827 6.288 5.928 6.288 1.027 0 3.053-.213 4.03-.598a.155.155 0 00.088-.195l-.996-2.325zM70.554 23.974h2.933a.148.148 0 00.14-.1 41.423 41.423 0 001.191-4.741c.291-1.492.47-2.906.575-4.221h2.867v8.914c0 .081.066.148.148.148h2.857a.148.148 0 00.148-.148V12.285a.148.148 0 00-.148-.148h-8.717a.147.147 0 00-.149.142 48.764 48.764 0 01-.633 5.897c-.354 2.078-.865 3.953-1.355 5.609a.149.149 0 00.143.189zM97.133 12.137a.148.148 0 00-.149.148v11.54c0 .082.067.149.15.149h2.855a.148.148 0 00.149-.148v-8.914h4.359a.144.144 0 00.15-.09l1.043-2.48a.147.147 0 00-.136-.205h-8.42zM46.429 12.137c-.103 0-.175.101-.14.196l4.34 11.642a145.478 145.478 0 01-2.07 4.12.148.148 0 00.13.218h3.088a.15.15 0 00.133-.082c2.284-4.612 3.965-8.7 6.264-15.899a.149.149 0 00-.141-.195h-2.868a.15.15 0 00-.143.108c-.885 3.078-1.7 5.487-2.646 7.809l-2.916-7.821a.148.148 0 00-.14-.096H46.43zM83.206 12.333a.146.146 0 01.14-.196h2.892c.062 0 .118.038.14.096l2.914 7.82c.946-2.321 1.762-4.73 2.647-7.808a.15.15 0 01.143-.108h2.868c.1 0 .172.1.14.195-2.298 7.2-3.979 11.287-6.263 15.9a.15.15 0 01-.133.08h-3.087a.148.148 0 01-.132-.216 144.943 144.943 0 002.07-4.12l-4.339-11.643zM114.657 12.137h2.854c.084 0 .149.065.146.147V23.15a.15.15 0 01-.101.144c-1.323.5-3.553 1.004-5.552 1.004-3.422 0-4.808-1.484-4.876-5.275-.003-.009-.003-6.72-.003-6.72v-.019c0-.082.065-.147.149-.147h2.854c.083 0 .149.065.149.147v6.674c.065 2.015.568 2.498 2.298 2.498.696 0 1.315-.082 1.933-.253v-8.918c0-.083.065-.148.149-.148z"/></symbol><symbol viewBox="0 0 22 22" id="icon-image" xmlns="http://www.w3.org/2000/svg"><path d="M4.583 2.75h12.834c1.012 0 1.833.82 1.833 1.833v12.834c0 1.012-.82 1.833-1.833 1.833H4.583a1.833 1.833 0 01-1.833-1.833V4.583c0-1.012.82-1.833 1.833-1.833z"/><path d="M14.209 9.166a1.375 1.375 0 110-2.75 1.375 1.375 0 010 2.75zM2.75 13.75l4.583-4.584L17.417 19.25"/></symbol><symbol viewBox="0 0 24 24" id="icon-left-arrow" xmlns="http://www.w3.org/2000/svg"><path d="M14.5 17.5l-5-5 5-5" stroke-width="2" stroke-linecap="round" stroke-linejoin="round"/></symbol><symbol viewBox="0 0 24 24" id="icon-list" xmlns="http://www.w3.org/2000/svg"><path d="M14 2H6a2 2 0 00-2 2v16a2 2 0 002 2h12a2 2 0 002-2V8l-6-6z"/><path d="M14 2v6h6M16 13H8M16 17H8M10 9H8"/></symbol><symbol viewBox="0 0 18 18" id="icon-pan" xmlns="http://www.w3.org/2000/svg"><path d="M15 6.18l-9.57 9.57H2.25v-3.18L11.82 3A2.25 2.25 0 0115 3v0a2.25 2.25 0 010 3.18z" stroke-width="1.5" stroke-linecap="round" stroke-linejoin="round"/></symbol><symbol viewBox="0 0 20 20" id="icon-profile" xmlns="http://www.w3.org/2000/svg"><path d="M14.166 6.667a4.166 4.166 0 11-8.332 0 4.166 4.166 0 018.332 0zM7.5 10.833A4.167 4.167 0 003.333 15v.833S5 17.5 10 17.5s6.666-1.667 6.666-1.667V15a4.167 4.167 0 00-4.166-4.167h-5z" stroke-width="1.5" stroke-linecap="round" stroke-linejoin="round"/></symbol><symbol viewBox="0 0 18 18" id="icon-red-pan" xmlns="http://www.w3.org/2000/svg"><path d="M7 2.778h4c.265 0 .52.093.707.26a.842.842 0 01.293.629v9.413a.842.842 0 01-.29.622L9 16.112l-2.71-2.41A.842.842 0 016 13.08V3.667c0-.236.105-.462.293-.629.187-.167.442-.26.707-.26v0zM9 16.11V17v-.889zM10 1H8v1.778h2V1z" stroke-width="1.5" stroke-linecap="round" stroke-linejoin="round"/></symbol><symbol viewBox="0 0 24 24" id="icon-user" xmlns="http://www.w3.org/2000/svg"><path d="M17 8A5 5 0 117 8a5 5 0 0110 0zm-8 5a5 5 0 00-5 5v1s2 2 8 2 8-2 8-2v-1a5 5 0 00-5-5H9z"/></symbol><symbol viewBox="0 0 24 24" id="info" xmlns="http://www.w3.org/2000/svg"><path d="M12.05 8h-.1M12 13v3m-9-4a9 9 0 019-9v0a9 9 0 019 9v0a9 9 0 01-9 9v0a9 9 0 01-9-9v0z" stroke-width="2" stroke-linecap="round" stroke-linejoin="round"/></symbol><symbol viewBox="0 0 15 15" id="insta" xmlns="http://www.w3.org/2000/svg"><g clip-path="url(#boclip0)"><path d="M8.804 8.804A2.288 2.288 0 009.5 7.125a2.29 2.29 0 00-.696-1.68 2.288 2.288 0 00-1.679-.695 2.29 2.29 0 00-1.68.696 2.288 2.288 0 00-.695 1.679c0 .656.232 1.215.696 1.68a2.288 2.288 0 001.679.695 2.29 2.29 0 001.68-.696zm.91-4.267c.71.71 1.066 1.574 1.066 2.588s-.355 1.877-1.067 2.588c-.71.712-1.574 1.067-2.588 1.067s-1.877-.355-2.588-1.067C3.825 9.003 3.47 8.14 3.47 7.125s.355-1.877 1.067-2.588c.71-.712 1.574-1.067 2.588-1.067s1.877.355 2.588 1.067zm1.818-1.819c.167.167.25.368.25.603a.822.822 0 01-.25.603.822.822 0 01-.603.25.822.822 0 01-.603-.25.822.822 0 01-.25-.603c0-.235.083-.436.25-.603a.822.822 0 01.603-.25c.235 0 .436.083.603.25zM7.835 1.276l-.71.004-.71-.004a50.37 50.37 0 00-.978 0c-.223.003-.522.012-.896.027a7.351 7.351 0 00-.955.093 3.72 3.72 0 00-.664.172 2.412 2.412 0 00-.816.538 2.407 2.407 0 00-.538.816c-.068.18-.125.4-.172.664a7.351 7.351 0 00-.093.955c-.015.374-.024.673-.027.896a50.37 50.37 0 000 .978l.004.71-.004.71c-.003.43-.003.756 0 .978.003.223.012.522.027.896.016.374.047.692.093.955.047.263.104.484.172.664.124.309.303.581.538.816.235.235.507.414.816.538.18.068.4.125.664.172.263.046.581.077.955.093.374.015.673.024.896.027.222.003.548.003.978 0l.71-.004.71.004c.43.003.756.003.978 0 .223-.003.522-.012.896-.027a7.51 7.51 0 00.955-.093c.263-.047.484-.104.664-.172.309-.124.581-.303.816-.538.235-.235.414-.507.538-.816.068-.18.125-.4.172-.664a7.51 7.51 0 00.093-.955c.015-.374.024-.673.027-.896.003-.222.003-.548 0-.978l-.004-.71.004-.71c.003-.43.003-.756 0-.978a34.288 34.288 0 00-.027-.896 7.358 7.358 0 00-.093-.955 3.715 3.715 0 00-.172-.664 2.406 2.406 0 00-.538-.816 2.406 2.406 0 00-.816-.538 3.77 3.77 0 00-.664-.172 7.352 7.352 0 00-.955-.093 34.376 34.376 0 00-.896-.027 50.37 50.37 0 00-.978 0zm6.369 2.908c.03.544.046 1.525.046 2.941s-.015 2.397-.046 2.94c-.062 1.287-.446 2.283-1.15 2.988-.706.705-1.702 1.089-2.988 1.15-.544.032-1.525.047-2.941.047s-2.397-.015-2.94-.046c-1.287-.062-2.283-.446-2.988-1.15-.705-.706-1.089-1.702-1.15-2.988C.014 9.522 0 8.54 0 7.125s.015-2.397.046-2.94c.062-1.287.446-2.283 1.15-2.988C1.903.492 2.899.108 4.185.047 4.728.014 5.71 0 7.125 0s2.397.015 2.94.046c1.287.062 2.283.446 2.988 1.15.705.706 1.089 1.702 1.15 2.988z"/></g><defs><clipPath id="boclip0"><path d="M0 0h14.25v14.25H0z"/></clipPath></defs></symbol><symbol viewBox="0 0 20 20" id="notification" xmlns="http://www.w3.org/2000/svg"><path d="M12.5 15a2.5 2.5 0 01-5 0m8.333 0H4.167V8.333A5.833 5.833 0 0110 2.5v0a5.833 5.833 0 015.833 5.833V15zM2.5 15h15-15z" stroke-width="1.5" stroke-linecap="round" stroke-linejoin="round"/></symbol><symbol viewBox="0 0 120 180" id="od" xmlns="http://www.w3.org/2000/svg"><path d="M21.715 177.212c-3.876-2.364-6.624-8.097-5.687-11.867.38-1.523 7.745-9.75 17.71-19.781 10.99-11.063 16.864-17.684 16.509-18.61-.325-.846-2.647-1.714-5.646-2.112-8.42-1.117-19.107-5.273-26.435-10.28C8.15 107.719 5.664 102.739 9.02 96.248c3.88-7.502 9.05-7.734 22.211-.997 11.932 6.108 19.078 7.99 30.255 7.972 13.453-.024 20.704-2.236 36.024-10.994 5.19-2.967 10.529-2.632 14.041.88 5.669 5.669 5.138 11.463-1.628 17.77-7.17 6.684-25.424 14.358-34.152 14.358-1.17 0-2.428.487-2.795 1.08-.375.606 6.793 8.628 16.305 18.25 9.335 9.444 17.302 18.222 17.704 19.507 1.945 6.222-2.986 13.725-9.74 14.821-5.062.822-8.037-1.298-22.577-16.088-6.796-6.913-12.653-12.57-13.014-12.57-.362 0-6.5 5.881-13.643 13.07-16.742 16.849-19.272 18.187-26.296 13.905zm26.608-88.906c-21.365-6.83-34.675-27.867-31.678-50.069C18.98 20.927 32.963 5.222 49.985.79c21.292-5.544 43.236 4.918 52.839 25.19 3.049 6.436 3.201 7.331 3.201 18.758 0 11.438-.15 12.318-3.215 18.788-3.79 8.003-12.212 17.267-19.11 21.021-10.463 5.694-24.622 7.2-35.377 3.76zm22.92-23.422c7.29-3.77 12.238-11.916 12.238-20.147 0-18.567-21.929-28.774-35.98-16.746C31.04 42.08 42.2 68.76 63.72 66.777c2.584-.238 5.968-1.09 7.521-1.893z"/></symbol><symbol viewBox="0 0 24 24" id="orders" xmlns="http://www.w3.org/2000/svg"><path d="M16.95 15h.1M21 10v10a1 1 0 01-1 1H4a1 1 0 01-1-1V10a1 1 0 011-1h16a1 1 0 011 1zm-3.79-1L19 6.44 14.09 3 9.88 9h7.33zM9.09 3L4.88 9h5l2.56-3.65L9.09 3z" stroke-width="2" stroke-linecap="round" stroke-linejoin="round"/></symbol><symbol viewBox="0 0 18 18" id="pen" xmlns="http://www.w3.org/2000/svg"><path d="M15 6.18l-9.57 9.57H2.25v-3.18L11.82 3A2.25 2.25 0 0115 3v0a2.25 2.25 0 010 3.18z" stroke-width="1.5" stroke-linecap="round" stroke-linejoin="round"/></symbol><symbol viewBox="0 0 20 20" id="phone" xmlns="http://www.w3.org/2000/svg"><path d="M17.5 12.5v3.275a1.666 1.666 0 01-1.909 1.667A15 15 0 012.616 4.408 1.667 1.667 0 014.275 2.5H7.5a.833.833 0 01.833.742 8.95 8.95 0 00.833 3.15.833.833 0 01-.35 1.05L8.1 7.85a.833.833 0 00-.275 1.217 11.733 11.733 0 003.075 3.075.833.833 0 001.216-.275l.409-.717a.833.833 0 011.083-.317c.99.469 2.058.751 3.15.834a.834.834 0 01.742.833z" stroke-width="1.5" stroke-linecap="round" stroke-linejoin="round"/></symbol><symbol viewBox="0 0 24 24" id="save" xmlns="http://www.w3.org/2000/svg"><path d="M20 7v13a1 1 0 01-1 1H5a1 1 0 01-1-1V4a1 1 0 011-1h11l4 4zM8 7h2-2zm8 8H8v6h8v-6z" stroke-width="2" stroke-linecap="round" stroke-linejoin="round"/></symbol><symbol viewBox="0 0 24 24" id="sequrity" xmlns="http://www.w3.org/2000/svg"><path d="M16 9V7a4 4 0 10-8 0v2m10 12H6a1 1 0 01-1-1V10a1 1 0 011-1h12a1 1 0 011 1v10a1 1 0 01-1 1z" stroke-width="2" stroke-linecap="round" stroke-linejoin="round"/></symbol><symbol viewBox="0 0 24 24" id="settings" xmlns="http://www.w3.org/2000/svg"><path d="M19.29 9.39l1.9 1.9a1 1 0 010 1.42l-1.9 1.9a1 1 0 00-.29.7V18a1 1 0 01-1 1h-2.69a1 1 0 00-.7.29l-1.9 1.9a1 1 0 01-1.42 0l-1.9-1.9a1 1 0 00-.7-.29H6a1 1 0 01-1-1v-2.69a1 1 0 00-.29-.7l-1.9-1.9a1 1 0 010-1.42l1.9-1.9a1 1 0 00.29-.7V6a1 1 0 011-1h2.69a1 1 0 00.7-.29l1.9-1.9a.999.999 0 011.42 0l1.9 1.9a1 1 0 00.7.29H18a1 1 0 011 1v2.69a1 1 0 00.29.7zM12 9a3 3 0 100 6 3 3 0 000-6z" stroke-width="2" stroke-linecap="round" stroke-linejoin="round"/></symbol><symbol viewBox="0 0 24 24" id="sign-out" xmlns="http://www.w3.org/2000/svg"><path d="M13 8V4a1 1 0 00-1-1H4a1 1 0 00-1 1v16a1 1 0 001 1h8a1 1 0 001-1v-4M17 16l4-4-4-4m-9 4h13H8z" stroke-width="2" stroke-linecap="round" stroke-linejoin="round"/></symbol><symbol viewBox="0 0 24 24" id="signature" xmlns="http://www.w3.org/2000/svg"><g stroke-width="2" stroke-linecap="round" stroke-linejoin="round"><path d="M12 3H4a1 1 0 00-1 1v16a1 1 0 001 1h16a1 1 0 001-1v-8"/><path d="M14 10l-2 2m7.44-3.78C17.53 10.41 14 10 14 10s-.39-4 1.53-6.18c.167-.197.354-.375.56-.53L18 4l.47-1.82A8.19 8.19 0 0121 2s.36 4-1.56 6.22z"/></g></symbol><symbol viewBox="0 0 24 24" id="taxes" xmlns="http://www.w3.org/2000/svg"><g stroke-width="2" stroke-linecap="round" stroke-linejoin="round"><path d="M14 2H6a2 2 0 00-2 2v16a2 2 0 002 2h12a2 2 0 002-2V8l-6-6z"/><path d="M14 2v6h6M16 13H8M16 17H8M10 9H8"/></g></symbol><symbol viewBox="0 0 310 170" id="vk" xmlns="http://www.w3.org/2000/svg"><path d="M136.862 168.33c-38.732-6.675-66.574-30.204-100.236-84.707C25.74 65.994 1.184 18.043 1.184 14.41c0-1.455 1.07-3.29 2.635-4.522C6.33 7.914 7.666 7.816 32.07 7.82c23.692.003 25.857.15 28.835 1.967 2.596 1.582 4.857 5.315 11.66 19.246 13.774 28.2 31.154 52.373 39.09 54.364 3.668.921 7.21-2.628 9.015-9.035 3.55-12.597 2.628-44.485-1.523-52.622-1.977-3.875-6.49-7.276-11.221-8.457-1.518-.379-3.02-1.109-3.336-1.622-.997-1.613 2.463-5.737 6.57-7.832 3.68-1.878 5.858-2.013 32.337-2.013 27.9 0 28.451.04 31.79 2.281 5.211 3.499 5.726 7.084 5.818 40.509.074 27.011.232 29.588 2.038 33.126 3.514 6.89 8.252 6.97 14.97.252 11.308-11.309 23.905-31.269 33.728-53.444 2.978-6.724 6.549-13.237 7.935-14.474 2.494-2.227 2.833-2.25 32.215-2.249 26.267.002 30.098.204 33.194 1.75 2.91 1.454 3.551 2.363 3.804 5.387.704 8.437-7.114 21.643-30.705 51.862-19.376 24.82-21.145 28.2-17.962 34.316.625 1.2 10.206 11.184 21.29 22.184 14.87 14.756 21.127 21.698 23.864 26.477 4.747 8.29 4.96 12.926.786 17.1l-2.923 2.923h-28.54c-37.699 0-34.875 1.004-55.614-19.784-8.525-8.545-16.85-16.363-18.5-17.373-9.536-5.836-16.488 1.934-19.012 21.25-1.133 8.666-1.726 10.6-3.93 12.807-2.551 2.553-2.87 2.603-17.828 2.781-9.104.108-18.376-.361-23.052-1.167z"/></symbol></svg>