<?xml version="1.0" encoding="utf-8"?><svg xmlns="http://www.w3.org/2000/svg" xmlns:xlink="http://www.w3.org/1999/xlink"><symbol fill="none" viewBox="0 0 101 92" id="error" xmlns="http://www.w3.org/2000/svg"><path d="M41.421 5.32L1.891 76.53a10.265 10.265 0 00.022 10.353 10.346 10.346 0 003.835 3.77A10.426 10.426 0 0010.97 92h79.062c1.83.016 3.63-.449 5.22-1.347a10.345 10.345 0 003.836-3.77 10.268 10.268 0 00.023-10.353L59.579 5.32a10.341 10.341 0 00-3.81-3.891 10.423 10.423 0 00-10.538 0 10.342 10.342 0 00-3.81 3.891z" fill="#F4F4F4"/><path d="M50.5 30v26" stroke="#EE5238" stroke-width="6" stroke-linecap="round" stroke-linejoin="round"/><path d="M50.55 72h-.1" stroke="#EE5238" stroke-width="8" stroke-linecap="round" stroke-linejoin="round"/></symbol><symbol fill="none" viewBox="0 0 188 52" id="gosuslugi" xmlns="http://www.w3.org/2000/svg"><path d="M63.6 30.594a.233.233 0 00-.12-.127.25.25 0 00-.174-.008c-.99.363-2.63.657-3.922.657-2.827 0-4.175-.754-4.175-5.038 0-3.425.414-5.039 4.175-5.039 1.066 0 2.357.152 3.615.514a.223.223 0 00.26-.11c.349-.758.855-1.985 1.228-2.889l.147-.354a.217.217 0 00.004-.185.232.232 0 00-.14-.127 18.738 18.738 0 00-5.408-.826c-5.923 0-8.563 2.76-8.563 8.953 0 6.28 2.64 9.082 8.563 9.082 1.484 0 4.41-.307 5.82-.863a.224.224 0 00.129-.282L63.6 30.594zM17.785 17.745c0-.118.096-.213.215-.213h12.164c.152 0 .255.155.196.295l-1.506 3.582a.21.21 0 01-.218.13.216.216 0 01-.021 0H22.34v12.876a.214.214 0 01-.215.214H18a.214.214 0 01-.215-.214v-16.67z" fill="#0066B3"/><path fill-rule="evenodd" clip-rule="evenodd" d="M31.379 26.014c0-6.442 2.255-8.951 8.046-8.951 5.837 0 8.113 2.509 8.113 8.95 0 6.54-2.276 9.084-8.113 9.084-5.791 0-8.046-2.543-8.046-9.083zm4.585.064c0 4.541.822 5.266 3.46 5.266 2.69 0 3.528-.725 3.528-5.266 0-4.836-.915-5.266-3.527-5.266-2.563 0-3.46.43-3.46 5.266z" fill="#0066B3"/><path d="M98.257 30.594a.232.232 0 00-.295-.135c-.99.363-2.63.657-3.921.657-2.828 0-4.175-.754-4.175-5.038 0-3.425.414-5.039 4.175-5.039 1.066 0 2.356.152 3.614.514a.223.223 0 00.26-.11c.35-.758.856-1.985 1.229-2.889l.146-.354a.218.218 0 00.004-.185.232.232 0 00-.14-.127 18.738 18.738 0 00-5.407-.826c-5.924 0-8.563 2.76-8.563 8.953 0 6.28 2.64 9.082 8.563 9.082 1.484 0 4.409-.307 5.82-.863a.224.224 0 00.128-.282l-1.438-3.358zM101.866 34.628h4.236c.09 0 .176-.06.202-.145.653-2.034 1.232-4.323 1.722-6.847a54.55 54.55 0 00.829-6.097h4.142v12.876c0 .118.096.213.215.213h4.125a.214.214 0 00.215-.213v-16.67a.214.214 0 00-.215-.214h-12.591c-.116 0-.21.09-.215.205a70.383 70.383 0 01-.914 8.518c-.511 3.002-1.249 5.71-1.957 8.101a.214.214 0 00.206.273zM140.258 17.531a.214.214 0 00-.215.213v16.671c0 .118.096.213.215.213h4.125a.214.214 0 00.215-.213V21.539h6.275l.021-.001a.209.209 0 00.217-.13l1.507-3.581a.213.213 0 00-.196-.296h-12.164zM67.018 17.532a.211.211 0 00-.201.283l6.268 16.816a209.979 209.979 0 01-2.99 5.952.214.214 0 00.189.313h4.46a.217.217 0 00.192-.117c3.299-6.662 5.727-12.567 9.047-22.966a.215.215 0 00-.203-.281h-4.142a.217.217 0 00-.208.156c-1.278 4.446-2.456 7.925-3.822 11.279l-4.21-11.297a.214.214 0 00-.202-.138h-4.178zM120.142 17.814a.212.212 0 01.202-.283h4.177c.09 0 .17.056.201.139l4.211 11.296c1.366-3.353 2.544-6.833 3.823-11.278a.216.216 0 01.207-.157h4.142c.146 0 .248.145.203.282-3.32 10.398-5.748 16.303-9.048 22.965a.216.216 0 01-.192.117h-4.459a.215.215 0 01-.19-.312 208.103 208.103 0 002.991-5.952l-6.268-16.817zM165.571 17.531h4.123c.12 0 .215.094.21.213v15.694a.215.215 0 01-.146.209c-1.911.723-5.132 1.45-8.019 1.45-4.943 0-6.945-2.144-7.043-7.62-.005-.012-.005-9.707-.005-9.707v-.026c0-.12.095-.213.215-.213h4.123c.12 0 .215.094.215.213v9.64c.094 2.91.82 3.608 3.32 3.608 1.005 0 1.899-.12 2.792-.366V17.744c0-.12.094-.213.215-.213z" fill="#EE2F53"/></symbol><symbol fill="none" viewBox="0 0 24 24" id="icon-arror-border" xmlns="http://www.w3.org/2000/svg"><path d="M12 2c5.523 0 10 4.477 10 10s-4.477 10-10 10S2 17.523 2 12 6.477 2 12 2z" fill="#FBD9C9"/><path d="M9 13l3-3 3 3" stroke="#EE5238" stroke-width="2" stroke-linecap="round" stroke-linejoin="round"/></symbol><symbol fill="none" viewBox="0 0 37 36" id="icon-compensation" xmlns="http://www.w3.org/2000/svg"><path d="M13.602 11.38c4.729 0 8.561-1.32 8.561-2.948s-3.832-2.948-8.56-2.948c-4.729 0-8.562 1.32-8.562 2.948s3.833 2.947 8.561 2.947zM22.17 12.262c0 1.626-3.837 2.948-8.568 2.948-4.73 0-8.561-1.322-8.561-2.948m10.986 6.542h-2.425c-4.73 0-8.561-1.322-8.561-2.947m9.596 6.643h-1.035c-4.73 0-8.561-1.317-8.561-2.948m10.04 6.62c-.491.045-.985.06-1.479.046-4.73 0-8.561-1.322-8.561-2.948m0 .029V8.443m17.128 8.437V8.432" stroke="#C79569" stroke-width="1.5" stroke-linecap="round"/><path d="M23.648 23.096c4.728 0 8.561-1.32 8.561-2.947 0-1.628-3.833-2.948-8.56-2.948-4.73 0-8.562 1.32-8.562 2.948 0 1.627 3.833 2.947 8.561 2.947zM32.21 23.98c0 1.63-3.831 2.947-8.562 2.947-4.73 0-8.567-1.317-8.567-2.948m17.128 3.583c0 1.631-3.83 2.953-8.561 2.953-4.73 0-8.567-1.316-8.567-2.953m0-.045v-7.79M32.21 27.68v-7.633" stroke="#EE5238" stroke-width="1.5" stroke-linecap="round"/></symbol><symbol fill="none" viewBox="0 0 37 36" id="icon-compensation-active" xmlns="http://www.w3.org/2000/svg"><path d="M13.602 11.38c4.729 0 8.561-1.32 8.561-2.948s-3.832-2.948-8.56-2.948c-4.729 0-8.562 1.32-8.562 2.948s3.833 2.947 8.561 2.947zM22.17 12.262c0 1.626-3.837 2.948-8.568 2.948-4.73 0-8.561-1.322-8.561-2.948m10.986 6.542h-2.425c-4.73 0-8.561-1.322-8.561-2.947m9.596 6.643h-1.035c-4.73 0-8.561-1.317-8.561-2.948m10.04 6.62c-.491.045-.985.06-1.479.046-4.73 0-8.561-1.322-8.561-2.948m0 .029V8.443m17.128 8.437V8.432" stroke="#EE5238" stroke-width="1.5" stroke-linecap="round"/><path d="M23.648 23.096c4.728 0 8.561-1.32 8.561-2.947 0-1.628-3.833-2.948-8.56-2.948-4.73 0-8.562 1.32-8.562 2.948 0 1.627 3.833 2.947 8.561 2.947zM32.21 23.98c0 1.63-3.831 2.947-8.562 2.947-4.73 0-8.567-1.317-8.567-2.948m17.128 3.583c0 1.631-3.83 2.953-8.561 2.953-4.73 0-8.567-1.316-8.567-2.953m0-.045v-7.79M32.21 27.68v-7.633" stroke="#EE5238" stroke-width="1.5" stroke-linecap="round"/></symbol><symbol fill="none" viewBox="0 0 37 36" id="icon-ecp" xmlns="http://www.w3.org/2000/svg"><path d="M31.005 5.4H5.245c-.664 0-1.202.538-1.202 1.202v18.05c0 .664.538 1.202 1.202 1.202h25.76c.664 0 1.202-.538 1.202-1.202V6.602c0-.664-.538-1.202-1.202-1.202z" stroke="#C79569" stroke-width="1.5"/><path d="M4.043 21.963h28.164M12.8 30.6a3.968 3.968 0 002.112-4.76m9.067 4.76a3.962 3.962 0 01-2.112-4.76" stroke="#C79569" stroke-width="1.5"/><path d="M9.498 30.602h17.253" stroke="#C79569" stroke-width="1.5" stroke-linecap="round"/><path d="M9.082 10.374l1.725 1.208 2.136-3.005m-4.111 7.627l1.72 1.202 2.135-3.004m3.415-3.85H28.49M16.102 16.61H28.49" stroke="#EE5238" stroke-width="1.5"/></symbol><symbol fill="none" viewBox="0 0 37 36" id="icon-ecp-active" xmlns="http://www.w3.org/2000/svg"><path d="M31.005 5.4H5.245c-.664 0-1.202.538-1.202 1.202v18.05c0 .664.538 1.202 1.202 1.202h25.76c.664 0 1.202-.538 1.202-1.202V6.602c0-.664-.538-1.202-1.202-1.202z" stroke="#EE5238" stroke-width="1.5"/><path d="M4.043 21.963h28.164M12.8 30.6a3.968 3.968 0 002.112-4.76m9.067 4.76a3.962 3.962 0 01-2.112-4.76" stroke="#EE5238" stroke-width="1.5"/><path d="M9.498 30.602h17.253" stroke="#EE5238" stroke-width="1.5" stroke-linecap="round"/><path d="M9.082 10.374l1.725 1.208 2.136-3.005m-4.111 7.627l1.72 1.202 2.135-3.004m3.415-3.85H28.49M16.102 16.61H28.49" stroke="#EE5238" stroke-width="1.5"/></symbol><symbol fill="none" viewBox="0 0 37 36" id="icon-events" xmlns="http://www.w3.org/2000/svg"><path d="M29.243 15.692v8.074c.004.228-.058.453-.176.645a1.15 1.15 0 01-.49.441l-7.913 3.594a6.737 6.737 0 01-6.148-.268l-5.682-3.216a1.169 1.169 0 01-.439-.437 1.217 1.217 0 01-.16-.607v-7.999" stroke="#C79569" stroke-width="1.5" stroke-linecap="round"/><path d="M16.828 5.845L3.484 12.284a.566.566 0 00-.319.516.581.581 0 00.319.517l12.919 6.665a4.512 4.512 0 004.024 0L33.7 13.43a.566.566 0 00.319-.516.581.581 0 00-.32-.517L20.788 5.885a4.456 4.456 0 00-3.959-.04v0z" stroke="#EE5238" stroke-width="1.5" stroke-linecap="round"/><path d="M18.581 12.937l-14.182.86.197 8.197M4.616 25.64c.914 0 1.655-.755 1.655-1.686 0-.931-.74-1.686-1.655-1.686s-1.656.755-1.656 1.686c0 .931.741 1.686 1.656 1.686z" stroke="#C79569" stroke-width="1.5" stroke-linecap="round"/><path d="M5.185 25.534l1.309 4.18H2.737l1.329-4.18" stroke="#C79569" stroke-width="1.5" stroke-linecap="round"/></symbol><symbol fill="none" viewBox="0 0 37 36" id="icon-events-active" xmlns="http://www.w3.org/2000/svg"><path d="M29.243 15.692v8.074c.004.228-.058.453-.176.645a1.15 1.15 0 01-.49.441l-7.913 3.594a6.737 6.737 0 01-6.148-.268l-5.682-3.216a1.169 1.169 0 01-.439-.437 1.217 1.217 0 01-.16-.607v-7.999" stroke="#EE5238" stroke-width="1.5" stroke-linecap="round"/><path d="M16.828 5.845L3.484 12.284a.566.566 0 00-.319.516.581.581 0 00.319.517l12.919 6.665a4.512 4.512 0 004.024 0L33.7 13.43a.566.566 0 00.319-.516.581.581 0 00-.32-.517L20.788 5.885a4.456 4.456 0 00-3.959-.04v0z" stroke="#EE5238" stroke-width="1.5" stroke-linecap="round"/><path d="M18.581 12.937l-14.182.86.197 8.197M4.616 25.64c.914 0 1.655-.755 1.655-1.686 0-.931-.74-1.686-1.655-1.686s-1.656.755-1.656 1.686c0 .931.741 1.686 1.656 1.686z" stroke="#EE5238" stroke-width="1.5" stroke-linecap="round"/><path d="M5.185 25.534l1.309 4.18H2.737l1.329-4.18" stroke="#EE5238" stroke-width="1.5" stroke-linecap="round"/></symbol><symbol fill="none" viewBox="0 0 37 36" id="icon-grants" xmlns="http://www.w3.org/2000/svg"><path d="M26.608 23.01a.75.75 0 00-1.302.746l1.302-.746zm3.287 7.241l-.651.373.002.004.649-.377zm-.13.31l-.282.695.009.003.273-.698zm-4.843-1.969l.283-.695-.027-.01-.027-.01-.229.715zm-.174.107l-.74-.12-.003.016-.002.016.745.088zm-.596 5.062l.734.152.007-.032.003-.032-.744-.088zm-.338-.033l-.656.362.003.007.005.007.648-.376zm-4.573-8.275l.656-.363a.75.75 0 00-1.324.023l.668.34zm-4.224 8.297l.639.392.015-.025.014-.027-.668-.34zm-.338.04l-.743.102.006.04.01.04.727-.183zm-.714-5.175l.743-.103-.004-.024-.005-.024-.734.15zm-.175-.102l-.234-.712-.032.01-.03.014.296.688zm-4.708 2.03l.206.722.047-.013.044-.02-.297-.688zm-.135-.314l.645.383.005-.01-.65-.373zm4.588-6.472a.75.75 0 00-1.3-.748l1.3.748zm5.757-14.256l-.677.323.004.008.673-.331zm1.518 3.088l-.673.33.01.022.013.021.65-.373zm.045.028l.11-.742-.03-.004-.03-.002-.05.748zm3.375.495l-.108.742.054.008h.054v-.75zm.034.096l-.48-.576-.022.018-.021.02.523.538zM21.8 15.61l-.523-.537-.074.072-.052.09.65.375zm-.006.025h-.75.75zm.006.025l.74-.123-.022-.134-.068-.118-.65.375zm.563 3.375l-.74.123.002.01.002.011.736-.144zm-.079.062l-.349.664.017.009.018.008.314-.681zm-3.049-1.603l-.482.574.062.052.071.038.35-.664zm-.05 0l.357.66.066-.037.059-.049-.482-.574zm-3.015 1.631l.274.698.043-.017.04-.021-.357-.66zm-.085-.062l-.74-.123-.005.035-.003.036.748.052zm.563-3.375l-.67-.337-.051.101-.019.113.74.123zm0-.05l.67-.338-.057-.112-.09-.088-.523.538zm-2.47-2.402l-.61.436.04.055.047.046.523-.537zm.034-.096l-.108-.742-.047.007-.046.013.201.722zm3.403-.495l-.005-.75h-.052l-.05.008.107.742zm.045-.028l.672.333v-.001l-.672-.332zm1.525-3.088l.672.332.09-.182-.014-.202-.748.052zm6.122 14.227l3.937 6.868 1.301-.746-3.937-6.868-1.302.746zm3.94 6.872a.49.49 0 01-.01-.454.611.611 0 01.283-.287.644.644 0 01.519-.025l-.547 1.397a.857.857 0 00.697-.03.889.889 0 00.407-.422 1.01 1.01 0 00-.053-.932l-1.297.753zm.8-.762l-4.842-1.969-.565 1.39 4.843 1.969.565-1.39zm-4.896-1.988a.884.884 0 00-.376-.036l.18 1.49a.614.614 0 01-.261-.026l.457-1.428zm-.376-.036a.884.884 0 00-.356.124l.783 1.279a.614.614 0 01-.247.086l-.18-1.489zm-.356.124a.884.884 0 00-.273.261l1.246.836a.615.615 0 01-.19.182l-.783-1.279zm-.273.261a.884.884 0 00-.138.351l1.48.242a.617.617 0 01-.096.243l-1.246-.836zm-.143.384l-.596 5.063 1.49.175.596-5.062-1.49-.176zm-.586 4.998a.613.613 0 01.245-.37.62.62 0 01.424-.114c.22.023.334.152.377.226l-1.297.753c.144.249.41.476.764.513a.88.88 0 00.605-.157.888.888 0 00.351-.547l-1.469-.304zm1.053-.244l-4.573-8.275-1.313.726 4.574 8.274 1.313-.725zm-5.897-8.252l-4.225 8.297 1.337.68 4.224-8.296-1.336-.681zm-4.196 8.245a.475.475 0 01.358-.209.622.622 0 01.672.459l-1.456.363a.878.878 0 00.958.668c.353-.041.607-.269.747-.497l-1.279-.784zm1.045.329l-.714-5.175-1.486.205.714 5.175 1.486-.205zm-.723-5.223a.884.884 0 00-.148-.339L13.333 29a.614.614 0 01-.103-.235l1.47-.3zm-.148-.339a.884.884 0 00-.274-.249l-.753 1.297a.615.615 0 01-.191-.173l1.218-.875zm-.274-.249a.886.886 0 00-.352-.115l-.157 1.492a.617.617 0 01-.244-.08l.753-1.297zm-.352-.115a.884.884 0 00-.369.04l.468 1.425a.615.615 0 01-.256.027l.157-1.492zm-.432.064l-4.708 2.03.594 1.378 4.708-2.031-.594-1.377zm-4.617 1.998a.618.618 0 01.725.344c.094.211.03.38-.009.445l-1.29-.766a1.017 1.017 0 00-.072.929.882.882 0 001.058.49l-.412-1.442zm.721.78l3.938-6.846-1.3-.748-3.938 6.846 1.3.748zM18.62 9.832l1.518 3.088 1.346-.662-1.518-3.088-1.346.662zm1.54 3.13c.067.115.16.212.273.283l.795-1.272c.097.06.177.144.234.243l-1.301.746zm.273.283c.112.07.24.111.373.12l.1-1.496a.694.694 0 01.322.104l-.795 1.272zm.315.114l3.375.495.217-1.484-3.375-.495-.217 1.484zm3.483.503a.7.7 0 01-.662-.468.698.698 0 01.216-.762l.96 1.152a.802.802 0 00.242-.88.8.8 0 00-.756-.542v1.5zm-.49-1.191l-2.463 2.402 1.047 1.073 2.464-2.401-1.047-1.074zm-2.59 2.564a.8.8 0 00-.106.4h1.5a.7.7 0 01-.094.35l-1.3-.75zm-.106.4a.8.8 0 00.107.4l1.299-.75a.7.7 0 01.094.35h-1.5zm.017.148l.562 3.375 1.48-.246-.563-3.375-1.48.246zm.566 3.396a.694.694 0 01.03-.375l1.406.523a.805.805 0 00.036-.436l-1.472.288zm.03-.375a.693.693 0 01.222-.304l.927 1.18a.806.806 0 00.257-.353l-1.406-.523zm.222-.304c.1-.078.22-.128.348-.143l.175 1.49a.807.807 0 00.404-.167l-.927-1.18zm.348-.143a.694.694 0 01.371.059l-.628 1.362a.807.807 0 00.432.069l-.175-1.49zm.406.076l-3.049-1.603-.698 1.328 3.049 1.603.698-1.328zm-2.915-1.514a.79.79 0 00-.508-.184v1.5a.71.71 0 01-.457-.167l.965-1.149zm-.508-.184a.79.79 0 00-.508.184l.965 1.15a.71.71 0 01-.457.166v-1.5zm-.382.1l-3.015 1.63.714 1.32 3.015-1.631-.714-1.32zm-2.933 1.592a.689.689 0 01.34-.042l-.192 1.488c.136.017.274 0 .401-.05l-.549-1.396zm.34-.042a.69.69 0 01.319.128l-.887 1.21c.11.08.24.132.376.15l.193-1.488zm.319.128c.094.068.168.16.217.265l-1.36.631a.813.813 0 00.256.313l.887-1.21zm.217.265c.05.105.07.222.063.337l-1.497-.104a.812.812 0 00.074.398l1.36-.631zm.054.409l.563-3.375-1.48-.247-.563 3.375 1.48.247zm.493-3.161a.807.807 0 00.086-.363h-1.5c0-.108.025-.215.074-.312l1.34.675zm.086-.363c0-.126-.03-.25-.086-.363l-1.34.675a.693.693 0 01-.074-.312h1.5zm-.233-.563l-2.47-2.402-1.046 1.075 2.47 2.402L17.17 15.1zm-2.383-2.3c.065.09.107.194.122.303l-1.485.21c.018.13.067.253.143.36l1.22-.874zm.122.303a.69.69 0 01-.032.326l-1.415-.5a.812.812 0 00-.038.385l1.485-.21zm-.032.326a.689.689 0 01-.18.274l-1.023-1.097a.811.811 0 00-.212.324l1.415.499zm-.18.274a.69.69 0 01-.285.16l-.402-1.445a.813.813 0 00-.336.188l1.023 1.097zm-.378.18l3.403-.496-.216-1.484-3.403.495.216 1.484zm3.3-.488a.8.8 0 00.42-.122l-.796-1.272a.698.698 0 01.366-.106l.01 1.5zm.42-.122a.8.8 0 00.292-.323l-1.344-.666a.699.699 0 01.256-.283l.795 1.272zm.293-.324l1.524-3.088-1.345-.664-1.524 3.088 1.345.664zm1.6-3.472a.694.694 0 01-.128.452l-1.22-.874a.806.806 0 00-.149.526l1.497-.104zm-.128.452a.694.694 0 01-.388.267l-.381-1.45a.807.807 0 00-.45.31l1.219.873zm-.388.267a.693.693 0 01-.468-.042l.63-1.36a.806.806 0 00-.543-.049l.381 1.45zm-.468-.042a.694.694 0 01-.334-.33l1.353-.646a.806.806 0 00-.388-.385l-.63 1.361z" fill="#EE5238"/><path d="M26.418 6.277l.484 1.469c.144.46.442.857.844 1.125L29 9.68a2.166 2.166 0 01.805 2.598l-.473 1.176c-.21.52-.21 1.1 0 1.62L29.8 16.2a2.155 2.155 0 01-.742 2.576l-1.109.799a2.171 2.171 0 00-.82 1.17l-.378 1.372a2.16 2.16 0 01-2.25 1.564l-1.181-.101a2.182 2.182 0 00-1.541.472l-1.125.917a2.155 2.155 0 01-2.728 0l-.996-.782a2.166 2.166 0 00-1.378-.495h-1.738a2.154 2.154 0 01-2.104-1.687l-.31-1.322a2.149 2.149 0 00-.888-1.3l-1.03-.714a2.16 2.16 0 01-.815-2.52l.484-1.327a2.171 2.171 0 000-1.496l-.434-1.16a2.171 2.171 0 01.85-2.575l1.125-.737c.44-.288.762-.726.905-1.232l.344-1.226a2.166 2.166 0 012.25-1.57l1.085.096a2.183 2.183 0 001.542-.473l1.029-.832a2.16 2.16 0 012.74 0l.933.776c.431.361.986.539 1.547.495l1.125-.084a2.16 2.16 0 012.227 1.473v0z" stroke="#C79569" stroke-width="1.5"/></symbol><symbol fill="none" viewBox="0 0 37 36" id="icon-grants-active" xmlns="http://www.w3.org/2000/svg"><path d="M26.608 23.01a.75.75 0 00-1.302.746l1.302-.746zm3.287 7.241l-.651.373.002.004.649-.377zm-.13.31l-.282.695.009.003.273-.698zm-4.843-1.969l.283-.695-.027-.01-.027-.01-.229.715zm-.174.107l-.74-.12-.003.016-.002.016.745.088zm-.596 5.062l.734.152.007-.032.003-.032-.744-.088zm-.338-.033l-.656.362.003.007.005.007.648-.376zm-4.573-8.275l.656-.363a.75.75 0 00-1.324.023l.668.34zm-4.224 8.297l.639.392.015-.025.014-.027-.668-.34zm-.338.04l-.743.102.006.04.01.04.727-.183zm-.714-5.175l.743-.103-.004-.024-.005-.024-.734.15zm-.175-.102l-.234-.712-.032.01-.03.014.296.688zm-4.708 2.03l.206.722.047-.013.044-.02-.297-.688zm-.135-.314l.645.383.005-.01-.65-.373zm4.588-6.472a.75.75 0 00-1.3-.748l1.3.748zm5.757-14.256l-.677.323.004.008.673-.331zm1.518 3.088l-.673.33.01.022.013.021.65-.373zm.045.028l.11-.742-.03-.004-.03-.002-.05.748zm3.375.495l-.108.742.054.008h.054v-.75zm.034.096l-.48-.576-.022.018-.021.02.523.538zM21.8 15.61l-.523-.537-.074.072-.052.09.65.375zm-.006.025h-.75.75zm.006.025l.74-.123-.022-.134-.068-.118-.65.375zm.563 3.375l-.74.123.002.01.002.011.736-.144zm-.079.062l-.349.664.017.009.018.008.314-.681zm-3.049-1.603l-.482.574.062.052.071.038.35-.664zm-.05 0l.357.66.066-.037.059-.049-.482-.574zm-3.015 1.631l.274.698.043-.017.04-.021-.357-.66zm-.085-.062l-.74-.123-.005.035-.003.036.748.052zm.563-3.375l-.67-.337-.051.101-.019.113.74.123zm0-.05l.67-.338-.057-.112-.09-.088-.523.538zm-2.47-2.402l-.61.436.04.055.047.046.523-.537zm.034-.096l-.108-.742-.047.007-.046.013.201.722zm3.403-.495l-.005-.75h-.052l-.05.008.107.742zm.045-.028l.672.333v-.001l-.672-.332zm1.525-3.088l.672.332.09-.182-.014-.202-.748.052zm6.122 14.227l3.937 6.868 1.301-.746-3.937-6.868-1.302.746zm3.94 6.872a.49.49 0 01-.01-.454.611.611 0 01.283-.287.644.644 0 01.519-.025l-.547 1.397a.857.857 0 00.697-.03.889.889 0 00.407-.422 1.01 1.01 0 00-.053-.932l-1.297.753zm.8-.762l-4.842-1.969-.565 1.39 4.843 1.969.565-1.39zm-4.896-1.988a.884.884 0 00-.376-.036l.18 1.49a.614.614 0 01-.261-.026l.457-1.428zm-.376-.036a.884.884 0 00-.356.124l.783 1.279a.614.614 0 01-.247.086l-.18-1.489zm-.356.124a.884.884 0 00-.273.261l1.246.836a.615.615 0 01-.19.182l-.783-1.279zm-.273.261a.884.884 0 00-.138.351l1.48.242a.617.617 0 01-.096.243l-1.246-.836zm-.143.384l-.596 5.063 1.49.175.596-5.062-1.49-.176zm-.586 4.998a.613.613 0 01.245-.37.62.62 0 01.424-.114c.22.023.334.152.377.226l-1.297.753c.144.249.41.476.764.513a.88.88 0 00.605-.157.888.888 0 00.351-.547l-1.469-.304zm1.053-.244l-4.573-8.275-1.313.726 4.574 8.274 1.313-.725zm-5.897-8.252l-4.225 8.297 1.337.68 4.224-8.296-1.336-.681zm-4.196 8.245a.475.475 0 01.358-.209.622.622 0 01.672.459l-1.456.363a.878.878 0 00.958.668c.353-.041.607-.269.747-.497l-1.279-.784zm1.045.329l-.714-5.175-1.486.205.714 5.175 1.486-.205zm-.723-5.223a.884.884 0 00-.148-.339L13.333 29a.614.614 0 01-.103-.235l1.47-.3zm-.148-.339a.884.884 0 00-.274-.249l-.753 1.297a.615.615 0 01-.191-.173l1.218-.875zm-.274-.249a.886.886 0 00-.352-.115l-.157 1.492a.617.617 0 01-.244-.08l.753-1.297zm-.352-.115a.884.884 0 00-.369.04l.468 1.425a.615.615 0 01-.256.027l.157-1.492zm-.432.064l-4.708 2.03.594 1.378 4.708-2.031-.594-1.377zm-4.617 1.998a.618.618 0 01.725.344c.094.211.03.38-.009.445l-1.29-.766a1.017 1.017 0 00-.072.929.882.882 0 001.058.49l-.412-1.442zm.721.78l3.938-6.846-1.3-.748-3.938 6.846 1.3.748zM18.62 9.832l1.518 3.088 1.346-.662-1.518-3.088-1.346.662zm1.54 3.13c.067.115.16.212.273.283l.795-1.272c.097.06.177.144.234.243l-1.301.746zm.273.283c.112.07.24.111.373.12l.1-1.496a.694.694 0 01.322.104l-.795 1.272zm.315.114l3.375.495.217-1.484-3.375-.495-.217 1.484zm3.483.503a.7.7 0 01-.662-.468.698.698 0 01.216-.762l.96 1.152a.802.802 0 00.242-.88.8.8 0 00-.756-.542v1.5zm-.49-1.191l-2.463 2.402 1.047 1.073 2.464-2.401-1.047-1.074zm-2.59 2.564a.8.8 0 00-.106.4h1.5a.7.7 0 01-.094.35l-1.3-.75zm-.106.4a.8.8 0 00.107.4l1.299-.75a.7.7 0 01.094.35h-1.5zm.017.148l.562 3.375 1.48-.246-.563-3.375-1.48.246zm.566 3.396a.694.694 0 01.03-.375l1.406.523a.805.805 0 00.036-.436l-1.472.288zm.03-.375a.693.693 0 01.222-.304l.927 1.18a.806.806 0 00.257-.353l-1.406-.523zm.222-.304c.1-.078.22-.128.348-.143l.175 1.49a.807.807 0 00.404-.167l-.927-1.18zm.348-.143a.694.694 0 01.371.059l-.628 1.362a.807.807 0 00.432.069l-.175-1.49zm.406.076l-3.049-1.603-.698 1.328 3.049 1.603.698-1.328zm-2.915-1.514a.79.79 0 00-.508-.184v1.5a.71.71 0 01-.457-.167l.965-1.149zm-.508-.184a.79.79 0 00-.508.184l.965 1.15a.71.71 0 01-.457.166v-1.5zm-.382.1l-3.015 1.63.714 1.32 3.015-1.631-.714-1.32zm-2.933 1.592a.689.689 0 01.34-.042l-.192 1.488c.136.017.274 0 .401-.05l-.549-1.396zm.34-.042a.69.69 0 01.319.128l-.887 1.21c.11.08.24.132.376.15l.193-1.488zm.319.128c.094.068.168.16.217.265l-1.36.631a.813.813 0 00.256.313l.887-1.21zm.217.265c.05.105.07.222.063.337l-1.497-.104a.812.812 0 00.074.398l1.36-.631zm.054.409l.563-3.375-1.48-.247-.563 3.375 1.48.247zm.493-3.161a.807.807 0 00.086-.363h-1.5c0-.108.025-.215.074-.312l1.34.675zm.086-.363c0-.126-.03-.25-.086-.363l-1.34.675a.693.693 0 01-.074-.312h1.5zm-.233-.563l-2.47-2.402-1.046 1.075 2.47 2.402L17.17 15.1zm-2.383-2.3c.065.09.107.194.122.303l-1.485.21c.018.13.067.253.143.36l1.22-.874zm.122.303a.69.69 0 01-.032.326l-1.415-.5a.812.812 0 00-.038.385l1.485-.21zm-.032.326a.689.689 0 01-.18.274l-1.023-1.097a.811.811 0 00-.212.324l1.415.499zm-.18.274a.69.69 0 01-.285.16l-.402-1.445a.813.813 0 00-.336.188l1.023 1.097zm-.378.18l3.403-.496-.216-1.484-3.403.495.216 1.484zm3.3-.488a.8.8 0 00.42-.122l-.796-1.272a.698.698 0 01.366-.106l.01 1.5zm.42-.122a.8.8 0 00.292-.323l-1.344-.666a.699.699 0 01.256-.283l.795 1.272zm.293-.324l1.524-3.088-1.345-.664-1.524 3.088 1.345.664zm1.6-3.472a.694.694 0 01-.128.452l-1.22-.874a.806.806 0 00-.149.526l1.497-.104zm-.128.452a.694.694 0 01-.388.267l-.381-1.45a.807.807 0 00-.45.31l1.219.873zm-.388.267a.693.693 0 01-.468-.042l.63-1.36a.806.806 0 00-.543-.049l.381 1.45zm-.468-.042a.694.694 0 01-.334-.33l1.353-.646a.806.806 0 00-.388-.385l-.63 1.361z" fill="#EE5238"/><path d="M26.418 6.277l.484 1.469c.144.46.442.857.844 1.125L29 9.68a2.166 2.166 0 01.805 2.598l-.473 1.176c-.21.52-.21 1.1 0 1.62L29.8 16.2a2.155 2.155 0 01-.742 2.576l-1.109.799a2.171 2.171 0 00-.82 1.17l-.378 1.372a2.16 2.16 0 01-2.25 1.564l-1.181-.101a2.182 2.182 0 00-1.541.472l-1.125.917a2.155 2.155 0 01-2.728 0l-.996-.782a2.166 2.166 0 00-1.378-.495h-1.738a2.154 2.154 0 01-2.104-1.687l-.31-1.322a2.149 2.149 0 00-.888-1.3l-1.03-.714a2.16 2.16 0 01-.815-2.52l.484-1.327a2.171 2.171 0 000-1.496l-.434-1.16a2.171 2.171 0 01.85-2.575l1.125-.737c.44-.288.762-.726.905-1.232l.344-1.226a2.166 2.166 0 012.25-1.57l1.085.096a2.183 2.183 0 001.542-.473l1.029-.832a2.16 2.16 0 012.74 0l.933.776c.431.361.986.539 1.547.495l1.125-.084a2.16 2.16 0 012.227 1.473v0z" stroke="#EE5238" stroke-width="1.5"/></symbol><symbol fill="none" viewBox="0 0 37 36" id="icon-hand" xmlns="http://www.w3.org/2000/svg"><path d="M7.86 23.24l5.198-3.272a1.475 1.475 0 011.133-.18c1.846.48 7.397 2 9.443 2.72 1.54.539 2.159 2.058 1.54 3.064-.84 1.333-2.12 1.2-3.04.94a2.406 2.406 0 01-.366-.133l-3.638-1.546M7.807 32.809L2.87 25.38a.806.806 0 01.227-1.113l3.119-1.999a.8.8 0 011.093.213l5.037 7.33a.807.807 0 01-.213 1.12L8.92 33.083a.8.8 0 01-1.113-.274v0z" stroke="#C79569" stroke-width="1.5" stroke-linecap="round"/><path d="M11.893 29.144l1.699-.973 9.616 2.666a.727.727 0 00.586-.094c1.333-.873 7.137-4.711 9.996-6.73a1.6 1.6 0 00.2-2.666 2.066 2.066 0 00-2.472-.213c-1 .56-3.779 2.619-3.779 2.619" stroke="#C79569" stroke-width="1.5" stroke-linecap="round"/><circle cx="25.985" cy="11.986" r="7.986" stroke="#EE5238" stroke-width="1.5"/><circle cx="26" cy="12" r="5" stroke="#EE5238" stroke-width="1.5"/></symbol><symbol fill="none" viewBox="0 0 37 36" id="icon-hand-active" xmlns="http://www.w3.org/2000/svg"><path d="M7.86 23.24l5.198-3.272a1.475 1.475 0 011.133-.18c1.846.48 7.397 2 9.443 2.72 1.54.539 2.159 2.058 1.54 3.064-.84 1.333-2.12 1.2-3.04.94a2.406 2.406 0 01-.366-.133l-3.638-1.546M7.807 32.809L2.87 25.38a.806.806 0 01.227-1.113l3.119-1.999a.8.8 0 011.093.213l5.037 7.33a.807.807 0 01-.213 1.12L8.92 33.083a.8.8 0 01-1.113-.274v0z" stroke="#EE5238" stroke-width="1.5" stroke-linecap="round"/><path d="M11.893 29.144l1.699-.973 9.616 2.666a.727.727 0 00.586-.094c1.333-.873 7.137-4.711 9.996-6.73a1.6 1.6 0 00.2-2.666 2.066 2.066 0 00-2.472-.213c-1 .56-3.779 2.619-3.779 2.619" stroke="#EE5238" stroke-width="1.5" stroke-linecap="round"/><circle cx="25.985" cy="11.986" r="7.986" stroke="#EE5238" stroke-width="1.5"/><circle cx="26" cy="12" r="5" stroke="#EE5238" stroke-width="1.5"/></symbol><symbol fill="none" viewBox="0 0 37 36" id="icon-house" xmlns="http://www.w3.org/2000/svg"><path d="M26.163 18.264h-2.248m2.248 2.925h-2.248m2.248 3.133h-2.248m2.248 2.918h-2.248m5.577 4.26H20.58V11.217l8.612 5.022a.645.645 0 01.3.553V31.5z" stroke="#EE5238" stroke-width="1.5" stroke-linecap="round"/><path d="M29.492 31.5H20.58V11.217m-4.357 2.13h-4.498m4.498 3.635h-4.498m4.498 3.582h-4.498m4.498 3.582h-4.498m4.498 3.583h-4.498M4.315 31.5h28.8m-12.599 0H7.656V11.601a.661.661 0 01.332-.566L19.57 4.58a.63.63 0 01.863.25.66.66 0 01.083.323V31.5z" stroke="#C79569" stroke-width="1.5" stroke-linecap="round"/></symbol><symbol fill="none" viewBox="0 0 37 36" id="icon-house-active" xmlns="http://www.w3.org/2000/svg"><path d="M26.163 18.264h-2.248m2.248 2.925h-2.248m2.248 3.133h-2.248m2.248 2.918h-2.248m5.577 4.26H20.58V11.217l8.612 5.022a.645.645 0 01.3.553V31.5z" stroke="#EE5238" stroke-width="1.5" stroke-linecap="round"/><path d="M29.492 31.5H20.58V11.217m-4.357 2.13h-4.498m4.498 3.635h-4.498m4.498 3.582h-4.498m4.498 3.582h-4.498m4.498 3.583h-4.498M4.315 31.5h28.8m-12.599 0H7.656V11.601a.661.661 0 01.332-.566L19.57 4.58a.63.63 0 01.863.25.66.66 0 01.083.323V31.5z" stroke="#EE5238" stroke-width="1.5" stroke-linecap="round"/></symbol><symbol fill="none" viewBox="0 0 37 36" id="icon-invest" xmlns="http://www.w3.org/2000/svg"><path d="M7.722 21.07h3.613v5.911H7.722v-5.91zm6.71-7.692h3.615v13.603h-3.614V13.378zm6.712 2.623h3.614v10.98h-3.614v-10.98zm6.711-7.806h3.614v18.791h-3.614V8.197z" stroke="#EE5238" stroke-width="1.5"/><path d="M4.588 4.943v25.224h28.879" stroke="#C79569" stroke-width="1.5"/></symbol><symbol fill="none" viewBox="0 0 37 36" id="icon-invest-active" xmlns="http://www.w3.org/2000/svg"><path d="M7.722 21.07h3.613v5.911H7.722v-5.91zm6.71-7.692h3.615v13.603h-3.614V13.378zm6.712 2.623h3.614v10.98h-3.614v-10.98zm6.711-7.806h3.614v18.791h-3.614V8.197z" stroke="#EE5238" stroke-width="1.5"/><path d="M4.588 4.943v25.224h28.879" stroke="#EE5238" stroke-width="1.5"/></symbol><symbol fill="none" viewBox="0 0 37 36" id="icon-lizing" xmlns="http://www.w3.org/2000/svg"><path d="M30.072 32.383H7.178V4.258a.056.056 0 01.09-.045L9.58 6.38a.068.068 0 00.073 0l1.856-2.188a.05.05 0 01.067 0l2.093 2.193a.062.062 0 00.073 0l1.85-2.188a.051.051 0 01.037-.015.05.05 0 01.037.015l1.609 2.177a.062.062 0 00.078 0l1.834-2.177a.05.05 0 01.057-.011.05.05 0 01.016.011l1.513 2.171a.056.056 0 00.08 0l1.62-2.17a.056.056 0 01.078 0l1.603 2.17a.056.056 0 00.079 0l1.535-2.16a.05.05 0 01.043-.022.05.05 0 01.042.022l1.265 2.16a.062.062 0 00.074 0l2.812-2.176a.056.056 0 01.084.05l-.017 28.142z" stroke="#C79569" stroke-width="1.5" stroke-linecap="round"/><path d="M11.548 24.491H26.51m-14.962 3.51H26.51" stroke="#EE5238" stroke-width="1.5" stroke-linecap="round"/><path d="M15.963 14.625a1.5 1.5 0 100-3 1.5 1.5 0 000 3zM21.963 19.875a1.5 1.5 0 100-3 1.5 1.5 0 000 3zM23.463 11.625l-9 8.25" stroke="#EE5238" stroke-width="1.5"/></symbol><symbol fill="none" viewBox="0 0 41 40" id="icon-lizing-2" xmlns="http://www.w3.org/2000/svg"><path d="M8.625 36h5m13-21v-2.929a1.734 1.734 0 00-.217-.848 1.799 1.799 0 00-.608-.645L15.625 4 5.45 10.578a1.8 1.8 0 00-.608.645c-.144.26-.218.552-.217.848V36h22v-5m-18-16v6h5v-6h-5zm0 10.5v6h5v-6h-5z" stroke="#C79569" stroke-width="1.5" stroke-linecap="round" stroke-linejoin="round"/><path d="M22.625 19v-4h-5v6h4" stroke="#C79569" stroke-width="1.5" stroke-linecap="round" stroke-linejoin="round"/><circle cx="29.625" cy="23" r="8" stroke="#EE5238" stroke-width="1.5"/><circle cx="29.625" cy="23" r="5" stroke="#EE5238" stroke-width="1.5"/></symbol><symbol fill="none" viewBox="0 0 41 40" id="icon-lizing-2-active" xmlns="http://www.w3.org/2000/svg"><path d="M8.625 36h5m13-21v-2.929a1.734 1.734 0 00-.217-.848 1.799 1.799 0 00-.608-.645L15.625 4 5.45 10.578a1.8 1.8 0 00-.608.645c-.144.26-.218.552-.217.848V36h22v-5m-18-16v6h5v-6h-5zm0 10.5v6h5v-6h-5z" stroke="#EE5238" stroke-width="1.5" stroke-linecap="round" stroke-linejoin="round"/><path d="M22.625 19v-4h-5v6h4" stroke="#EE5238" stroke-width="1.5" stroke-linecap="round" stroke-linejoin="round"/><circle cx="29.625" cy="23" r="8" stroke="#EE5238" stroke-width="1.5"/><circle cx="29.625" cy="23" r="5" stroke="#EE5238" stroke-width="1.5"/></symbol><symbol fill="none" viewBox="0 0 37 36" id="icon-lizing-3" xmlns="http://www.w3.org/2000/svg"><path d="M15.655 13.445a5.365 5.365 0 002.97-.873" stroke="#EE5238" stroke-width="1.5" stroke-linecap="round"/><circle cx="10.625" cy="10" r="2" stroke="#C79569" stroke-width="1.5"/><path d="M13.49 29.136l.645.646.268-.268v-.378h-.913zm-5.73 0L7 28.63a.913.913 0 00.115 1.15l.646-.645zm0-13.677h.914v-.547l-.483-.258-.43.805zm5.73 0l-.43-.805-.483.258v.547h.913zM10.625 32l-.646.646.646.646.646-.646-.646-.646zm-2.864-9.345L7 22.15a.913.913 0 000 1.01l.76-.505zm0-3.24h-.913c0 .179.052.355.152.504l.76-.505zm1.074 1.62l.76.504a.913.913 0 000-1.009l-.76.505zm-1.074 4.86L7 25.391A.913.913 0 007 26.4l.76-.505zm1.074-1.62l.76.505a.913.913 0 000-1.01l-.76.505zm0 3.24l.76.505a.913.913 0 000-1.009l-.76.505zM5.45 10.088a5.174 5.174 0 015.174-5.174V3.087a7 7 0 00-7 7h1.826zm5.174-5.174a5.174 5.174 0 015.174 5.174h1.826a7 7 0 00-7-7v1.826zm1.952 11.261v12.962h1.826V16.174h-1.826zm-4.386-1.52a5.173 5.173 0 01-2.74-4.567H3.625a7 7 0 003.705 6.178l.86-1.611zm.483 1.52v-.715H6.848v.715h1.826zm7.125-6.087a5.173 5.173 0 01-2.74 4.567l.86 1.61a7 7 0 003.706-6.177H15.8zm-1.396 6.087v-.715h-1.826v.715h1.826zM12.844 28.49L9.98 31.355l1.29 1.291 2.865-2.864-1.291-1.292zm-1.573 2.865L8.406 28.49l-1.291 1.292 2.864 2.864 1.292-1.291zm-2.597-11.94v-3.24H6.848v3.24h1.826zm-.152 3.745l1.074-1.62-1.522-1.01L7 22.15l1.522 1.01zm1.074-2.63l-1.074-1.62L7 19.92l1.074 1.62 1.522-1.01zM8.522 26.4l1.074-1.62-1.522-1.01L7 25.39l1.522 1.01zm1.074-2.63l-1.074-1.62L7 23.16l1.074 1.62 1.522-1.01zm-1.074 5.87l1.074-1.62-1.522-1.009L7 28.631l1.522 1.01zm1.074-2.629l-1.074-1.62L7 26.4l1.074 1.62 1.522-1.009z" fill="#C79569"/><path d="M33.397 15.927l-5.846 5.845a.85.85 0 01-.62.247.92.92 0 01-.63-.271l-7.33-7.33a.468.468 0 01-.138-.329l.074-6.136a.426.426 0 01.411-.41l6.393-.32a.46.46 0 01.343.135l7.319 7.319a.92.92 0 01.27.63.85.85 0 01-.246.62z" stroke="#EE5238" stroke-width="1.5" stroke-linecap="round"/><path d="M10.8 9.285C10.8 6.988 12.193 4.5 16 4.5c2.625 0 6.5.5 6.5 5.5" stroke="#EE5238" stroke-width="1.5" stroke-linecap="round"/></symbol><symbol fill="none" viewBox="0 0 37 36" id="icon-lizing-3-active" xmlns="http://www.w3.org/2000/svg"><path d="M15.655 13.445a5.365 5.365 0 002.97-.873" stroke="#EE5238" stroke-width="1.5" stroke-linecap="round"/><circle cx="10.625" cy="10" r="2" stroke="#EE5238" stroke-width="1.5"/><path d="M13.49 29.136l.645.646.268-.268v-.378h-.913zm-5.73 0L7 28.63a.913.913 0 00.115 1.15l.646-.645zm0-13.677h.914v-.547l-.483-.258-.43.805zm5.73 0l-.43-.805-.483.258v.547h.913zM10.625 32l-.646.646.646.646.646-.646-.646-.646zm-2.864-9.345L7 22.15a.913.913 0 000 1.01l.76-.505zm0-3.24h-.913c0 .179.052.355.152.504l.76-.505zm1.074 1.62l.76.504a.913.913 0 000-1.009l-.76.505zm-1.074 4.86L7 25.391A.913.913 0 007 26.4l.76-.505zm1.074-1.62l.76.505a.913.913 0 000-1.01l-.76.505zm0 3.24l.76.505a.913.913 0 000-1.009l-.76.505zM5.45 10.088a5.174 5.174 0 015.174-5.174V3.087a7 7 0 00-7 7h1.826zm5.174-5.174a5.174 5.174 0 015.174 5.174h1.826a7 7 0 00-7-7v1.826zm1.952 11.261v12.962h1.826V16.174h-1.826zm-4.386-1.52a5.173 5.173 0 01-2.74-4.567H3.625a7 7 0 003.705 6.178l.86-1.611zm.483 1.52v-.715H6.848v.715h1.826zm7.125-6.087a5.173 5.173 0 01-2.74 4.567l.86 1.61a7 7 0 003.706-6.177H15.8zm-1.396 6.087v-.715h-1.826v.715h1.826zM12.844 28.49L9.98 31.355l1.29 1.291 2.865-2.864-1.291-1.292zm-1.573 2.865L8.406 28.49l-1.291 1.292 2.864 2.864 1.292-1.291zm-2.597-11.94v-3.24H6.848v3.24h1.826zm-.152 3.745l1.074-1.62-1.522-1.01L7 22.15l1.522 1.01zm1.074-2.63l-1.074-1.62L7 19.92l1.074 1.62 1.522-1.01zM8.522 26.4l1.074-1.62-1.522-1.01L7 25.39l1.522 1.01zm1.074-2.63l-1.074-1.62L7 23.16l1.074 1.62 1.522-1.01zm-1.074 5.87l1.074-1.62-1.522-1.009L7 28.631l1.522 1.01zm1.074-2.629l-1.074-1.62L7 26.4l1.074 1.62 1.522-1.009z" fill="#EE5238"/><path d="M33.397 15.927l-5.846 5.845a.85.85 0 01-.62.247.92.92 0 01-.63-.271l-7.33-7.33a.468.468 0 01-.138-.329l.074-6.136a.426.426 0 01.411-.41l6.393-.32a.46.46 0 01.343.135l7.319 7.319a.92.92 0 01.27.63.85.85 0 01-.246.62z" stroke="#EE5238" stroke-width="1.5" stroke-linecap="round"/><path d="M10.8 9.285C10.8 6.988 12.193 4.5 16 4.5c2.625 0 6.5.5 6.5 5.5" stroke="#EE5238" stroke-width="1.5" stroke-linecap="round"/></symbol><symbol fill="none" viewBox="0 0 37 36" id="icon-lizing-active" xmlns="http://www.w3.org/2000/svg"><path d="M30.072 32.383H7.178V4.258a.056.056 0 01.09-.045L9.58 6.38a.068.068 0 00.073 0l1.856-2.188a.05.05 0 01.067 0l2.093 2.193a.062.062 0 00.073 0l1.85-2.188a.051.051 0 01.037-.015.05.05 0 01.037.015l1.609 2.177a.062.062 0 00.078 0l1.834-2.177a.05.05 0 01.057-.011.05.05 0 01.016.011l1.513 2.171a.056.056 0 00.08 0l1.62-2.17a.056.056 0 01.078 0l1.603 2.17a.056.056 0 00.079 0l1.535-2.16a.05.05 0 01.043-.022.05.05 0 01.042.022l1.265 2.16a.062.062 0 00.074 0l2.812-2.176a.056.056 0 01.084.05l-.017 28.142zM11.548 24.491H26.51m-14.962 3.51H26.51" stroke="#EE5238" stroke-width="1.5" stroke-linecap="round"/><path d="M15.963 14.625a1.5 1.5 0 100-3 1.5 1.5 0 000 3zM21.963 19.875a1.5 1.5 0 100-3 1.5 1.5 0 000 3zM23.463 11.625l-9 8.25" stroke="#EE5238" stroke-width="1.5"/></symbol><symbol fill="none" viewBox="0 0 37 36" id="icon-loans" xmlns="http://www.w3.org/2000/svg"><path d="M25.555 19.97h.287m-20.63-8.93l17.94-4.978a.92.92 0 011.163.866l.147 3.788-19.25.325zM25.555 19.97h.287" stroke="#C79569" stroke-width="1.5" stroke-linecap="round"/><path d="M29.684 22.985V28.9a1.082 1.082 0 01-1.082 1.082H5.332A1.082 1.082 0 014.25 28.9V12.124a1.082 1.082 0 011.082-1.082h23.27a1.082 1.082 0 011.082 1.082v4.833" stroke="#EE5238" stroke-width="1.5" stroke-linecap="round"/><path d="M31.464 16.956h-8.67a.536.536 0 00-.535.536v4.957c0 .296.24.535.535.535h8.67c.296 0 .536-.24.536-.535v-4.957a.536.536 0 00-.536-.536z" stroke="#C79569" stroke-width="1.5" stroke-linecap="round"/></symbol><symbol fill="none" viewBox="0 0 37 36" id="icon-loans-active" xmlns="http://www.w3.org/2000/svg"><path d="M25.555 19.97h.287m-20.63-8.93l17.94-4.978a.92.92 0 011.163.866l.147 3.788-19.25.325zM25.555 19.97h.287M29.684 22.985V28.9a1.082 1.082 0 01-1.082 1.082H5.332A1.082 1.082 0 014.25 28.9V12.124a1.082 1.082 0 011.082-1.082h23.27a1.082 1.082 0 011.082 1.082v4.833" stroke="#EE5238" stroke-width="1.5" stroke-linecap="round"/><path d="M31.464 16.956h-8.67a.536.536 0 00-.535.536v4.957c0 .296.24.535.535.535h8.67c.296 0 .536-.24.536-.535v-4.957a.536.536 0 00-.536-.536z" stroke="#EE5238" stroke-width="1.5" stroke-linecap="round"/></symbol><symbol fill="none" viewBox="0 0 160 52" id="icon-logo-1" xmlns="http://www.w3.org/2000/svg"><path d="M8.076 43.004l3.815 8.087h.053l3.867-8.087-3.867-3.884-3.868 3.884z" fill="#ED5338"/><path d="M11.943 4.643C11.095 5.07.393 10.762.393 19.86c0 7.768 6.304 19.58 6.304 19.58l5.246-5.267 5.245 5.267s6.305-11.758 6.305-19.58c-.053-9.097-10.756-14.79-11.55-15.216zm3.444 25.964l-3.444-3.459-3.444 3.459c-.16-.479-2.49-6.757-2.49-10.854 0-5.533 5.51-8.619 5.934-8.832.424.16 5.934 3.299 5.934 8.832 0 4.097-2.332 10.375-2.49 10.854zM23.468.713l-3.934 3.95 3.934 3.95 3.933-3.95-3.933-3.95z" fill="#C59368"/><path d="M14.697 19.486c0 1.49-1.218 2.714-2.702 2.714-1.483 0-2.702-1.224-2.702-2.714s1.219-2.713 2.702-2.713c1.484 0 2.702 1.224 2.702 2.713z" fill="#C59368"/><path d="M38.245 23.262V11.13h3.619l3.62 4.107 3.337-4.107h3.525v12.132h-4.042v-5.948l-2.915 3.351h-.094l-3.055-3.351v5.948h-3.995zM54.118 17.172c0-1.84.61-3.351 1.833-4.578 1.222-1.227 2.867-1.794 4.888-1.794 2.022 0 3.667.614 4.842 1.794 1.222 1.227 1.833 2.738 1.833 4.578 0 1.841-.61 3.352-1.833 4.58-1.222 1.226-2.82 1.793-4.842 1.793-2.02 0-3.666-.614-4.888-1.794-1.222-1.18-1.833-2.69-1.833-4.579zm6.674 2.644c1.41 0 2.398-.991 2.398-2.596 0-1.51-1.034-2.596-2.398-2.596-1.363 0-2.397 1.038-2.397 2.596 0 1.463.987 2.596 2.397 2.596zM73.203 23.262h-3.996V11.13h4.043v6.325l4.277-6.325h4.043v12.13h-4.043v-6.325l-4.325 6.326zM74.33 5.23c0 1.039.376 1.558 1.128 1.558.658 0 1.034-.52 1.034-1.558h3.478c0 2.644-1.598 4.579-4.512 4.579-3.15 0-4.607-1.841-4.607-4.579h3.479zM94.588 5.843c-.423.614-.94.992-1.551 1.228a8.862 8.862 0 01-2.256.519c-.893.142-1.646.378-2.35.66-1.834.85-2.82 2.786-3.056 5.854h.047c.8-1.7 2.726-2.832 4.748-2.832 3.431 0 5.593 2.36 5.593 6.042 0 1.699-.61 3.21-1.739 4.39-1.175 1.227-2.632 1.793-4.465 1.793-1.975 0-3.526-.66-4.654-2.03-1.175-1.321-1.692-3.162-1.692-5.522 0-5.24 1.504-8.497 4.465-9.771.706-.33 1.505-.52 2.35-.661 1.693-.283 2.633-.472 3.338-1.416l1.222 1.746zm-4.982 15.672c1.175 0 2.115-.425 2.82-1.18.752-.803 1.128-1.747 1.128-2.927 0-2.455-1.41-4.107-3.854-4.107-1.082 0-1.975.284-2.727.897-.752.614-1.222 1.37-1.41 2.172-.047 3.115 1.645 5.145 4.043 5.145zM99.901 23.262h-2.162V11.13H99.9v9.016l6.957-9.016h2.162v12.132h-2.162v-9.016l-6.957 9.016zM112.827 23.073c-.987-.33-1.692-.708-2.068-1.18l1.081-1.605c.987.802 2.444 1.322 3.572 1.322 1.833 0 3.15-.803 3.15-1.983 0-.991-.893-1.558-2.351-1.558h-2.021v-1.746h1.88c1.222 0 2.069-.755 2.069-1.7 0-1.085-.988-1.746-2.586-1.746-1.269 0-2.491.472-3.619 1.369l-.846-1.652c.987-.991 2.82-1.605 4.747-1.605 2.915 0 4.513 1.227 4.513 3.257 0 1.416-.705 2.36-2.115 2.832v.047c1.598.19 2.538 1.37 2.538 2.832 0 2.219-2.068 3.635-5.124 3.635-.846-.094-1.833-.236-2.82-.52zM131.816 23.262v-5.146h-6.722v5.098h-2.162V11.13h2.162v4.957h6.722V11.13h2.162v12.132h-2.162zM146.859 21.939c-1.176 1.038-2.68 1.605-4.513 1.605-1.974 0-3.525-.567-4.7-1.7-1.176-1.18-1.787-2.69-1.787-4.578 0-1.841.564-3.352 1.646-4.532 1.081-1.227 2.632-1.794 4.559-1.794 1.598 0 2.914.52 3.996 1.558 1.081 1.039 1.598 2.36 1.598 3.965 0 .567-.047 1.039-.141 1.463h-9.213c.188 2.266 1.833 3.635 4.183 3.635 1.598 0 2.82-.425 3.714-1.274l.658 1.652zm-8.696-5.806h7.332c-.094-2.03-1.41-3.21-3.478-3.21-2.162-.047-3.619 1.274-3.854 3.21zM159.597 21.515c-.987 1.274-2.727 2.03-4.654 2.03s-3.478-.567-4.7-1.7c-1.175-1.18-1.786-2.69-1.786-4.579 0-1.793.611-3.304 1.739-4.484 1.175-1.227 2.632-1.84 4.371-1.84 2.115 0 3.714.518 4.748 1.604l-.987 1.7c-.893-.85-2.069-1.275-3.479-1.275-1.128 0-2.068.425-2.914 1.227-.799.803-1.222 1.841-1.222 3.068 0 1.275.423 2.36 1.222 3.116.846.802 1.88 1.18 3.102 1.18 1.41 0 2.539-.52 3.479-1.558l1.081 1.51z" fill="#562212"/><path d="M38.915 51.206h-.946l3.31-7.51h.802l3.31 7.51H44.39l-.99-2.262h-3.507l-.978 2.262zm4.123-3.115l-1.386-3.19-1.385 3.19h2.77zM46.766 51.195V43.75a90.211 90.211 0 012.11-.043c.836 0 1.456.164 1.859.49.41.32.615.773.615 1.356 0 .434-.117.796-.352 1.088-.234.291-.557.505-.967.64v.021c.498.078.887.27 1.165.576.286.306.43.704.43 1.195 0 .711-.25 1.252-.748 1.622-.499.362-1.18.544-2.045.544-.843 0-1.532-.014-2.067-.043zm2.177-3.392H47.7v2.539c.3.028.696.042 1.188.042.579 0 1.022-.113 1.33-.341.315-.235.473-.576.473-1.024 0-.391-.154-.69-.462-.896-.3-.214-.73-.32-1.286-.32zm-.088-3.243c-.22 0-.605.01-1.155.032v2.41h1.231c.433 0 .788-.11 1.067-.33.279-.228.418-.533.418-.918 0-.796-.52-1.194-1.561-1.194zM55.255 44.592h-2.693v-.854h6.322v.854H56.19v6.614h-.935v-6.614zM59.23 47.472c0-1.081.37-1.991 1.11-2.731.74-.74 1.679-1.11 2.815-1.11 1.129 0 2.063.36 2.804 1.078.747.718 1.121 1.64 1.121 2.763 0 1.095-.374 2.013-1.121 2.752-.748.726-1.683 1.089-2.804 1.089-1.121 0-2.06-.36-2.815-1.078-.74-.718-1.11-1.64-1.11-2.763zm.99 0c0 .84.282 1.55.846 2.134.564.569 1.26.853 2.09.853.864 0 1.568-.284 2.11-.853.55-.57.825-1.28.825-2.134 0-.854-.283-1.565-.847-2.134-.564-.569-1.26-.853-2.089-.853-.843 0-1.543.28-2.1.843-.557.561-.835 1.276-.835 2.144zM74.946 51.206h-.934v-3.382h-4.233v3.382h-.935v-7.468h.935v3.233h4.233v-3.233h.934v7.468zM76.701 47.472c0-1.081.37-1.991 1.11-2.731.741-.74 1.68-1.11 2.815-1.11 1.129 0 2.063.36 2.804 1.078.747.718 1.121 1.64 1.121 2.763 0 1.095-.374 2.013-1.121 2.752-.748.726-1.682 1.089-2.804 1.089-1.121 0-2.06-.36-2.814-1.078-.74-.718-1.11-1.64-1.11-2.763zm.99 0c0 .84.282 1.55.846 2.134.565.569 1.261.853 2.09.853.864 0 1.568-.284 2.11-.853.55-.57.825-1.28.825-2.134 0-.854-.282-1.565-.847-2.134-.564-.569-1.26-.853-2.089-.853-.843 0-1.543.28-2.1.843-.557.561-.835 1.276-.835 2.144zM87.25 51.206h-.935v-7.468h.946l2.891 3.83 2.771-3.83h.89v7.468h-.934v-6.038l-2.727 3.712h-.142l-2.76-3.68v6.006zM102.275 51.206h-.935v-3.382h-4.233v3.382h-.934v-7.468h.934v3.233h4.233v-3.233h.935v7.468zM111.616 51.206h-.934v-7.468h.934v7.468zm-5.09-3.894c-.257 0-.576.021-.957.064v2.966l.924.032c1.304 0 1.957-.53 1.957-1.59 0-.476-.165-.84-.495-1.088-.33-.256-.806-.384-1.429-.384zm-1.891-3.574h.934v2.774c.513-.036.854-.053 1.023-.053.931 0 1.638.202 2.122.608.483.398.725.963.725 1.696 0 .782-.267 1.39-.802 1.824-.535.427-1.287.64-2.254.64-.367 0-.685-.003-.957-.01-.264-.008-.527-.011-.791-.011v-7.468zM119.474 45.232l-4.672 5.974h-.825v-7.468h.934v5.974l4.673-5.974h.825v7.468h-.935v-5.974zm-4.266-3.2h.88c.176.462.568.693 1.176.693.645 0 1.023-.232 1.133-.694h.879c-.051.398-.267.722-.648.971-.374.242-.829.363-1.364.363-.564 0-1.033-.121-1.407-.363-.366-.242-.583-.565-.649-.97zM124.691 47.472c0-1.081.37-1.991 1.111-2.731.74-.74 1.678-1.11 2.814-1.11 1.129 0 2.064.36 2.804 1.078.748.718 1.121 1.64 1.121 2.763 0 1.095-.373 2.013-1.121 2.752-.748.726-1.682 1.089-2.804 1.089-1.121 0-2.059-.36-2.814-1.078-.741-.718-1.111-1.64-1.111-2.763zm.99 0c0 .84.282 1.55.846 2.134.565.569 1.261.853 2.089.853.865 0 1.569-.284 2.111-.853.55-.57.825-1.28.825-2.134 0-.854-.282-1.565-.847-2.134-.564-.569-1.26-.853-2.089-.853-.843 0-1.543.28-2.1.843-.557.561-.835 1.276-.835 2.144zM138.802 43.738h1.133l-3.431 3.51 3.606 3.958h-1.198l-3.485-3.894 3.375-3.574zm-3.562 7.468h-.935v-7.468h.935v7.468zM142.478 48.336v2.87h-.935v-7.468c.308 0 .634-.003.979-.01.344-.008.689-.011 1.033-.011 1.012 0 1.737.22 2.177.661.447.434.671.985.671 1.654 0 .647-.242 1.202-.726 1.664-.469.455-1.151.683-2.045.683-.469 0-.854-.014-1.154-.043zm1.165-3.766c-.132 0-.52.007-1.165.022v2.88c.462.035.835.053 1.121.053.565 0 1.008-.131 1.331-.394.322-.27.483-.64.483-1.11 0-.462-.15-.818-.451-1.067-.293-.256-.732-.384-1.319-.384zM152.861 43.738h.946l-2.661 5.76c-.271.598-.557 1.032-.857 1.302-.293.27-.645.406-1.056.406-.396 0-.707-.09-.934-.267l.33-.768c.19.128.388.192.593.192.374 0 .689-.252.946-.757l.132-.278-3.485-5.59h1.055l2.881 4.683 2.11-4.683zM156.116 51.206h-.935v-7.468h4.288v.854h-3.353v6.614zM44.544 38.496h-1.049v-3.192h-1.617l-2.235 3.192h-1.185l2.395-3.376a2.817 2.817 0 01-1.234-.933 2.422 2.422 0 01-.47-1.473c0-.827.284-1.506.852-2.038.568-.54 1.408-.81 2.519-.81.033 0 .378.008 1.037.025.329.008.658.012.987.012v8.593zm-2.79-4.174h1.741v-3.437a32.352 32.352 0 00-1.173-.037c-.642 0-1.148.168-1.518.503-.362.328-.543.761-.543 1.302 0 .441.148.814.444 1.117a1.76 1.76 0 001.05.552zM48.248 38.496H47.2v-8.593h1.062l3.247 4.407 3.11-4.407h1v8.593H54.57v-6.948l-3.061 4.272h-.16l-3.1-4.235v6.91zM58.218 38.496h-1.061l3.716-8.642h.9l3.717 8.642h-1.124l-1.11-2.603h-3.939l-1.099 2.603zm4.63-3.585l-1.556-3.67-1.555 3.67h3.11zM73.26 38.496h-1.05v-7.611h-3.136l-.148 1.62a25.618 25.618 0 01-.383 2.738c-.156.752-.325 1.346-.506 1.78-.18.433-.395.769-.642 1.006-.238.237-.473.385-.703.442a2.09 2.09 0 01-.79.025l.012-1.044a.867.867 0 00.444-.037c.124-.057.264-.184.42-.38.173-.205.33-.512.47-.92.328-.917.567-2.415.715-4.494l.124-1.718h5.172v8.593zM75.23 34.2c0-1.245.415-2.292 1.246-3.143.832-.851 1.885-1.277 3.16-1.277 1.268 0 2.317.413 3.149 1.24.84.826 1.259 1.886 1.259 3.18 0 1.26-.42 2.315-1.26 3.166-.839.835-1.888 1.252-3.147 1.252-1.26 0-2.313-.413-3.16-1.24-.832-.826-1.248-1.886-1.248-3.179zm1.11 0c0 .965.317 1.783.951 2.454.634.655 1.416.982 2.346.982.97 0 1.76-.327 2.37-.982.617-.654.926-1.473.926-2.455s-.317-1.8-.95-2.455c-.635-.654-1.416-.982-2.346-.982-.947 0-1.733.323-2.358.97-.626.646-.938 1.469-.938 2.467zM88.75 35.61h-2.951v-.92h2.95v.92zM97.88 38.496h-1.048v-3.892h-4.753v3.892h-1.05v-8.593h1.05v3.72h4.753v-3.72h1.049v8.593zM105.531 38.496h-5v-8.593h4.876v.982h-3.827v2.774h3.457v.982h-3.457v2.873h3.951v.982zM114.545 38.496h-1.049v-3.892h-4.753v3.892h-1.05v-8.593h1.05v3.72h4.753v-3.72h1.049v8.593zM122.195 38.496h-5v-8.593h4.876v.982h-3.827v2.774h3.457v.982h-3.457v2.873h3.951v.982zM131.271 38.496h-6.914v-8.593h1.05v7.61h4.629v-7.61h1.05v7.61h1.172v2.578h-.987v-1.595zM139.041 29.903h1.271l-3.851 4.038 4.049 4.555h-1.346l-3.913-4.48 3.79-4.113zm-4 8.593h-1.049v-8.593h1.049v8.593zM148.291 31.622l-5.247 6.874h-.925v-8.593h1.049v6.874l5.247-6.874h.926v8.593h-1.05V31.62zM158.166 31.622l-5.246 6.874h-.926v-8.593h1.049v6.874l5.247-6.874h.926v8.593h-1.05V31.62zm-4.79-3.683h.988c.198.532.638.798 1.321.798.724 0 1.148-.266 1.272-.798h.987c-.057.458-.3.83-.728 1.117-.42.278-.93.417-1.531.417-.634 0-1.16-.139-1.58-.417-.412-.278-.654-.65-.729-1.117z" fill="#C59368"/><path fill-rule="evenodd" clip-rule="evenodd" d="M44.798 38.748H43.24v-3.192h-1.23l-2.235 3.192h-1.807l2.501-3.526a3.021 3.021 0 01-1.055-.885l-.001-.002a2.672 2.672 0 01-.518-1.621c0-.89.309-1.637.93-2.22.632-.6 1.545-.88 2.694-.88l1.043.025c.327.008.654.012.981.012h.254v9.097zM40 30.676c-.568.532-.851 1.211-.851 2.038 0 .556.156 1.047.469 1.473.263.351.596.627.999.828.076.037.154.072.235.105l-2.395 3.376h1.185l2.235-3.192h1.617v3.192h1.05v-8.593c-.33 0-.66-.004-.988-.012-.659-.017-1.004-.025-1.037-.025-1.111 0-1.95.27-2.519.81zm.973.862c-.303.274-.46.637-.46 1.115 0 .38.125.688.373.941l.002.002c.255.268.548.423.884.474h1.468v-2.944a26.336 26.336 0 00-.919-.026c-.597 0-1.036.155-1.348.438zm2.521-.653v3.437h-1.74a1.76 1.76 0 01-1.05-.552 1.535 1.535 0 01-.444-1.117c0-.54.18-.974.543-1.302.37-.335.876-.503 1.518-.503.214 0 .605.012 1.173.037zm5.007 7.863h-1.556V29.65h1.443l3.114 4.226 2.984-4.226h1.385v9.097h-1.556v-6.412l-2.678 3.736h-.42l-2.716-3.712v6.388zm-.254-7.163l3.1 4.235h.16l3.061-4.272v6.948h1.05v-8.593h-1l-3.111 4.407-3.247-4.407h-1.062v8.593h1.05v-6.911zm10.139 7.163h-1.614l3.932-9.146h1.236l3.71 8.628.013-1.068.286.04c.138.02.236.009.307-.018.07-.034.177-.123.322-.305l.003-.003.002-.003c.144-.17.288-.444.423-.84l.001-.004c.317-.882.554-2.35.702-4.425l.14-1.953h5.663v9.097h-1.557v-7.611h-2.65l-.127 1.391c-.1 1.07-.228 1.992-.387 2.765-.158.76-.33 1.371-.52 1.826-.19.454-.42.821-.699 1.09-.257.256-.53.434-.82.506a2.34 2.34 0 01-.88.031v.002h-1.675l-1.11-2.603h-3.602l-1.099 2.602zm.93-2.855h3.938l1.111 2.603h1.124l-3.716-8.642h-.901l-3.716 8.642h1.061l1.1-2.603zm9.757-5.008h3.136v7.61h1.05v-8.592h-5.173l-.124 1.719c-.148 2.078-.387 3.576-.716 4.492-.14.41-.296.716-.469.92-.156.197-.296.324-.42.381a.702.702 0 01-.19.045 1.066 1.066 0 01-.254-.008l-.012 1.044c.296.04.56.032.79-.025.23-.057.465-.204.703-.442.247-.237.461-.573.642-1.006.181-.434.35-1.028.506-1.78.157-.761.284-1.674.383-2.738l.148-1.62zm13.892 6.658l-.002.001c-.89.885-2.005 1.326-3.327 1.326s-2.44-.436-3.338-1.312l-.002-.001c-.884-.88-1.321-2.006-1.321-3.358 0-1.306.439-2.417 1.318-3.318.883-.903 2.004-1.353 3.343-1.353 1.328 0 2.444.436 3.327 1.314.892.878 1.333 2.005 1.333 3.357 0 1.322-.442 2.443-1.331 3.344zm-.181-6.523c.84.826 1.259 1.886 1.259 3.18 0 1.26-.42 2.315-1.26 3.166-.839.835-1.888 1.252-3.147 1.252-1.26 0-2.313-.413-3.16-1.24-.832-.826-1.248-1.886-1.248-3.179 0-1.244.416-2.291 1.247-3.142.832-.851 1.885-1.277 3.16-1.277 1.268 0 2.317.413 3.149 1.24zm-.964 5.463c.57-.604.858-1.36.858-2.284 0-.922-.295-1.676-.88-2.28-.585-.605-1.3-.905-2.162-.905-.882 0-1.6.298-2.175.893-.575.594-.868 1.35-.868 2.292 0 .905.294 1.66.88 2.282.586.603 1.3.903 2.163.903.907 0 1.627-.302 2.184-.9zm-4.53.171c-.634-.67-.95-1.49-.95-2.455 0-.998.312-1.82.938-2.467.625-.646 1.411-.97 2.358-.97.93 0 1.712.328 2.345.982.634.655.95 1.473.95 2.455s-.308 1.8-.925 2.455c-.61.655-1.4.982-2.37.982-.93 0-1.712-.327-2.346-.982zm11.712-.791h-3.457v-1.425h3.457v1.425zm9.132 2.885h-1.557v-3.892h-4.246v3.892h-1.556V29.65h1.556v3.72h4.246v-3.72h1.556v9.097zm-1.303-8.845h1.049v8.593h-1.05v-3.892H92.08v3.892h-1.05v-8.593h1.05v3.72h4.753v-3.72zm8.952 8.845h-5.507V29.65h5.384v1.486h-3.827v2.27h3.456v1.486h-3.456v2.369h3.95v1.486zm-4.204-1.234V34.64h3.457v-.982h-3.457v-2.774h3.827v-.982h-4.876v8.593h5v-.982h-3.951zm13.219 1.233h-1.557v-3.89h-4.246v3.89h-1.556v-9.096h1.556v3.72h4.246v-3.72h1.557v9.097zm-1.303-8.844h1.049v8.593h-1.049v-3.892h-4.753v3.892h-1.05v-8.593h1.05v3.72h4.753v-3.72zm8.952 8.845h-5.507V29.65h5.384v1.486h-3.827v2.27h3.456v1.486h-3.456v2.369h3.95v1.486zm-4.204-1.234V34.64h3.457v-.982h-3.457v-2.774h3.827v-.982h-4.876v8.593h5v-.982h-3.951zm5.86 1.233v-9.096h1.556v7.61h4.123v-7.61h1.556v7.61h1.173v3.082h-1.495v-1.596h-6.913zm7.167-.251v1.595h.987v-2.577h-1.172v-7.611h-1.05v7.61h-4.629v-7.61h-1.05v8.593h6.914zm7.658-8.845h1.973l-4.098 4.296 4.268 4.8h-2.024l-3.754-4.297v4.297h-1.556v-9.096h1.556v3.944l3.635-3.944zm.112.252h1.271l-3.851 4.038 4.049 4.555h-1.346l-3.913-4.48 3.79-4.113zm-4 0h-1.049v8.593h1.049v-8.593zm8.129 8.845h-1.305V29.65h1.556v6.377l4.868-6.377h1.305v9.097h-1.556V32.37l-4.868 6.377zm5.121-7.126v6.874h1.05v-8.593h-.926l-5.247 6.874v-6.874h-1.049v8.593h.925l5.247-6.875zm4.755 7.126h-1.306V29.65h1.557v6.377l4.867-6.377h1.305v9.097h-1.556V32.37l-4.867 6.377zm5.12-7.126v6.874h1.05v-8.593h-.926l-5.247 6.874v-6.874h-1.049v8.593h.926l5.246-6.875zm-5.086-3.935h1.461l.061.165a.88.88 0 00.372.47c.17.102.401.163.711.163.334 0 .568-.062.726-.16a.668.668 0 00.298-.443l.046-.195h1.476l-.035.283c-.068.54-.357.973-.839 1.295h-.001c-.468.311-1.03.46-1.671.46-.671 0-1.25-.147-1.721-.46h-.002c-.466-.316-.75-.748-.836-1.287l-.046-.291zm-91.788 3.554l-1.555 3.67h3.11l-1.555-3.67zm0 .65l-1.173 2.768h2.347l-1.174-2.769zm92.084-3.952a1.62 1.62 0 00.729 1.117c.42.278.946.417 1.58.417.601 0 1.111-.139 1.531-.417.346-.232.572-.52.675-.865.025-.081.042-.165.053-.252h-.987c-.124.532-.548.798-1.272.798-.683 0-1.123-.266-1.321-.798h-.988zM88.749 35.61v-.92H85.8v.92h2.95z" fill="#C59368"/></symbol><symbol fill="none" viewBox="0 0 155 18" id="icon-logo-2" xmlns="http://www.w3.org/2000/svg"><path d="M10.56 16.973H7.94V9.341H5.23l-.069 1.094c-.197 1.853-.486 3.265-.866 4.237-.364.972-.835 1.633-1.412 1.982-.562.334-1.344.509-2.347.524L.31 14.627c.334.015.645-.076.934-.274.334-.243.63-.752.888-1.526.258-.775.425-1.747.501-2.916l.16-3.19h7.768v10.252zM20.198 10.48l-4.784 6.493h-2.62V6.722h2.62v6.492l4.784-6.492h2.62v10.251h-2.62V10.48zM30.708 6.722h2.62v10.251h-2.62v-3.531c-.759.395-1.61.592-2.551.592-1.276 0-2.218-.334-2.825-1.002-.592-.668-.889-1.678-.889-3.03v-3.28h2.803v2.961c0 1.26.554 1.89 1.663 1.89.713 0 1.313-.136 1.8-.41V6.723zM45.293 16.973h-2.62v-3.918h-4.488v3.918h-2.62V6.722h2.62v3.872h4.488V6.722h2.62v10.251zM51.21 16.973h-3.691V6.722h2.62v2.802h1.275c1.534 0 2.666.319 3.395.956.744.638 1.116 1.504 1.116 2.598 0 1.169-.395 2.11-1.185 2.824s-1.967 1.071-3.53 1.071zm8.793 0h-2.62V6.722h2.62v10.251zm-8.817-5.353H50.14v3.075h1.025c1.321 0 1.982-.509 1.982-1.526 0-1.033-.654-1.55-1.96-1.55zM69.634 10.48l-4.784 6.493h-2.62V6.722h2.62v6.492l4.784-6.492h2.62v10.251h-2.62V10.48zm-5.877-8.884h2.392c0 .501.098.903.296 1.207.197.304.494.456.888.456.35 0 .615-.152.798-.456.197-.319.296-.721.296-1.207h2.392c0 1.063-.312 1.921-.934 2.574-.623.638-1.473.957-2.552.957-1.184 0-2.08-.311-2.688-.934-.592-.638-.888-1.504-.888-2.597zM85.04 6.722h3.304l-3.941 4.875 4.42 5.376h-3.418l-4.055-5.171 3.69-5.08zM81.26 16.973h-2.62V6.722h2.62v10.251zM90.477 9.364l-.66-1.913a7.01 7.01 0 013.622-.98c1.428 0 2.468.35 3.12 1.048.654.699.98 1.77.98 3.212v6.242h-2.278V15.79c-.607.88-1.617 1.32-3.03 1.32-.971 0-1.754-.28-2.346-.842-.577-.577-.866-1.344-.866-2.301 0-1.063.342-1.883 1.025-2.46.684-.578 1.588-.866 2.711-.866.927 0 1.701.22 2.324.66.03-.91-.106-1.579-.41-2.004-.288-.425-.79-.638-1.504-.638-.79 0-1.685.235-2.688.706zm2.62 5.536c.881 0 1.542-.311 1.982-.934v-1.048c-.425-.334-1.025-.501-1.8-.501-.486 0-.88.114-1.184.342-.304.227-.456.539-.456.934 0 .364.137.66.41.888.274.213.623.319 1.048.319zM107.242.776l1.367 2.141c-.365.456-.82.79-1.367 1.002-.486.168-1.094.335-1.823.502-.713.136-1.306.326-1.777.57-1.26.591-1.997 1.867-2.209 3.826h.045c.319-.562.813-1.017 1.481-1.366a4.359 4.359 0 012.119-.547c1.412 0 2.544.455 3.394 1.367.851.926 1.276 2.149 1.276 3.667 0 1.474-.501 2.727-1.504 3.76-1.002 1.017-2.293 1.526-3.873 1.526-1.716 0-3.075-.585-4.077-1.755-.988-1.169-1.481-2.748-1.481-4.738 0-4.374 1.291-7.123 3.873-8.247a8.39 8.39 0 011.868-.547c.774-.151 1.344-.296 1.708-.432a2.63 2.63 0 00.98-.73zm-5.627 10.502c.015 1.032.266 1.875.752 2.528.486.654 1.131.98 1.936.98.79 0 1.428-.258 1.914-.774.486-.517.729-1.17.729-1.96 0-.805-.228-1.458-.684-1.959-.44-.501-1.055-.752-1.845-.752-.683 0-1.276.183-1.777.547a2.61 2.61 0 00-1.025 1.39zM118.743 10.48l-4.784 6.493h-2.62V6.722h2.62v6.492l4.784-6.492h2.62v10.251h-2.62V10.48zM133.331 16.973h-2.62v-3.918h-4.488v3.918h-2.619V6.722h2.619v3.872h4.488V6.722h2.62v10.251zM143.598 14.103l.752 1.845c-1.017.85-2.324 1.276-3.918 1.276-1.64 0-2.977-.494-4.01-1.481-1.002-.972-1.503-2.27-1.503-3.896 0-1.518.493-2.794 1.481-3.827.987-1.033 2.3-1.549 3.941-1.549 1.351 0 2.498.448 3.44 1.344.941.896 1.412 2.035 1.412 3.417 0 .608-.053 1.079-.159 1.413h-7.404c.106.744.433 1.329.979 1.754.562.425 1.261.638 2.096.638 1.139 0 2.104-.312 2.893-.934zm-3.371-5.445c-1.489 0-2.385.744-2.688 2.232h5.034c.015-.653-.197-1.184-.638-1.594-.425-.425-.994-.638-1.708-.638zM148.809 9.341h-3.371v-2.62h9.34v2.62h-3.349v7.632h-2.62V9.341z" fill="#562212"/></symbol><symbol fill="none" viewBox="0 0 155 42" id="icon-logo-3" xmlns="http://www.w3.org/2000/svg"><path d="M10.353 16.948h-2.62V9.316h-2.71l-.069 1.093c-.197 1.853-.486 3.266-.866 4.238-.364.972-.835 1.632-1.412 1.981-.562.335-1.344.51-2.347.524l-.227-2.551c.334.015.645-.076.934-.273.334-.243.63-.752.888-1.527.258-.774.425-1.746.501-2.916l.16-3.19h7.768v10.253zM19.991 10.455l-4.784 6.493h-2.62V6.696h2.62v6.493l4.784-6.493h2.62v10.252h-2.62v-6.493zM30.501 6.696h2.62v10.252h-2.62v-3.532c-.759.395-1.61.593-2.551.593-1.276 0-2.217-.334-2.825-1.003-.592-.668-.889-1.678-.889-3.03v-3.28h2.803v2.961c0 1.261.554 1.891 1.663 1.891.713 0 1.313-.136 1.8-.41V6.696zM45.086 16.948h-2.62v-3.919h-4.488v3.919h-2.62V6.696h2.62v3.873h4.488V6.696h2.62v10.252zM51.002 16.948h-3.69V6.696h2.62v2.802h1.275c1.534 0 2.666.319 3.395.957.744.638 1.116 1.503 1.116 2.597 0 1.17-.395 2.11-1.185 2.825-.79.714-1.967 1.07-3.53 1.07zm8.794 0h-2.62V6.696h2.62v10.252zm-8.817-5.354h-1.047v3.075h1.025c1.32 0 1.982-.508 1.982-1.526 0-1.033-.654-1.55-1.96-1.55zM69.427 10.455l-4.784 6.493h-2.62V6.696h2.62v6.493l4.784-6.493h2.62v10.252h-2.62v-6.493zM63.55 1.57h2.392c0 .501.098.904.296 1.208.197.303.493.455.888.455.35 0 .615-.152.798-.455.197-.32.296-.722.296-1.208h2.392c0 1.063-.311 1.921-.934 2.574-.623.638-1.473.957-2.552.957-1.184 0-2.08-.311-2.688-.934-.592-.638-.888-1.503-.888-2.597zM84.834 6.696h3.303l-3.941 4.875 4.42 5.377h-3.418l-4.055-5.172 3.69-5.08zm-3.782 10.252h-2.62V6.696h2.62v10.252zM90.27 9.339l-.66-1.914a7.01 7.01 0 013.622-.98c1.427 0 2.468.35 3.12 1.048.654.699.98 1.77.98 3.212v6.243h-2.278v-1.185c-.607.88-1.617 1.321-3.03 1.321-.972 0-1.754-.28-2.346-.843-.577-.577-.866-1.344-.866-2.3 0-1.064.342-1.884 1.025-2.461.684-.577 1.587-.866 2.711-.866.927 0 1.701.22 2.324.66.03-.91-.106-1.579-.41-2.004-.288-.425-.79-.638-1.504-.638-.79 0-1.685.236-2.688.707zm2.62 5.535c.881 0 1.542-.311 1.982-.934v-1.048c-.425-.334-1.025-.5-1.8-.5-.486 0-.88.113-1.184.34-.304.229-.456.54-.456.935 0 .364.137.66.41.888.274.213.623.32 1.048.32zM107.035.75l1.367 2.141c-.365.456-.82.79-1.367 1.003a18.35 18.35 0 01-1.823.501c-.714.137-1.306.327-1.777.57-1.26.592-1.997 1.868-2.209 3.827h.045c.319-.562.813-1.018 1.481-1.367a4.359 4.359 0 012.119-.547c1.412 0 2.543.456 3.394 1.367.85.926 1.276 2.15 1.276 3.668 0 1.473-.501 2.726-1.504 3.759-1.002 1.017-2.293 1.526-3.873 1.526-1.716 0-3.075-.585-4.077-1.754-.988-1.17-1.481-2.749-1.481-4.739 0-4.374 1.29-7.123 3.873-8.246a8.374 8.374 0 011.868-.547c.774-.152 1.344-.296 1.708-.433a2.63 2.63 0 00.98-.729zm-5.627 10.502c.015 1.033.266 1.876.752 2.529s1.131.98 1.936.98c.79 0 1.428-.259 1.914-.775.486-.517.729-1.17.729-1.96 0-.804-.228-1.457-.684-1.958-.44-.502-1.055-.752-1.845-.752-.684 0-1.276.182-1.777.546a2.61 2.61 0 00-1.025 1.39zM118.536 10.455l-4.784 6.493h-2.62V6.696h2.62v6.493l4.784-6.493h2.62v10.252h-2.62v-6.493zM133.124 16.948h-2.62v-3.919h-4.488v3.919h-2.619V6.696h2.619v3.873h4.488V6.696h2.62v10.252zM143.391 14.077l.752 1.845c-1.017.85-2.324 1.276-3.918 1.276-1.64 0-2.977-.494-4.01-1.48-1.002-.973-1.503-2.271-1.503-3.896 0-1.52.493-2.795 1.48-3.828.988-1.032 2.301-1.549 3.942-1.549 1.351 0 2.498.448 3.44 1.344.941.896 1.412 2.036 1.412 3.418 0 .607-.053 1.078-.159 1.412h-7.404c.106.744.433 1.329.979 1.754.562.425 1.261.638 2.096.638 1.139 0 2.104-.311 2.893-.934zm-3.371-5.445c-1.489 0-2.385.745-2.688 2.233h5.034c.015-.653-.197-1.185-.638-1.595-.425-.425-.994-.638-1.708-.638zM148.602 9.316h-3.371v-2.62h9.34v2.62h-3.349v7.632h-2.62V9.316zM9.191 37.197h-1.62v-7.593H2.61v7.593H.99v-9.112h8.201v9.112zM13.339 41.248h-1.62V28.085h1.62v1.073c.324-.378.77-.681 1.336-.911a4.429 4.429 0 011.762-.364c1.296 0 2.315.431 3.058 1.296.77.85 1.154 1.957 1.154 3.32 0 1.391-.439 2.559-1.316 3.504-.864.931-2.005 1.397-3.423 1.397-1.093 0-1.95-.21-2.571-.628v4.476zM15.97 29.4c-1.08 0-1.957.419-2.632 1.256v4.515c.715.473 1.525.71 2.43.71.958 0 1.72-.304 2.288-.912.58-.621.87-1.424.87-2.41 0-.958-.263-1.721-.79-2.288-.526-.58-1.248-.87-2.166-.87zM29.755 34.93l.506 1.275c-.878.797-2.018 1.195-3.422 1.195-1.485 0-2.667-.432-3.544-1.296-.891-.864-1.337-2.018-1.337-3.463 0-1.363.419-2.497 1.256-3.402.823-.904 1.97-1.357 3.442-1.357 1.215 0 2.221.392 3.018 1.175.81.77 1.215 1.769 1.215 2.997 0 .392-.034.756-.102 1.093h-7.006c.067.851.385 1.52.952 2.005.58.486 1.322.73 2.227.73 1.188 0 2.12-.318 2.794-.953zm-3.18-5.529c-.796 0-1.458.223-1.984.669-.513.445-.817 1.032-.912 1.761h5.529c-.04-.756-.297-1.35-.77-1.782-.459-.432-1.08-.648-1.863-.648zM32.589 39.425h-1.52v-3.746h1.135c.337-.419.634-1.094.89-2.025.257-.945.426-1.998.507-3.16l.142-2.409h6.217v7.594h1.518v3.746H39.96v-2.227h-7.371v2.227zm2.673-9.821l-.102 1.518a13.942 13.942 0 01-.486 2.775c-.243.837-.492 1.43-.749 1.782h4.415v-6.075h-3.078zM51.038 37.197h-1.62v-7.593h-4.962v7.593h-1.62v-9.112h8.202v9.112zM55.185 41.248h-1.62V28.085h1.62v1.073c.324-.378.77-.681 1.336-.911a4.429 4.429 0 011.762-.364c1.296 0 2.315.431 3.058 1.296.77.85 1.154 1.957 1.154 3.32 0 1.391-.439 2.559-1.316 3.504-.864.931-2.005 1.397-3.422 1.397-1.094 0-1.951-.21-2.572-.628v4.476zM57.817 29.4c-1.08 0-1.957.419-2.632 1.256v4.515c.715.473 1.525.71 2.43.71.958 0 1.721-.304 2.288-.912.58-.621.87-1.424.87-2.41 0-.958-.262-1.721-.789-2.288-.526-.58-1.249-.87-2.167-.87zM71.297 30.414l-5.265 6.783h-1.62v-9.112h1.62v6.784l5.265-6.784h1.62v9.112h-1.62v-6.783zM83.76 37.197h-1.62V33.35h-5.063v3.847h-1.62v-9.112h1.62v3.746h5.063v-3.746h1.62v9.112zM93.17 30.414l-5.266 6.783h-1.62v-9.112h1.62v6.784l5.266-6.784h1.62v9.112h-1.62v-6.783zM98.95 37.197h-1.62v-9.112h1.478l3.503 4.516 3.321-4.516h1.438v9.112h-1.62v-6.642l-3.159 4.233h-.061l-3.28-4.232v6.641zM110.086 30.009l-.425-1.296c.905-.554 1.917-.83 3.038-.83 1.228 0 2.119.303 2.673.91.553.608.83 1.547.83 2.816v5.588h-1.539v-1.174c-.716.877-1.688 1.316-2.916 1.316-.837 0-1.512-.25-2.025-.749-.513-.513-.77-1.202-.77-2.066 0-.89.318-1.593.952-2.105.635-.527 1.465-.79 2.491-.79.958 0 1.714.195 2.268.587 0-1.026-.142-1.762-.425-2.207-.284-.446-.831-.669-1.641-.669-.823 0-1.66.223-2.511.669zm2.228 5.872c.904 0 1.687-.391 2.349-1.174v-1.154c-.567-.405-1.249-.608-2.045-.608-.554 0-1.02.135-1.398.405-.364.256-.546.621-.546 1.093 0 .446.141.797.425 1.053.297.257.702.385 1.215.385zM120.697 29.705h-3.342v-1.62h8.303v1.62h-3.341v7.492h-1.62v-7.492zM133.915 34.93l.507 1.275c-.878.797-2.019 1.195-3.423 1.195-1.485 0-2.666-.432-3.543-1.296-.891-.864-1.337-2.018-1.337-3.463 0-1.363.419-2.497 1.256-3.402.823-.904 1.971-1.357 3.442-1.357 1.215 0 2.221.392 3.017 1.175.81.77 1.215 1.769 1.215 2.997 0 .392-.033.756-.101 1.093h-7.006c.067.851.384 1.52.951 2.005.581.486 1.323.73 2.228.73 1.188 0 2.119-.318 2.794-.953zm-3.179-5.529c-.796 0-1.458.223-1.984.669-.513.445-.817 1.032-.912 1.761h5.529c-.041-.756-.297-1.35-.77-1.782-.459-.432-1.08-.648-1.863-.648zM144.343 37.197h-1.62v-7.492h-3.199l-.101 1.539c-.108 1.255-.27 2.302-.486 3.139-.203.823-.473 1.444-.811 1.863-.324.405-.668.688-1.032.85-.365.149-.81.223-1.337.223l-.121-1.58c.148.014.303-.006.466-.06.162-.068.337-.203.526-.405a2.63 2.63 0 00.527-.81c.162-.338.303-.81.425-1.418.135-.62.223-1.33.263-2.126l.162-2.835h6.338v9.112zM150.848 28.085h2.835v9.112h-1.62V34.16h-1.762l-2.227 3.038h-1.964l2.632-3.443c-.553-.122-1.019-.419-1.397-.891-.378-.486-.567-1.066-.567-1.741 0-.932.337-1.668 1.012-2.208.675-.553 1.695-.83 3.058-.83zm-2.349 3.078c0 .432.169.79.506 1.073.338.27.736.405 1.195.405h1.863v-3.037h-1.478c-.689 0-1.208.142-1.559.425-.351.284-.527.662-.527 1.134z" fill="#562212"/></symbol><symbol fill="none" viewBox="0 0 37 36" id="icon-nalog" xmlns="http://www.w3.org/2000/svg"><path d="M6.868 21.78H17.24m5.6 4.689H10.286L6.288 29.7l.042-3.231H4.88a.94.94 0 01-.94-.946v-13.63a.939.939 0 01.947-.939h17.952a.94.94 0 01.966.94v13.608a.967.967 0 01-.966.967v0zM6.869 14.793h13.429-13.43zm0 3.494h7.353-7.354z" stroke="#C79569" stroke-width="1.5"/><path d="M25.573 20.869h1.284l3.998 2.707-.014-2.707h1.422a.939.939 0 00.94-.939V6.294a.94.94 0 00-.947-.94H14.306a.939.939 0 00-.94.94V9.13" stroke="#EE5238" stroke-width="1.5"/></symbol><symbol fill="none" viewBox="0 0 37 36" id="icon-nalog-active" xmlns="http://www.w3.org/2000/svg"><path d="M6.868 21.78H17.24m5.6 4.689H10.286L6.288 29.7l.042-3.231H4.88a.94.94 0 01-.94-.946v-13.63a.939.939 0 01.947-.939h17.952a.94.94 0 01.966.94v13.608a.967.967 0 01-.966.967v0zM6.869 14.793h13.429-13.43zm0 3.494h7.353-7.354z" stroke="#EE5238" stroke-width="1.5"/><path d="M25.573 20.869h1.284l3.998 2.707-.014-2.707h1.422a.939.939 0 00.94-.939V6.294a.94.94 0 00-.947-.94H14.306a.939.939 0 00-.94.94V9.13" stroke="#EE5238" stroke-width="1.5"/></symbol><symbol fill="none" viewBox="0 0 37 36" id="icon-people" xmlns="http://www.w3.org/2000/svg"><g clip-path="url(#beclip0_1317_9848)" stroke-width="1.5" stroke-linecap="round" stroke-linejoin="round"><path d="M10.014 23.94h-7.55a.86.86 0 01-.612-.258.887.887 0 01-.253-.622c0-1.167.456-2.287 1.268-3.112A4.297 4.297 0 015.93 18.66h5.197c1.15 0 2.25.463 3.063 1.288.3.305.551.65.749 1.022m-2.945-9.35a3.56 3.56 0 01-.584 1.955 3.478 3.478 0 01-1.555 1.297 3.415 3.415 0 01-2.002.2 3.448 3.448 0 01-1.774-.963 3.538 3.538 0 01-.949-1.803 3.572 3.572 0 01.197-2.033 3.509 3.509 0 011.277-1.58 3.427 3.427 0 014.375.438 3.548 3.548 0 011.015 2.489zM21.919 20.97c.197-.373.448-.717.748-1.022a4.298 4.298 0 013.063-1.288h5.197c1.15 0 2.25.463 3.063 1.288a4.436 4.436 0 011.269 3.112.887.887 0 01-.254.622.86.86 0 01-.613.258h-7.548m4.95-12.32a3.56 3.56 0 01-.584 1.955 3.478 3.478 0 01-1.555 1.297 3.415 3.415 0 01-2.002.2 3.448 3.448 0 01-1.774-.963 3.538 3.538 0 01-.949-1.803 3.572 3.572 0 01.197-2.033 3.509 3.509 0 011.277-1.58 3.426 3.426 0 014.375.438 3.549 3.549 0 011.015 2.489z" stroke="#C79569"/><path d="M22.884 12.5c0 .87-.262 1.72-.751 2.444a4.444 4.444 0 01-2 1.62c-.814.334-1.71.42-2.574.251a4.473 4.473 0 01-2.28-1.204 4.384 4.384 0 01-1.22-2.253 4.35 4.35 0 01.254-2.542 4.412 4.412 0 011.64-1.975 4.495 4.495 0 015.626.547 4.373 4.373 0 011.305 3.112zm-1.114 8.8h-6.683c-1.477 0-2.893.58-3.937 1.61a5.466 5.466 0 00-1.631 3.89c0 .291.117.571.326.777.209.207.492.323.787.323h15.593c.295 0 .578-.116.787-.323.21-.206.327-.486.327-.777a5.466 5.466 0 00-1.631-3.89 5.604 5.604 0 00-3.938-1.61z" stroke="#EE5238"/></g><defs><clipPath id="beclip0_1317_9848"><path fill="#fff" transform="translate(.429)" d="M0 0h36v36H0z"/></clipPath></defs></symbol><symbol fill="none" viewBox="0 0 37 36" id="icon-people-active" xmlns="http://www.w3.org/2000/svg"><g clip-path="url(#bfclip0_1317_9848)" stroke="#EE5238" stroke-width="1.5" stroke-linecap="round" stroke-linejoin="round"><path d="M10.014 23.94h-7.55a.86.86 0 01-.612-.258.887.887 0 01-.253-.622c0-1.167.456-2.287 1.268-3.112A4.297 4.297 0 015.93 18.66h5.197c1.15 0 2.25.463 3.063 1.288.3.305.551.65.749 1.022m-2.945-9.35a3.56 3.56 0 01-.584 1.955 3.478 3.478 0 01-1.555 1.297 3.415 3.415 0 01-2.002.2 3.448 3.448 0 01-1.774-.963 3.538 3.538 0 01-.949-1.803 3.572 3.572 0 01.197-2.033 3.509 3.509 0 011.277-1.58 3.427 3.427 0 014.375.438 3.548 3.548 0 011.015 2.489zM21.919 20.97c.197-.373.448-.717.748-1.022a4.298 4.298 0 013.063-1.288h5.197c1.15 0 2.25.463 3.063 1.288a4.436 4.436 0 011.269 3.112.887.887 0 01-.254.622.86.86 0 01-.613.258h-7.548m4.95-12.32a3.56 3.56 0 01-.584 1.955 3.478 3.478 0 01-1.555 1.297 3.415 3.415 0 01-2.002.2 3.448 3.448 0 01-1.774-.963 3.538 3.538 0 01-.949-1.803 3.572 3.572 0 01.197-2.033 3.509 3.509 0 011.277-1.58 3.426 3.426 0 014.375.438 3.549 3.549 0 011.015 2.489z"/><path d="M22.884 12.5c0 .87-.262 1.72-.751 2.444a4.444 4.444 0 01-2 1.62c-.814.334-1.71.42-2.574.251a4.473 4.473 0 01-2.28-1.204 4.384 4.384 0 01-1.22-2.253 4.35 4.35 0 01.254-2.542 4.412 4.412 0 011.64-1.975 4.495 4.495 0 015.626.547 4.373 4.373 0 011.305 3.112zm-1.114 8.8h-6.683c-1.477 0-2.893.58-3.937 1.61a5.466 5.466 0 00-1.631 3.89c0 .291.117.571.326.777.209.207.492.323.787.323h15.593c.295 0 .578-.116.787-.323.21-.206.327-.486.327-.777a5.466 5.466 0 00-1.631-3.89 5.604 5.604 0 00-3.938-1.61z"/></g><defs><clipPath id="bfclip0_1317_9848"><path fill="#fff" transform="translate(.429)" d="M0 0h36v36H0z"/></clipPath></defs></symbol><symbol fill="none" viewBox="0 0 37 36" id="icon-snow" xmlns="http://www.w3.org/2000/svg"><path d="M23.086 6.799l-4.8 3.2-4.8-3.2M29.486 13.2l-3.2 4.8 3.2 4.8M23.086 29.2l-4.8-3.2-4.8 3.2M7.086 22.8l3.2-4.8-3.2-4.8" stroke="#EE5238" stroke-width="1.5" stroke-linecap="round" stroke-linejoin="round"/><path d="M18.286 3.6v11.2V3.6zm14.4 14.4h-11.2 11.2zm-14.4 14.4V21.2v11.2zM3.886 18h11.2-11.2zm11.2 0a3.2 3.2 0 106.4 0 3.2 3.2 0 00-6.4 0z" stroke="#C79569" stroke-width="1.5" stroke-linecap="round" stroke-linejoin="round"/></symbol><symbol fill="none" viewBox="0 0 37 36" id="icon-snow-active" xmlns="http://www.w3.org/2000/svg"><path d="M23.086 6.799l-4.8 3.2-4.8-3.2M29.486 13.2l-3.2 4.8 3.2 4.8M23.086 29.2l-4.8-3.2-4.8 3.2M7.086 22.8l3.2-4.8-3.2-4.8M18.286 3.6v11.2V3.6zm14.4 14.4h-11.2 11.2zm-14.4 14.4V21.2v11.2zM3.886 18h11.2-11.2zm11.2 0a3.2 3.2 0 106.4 0 3.2 3.2 0 00-6.4 0z" stroke="#EE5238" stroke-width="1.5" stroke-linecap="round" stroke-linejoin="round"/></symbol><symbol fill="none" viewBox="0 0 37 36" id="icon-social" xmlns="http://www.w3.org/2000/svg"><path d="M30.602 21.585l-1.08 8.595a1.5 1.5 0 01-1.5 1.32H9.677a1.5 1.5 0 01-1.5-1.32l-1.08-8.595" stroke="#EE5238" stroke-width="1.5" stroke-linecap="round" stroke-linejoin="round"/><path d="M31.337 21.345l-6.795 2.265a18 18 0 01-11.37 0l-6.795-2.265a1.5 1.5 0 01-1.02-1.5V10.5h27v9.42a1.5 1.5 0 01-1.02 1.425zM17.357 18h3-3zm9-9a4.5 4.5 0 00-4.5-4.5h-6a4.5 4.5 0 00-4.5 4.5v1.5h15V9z" stroke="#C79569" stroke-width="1.5" stroke-linecap="round" stroke-linejoin="round"/></symbol><symbol fill="none" viewBox="0 0 37 36" id="icon-social-active" xmlns="http://www.w3.org/2000/svg"><path d="M30.602 21.585l-1.08 8.595a1.5 1.5 0 01-1.5 1.32H9.677a1.5 1.5 0 01-1.5-1.32l-1.08-8.595" stroke="#EE5238" stroke-width="1.5" stroke-linecap="round" stroke-linejoin="round"/><path d="M31.337 21.345l-6.795 2.265a18 18 0 01-11.37 0l-6.795-2.265a1.5 1.5 0 01-1.02-1.5V10.5h27v9.42a1.5 1.5 0 01-1.02 1.425zM17.357 18h3-3zm9-9a4.5 4.5 0 00-4.5-4.5h-6a4.5 4.5 0 00-4.5 4.5v1.5h15V9z" stroke="#EE5238" stroke-width="1.5" stroke-linecap="round" stroke-linejoin="round"/></symbol><symbol fill="none" viewBox="0 0 36 36" id="icon-tree" xmlns="http://www.w3.org/2000/svg"><path d="M28.5 22.362c-.954 0-1.87-.321-2.545-.892-.675-.572-1.055-1.346-1.055-2.154v-4.57c0-.808.38-1.582 1.055-2.154.675-.57 1.59-.892 2.545-.892.955 0 1.87.321 2.546.892.675.572 1.054 1.346 1.054 2.154v4.57c0 .808-.379 1.582-1.054 2.154-.675.57-1.59.892-2.546.892zm0 0V31.5m0-9.138V18.9" stroke="#EE5238" stroke-width="1.5" stroke-linecap="round" stroke-linejoin="round"/><path d="M4.5 31.5h27M12 13.5v18m0-18l2.25-2.25M12 13.5L10.5 12m9 .75a5.234 5.234 0 00-3.135-4.8 4.5 4.5 0 00-8.73 0 5.235 5.235 0 000 9.6 4.5 4.5 0 008.73 0 5.235 5.235 0 003.135-4.8z" stroke="#C79569" stroke-width="1.5" stroke-linecap="round" stroke-linejoin="round"/></symbol><symbol fill="none" viewBox="0 0 36 36" id="icon-tree-active" xmlns="http://www.w3.org/2000/svg"><path d="M28.5 22.362c-.954 0-1.87-.321-2.545-.892-.675-.572-1.055-1.346-1.055-2.154v-4.57c0-.808.38-1.582 1.055-2.154.675-.57 1.59-.892 2.545-.892.955 0 1.87.321 2.546.892.675.572 1.054 1.346 1.054 2.154v4.57c0 .808-.379 1.582-1.054 2.154-.675.57-1.59.892-2.546.892zm0 0V31.5m0-9.138V18.9M4.5 31.5h27M12 13.5v18m0-18l2.25-2.25M12 13.5L10.5 12m9 .75a5.234 5.234 0 00-3.135-4.8 4.5 4.5 0 00-8.73 0 5.235 5.235 0 000 9.6 4.5 4.5 0 008.73 0 5.235 5.235 0 003.135-4.8z" stroke="#EE5238" stroke-width="1.5" stroke-linecap="round" stroke-linejoin="round"/></symbol><symbol fill="none" viewBox="0 0 2 70" id="logo-line" xmlns="http://www.w3.org/2000/svg"><path stroke="url(#bmpaint0_linear_1807_2752)" d="M1.142 0v70"/><defs><linearGradient id="bmpaint0_linear_1807_2752" x1=".642" y1="0" x2=".642" y2="70" gradientUnits="userSpaceOnUse"><stop stop-color="#231F20" stop-opacity="0"/><stop offset=".5" stop-color="#231F20" stop-opacity=".2"/><stop offset="1" stop-color="#231F20" stop-opacity="0"/></linearGradient></defs></symbol></svg>