<?xml version="1.0" encoding="utf-8"?><svg xmlns="http://www.w3.org/2000/svg" xmlns:xlink="http://www.w3.org/1999/xlink"><symbol fill="none" viewBox="0 0 101 92" id="error" xmlns="http://www.w3.org/2000/svg"><path d="M41.421 5.32L1.891 76.53a10.265 10.265 0 00.022 10.353 10.346 10.346 0 003.835 3.77A10.426 10.426 0 0010.97 92h79.062c1.83.016 3.63-.449 5.22-1.347a10.345 10.345 0 003.836-3.77 10.268 10.268 0 00.023-10.353L59.579 5.32a10.341 10.341 0 00-3.81-3.891 10.423 10.423 0 00-10.538 0 10.342 10.342 0 00-3.81 3.891z" fill="#F4F4F4"/><path d="M50.5 30v26" stroke="#EE5238" stroke-width="6" stroke-linecap="round" stroke-linejoin="round"/><path d="M50.55 72h-.1" stroke="#EE5238" stroke-width="8" stroke-linecap="round" stroke-linejoin="round"/></symbol><symbol fill="none" viewBox="0 0 188 52" id="gosuslugi" xmlns="http://www.w3.org/2000/svg"><path d="M63.6 30.594a.233.233 0 00-.12-.127.25.25 0 00-.174-.008c-.99.363-2.63.657-3.922.657-2.827 0-4.175-.754-4.175-5.038 0-3.425.414-5.039 4.175-5.039 1.066 0 2.357.152 3.615.514a.223.223 0 00.26-.11c.349-.758.855-1.985 1.228-2.889l.147-.354a.217.217 0 00.004-.185.232.232 0 00-.14-.127 18.738 18.738 0 00-5.408-.826c-5.923 0-8.563 2.76-8.563 8.953 0 6.28 2.64 9.082 8.563 9.082 1.484 0 4.41-.307 5.82-.863a.224.224 0 00.129-.282L63.6 30.594zM17.785 17.745c0-.118.096-.213.215-.213h12.164c.152 0 .255.155.196.295l-1.506 3.582a.21.21 0 01-.218.13.216.216 0 01-.021 0H22.34v12.876a.214.214 0 01-.215.214H18a.214.214 0 01-.215-.214v-16.67z" fill="#0066B3"/><path fill-rule="evenodd" clip-rule="evenodd" d="M31.379 26.014c0-6.442 2.255-8.951 8.046-8.951 5.837 0 8.113 2.509 8.113 8.95 0 6.54-2.276 9.084-8.113 9.084-5.791 0-8.046-2.543-8.046-9.083zm4.585.064c0 4.541.822 5.266 3.46 5.266 2.69 0 3.528-.725 3.528-5.266 0-4.836-.915-5.266-3.527-5.266-2.563 0-3.46.43-3.46 5.266z" fill="#0066B3"/><path d="M98.257 30.594a.232.232 0 00-.295-.135c-.99.363-2.63.657-3.921.657-2.828 0-4.175-.754-4.175-5.038 0-3.425.414-5.039 4.175-5.039 1.066 0 2.356.152 3.614.514a.223.223 0 00.26-.11c.35-.758.856-1.985 1.229-2.889l.146-.354a.218.218 0 00.004-.185.232.232 0 00-.14-.127 18.738 18.738 0 00-5.407-.826c-5.924 0-8.563 2.76-8.563 8.953 0 6.28 2.64 9.082 8.563 9.082 1.484 0 4.409-.307 5.82-.863a.224.224 0 00.128-.282l-1.438-3.358zM101.866 34.628h4.236c.09 0 .176-.06.202-.145.653-2.034 1.232-4.323 1.722-6.847a54.55 54.55 0 00.829-6.097h4.142v12.876c0 .118.096.213.215.213h4.125a.214.214 0 00.215-.213v-16.67a.214.214 0 00-.215-.214h-12.591c-.116 0-.21.09-.215.205a70.383 70.383 0 01-.914 8.518c-.511 3.002-1.249 5.71-1.957 8.101a.214.214 0 00.206.273zM140.258 17.531a.214.214 0 00-.215.213v16.671c0 .118.096.213.215.213h4.125a.214.214 0 00.215-.213V21.539h6.275l.021-.001a.209.209 0 00.217-.13l1.507-3.581a.213.213 0 00-.196-.296h-12.164zM67.018 17.532a.211.211 0 00-.201.283l6.268 16.816a209.979 209.979 0 01-2.99 5.952.214.214 0 00.189.313h4.46a.217.217 0 00.192-.117c3.299-6.662 5.727-12.567 9.047-22.966a.215.215 0 00-.203-.281h-4.142a.217.217 0 00-.208.156c-1.278 4.446-2.456 7.925-3.822 11.279l-4.21-11.297a.214.214 0 00-.202-.138h-4.178zM120.142 17.814a.212.212 0 01.202-.283h4.177c.09 0 .17.056.201.139l4.211 11.296c1.366-3.353 2.544-6.833 3.823-11.278a.216.216 0 01.207-.157h4.142c.146 0 .248.145.203.282-3.32 10.398-5.748 16.303-9.048 22.965a.216.216 0 01-.192.117h-4.459a.215.215 0 01-.19-.312 208.103 208.103 0 002.991-5.952l-6.268-16.817zM165.571 17.531h4.123c.12 0 .215.094.21.213v15.694a.215.215 0 01-.146.209c-1.911.723-5.132 1.45-8.019 1.45-4.943 0-6.945-2.144-7.043-7.62-.005-.012-.005-9.707-.005-9.707v-.026c0-.12.095-.213.215-.213h4.123c.12 0 .215.094.215.213v9.64c.094 2.91.82 3.608 3.32 3.608 1.005 0 1.899-.12 2.792-.366V17.744c0-.12.094-.213.215-.213z" fill="#EE2F53"/></symbol><symbol fill="none" viewBox="0 0 37 36" id="icon-compensation" xmlns="http://www.w3.org/2000/svg"><path d="M13.602 11.38c4.729 0 8.561-1.32 8.561-2.948s-3.832-2.948-8.56-2.948c-4.729 0-8.562 1.32-8.562 2.948s3.833 2.947 8.561 2.947zM22.17 12.262c0 1.626-3.837 2.948-8.568 2.948-4.73 0-8.561-1.322-8.561-2.948m10.986 6.542h-2.425c-4.73 0-8.561-1.322-8.561-2.947m9.596 6.643h-1.035c-4.73 0-8.561-1.317-8.561-2.948m10.04 6.62c-.491.045-.985.06-1.479.046-4.73 0-8.561-1.322-8.561-2.948m0 .029V8.443m17.128 8.437V8.432" stroke="#C79569" stroke-width="1.5" stroke-linecap="round"/><path d="M23.648 23.096c4.728 0 8.561-1.32 8.561-2.947 0-1.628-3.833-2.948-8.56-2.948-4.73 0-8.562 1.32-8.562 2.948 0 1.627 3.833 2.947 8.561 2.947zM32.21 23.98c0 1.63-3.831 2.947-8.562 2.947-4.73 0-8.567-1.317-8.567-2.948m17.128 3.583c0 1.631-3.83 2.953-8.561 2.953-4.73 0-8.567-1.316-8.567-2.953m0-.045v-7.79M32.21 27.68v-7.633" stroke="#EE5238" stroke-width="1.5" stroke-linecap="round"/></symbol><symbol fill="none" viewBox="0 0 37 36" id="icon-compensation-active" xmlns="http://www.w3.org/2000/svg"><path d="M13.602 11.38c4.729 0 8.561-1.32 8.561-2.948s-3.832-2.948-8.56-2.948c-4.729 0-8.562 1.32-8.562 2.948s3.833 2.947 8.561 2.947zM22.17 12.262c0 1.626-3.837 2.948-8.568 2.948-4.73 0-8.561-1.322-8.561-2.948m10.986 6.542h-2.425c-4.73 0-8.561-1.322-8.561-2.947m9.596 6.643h-1.035c-4.73 0-8.561-1.317-8.561-2.948m10.04 6.62c-.491.045-.985.06-1.479.046-4.73 0-8.561-1.322-8.561-2.948m0 .029V8.443m17.128 8.437V8.432" stroke="#EE5238" stroke-width="1.5" stroke-linecap="round"/><path d="M23.648 23.096c4.728 0 8.561-1.32 8.561-2.947 0-1.628-3.833-2.948-8.56-2.948-4.73 0-8.562 1.32-8.562 2.948 0 1.627 3.833 2.947 8.561 2.947zM32.21 23.98c0 1.63-3.831 2.947-8.562 2.947-4.73 0-8.567-1.317-8.567-2.948m17.128 3.583c0 1.631-3.83 2.953-8.561 2.953-4.73 0-8.567-1.316-8.567-2.953m0-.045v-7.79M32.21 27.68v-7.633" stroke="#EE5238" stroke-width="1.5" stroke-linecap="round"/></symbol><symbol fill="none" viewBox="0 0 37 36" id="icon-ecp" xmlns="http://www.w3.org/2000/svg"><path d="M31.005 5.4H5.245c-.664 0-1.202.538-1.202 1.202v18.05c0 .664.538 1.202 1.202 1.202h25.76c.664 0 1.202-.538 1.202-1.202V6.602c0-.664-.538-1.202-1.202-1.202z" stroke="#C79569" stroke-width="1.5"/><path d="M4.043 21.963h28.164M12.8 30.6a3.968 3.968 0 002.112-4.76m9.067 4.76a3.962 3.962 0 01-2.112-4.76" stroke="#C79569" stroke-width="1.5"/><path d="M9.498 30.602h17.253" stroke="#C79569" stroke-width="1.5" stroke-linecap="round"/><path d="M9.082 10.374l1.725 1.208 2.136-3.005m-4.111 7.627l1.72 1.202 2.135-3.004m3.415-3.85H28.49M16.102 16.61H28.49" stroke="#EE5238" stroke-width="1.5"/></symbol><symbol fill="none" viewBox="0 0 37 36" id="icon-ecp-active" xmlns="http://www.w3.org/2000/svg"><path d="M31.005 5.4H5.245c-.664 0-1.202.538-1.202 1.202v18.05c0 .664.538 1.202 1.202 1.202h25.76c.664 0 1.202-.538 1.202-1.202V6.602c0-.664-.538-1.202-1.202-1.202z" stroke="#EE5238" stroke-width="1.5"/><path d="M4.043 21.963h28.164M12.8 30.6a3.968 3.968 0 002.112-4.76m9.067 4.76a3.962 3.962 0 01-2.112-4.76" stroke="#EE5238" stroke-width="1.5"/><path d="M9.498 30.602h17.253" stroke="#EE5238" stroke-width="1.5" stroke-linecap="round"/><path d="M9.082 10.374l1.725 1.208 2.136-3.005m-4.111 7.627l1.72 1.202 2.135-3.004m3.415-3.85H28.49M16.102 16.61H28.49" stroke="#EE5238" stroke-width="1.5"/></symbol><symbol fill="none" viewBox="0 0 37 36" id="icon-events" xmlns="http://www.w3.org/2000/svg"><path d="M29.243 15.692v8.074c.004.228-.058.453-.176.645a1.15 1.15 0 01-.49.441l-7.913 3.594a6.737 6.737 0 01-6.148-.268l-5.682-3.216a1.169 1.169 0 01-.439-.437 1.217 1.217 0 01-.16-.607v-7.999" stroke="#C79569" stroke-width="1.5" stroke-linecap="round"/><path d="M16.828 5.845L3.484 12.284a.566.566 0 00-.319.516.581.581 0 00.319.517l12.919 6.665a4.512 4.512 0 004.024 0L33.7 13.43a.566.566 0 00.319-.516.581.581 0 00-.32-.517L20.788 5.885a4.456 4.456 0 00-3.959-.04v0z" stroke="#EE5238" stroke-width="1.5" stroke-linecap="round"/><path d="M18.581 12.937l-14.182.86.197 8.197M4.616 25.64c.914 0 1.655-.755 1.655-1.686 0-.931-.74-1.686-1.655-1.686s-1.656.755-1.656 1.686c0 .931.741 1.686 1.656 1.686z" stroke="#C79569" stroke-width="1.5" stroke-linecap="round"/><path d="M5.185 25.534l1.309 4.18H2.737l1.329-4.18" stroke="#C79569" stroke-width="1.5" stroke-linecap="round"/></symbol><symbol fill="none" viewBox="0 0 37 36" id="icon-events-active" xmlns="http://www.w3.org/2000/svg"><path d="M29.243 15.692v8.074c.004.228-.058.453-.176.645a1.15 1.15 0 01-.49.441l-7.913 3.594a6.737 6.737 0 01-6.148-.268l-5.682-3.216a1.169 1.169 0 01-.439-.437 1.217 1.217 0 01-.16-.607v-7.999" stroke="#EE5238" stroke-width="1.5" stroke-linecap="round"/><path d="M16.828 5.845L3.484 12.284a.566.566 0 00-.319.516.581.581 0 00.319.517l12.919 6.665a4.512 4.512 0 004.024 0L33.7 13.43a.566.566 0 00.319-.516.581.581 0 00-.32-.517L20.788 5.885a4.456 4.456 0 00-3.959-.04v0z" stroke="#EE5238" stroke-width="1.5" stroke-linecap="round"/><path d="M18.581 12.937l-14.182.86.197 8.197M4.616 25.64c.914 0 1.655-.755 1.655-1.686 0-.931-.74-1.686-1.655-1.686s-1.656.755-1.656 1.686c0 .931.741 1.686 1.656 1.686z" stroke="#EE5238" stroke-width="1.5" stroke-linecap="round"/><path d="M5.185 25.534l1.309 4.18H2.737l1.329-4.18" stroke="#EE5238" stroke-width="1.5" stroke-linecap="round"/></symbol><symbol fill="none" viewBox="0 0 37 36" id="icon-grants" xmlns="http://www.w3.org/2000/svg"><path d="M26.608 23.01a.75.75 0 00-1.302.746l1.302-.746zm3.287 7.241l-.651.373.002.004.649-.377zm-.13.31l-.282.695.009.003.273-.698zm-4.843-1.969l.283-.695-.027-.01-.027-.01-.229.715zm-.174.107l-.74-.12-.003.016-.002.016.745.088zm-.596 5.062l.734.152.007-.032.003-.032-.744-.088zm-.338-.033l-.656.362.003.007.005.007.648-.376zm-4.573-8.275l.656-.363a.75.75 0 00-1.324.023l.668.34zm-4.224 8.297l.639.392.015-.025.014-.027-.668-.34zm-.338.04l-.743.102.006.04.01.04.727-.183zm-.714-5.175l.743-.103-.004-.024-.005-.024-.734.15zm-.175-.102l-.234-.712-.032.01-.03.014.296.688zm-4.708 2.03l.206.722.047-.013.044-.02-.297-.688zm-.135-.314l.645.383.005-.01-.65-.373zm4.588-6.472a.75.75 0 00-1.3-.748l1.3.748zm5.757-14.256l-.677.323.004.008.673-.331zm1.518 3.088l-.673.33.01.022.013.021.65-.373zm.045.028l.11-.742-.03-.004-.03-.002-.05.748zm3.375.495l-.108.742.054.008h.054v-.75zm.034.096l-.48-.576-.022.018-.021.02.523.538zM21.8 15.61l-.523-.537-.074.072-.052.09.65.375zm-.006.025h-.75.75zm.006.025l.74-.123-.022-.134-.068-.118-.65.375zm.563 3.375l-.74.123.002.01.002.011.736-.144zm-.079.062l-.349.664.017.009.018.008.314-.681zm-3.049-1.603l-.482.574.062.052.071.038.35-.664zm-.05 0l.357.66.066-.037.059-.049-.482-.574zm-3.015 1.631l.274.698.043-.017.04-.021-.357-.66zm-.085-.062l-.74-.123-.005.035-.003.036.748.052zm.563-3.375l-.67-.337-.051.101-.019.113.74.123zm0-.05l.67-.338-.057-.112-.09-.088-.523.538zm-2.47-2.402l-.61.436.04.055.047.046.523-.537zm.034-.096l-.108-.742-.047.007-.046.013.201.722zm3.403-.495l-.005-.75h-.052l-.05.008.107.742zm.045-.028l.672.333v-.001l-.672-.332zm1.525-3.088l.672.332.09-.182-.014-.202-.748.052zm6.122 14.227l3.937 6.868 1.301-.746-3.937-6.868-1.302.746zm3.94 6.872a.49.49 0 01-.01-.454.611.611 0 01.283-.287.644.644 0 01.519-.025l-.547 1.397a.857.857 0 00.697-.03.889.889 0 00.407-.422 1.01 1.01 0 00-.053-.932l-1.297.753zm.8-.762l-4.842-1.969-.565 1.39 4.843 1.969.565-1.39zm-4.896-1.988a.884.884 0 00-.376-.036l.18 1.49a.614.614 0 01-.261-.026l.457-1.428zm-.376-.036a.884.884 0 00-.356.124l.783 1.279a.614.614 0 01-.247.086l-.18-1.489zm-.356.124a.884.884 0 00-.273.261l1.246.836a.615.615 0 01-.19.182l-.783-1.279zm-.273.261a.884.884 0 00-.138.351l1.48.242a.617.617 0 01-.096.243l-1.246-.836zm-.143.384l-.596 5.063 1.49.175.596-5.062-1.49-.176zm-.586 4.998a.613.613 0 01.245-.37.62.62 0 01.424-.114c.22.023.334.152.377.226l-1.297.753c.144.249.41.476.764.513a.88.88 0 00.605-.157.888.888 0 00.351-.547l-1.469-.304zm1.053-.244l-4.573-8.275-1.313.726 4.574 8.274 1.313-.725zm-5.897-8.252l-4.225 8.297 1.337.68 4.224-8.296-1.336-.681zm-4.196 8.245a.475.475 0 01.358-.209.622.622 0 01.672.459l-1.456.363a.878.878 0 00.958.668c.353-.041.607-.269.747-.497l-1.279-.784zm1.045.329l-.714-5.175-1.486.205.714 5.175 1.486-.205zm-.723-5.223a.884.884 0 00-.148-.339L13.333 29a.614.614 0 01-.103-.235l1.47-.3zm-.148-.339a.884.884 0 00-.274-.249l-.753 1.297a.615.615 0 01-.191-.173l1.218-.875zm-.274-.249a.886.886 0 00-.352-.115l-.157 1.492a.617.617 0 01-.244-.08l.753-1.297zm-.352-.115a.884.884 0 00-.369.04l.468 1.425a.615.615 0 01-.256.027l.157-1.492zm-.432.064l-4.708 2.03.594 1.378 4.708-2.031-.594-1.377zm-4.617 1.998a.618.618 0 01.725.344c.094.211.03.38-.009.445l-1.29-.766a1.017 1.017 0 00-.072.929.882.882 0 001.058.49l-.412-1.442zm.721.78l3.938-6.846-1.3-.748-3.938 6.846 1.3.748zM18.62 9.832l1.518 3.088 1.346-.662-1.518-3.088-1.346.662zm1.54 3.13c.067.115.16.212.273.283l.795-1.272c.097.06.177.144.234.243l-1.301.746zm.273.283c.112.07.24.111.373.12l.1-1.496a.694.694 0 01.322.104l-.795 1.272zm.315.114l3.375.495.217-1.484-3.375-.495-.217 1.484zm3.483.503a.7.7 0 01-.662-.468.698.698 0 01.216-.762l.96 1.152a.802.802 0 00.242-.88.8.8 0 00-.756-.542v1.5zm-.49-1.191l-2.463 2.402 1.047 1.073 2.464-2.401-1.047-1.074zm-2.59 2.564a.8.8 0 00-.106.4h1.5a.7.7 0 01-.094.35l-1.3-.75zm-.106.4a.8.8 0 00.107.4l1.299-.75a.7.7 0 01.094.35h-1.5zm.017.148l.562 3.375 1.48-.246-.563-3.375-1.48.246zm.566 3.396a.694.694 0 01.03-.375l1.406.523a.805.805 0 00.036-.436l-1.472.288zm.03-.375a.693.693 0 01.222-.304l.927 1.18a.806.806 0 00.257-.353l-1.406-.523zm.222-.304c.1-.078.22-.128.348-.143l.175 1.49a.807.807 0 00.404-.167l-.927-1.18zm.348-.143a.694.694 0 01.371.059l-.628 1.362a.807.807 0 00.432.069l-.175-1.49zm.406.076l-3.049-1.603-.698 1.328 3.049 1.603.698-1.328zm-2.915-1.514a.79.79 0 00-.508-.184v1.5a.71.71 0 01-.457-.167l.965-1.149zm-.508-.184a.79.79 0 00-.508.184l.965 1.15a.71.71 0 01-.457.166v-1.5zm-.382.1l-3.015 1.63.714 1.32 3.015-1.631-.714-1.32zm-2.933 1.592a.689.689 0 01.34-.042l-.192 1.488c.136.017.274 0 .401-.05l-.549-1.396zm.34-.042a.69.69 0 01.319.128l-.887 1.21c.11.08.24.132.376.15l.193-1.488zm.319.128c.094.068.168.16.217.265l-1.36.631a.813.813 0 00.256.313l.887-1.21zm.217.265c.05.105.07.222.063.337l-1.497-.104a.812.812 0 00.074.398l1.36-.631zm.054.409l.563-3.375-1.48-.247-.563 3.375 1.48.247zm.493-3.161a.807.807 0 00.086-.363h-1.5c0-.108.025-.215.074-.312l1.34.675zm.086-.363c0-.126-.03-.25-.086-.363l-1.34.675a.693.693 0 01-.074-.312h1.5zm-.233-.563l-2.47-2.402-1.046 1.075 2.47 2.402L17.17 15.1zm-2.383-2.3c.065.09.107.194.122.303l-1.485.21c.018.13.067.253.143.36l1.22-.874zm.122.303a.69.69 0 01-.032.326l-1.415-.5a.812.812 0 00-.038.385l1.485-.21zm-.032.326a.689.689 0 01-.18.274l-1.023-1.097a.811.811 0 00-.212.324l1.415.499zm-.18.274a.69.69 0 01-.285.16l-.402-1.445a.813.813 0 00-.336.188l1.023 1.097zm-.378.18l3.403-.496-.216-1.484-3.403.495.216 1.484zm3.3-.488a.8.8 0 00.42-.122l-.796-1.272a.698.698 0 01.366-.106l.01 1.5zm.42-.122a.8.8 0 00.292-.323l-1.344-.666a.699.699 0 01.256-.283l.795 1.272zm.293-.324l1.524-3.088-1.345-.664-1.524 3.088 1.345.664zm1.6-3.472a.694.694 0 01-.128.452l-1.22-.874a.806.806 0 00-.149.526l1.497-.104zm-.128.452a.694.694 0 01-.388.267l-.381-1.45a.807.807 0 00-.45.31l1.219.873zm-.388.267a.693.693 0 01-.468-.042l.63-1.36a.806.806 0 00-.543-.049l.381 1.45zm-.468-.042a.694.694 0 01-.334-.33l1.353-.646a.806.806 0 00-.388-.385l-.63 1.361z" fill="#EE5238"/><path d="M26.418 6.277l.484 1.469c.144.46.442.857.844 1.125L29 9.68a2.166 2.166 0 01.805 2.598l-.473 1.176c-.21.52-.21 1.1 0 1.62L29.8 16.2a2.155 2.155 0 01-.742 2.576l-1.109.799a2.171 2.171 0 00-.82 1.17l-.378 1.372a2.16 2.16 0 01-2.25 1.564l-1.181-.101a2.182 2.182 0 00-1.541.472l-1.125.917a2.155 2.155 0 01-2.728 0l-.996-.782a2.166 2.166 0 00-1.378-.495h-1.738a2.154 2.154 0 01-2.104-1.687l-.31-1.322a2.149 2.149 0 00-.888-1.3l-1.03-.714a2.16 2.16 0 01-.815-2.52l.484-1.327a2.171 2.171 0 000-1.496l-.434-1.16a2.171 2.171 0 01.85-2.575l1.125-.737c.44-.288.762-.726.905-1.232l.344-1.226a2.166 2.166 0 012.25-1.57l1.085.096a2.183 2.183 0 001.542-.473l1.029-.832a2.16 2.16 0 012.74 0l.933.776c.431.361.986.539 1.547.495l1.125-.084a2.16 2.16 0 012.227 1.473v0z" stroke="#C79569" stroke-width="1.5"/></symbol><symbol fill="none" viewBox="0 0 37 36" id="icon-grants-active" xmlns="http://www.w3.org/2000/svg"><path d="M26.608 23.01a.75.75 0 00-1.302.746l1.302-.746zm3.287 7.241l-.651.373.002.004.649-.377zm-.13.31l-.282.695.009.003.273-.698zm-4.843-1.969l.283-.695-.027-.01-.027-.01-.229.715zm-.174.107l-.74-.12-.003.016-.002.016.745.088zm-.596 5.062l.734.152.007-.032.003-.032-.744-.088zm-.338-.033l-.656.362.003.007.005.007.648-.376zm-4.573-8.275l.656-.363a.75.75 0 00-1.324.023l.668.34zm-4.224 8.297l.639.392.015-.025.014-.027-.668-.34zm-.338.04l-.743.102.006.04.01.04.727-.183zm-.714-5.175l.743-.103-.004-.024-.005-.024-.734.15zm-.175-.102l-.234-.712-.032.01-.03.014.296.688zm-4.708 2.03l.206.722.047-.013.044-.02-.297-.688zm-.135-.314l.645.383.005-.01-.65-.373zm4.588-6.472a.75.75 0 00-1.3-.748l1.3.748zm5.757-14.256l-.677.323.004.008.673-.331zm1.518 3.088l-.673.33.01.022.013.021.65-.373zm.045.028l.11-.742-.03-.004-.03-.002-.05.748zm3.375.495l-.108.742.054.008h.054v-.75zm.034.096l-.48-.576-.022.018-.021.02.523.538zM21.8 15.61l-.523-.537-.074.072-.052.09.65.375zm-.006.025h-.75.75zm.006.025l.74-.123-.022-.134-.068-.118-.65.375zm.563 3.375l-.74.123.002.01.002.011.736-.144zm-.079.062l-.349.664.017.009.018.008.314-.681zm-3.049-1.603l-.482.574.062.052.071.038.35-.664zm-.05 0l.357.66.066-.037.059-.049-.482-.574zm-3.015 1.631l.274.698.043-.017.04-.021-.357-.66zm-.085-.062l-.74-.123-.005.035-.003.036.748.052zm.563-3.375l-.67-.337-.051.101-.019.113.74.123zm0-.05l.67-.338-.057-.112-.09-.088-.523.538zm-2.47-2.402l-.61.436.04.055.047.046.523-.537zm.034-.096l-.108-.742-.047.007-.046.013.201.722zm3.403-.495l-.005-.75h-.052l-.05.008.107.742zm.045-.028l.672.333v-.001l-.672-.332zm1.525-3.088l.672.332.09-.182-.014-.202-.748.052zm6.122 14.227l3.937 6.868 1.301-.746-3.937-6.868-1.302.746zm3.94 6.872a.49.49 0 01-.01-.454.611.611 0 01.283-.287.644.644 0 01.519-.025l-.547 1.397a.857.857 0 00.697-.03.889.889 0 00.407-.422 1.01 1.01 0 00-.053-.932l-1.297.753zm.8-.762l-4.842-1.969-.565 1.39 4.843 1.969.565-1.39zm-4.896-1.988a.884.884 0 00-.376-.036l.18 1.49a.614.614 0 01-.261-.026l.457-1.428zm-.376-.036a.884.884 0 00-.356.124l.783 1.279a.614.614 0 01-.247.086l-.18-1.489zm-.356.124a.884.884 0 00-.273.261l1.246.836a.615.615 0 01-.19.182l-.783-1.279zm-.273.261a.884.884 0 00-.138.351l1.48.242a.617.617 0 01-.096.243l-1.246-.836zm-.143.384l-.596 5.063 1.49.175.596-5.062-1.49-.176zm-.586 4.998a.613.613 0 01.245-.37.62.62 0 01.424-.114c.22.023.334.152.377.226l-1.297.753c.144.249.41.476.764.513a.88.88 0 00.605-.157.888.888 0 00.351-.547l-1.469-.304zm1.053-.244l-4.573-8.275-1.313.726 4.574 8.274 1.313-.725zm-5.897-8.252l-4.225 8.297 1.337.68 4.224-8.296-1.336-.681zm-4.196 8.245a.475.475 0 01.358-.209.622.622 0 01.672.459l-1.456.363a.878.878 0 00.958.668c.353-.041.607-.269.747-.497l-1.279-.784zm1.045.329l-.714-5.175-1.486.205.714 5.175 1.486-.205zm-.723-5.223a.884.884 0 00-.148-.339L13.333 29a.614.614 0 01-.103-.235l1.47-.3zm-.148-.339a.884.884 0 00-.274-.249l-.753 1.297a.615.615 0 01-.191-.173l1.218-.875zm-.274-.249a.886.886 0 00-.352-.115l-.157 1.492a.617.617 0 01-.244-.08l.753-1.297zm-.352-.115a.884.884 0 00-.369.04l.468 1.425a.615.615 0 01-.256.027l.157-1.492zm-.432.064l-4.708 2.03.594 1.378 4.708-2.031-.594-1.377zm-4.617 1.998a.618.618 0 01.725.344c.094.211.03.38-.009.445l-1.29-.766a1.017 1.017 0 00-.072.929.882.882 0 001.058.49l-.412-1.442zm.721.78l3.938-6.846-1.3-.748-3.938 6.846 1.3.748zM18.62 9.832l1.518 3.088 1.346-.662-1.518-3.088-1.346.662zm1.54 3.13c.067.115.16.212.273.283l.795-1.272c.097.06.177.144.234.243l-1.301.746zm.273.283c.112.07.24.111.373.12l.1-1.496a.694.694 0 01.322.104l-.795 1.272zm.315.114l3.375.495.217-1.484-3.375-.495-.217 1.484zm3.483.503a.7.7 0 01-.662-.468.698.698 0 01.216-.762l.96 1.152a.802.802 0 00.242-.88.8.8 0 00-.756-.542v1.5zm-.49-1.191l-2.463 2.402 1.047 1.073 2.464-2.401-1.047-1.074zm-2.59 2.564a.8.8 0 00-.106.4h1.5a.7.7 0 01-.094.35l-1.3-.75zm-.106.4a.8.8 0 00.107.4l1.299-.75a.7.7 0 01.094.35h-1.5zm.017.148l.562 3.375 1.48-.246-.563-3.375-1.48.246zm.566 3.396a.694.694 0 01.03-.375l1.406.523a.805.805 0 00.036-.436l-1.472.288zm.03-.375a.693.693 0 01.222-.304l.927 1.18a.806.806 0 00.257-.353l-1.406-.523zm.222-.304c.1-.078.22-.128.348-.143l.175 1.49a.807.807 0 00.404-.167l-.927-1.18zm.348-.143a.694.694 0 01.371.059l-.628 1.362a.807.807 0 00.432.069l-.175-1.49zm.406.076l-3.049-1.603-.698 1.328 3.049 1.603.698-1.328zm-2.915-1.514a.79.79 0 00-.508-.184v1.5a.71.71 0 01-.457-.167l.965-1.149zm-.508-.184a.79.79 0 00-.508.184l.965 1.15a.71.71 0 01-.457.166v-1.5zm-.382.1l-3.015 1.63.714 1.32 3.015-1.631-.714-1.32zm-2.933 1.592a.689.689 0 01.34-.042l-.192 1.488c.136.017.274 0 .401-.05l-.549-1.396zm.34-.042a.69.69 0 01.319.128l-.887 1.21c.11.08.24.132.376.15l.193-1.488zm.319.128c.094.068.168.16.217.265l-1.36.631a.813.813 0 00.256.313l.887-1.21zm.217.265c.05.105.07.222.063.337l-1.497-.104a.812.812 0 00.074.398l1.36-.631zm.054.409l.563-3.375-1.48-.247-.563 3.375 1.48.247zm.493-3.161a.807.807 0 00.086-.363h-1.5c0-.108.025-.215.074-.312l1.34.675zm.086-.363c0-.126-.03-.25-.086-.363l-1.34.675a.693.693 0 01-.074-.312h1.5zm-.233-.563l-2.47-2.402-1.046 1.075 2.47 2.402L17.17 15.1zm-2.383-2.3c.065.09.107.194.122.303l-1.485.21c.018.13.067.253.143.36l1.22-.874zm.122.303a.69.69 0 01-.032.326l-1.415-.5a.812.812 0 00-.038.385l1.485-.21zm-.032.326a.689.689 0 01-.18.274l-1.023-1.097a.811.811 0 00-.212.324l1.415.499zm-.18.274a.69.69 0 01-.285.16l-.402-1.445a.813.813 0 00-.336.188l1.023 1.097zm-.378.18l3.403-.496-.216-1.484-3.403.495.216 1.484zm3.3-.488a.8.8 0 00.42-.122l-.796-1.272a.698.698 0 01.366-.106l.01 1.5zm.42-.122a.8.8 0 00.292-.323l-1.344-.666a.699.699 0 01.256-.283l.795 1.272zm.293-.324l1.524-3.088-1.345-.664-1.524 3.088 1.345.664zm1.6-3.472a.694.694 0 01-.128.452l-1.22-.874a.806.806 0 00-.149.526l1.497-.104zm-.128.452a.694.694 0 01-.388.267l-.381-1.45a.807.807 0 00-.45.31l1.219.873zm-.388.267a.693.693 0 01-.468-.042l.63-1.36a.806.806 0 00-.543-.049l.381 1.45zm-.468-.042a.694.694 0 01-.334-.33l1.353-.646a.806.806 0 00-.388-.385l-.63 1.361z" fill="#EE5238"/><path d="M26.418 6.277l.484 1.469c.144.46.442.857.844 1.125L29 9.68a2.166 2.166 0 01.805 2.598l-.473 1.176c-.21.52-.21 1.1 0 1.62L29.8 16.2a2.155 2.155 0 01-.742 2.576l-1.109.799a2.171 2.171 0 00-.82 1.17l-.378 1.372a2.16 2.16 0 01-2.25 1.564l-1.181-.101a2.182 2.182 0 00-1.541.472l-1.125.917a2.155 2.155 0 01-2.728 0l-.996-.782a2.166 2.166 0 00-1.378-.495h-1.738a2.154 2.154 0 01-2.104-1.687l-.31-1.322a2.149 2.149 0 00-.888-1.3l-1.03-.714a2.16 2.16 0 01-.815-2.52l.484-1.327a2.171 2.171 0 000-1.496l-.434-1.16a2.171 2.171 0 01.85-2.575l1.125-.737c.44-.288.762-.726.905-1.232l.344-1.226a2.166 2.166 0 012.25-1.57l1.085.096a2.183 2.183 0 001.542-.473l1.029-.832a2.16 2.16 0 012.74 0l.933.776c.431.361.986.539 1.547.495l1.125-.084a2.16 2.16 0 012.227 1.473v0z" stroke="#EE5238" stroke-width="1.5"/></symbol><symbol fill="none" viewBox="0 0 37 36" id="icon-hand" xmlns="http://www.w3.org/2000/svg"><path d="M7.86 23.24l5.198-3.272a1.475 1.475 0 011.133-.18c1.846.48 7.397 2 9.443 2.72 1.54.539 2.159 2.058 1.54 3.064-.84 1.333-2.12 1.2-3.04.94a2.406 2.406 0 01-.366-.133l-3.638-1.546M7.807 32.809L2.87 25.38a.806.806 0 01.227-1.113l3.119-1.999a.8.8 0 011.093.213l5.037 7.33a.807.807 0 01-.213 1.12L8.92 33.083a.8.8 0 01-1.113-.274v0z" stroke="#C79569" stroke-width="1.5" stroke-linecap="round"/><path d="M11.893 29.144l1.699-.973 9.616 2.666a.727.727 0 00.586-.094c1.333-.873 7.137-4.711 9.996-6.73a1.6 1.6 0 00.2-2.666 2.066 2.066 0 00-2.472-.213c-1 .56-3.779 2.619-3.779 2.619" stroke="#C79569" stroke-width="1.5" stroke-linecap="round"/><circle cx="25.985" cy="11.986" r="7.986" stroke="#EE5238" stroke-width="1.5"/><circle cx="26" cy="12" r="5" stroke="#EE5238" stroke-width="1.5"/></symbol><symbol fill="none" viewBox="0 0 37 36" id="icon-hand-active" xmlns="http://www.w3.org/2000/svg"><path d="M7.86 23.24l5.198-3.272a1.475 1.475 0 011.133-.18c1.846.48 7.397 2 9.443 2.72 1.54.539 2.159 2.058 1.54 3.064-.84 1.333-2.12 1.2-3.04.94a2.406 2.406 0 01-.366-.133l-3.638-1.546M7.807 32.809L2.87 25.38a.806.806 0 01.227-1.113l3.119-1.999a.8.8 0 011.093.213l5.037 7.33a.807.807 0 01-.213 1.12L8.92 33.083a.8.8 0 01-1.113-.274v0z" stroke="#EE5238" stroke-width="1.5" stroke-linecap="round"/><path d="M11.893 29.144l1.699-.973 9.616 2.666a.727.727 0 00.586-.094c1.333-.873 7.137-4.711 9.996-6.73a1.6 1.6 0 00.2-2.666 2.066 2.066 0 00-2.472-.213c-1 .56-3.779 2.619-3.779 2.619" stroke="#EE5238" stroke-width="1.5" stroke-linecap="round"/><circle cx="25.985" cy="11.986" r="7.986" stroke="#EE5238" stroke-width="1.5"/><circle cx="26" cy="12" r="5" stroke="#EE5238" stroke-width="1.5"/></symbol><symbol fill="none" viewBox="0 0 37 36" id="icon-house" xmlns="http://www.w3.org/2000/svg"><path d="M26.163 18.264h-2.248m2.248 2.925h-2.248m2.248 3.133h-2.248m2.248 2.918h-2.248m5.577 4.26H20.58V11.217l8.612 5.022a.645.645 0 01.3.553V31.5z" stroke="#EE5238" stroke-width="1.5" stroke-linecap="round"/><path d="M29.492 31.5H20.58V11.217m-4.357 2.13h-4.498m4.498 3.635h-4.498m4.498 3.582h-4.498m4.498 3.582h-4.498m4.498 3.583h-4.498M4.315 31.5h28.8m-12.599 0H7.656V11.601a.661.661 0 01.332-.566L19.57 4.58a.63.63 0 01.863.25.66.66 0 01.083.323V31.5z" stroke="#C79569" stroke-width="1.5" stroke-linecap="round"/></symbol><symbol fill="none" viewBox="0 0 37 36" id="icon-house-active" xmlns="http://www.w3.org/2000/svg"><path d="M26.163 18.264h-2.248m2.248 2.925h-2.248m2.248 3.133h-2.248m2.248 2.918h-2.248m5.577 4.26H20.58V11.217l8.612 5.022a.645.645 0 01.3.553V31.5z" stroke="#EE5238" stroke-width="1.5" stroke-linecap="round"/><path d="M29.492 31.5H20.58V11.217m-4.357 2.13h-4.498m4.498 3.635h-4.498m4.498 3.582h-4.498m4.498 3.582h-4.498m4.498 3.583h-4.498M4.315 31.5h28.8m-12.599 0H7.656V11.601a.661.661 0 01.332-.566L19.57 4.58a.63.63 0 01.863.25.66.66 0 01.083.323V31.5z" stroke="#EE5238" stroke-width="1.5" stroke-linecap="round"/></symbol><symbol fill="none" viewBox="0 0 37 36" id="icon-invest" xmlns="http://www.w3.org/2000/svg"><path d="M7.722 21.07h3.613v5.911H7.722v-5.91zm6.71-7.692h3.615v13.603h-3.614V13.378zm6.712 2.623h3.614v10.98h-3.614v-10.98zm6.711-7.806h3.614v18.791h-3.614V8.197z" stroke="#EE5238" stroke-width="1.5"/><path d="M4.588 4.943v25.224h28.879" stroke="#C79569" stroke-width="1.5"/></symbol><symbol fill="none" viewBox="0 0 37 36" id="icon-invest-active" xmlns="http://www.w3.org/2000/svg"><path d="M7.722 21.07h3.613v5.911H7.722v-5.91zm6.71-7.692h3.615v13.603h-3.614V13.378zm6.712 2.623h3.614v10.98h-3.614v-10.98zm6.711-7.806h3.614v18.791h-3.614V8.197z" stroke="#EE5238" stroke-width="1.5"/><path d="M4.588 4.943v25.224h28.879" stroke="#EE5238" stroke-width="1.5"/></symbol><symbol fill="none" viewBox="0 0 37 36" id="icon-lizing" xmlns="http://www.w3.org/2000/svg"><path d="M30.072 32.383H7.178V4.258a.056.056 0 01.09-.045L9.58 6.38a.068.068 0 00.073 0l1.856-2.188a.05.05 0 01.067 0l2.093 2.193a.062.062 0 00.073 0l1.85-2.188a.051.051 0 01.037-.015.05.05 0 01.037.015l1.609 2.177a.062.062 0 00.078 0l1.834-2.177a.05.05 0 01.057-.011.05.05 0 01.016.011l1.513 2.171a.056.056 0 00.08 0l1.62-2.17a.056.056 0 01.078 0l1.603 2.17a.056.056 0 00.079 0l1.535-2.16a.05.05 0 01.043-.022.05.05 0 01.042.022l1.265 2.16a.062.062 0 00.074 0l2.812-2.176a.056.056 0 01.084.05l-.017 28.142z" stroke="#C79569" stroke-width="1.5" stroke-linecap="round"/><path d="M11.548 24.491H26.51m-14.962 3.51H26.51" stroke="#EE5238" stroke-width="1.5" stroke-linecap="round"/><path d="M15.963 14.625a1.5 1.5 0 100-3 1.5 1.5 0 000 3zM21.963 19.875a1.5 1.5 0 100-3 1.5 1.5 0 000 3zM23.463 11.625l-9 8.25" stroke="#EE5238" stroke-width="1.5"/></symbol><symbol fill="none" viewBox="0 0 41 40" id="icon-lizing-2" xmlns="http://www.w3.org/2000/svg"><path d="M8.625 36h5m13-21v-2.929a1.734 1.734 0 00-.217-.848 1.799 1.799 0 00-.608-.645L15.625 4 5.45 10.578a1.8 1.8 0 00-.608.645c-.144.26-.218.552-.217.848V36h22v-5m-18-16v6h5v-6h-5zm0 10.5v6h5v-6h-5z" stroke="#C79569" stroke-width="1.5" stroke-linecap="round" stroke-linejoin="round"/><path d="M22.625 19v-4h-5v6h4" stroke="#C79569" stroke-width="1.5" stroke-linecap="round" stroke-linejoin="round"/><circle cx="29.625" cy="23" r="8" stroke="#EE5238" stroke-width="1.5"/><circle cx="29.625" cy="23" r="5" stroke="#EE5238" stroke-width="1.5"/></symbol><symbol fill="none" viewBox="0 0 41 40" id="icon-lizing-2-active" xmlns="http://www.w3.org/2000/svg"><path d="M8.625 36h5m13-21v-2.929a1.734 1.734 0 00-.217-.848 1.799 1.799 0 00-.608-.645L15.625 4 5.45 10.578a1.8 1.8 0 00-.608.645c-.144.26-.218.552-.217.848V36h22v-5m-18-16v6h5v-6h-5zm0 10.5v6h5v-6h-5z" stroke="#EE5238" stroke-width="1.5" stroke-linecap="round" stroke-linejoin="round"/><path d="M22.625 19v-4h-5v6h4" stroke="#EE5238" stroke-width="1.5" stroke-linecap="round" stroke-linejoin="round"/><circle cx="29.625" cy="23" r="8" stroke="#EE5238" stroke-width="1.5"/><circle cx="29.625" cy="23" r="5" stroke="#EE5238" stroke-width="1.5"/></symbol><symbol fill="none" viewBox="0 0 37 36" id="icon-lizing-3" xmlns="http://www.w3.org/2000/svg"><path d="M15.655 13.445a5.365 5.365 0 002.97-.873" stroke="#EE5238" stroke-width="1.5" stroke-linecap="round"/><circle cx="10.625" cy="10" r="2" stroke="#C79569" stroke-width="1.5"/><path d="M13.49 29.136l.645.646.268-.268v-.378h-.913zm-5.73 0L7 28.63a.913.913 0 00.115 1.15l.646-.645zm0-13.677h.914v-.547l-.483-.258-.43.805zm5.73 0l-.43-.805-.483.258v.547h.913zM10.625 32l-.646.646.646.646.646-.646-.646-.646zm-2.864-9.345L7 22.15a.913.913 0 000 1.01l.76-.505zm0-3.24h-.913c0 .179.052.355.152.504l.76-.505zm1.074 1.62l.76.504a.913.913 0 000-1.009l-.76.505zm-1.074 4.86L7 25.391A.913.913 0 007 26.4l.76-.505zm1.074-1.62l.76.505a.913.913 0 000-1.01l-.76.505zm0 3.24l.76.505a.913.913 0 000-1.009l-.76.505zM5.45 10.088a5.174 5.174 0 015.174-5.174V3.087a7 7 0 00-7 7h1.826zm5.174-5.174a5.174 5.174 0 015.174 5.174h1.826a7 7 0 00-7-7v1.826zm1.952 11.261v12.962h1.826V16.174h-1.826zm-4.386-1.52a5.173 5.173 0 01-2.74-4.567H3.625a7 7 0 003.705 6.178l.86-1.611zm.483 1.52v-.715H6.848v.715h1.826zm7.125-6.087a5.173 5.173 0 01-2.74 4.567l.86 1.61a7 7 0 003.706-6.177H15.8zm-1.396 6.087v-.715h-1.826v.715h1.826zM12.844 28.49L9.98 31.355l1.29 1.291 2.865-2.864-1.291-1.292zm-1.573 2.865L8.406 28.49l-1.291 1.292 2.864 2.864 1.292-1.291zm-2.597-11.94v-3.24H6.848v3.24h1.826zm-.152 3.745l1.074-1.62-1.522-1.01L7 22.15l1.522 1.01zm1.074-2.63l-1.074-1.62L7 19.92l1.074 1.62 1.522-1.01zM8.522 26.4l1.074-1.62-1.522-1.01L7 25.39l1.522 1.01zm1.074-2.63l-1.074-1.62L7 23.16l1.074 1.62 1.522-1.01zm-1.074 5.87l1.074-1.62-1.522-1.009L7 28.631l1.522 1.01zm1.074-2.629l-1.074-1.62L7 26.4l1.074 1.62 1.522-1.009z" fill="#C79569"/><path d="M33.397 15.927l-5.846 5.845a.85.85 0 01-.62.247.92.92 0 01-.63-.271l-7.33-7.33a.468.468 0 01-.138-.329l.074-6.136a.426.426 0 01.411-.41l6.393-.32a.46.46 0 01.343.135l7.319 7.319a.92.92 0 01.27.63.85.85 0 01-.246.62z" stroke="#EE5238" stroke-width="1.5" stroke-linecap="round"/><path d="M10.8 9.285C10.8 6.988 12.193 4.5 16 4.5c2.625 0 6.5.5 6.5 5.5" stroke="#EE5238" stroke-width="1.5" stroke-linecap="round"/></symbol><symbol fill="none" viewBox="0 0 37 36" id="icon-lizing-3-active" xmlns="http://www.w3.org/2000/svg"><path d="M15.655 13.445a5.365 5.365 0 002.97-.873" stroke="#EE5238" stroke-width="1.5" stroke-linecap="round"/><circle cx="10.625" cy="10" r="2" stroke="#EE5238" stroke-width="1.5"/><path d="M13.49 29.136l.645.646.268-.268v-.378h-.913zm-5.73 0L7 28.63a.913.913 0 00.115 1.15l.646-.645zm0-13.677h.914v-.547l-.483-.258-.43.805zm5.73 0l-.43-.805-.483.258v.547h.913zM10.625 32l-.646.646.646.646.646-.646-.646-.646zm-2.864-9.345L7 22.15a.913.913 0 000 1.01l.76-.505zm0-3.24h-.913c0 .179.052.355.152.504l.76-.505zm1.074 1.62l.76.504a.913.913 0 000-1.009l-.76.505zm-1.074 4.86L7 25.391A.913.913 0 007 26.4l.76-.505zm1.074-1.62l.76.505a.913.913 0 000-1.01l-.76.505zm0 3.24l.76.505a.913.913 0 000-1.009l-.76.505zM5.45 10.088a5.174 5.174 0 015.174-5.174V3.087a7 7 0 00-7 7h1.826zm5.174-5.174a5.174 5.174 0 015.174 5.174h1.826a7 7 0 00-7-7v1.826zm1.952 11.261v12.962h1.826V16.174h-1.826zm-4.386-1.52a5.173 5.173 0 01-2.74-4.567H3.625a7 7 0 003.705 6.178l.86-1.611zm.483 1.52v-.715H6.848v.715h1.826zm7.125-6.087a5.173 5.173 0 01-2.74 4.567l.86 1.61a7 7 0 003.706-6.177H15.8zm-1.396 6.087v-.715h-1.826v.715h1.826zM12.844 28.49L9.98 31.355l1.29 1.291 2.865-2.864-1.291-1.292zm-1.573 2.865L8.406 28.49l-1.291 1.292 2.864 2.864 1.292-1.291zm-2.597-11.94v-3.24H6.848v3.24h1.826zm-.152 3.745l1.074-1.62-1.522-1.01L7 22.15l1.522 1.01zm1.074-2.63l-1.074-1.62L7 19.92l1.074 1.62 1.522-1.01zM8.522 26.4l1.074-1.62-1.522-1.01L7 25.39l1.522 1.01zm1.074-2.63l-1.074-1.62L7 23.16l1.074 1.62 1.522-1.01zm-1.074 5.87l1.074-1.62-1.522-1.009L7 28.631l1.522 1.01zm1.074-2.629l-1.074-1.62L7 26.4l1.074 1.62 1.522-1.009z" fill="#EE5238"/><path d="M33.397 15.927l-5.846 5.845a.85.85 0 01-.62.247.92.92 0 01-.63-.271l-7.33-7.33a.468.468 0 01-.138-.329l.074-6.136a.426.426 0 01.411-.41l6.393-.32a.46.46 0 01.343.135l7.319 7.319a.92.92 0 01.27.63.85.85 0 01-.246.62z" stroke="#EE5238" stroke-width="1.5" stroke-linecap="round"/><path d="M10.8 9.285C10.8 6.988 12.193 4.5 16 4.5c2.625 0 6.5.5 6.5 5.5" stroke="#EE5238" stroke-width="1.5" stroke-linecap="round"/></symbol><symbol fill="none" viewBox="0 0 37 36" id="icon-lizing-active" xmlns="http://www.w3.org/2000/svg"><path d="M30.072 32.383H7.178V4.258a.056.056 0 01.09-.045L9.58 6.38a.068.068 0 00.073 0l1.856-2.188a.05.05 0 01.067 0l2.093 2.193a.062.062 0 00.073 0l1.85-2.188a.051.051 0 01.037-.015.05.05 0 01.037.015l1.609 2.177a.062.062 0 00.078 0l1.834-2.177a.05.05 0 01.057-.011.05.05 0 01.016.011l1.513 2.171a.056.056 0 00.08 0l1.62-2.17a.056.056 0 01.078 0l1.603 2.17a.056.056 0 00.079 0l1.535-2.16a.05.05 0 01.043-.022.05.05 0 01.042.022l1.265 2.16a.062.062 0 00.074 0l2.812-2.176a.056.056 0 01.084.05l-.017 28.142zM11.548 24.491H26.51m-14.962 3.51H26.51" stroke="#EE5238" stroke-width="1.5" stroke-linecap="round"/><path d="M15.963 14.625a1.5 1.5 0 100-3 1.5 1.5 0 000 3zM21.963 19.875a1.5 1.5 0 100-3 1.5 1.5 0 000 3zM23.463 11.625l-9 8.25" stroke="#EE5238" stroke-width="1.5"/></symbol><symbol fill="none" viewBox="0 0 37 36" id="icon-loans" xmlns="http://www.w3.org/2000/svg"><path d="M25.555 19.97h.287m-20.63-8.93l17.94-4.978a.92.92 0 011.163.866l.147 3.788-19.25.325zM25.555 19.97h.287" stroke="#C79569" stroke-width="1.5" stroke-linecap="round"/><path d="M29.684 22.985V28.9a1.082 1.082 0 01-1.082 1.082H5.332A1.082 1.082 0 014.25 28.9V12.124a1.082 1.082 0 011.082-1.082h23.27a1.082 1.082 0 011.082 1.082v4.833" stroke="#EE5238" stroke-width="1.5" stroke-linecap="round"/><path d="M31.464 16.956h-8.67a.536.536 0 00-.535.536v4.957c0 .296.24.535.535.535h8.67c.296 0 .536-.24.536-.535v-4.957a.536.536 0 00-.536-.536z" stroke="#C79569" stroke-width="1.5" stroke-linecap="round"/></symbol><symbol fill="none" viewBox="0 0 37 36" id="icon-loans-active" xmlns="http://www.w3.org/2000/svg"><path d="M25.555 19.97h.287m-20.63-8.93l17.94-4.978a.92.92 0 011.163.866l.147 3.788-19.25.325zM25.555 19.97h.287M29.684 22.985V28.9a1.082 1.082 0 01-1.082 1.082H5.332A1.082 1.082 0 014.25 28.9V12.124a1.082 1.082 0 011.082-1.082h23.27a1.082 1.082 0 011.082 1.082v4.833" stroke="#EE5238" stroke-width="1.5" stroke-linecap="round"/><path d="M31.464 16.956h-8.67a.536.536 0 00-.535.536v4.957c0 .296.24.535.535.535h8.67c.296 0 .536-.24.536-.535v-4.957a.536.536 0 00-.536-.536z" stroke="#EE5238" stroke-width="1.5" stroke-linecap="round"/></symbol><symbol fill="none" viewBox="0 0 37 36" id="icon-nalog" xmlns="http://www.w3.org/2000/svg"><path d="M6.868 21.78H17.24m5.6 4.689H10.286L6.288 29.7l.042-3.231H4.88a.94.94 0 01-.94-.946v-13.63a.939.939 0 01.947-.939h17.952a.94.94 0 01.966.94v13.608a.967.967 0 01-.966.967v0zM6.869 14.793h13.429-13.43zm0 3.494h7.353-7.354z" stroke="#C79569" stroke-width="1.5"/><path d="M25.573 20.869h1.284l3.998 2.707-.014-2.707h1.422a.939.939 0 00.94-.939V6.294a.94.94 0 00-.947-.94H14.306a.939.939 0 00-.94.94V9.13" stroke="#EE5238" stroke-width="1.5"/></symbol><symbol fill="none" viewBox="0 0 37 36" id="icon-nalog-active" xmlns="http://www.w3.org/2000/svg"><path d="M6.868 21.78H17.24m5.6 4.689H10.286L6.288 29.7l.042-3.231H4.88a.94.94 0 01-.94-.946v-13.63a.939.939 0 01.947-.939h17.952a.94.94 0 01.966.94v13.608a.967.967 0 01-.966.967v0zM6.869 14.793h13.429-13.43zm0 3.494h7.353-7.354z" stroke="#EE5238" stroke-width="1.5"/><path d="M25.573 20.869h1.284l3.998 2.707-.014-2.707h1.422a.939.939 0 00.94-.939V6.294a.94.94 0 00-.947-.94H14.306a.939.939 0 00-.94.94V9.13" stroke="#EE5238" stroke-width="1.5"/></symbol><symbol fill="none" viewBox="0 0 37 36" id="icon-people" xmlns="http://www.w3.org/2000/svg"><g clip-path="url(#baclip0_1317_9848)" stroke-width="1.5" stroke-linecap="round" stroke-linejoin="round"><path d="M10.014 23.94h-7.55a.86.86 0 01-.612-.258.887.887 0 01-.253-.622c0-1.167.456-2.287 1.268-3.112A4.297 4.297 0 015.93 18.66h5.197c1.15 0 2.25.463 3.063 1.288.3.305.551.65.749 1.022m-2.945-9.35a3.56 3.56 0 01-.584 1.955 3.478 3.478 0 01-1.555 1.297 3.415 3.415 0 01-2.002.2 3.448 3.448 0 01-1.774-.963 3.538 3.538 0 01-.949-1.803 3.572 3.572 0 01.197-2.033 3.509 3.509 0 011.277-1.58 3.427 3.427 0 014.375.438 3.548 3.548 0 011.015 2.489zM21.919 20.97c.197-.373.448-.717.748-1.022a4.298 4.298 0 013.063-1.288h5.197c1.15 0 2.25.463 3.063 1.288a4.436 4.436 0 011.269 3.112.887.887 0 01-.254.622.86.86 0 01-.613.258h-7.548m4.95-12.32a3.56 3.56 0 01-.584 1.955 3.478 3.478 0 01-1.555 1.297 3.415 3.415 0 01-2.002.2 3.448 3.448 0 01-1.774-.963 3.538 3.538 0 01-.949-1.803 3.572 3.572 0 01.197-2.033 3.509 3.509 0 011.277-1.58 3.426 3.426 0 014.375.438 3.549 3.549 0 011.015 2.489z" stroke="#C79569"/><path d="M22.884 12.5c0 .87-.262 1.72-.751 2.444a4.444 4.444 0 01-2 1.62c-.814.334-1.71.42-2.574.251a4.473 4.473 0 01-2.28-1.204 4.384 4.384 0 01-1.22-2.253 4.35 4.35 0 01.254-2.542 4.412 4.412 0 011.64-1.975 4.495 4.495 0 015.626.547 4.373 4.373 0 011.305 3.112zm-1.114 8.8h-6.683c-1.477 0-2.893.58-3.937 1.61a5.466 5.466 0 00-1.631 3.89c0 .291.117.571.326.777.209.207.492.323.787.323h15.593c.295 0 .578-.116.787-.323.21-.206.327-.486.327-.777a5.466 5.466 0 00-1.631-3.89 5.604 5.604 0 00-3.938-1.61z" stroke="#EE5238"/></g><defs><clipPath id="baclip0_1317_9848"><path fill="#fff" transform="translate(.429)" d="M0 0h36v36H0z"/></clipPath></defs></symbol><symbol fill="none" viewBox="0 0 37 36" id="icon-people-active" xmlns="http://www.w3.org/2000/svg"><g clip-path="url(#bbclip0_1317_9848)" stroke="#EE5238" stroke-width="1.5" stroke-linecap="round" stroke-linejoin="round"><path d="M10.014 23.94h-7.55a.86.86 0 01-.612-.258.887.887 0 01-.253-.622c0-1.167.456-2.287 1.268-3.112A4.297 4.297 0 015.93 18.66h5.197c1.15 0 2.25.463 3.063 1.288.3.305.551.65.749 1.022m-2.945-9.35a3.56 3.56 0 01-.584 1.955 3.478 3.478 0 01-1.555 1.297 3.415 3.415 0 01-2.002.2 3.448 3.448 0 01-1.774-.963 3.538 3.538 0 01-.949-1.803 3.572 3.572 0 01.197-2.033 3.509 3.509 0 011.277-1.58 3.427 3.427 0 014.375.438 3.548 3.548 0 011.015 2.489zM21.919 20.97c.197-.373.448-.717.748-1.022a4.298 4.298 0 013.063-1.288h5.197c1.15 0 2.25.463 3.063 1.288a4.436 4.436 0 011.269 3.112.887.887 0 01-.254.622.86.86 0 01-.613.258h-7.548m4.95-12.32a3.56 3.56 0 01-.584 1.955 3.478 3.478 0 01-1.555 1.297 3.415 3.415 0 01-2.002.2 3.448 3.448 0 01-1.774-.963 3.538 3.538 0 01-.949-1.803 3.572 3.572 0 01.197-2.033 3.509 3.509 0 011.277-1.58 3.426 3.426 0 014.375.438 3.549 3.549 0 011.015 2.489z"/><path d="M22.884 12.5c0 .87-.262 1.72-.751 2.444a4.444 4.444 0 01-2 1.62c-.814.334-1.71.42-2.574.251a4.473 4.473 0 01-2.28-1.204 4.384 4.384 0 01-1.22-2.253 4.35 4.35 0 01.254-2.542 4.412 4.412 0 011.64-1.975 4.495 4.495 0 015.626.547 4.373 4.373 0 011.305 3.112zm-1.114 8.8h-6.683c-1.477 0-2.893.58-3.937 1.61a5.466 5.466 0 00-1.631 3.89c0 .291.117.571.326.777.209.207.492.323.787.323h15.593c.295 0 .578-.116.787-.323.21-.206.327-.486.327-.777a5.466 5.466 0 00-1.631-3.89 5.604 5.604 0 00-3.938-1.61z"/></g><defs><clipPath id="bbclip0_1317_9848"><path fill="#fff" transform="translate(.429)" d="M0 0h36v36H0z"/></clipPath></defs></symbol><symbol fill="none" viewBox="0 0 37 36" id="icon-snow" xmlns="http://www.w3.org/2000/svg"><path d="M23.086 6.799l-4.8 3.2-4.8-3.2M29.486 13.2l-3.2 4.8 3.2 4.8M23.086 29.2l-4.8-3.2-4.8 3.2M7.086 22.8l3.2-4.8-3.2-4.8" stroke="#EE5238" stroke-width="1.5" stroke-linecap="round" stroke-linejoin="round"/><path d="M18.286 3.6v11.2V3.6zm14.4 14.4h-11.2 11.2zm-14.4 14.4V21.2v11.2zM3.886 18h11.2-11.2zm11.2 0a3.2 3.2 0 106.4 0 3.2 3.2 0 00-6.4 0z" stroke="#C79569" stroke-width="1.5" stroke-linecap="round" stroke-linejoin="round"/></symbol><symbol fill="none" viewBox="0 0 37 36" id="icon-snow-active" xmlns="http://www.w3.org/2000/svg"><path d="M23.086 6.799l-4.8 3.2-4.8-3.2M29.486 13.2l-3.2 4.8 3.2 4.8M23.086 29.2l-4.8-3.2-4.8 3.2M7.086 22.8l3.2-4.8-3.2-4.8M18.286 3.6v11.2V3.6zm14.4 14.4h-11.2 11.2zm-14.4 14.4V21.2v11.2zM3.886 18h11.2-11.2zm11.2 0a3.2 3.2 0 106.4 0 3.2 3.2 0 00-6.4 0z" stroke="#EE5238" stroke-width="1.5" stroke-linecap="round" stroke-linejoin="round"/></symbol><symbol fill="none" viewBox="0 0 37 36" id="icon-social" xmlns="http://www.w3.org/2000/svg"><path d="M30.602 21.585l-1.08 8.595a1.5 1.5 0 01-1.5 1.32H9.677a1.5 1.5 0 01-1.5-1.32l-1.08-8.595" stroke="#EE5238" stroke-width="1.5" stroke-linecap="round" stroke-linejoin="round"/><path d="M31.337 21.345l-6.795 2.265a18 18 0 01-11.37 0l-6.795-2.265a1.5 1.5 0 01-1.02-1.5V10.5h27v9.42a1.5 1.5 0 01-1.02 1.425zM17.357 18h3-3zm9-9a4.5 4.5 0 00-4.5-4.5h-6a4.5 4.5 0 00-4.5 4.5v1.5h15V9z" stroke="#C79569" stroke-width="1.5" stroke-linecap="round" stroke-linejoin="round"/></symbol><symbol fill="none" viewBox="0 0 37 36" id="icon-social-active" xmlns="http://www.w3.org/2000/svg"><path d="M30.602 21.585l-1.08 8.595a1.5 1.5 0 01-1.5 1.32H9.677a1.5 1.5 0 01-1.5-1.32l-1.08-8.595" stroke="#EE5238" stroke-width="1.5" stroke-linecap="round" stroke-linejoin="round"/><path d="M31.337 21.345l-6.795 2.265a18 18 0 01-11.37 0l-6.795-2.265a1.5 1.5 0 01-1.02-1.5V10.5h27v9.42a1.5 1.5 0 01-1.02 1.425zM17.357 18h3-3zm9-9a4.5 4.5 0 00-4.5-4.5h-6a4.5 4.5 0 00-4.5 4.5v1.5h15V9z" stroke="#EE5238" stroke-width="1.5" stroke-linecap="round" stroke-linejoin="round"/></symbol><symbol fill="none" viewBox="0 0 36 36" id="icon-tree" xmlns="http://www.w3.org/2000/svg"><path d="M28.5 22.362c-.954 0-1.87-.321-2.545-.892-.675-.572-1.055-1.346-1.055-2.154v-4.57c0-.808.38-1.582 1.055-2.154.675-.57 1.59-.892 2.545-.892.955 0 1.87.321 2.546.892.675.572 1.054 1.346 1.054 2.154v4.57c0 .808-.379 1.582-1.054 2.154-.675.57-1.59.892-2.546.892zm0 0V31.5m0-9.138V18.9" stroke="#EE5238" stroke-width="1.5" stroke-linecap="round" stroke-linejoin="round"/><path d="M4.5 31.5h27M12 13.5v18m0-18l2.25-2.25M12 13.5L10.5 12m9 .75a5.234 5.234 0 00-3.135-4.8 4.5 4.5 0 00-8.73 0 5.235 5.235 0 000 9.6 4.5 4.5 0 008.73 0 5.235 5.235 0 003.135-4.8z" stroke="#C79569" stroke-width="1.5" stroke-linecap="round" stroke-linejoin="round"/></symbol><symbol fill="none" viewBox="0 0 36 36" id="icon-tree-active" xmlns="http://www.w3.org/2000/svg"><path d="M28.5 22.362c-.954 0-1.87-.321-2.545-.892-.675-.572-1.055-1.346-1.055-2.154v-4.57c0-.808.38-1.582 1.055-2.154.675-.57 1.59-.892 2.545-.892.955 0 1.87.321 2.546.892.675.572 1.054 1.346 1.054 2.154v4.57c0 .808-.379 1.582-1.054 2.154-.675.57-1.59.892-2.546.892zm0 0V31.5m0-9.138V18.9M4.5 31.5h27M12 13.5v18m0-18l2.25-2.25M12 13.5L10.5 12m9 .75a5.234 5.234 0 00-3.135-4.8 4.5 4.5 0 00-8.73 0 5.235 5.235 0 000 9.6 4.5 4.5 0 008.73 0 5.235 5.235 0 003.135-4.8z" stroke="#EE5238" stroke-width="1.5" stroke-linecap="round" stroke-linejoin="round"/></symbol></svg>