<svg fill="none" xmlns="http://www.w3.org/2000/svg" viewBox="0 0 25 50" id="rock"><path d="M16.459 41.21l-4.133-4.163-4.133 4.163 4.133 8.764 4.133-8.764z" fill="#ED5338"></path> <path d="M12.326 18.935a2.91 2.91 0 002.9-2.921 2.91 2.91 0 00-2.9-2.921 2.91 2.91 0 00-2.9 2.92 2.91 2.91 0 002.9 2.922z" fill="#C59368"></path> <path d="M12.326.093C11.456.53 0 6.665 0 16.379c0 8.325 6.743 20.96 6.743 20.96l5.583-5.623 5.583 5.623s6.743-12.635 6.743-20.96C24.652 6.665 13.196.53 12.326.093zm3.698 27.825l-3.698-3.725-3.698 3.725c-.217-.511-2.683-7.23-2.683-11.685 0-5.916 5.873-9.275 6.381-9.495.435.22 6.38 3.58 6.38 9.495-.072 4.455-2.537 11.174-2.682 11.685z" fill="#C59368"></path></svg>
