<svg width="101" height="92" viewBox="0 0 101 92" fill="none" xmlns="http://www.w3.org/2000/svg">
<path d="M41.4213 5.32016L1.89031 76.5303C0.975608 78.1049 0.495975 79.8918 0.500025 81.71C0.504076 83.5282 0.991666 85.313 1.91337 86.8835C2.83508 88.454 4.15814 89.7544 5.74845 90.6529C7.33876 91.5513 9.13978 92.0159 10.969 91.9996H90.031C91.8602 92.0159 93.6612 91.5513 95.2515 90.6529C96.8419 89.7544 98.1649 88.454 99.0866 86.8835C100.008 85.313 100.496 83.5282 100.5 81.71C100.504 79.8918 100.024 78.1049 99.1097 76.5303L59.5786 5.32016C58.6814 3.70825 57.3661 2.36465 55.7695 1.42905C54.173 0.49345 52.3534 0 50.5 0C48.6466 0 46.827 0.49345 45.2305 1.42905C43.6339 2.36465 42.3186 3.70825 41.4213 5.32016Z" fill="#F4F4F4"/>
<path d="M50.5 30V56" stroke="#EE5238" stroke-width="6" stroke-linecap="round" stroke-linejoin="round"/>
<path d="M50.5492 72H50.4492" stroke="#EE5238" stroke-width="8" stroke-linecap="round" stroke-linejoin="round"/>
</svg>
