<svg width="37" height="36" viewBox="0 0 37 36" fill="none" xmlns="http://www.w3.org/2000/svg">
<path d="M23.0858 6.79883L18.2858 9.99883L13.4858 6.79883" stroke="#EE5238" stroke-width="1.5" stroke-linecap="round" stroke-linejoin="round"/>
<path d="M29.4861 13.1992L26.2861 17.9992L29.4861 22.7992" stroke="#EE5238" stroke-width="1.5" stroke-linecap="round" stroke-linejoin="round"/>
<path d="M23.0858 29.2L18.2858 26L13.4858 29.2" stroke="#EE5238" stroke-width="1.5" stroke-linecap="round" stroke-linejoin="round"/>
<path d="M7.08569 22.7992L10.2857 17.9992L7.08569 13.1992" stroke="#EE5238" stroke-width="1.5" stroke-linecap="round" stroke-linejoin="round"/>
<path d="M18.2857 3.59961V14.7996V3.59961ZM32.6857 17.9996H21.4857H32.6857ZM18.2857 32.3996V21.1996V32.3996ZM3.88574 17.9996H15.0857H3.88574ZM15.0857 17.9996C15.0857 18.6325 15.2734 19.2512 15.625 19.7774C15.9767 20.3037 16.4764 20.7138 17.0612 20.956C17.6459 21.1982 18.2893 21.2616 18.91 21.1381C19.5308 21.0146 20.101 20.7099 20.5485 20.2623C20.996 19.8148 21.3008 19.2446 21.4243 18.6239C21.5477 18.0032 21.4844 17.3597 21.2422 16.775C21 16.1903 20.5898 15.6905 20.0636 15.3389C19.5373 14.9873 18.9186 14.7996 18.2857 14.7996C17.437 14.7996 16.6231 15.1368 16.023 15.7369C15.4229 16.337 15.0857 17.1509 15.0857 17.9996Z" stroke="#C79569" stroke-width="1.5" stroke-linecap="round" stroke-linejoin="round"/>
</svg>
