<svg width="37" height="36" viewBox="0 0 37 36" fill="none" xmlns="http://www.w3.org/2000/svg">
<path d="M30.6022 21.585L29.5222 30.18C29.478 30.5458 29.3006 30.8826 29.0239 31.1261C28.7473 31.3695 28.3907 31.5026 28.0222 31.5H9.67717C9.30865 31.5026 8.95205 31.3695 8.67539 31.1261C8.39873 30.8826 8.22138 30.5458 8.17717 30.18L7.09717 21.585" stroke="#EE5238" stroke-width="1.5" stroke-linecap="round" stroke-linejoin="round"/>
<path d="M31.3373 21.345L24.5423 23.61C20.8518 24.8384 16.8627 24.8384 13.1723 23.61L6.37726 21.345C6.06679 21.2406 5.79902 21.0375 5.61484 20.7667C5.43065 20.4958 5.34019 20.1721 5.35726 19.845V10.5H32.3573V19.92C32.3581 20.2345 32.26 20.5412 32.077 20.7969C31.894 21.0527 31.6352 21.2444 31.3373 21.345ZM17.3573 18H20.3573H17.3573ZM26.3573 9C26.3573 7.80653 25.8832 6.66193 25.0392 5.81802C24.1953 4.97411 23.0507 4.5 21.8573 4.5H15.8573C14.6638 4.5 13.5192 4.97411 12.6753 5.81802C11.8314 6.66193 11.3573 7.80653 11.3573 9V10.5H26.3573V9Z" stroke="#C79569" stroke-width="1.5" stroke-linecap="round" stroke-linejoin="round"/>
</svg>
