<svg width="37" height="36" viewBox="0 0 37 36" fill="none" xmlns="http://www.w3.org/2000/svg">
<path d="M26.6078 23.0102C26.4018 22.6509 25.9435 22.5266 25.5842 22.7326C25.2248 22.9386 25.1005 23.3969 25.3065 23.7563L26.6078 23.0102ZM29.8947 30.2514L29.244 30.6244L29.2461 30.628L29.8947 30.2514ZM29.7653 30.5608L29.4829 31.2556L29.492 31.2592L29.7653 30.5608ZM24.9222 28.592L25.2046 27.8972L25.178 27.8864L25.1507 27.8777L24.9222 28.592ZM24.7478 28.6989L24.0076 28.5783L24.0049 28.5947L24.003 28.6112L24.7478 28.6989ZM24.1516 33.7614L24.886 33.9133L24.8926 33.8814L24.8964 33.8491L24.1516 33.7614ZM23.8141 33.7276L23.1576 34.0904L23.1615 34.0974L23.1655 34.1042L23.8141 33.7276ZM19.2409 25.4533L19.8974 25.0905C19.7631 24.8476 19.5057 24.6987 19.2282 24.7034C18.9507 24.7081 18.6985 24.8656 18.5726 25.113L19.2409 25.4533ZM15.0166 33.7501L15.656 34.1421L15.6715 34.1168L15.6849 34.0904L15.0166 33.7501ZM14.6791 33.7895L13.9361 33.8921L13.9416 33.9322L13.9515 33.9714L14.6791 33.7895ZM13.9647 28.6145L14.7076 28.5119L14.7043 28.4881L14.6995 28.4644L13.9647 28.6145ZM13.7903 28.5133L13.5564 27.8007L13.5243 27.8112L13.4933 27.8246L13.7903 28.5133ZM9.08219 30.5439L9.28823 31.265L9.33477 31.2517L9.37922 31.2326L9.08219 30.5439ZM8.94719 30.2289L9.59214 30.6118L9.59732 30.6028L8.94719 30.2289ZM13.5348 23.7572C13.7413 23.3981 13.6177 22.9397 13.2586 22.7331C12.8996 22.5266 12.4411 22.6503 12.2346 23.0093L13.5348 23.7572ZM19.2916 9.50076L18.6147 9.82397L18.6186 9.83175L19.2916 9.50076ZM20.8103 12.5889L20.1373 12.9199L20.1479 12.9414L20.1598 12.9622L20.8103 12.5889ZM20.8553 12.617L20.9642 11.8749L20.9351 11.8707L20.9058 11.8687L20.8553 12.617ZM24.2303 13.112L24.1215 13.8541L24.1756 13.862H24.2303V13.112ZM24.2641 13.2076L23.7839 12.6315L23.7615 12.6502L23.7405 12.6706L24.2641 13.2076ZM21.8003 15.6095L21.2768 15.0725L21.2026 15.1448L21.1508 15.2345L21.8003 15.6095ZM21.7935 15.6348H21.0435H21.7935ZM21.8003 15.6601L22.5401 15.5368L22.5178 15.4028L22.4498 15.2851L21.8003 15.6601ZM22.3628 19.0351L21.623 19.1584L21.6247 19.1687L21.6267 19.179L22.3628 19.0351ZM22.2841 19.097L21.935 19.7608L21.9523 19.7699L21.9701 19.7781L22.2841 19.097ZM19.2353 17.4939L18.7532 18.0684L18.8149 18.1202L18.8863 18.1577L19.2353 17.4939ZM19.1847 17.4939L19.5416 18.1535L19.6085 18.1173L19.6668 18.0684L19.1847 17.4939ZM16.1697 19.1251L16.4442 19.8231L16.4866 19.8064L16.5266 19.7848L16.1697 19.1251ZM16.0853 19.0633L15.3455 18.94L15.3396 18.9754L15.3371 19.0112L16.0853 19.0633ZM16.6478 15.6883L15.978 15.3508L15.9268 15.4525L15.908 15.565L16.6478 15.6883ZM16.6478 15.6376L17.3176 15.3001L17.261 15.1878L17.1707 15.1L16.6478 15.6376ZM14.1784 13.2358L13.5685 13.6722L13.6075 13.7267L13.6555 13.7734L14.1784 13.2358ZM14.2122 13.1401L14.1042 12.3979L14.0572 12.4048L14.0114 12.4175L14.2122 13.1401ZM17.6153 12.6451L17.6101 11.8952L17.5585 11.8955L17.5074 11.9029L17.6153 12.6451ZM17.6603 12.617L18.3322 12.9503L18.3328 12.949L17.6603 12.617ZM19.1847 9.52889L19.8572 9.86086L19.9469 9.67919L19.9329 9.47708L19.1847 9.52889ZM25.3065 23.7563L29.244 30.6244L30.5453 29.8784L26.6078 23.0102L25.3065 23.7563ZM29.2461 30.628C29.1858 30.5241 29.152 30.3553 29.2367 30.1737C29.2788 30.0833 29.3648 29.9643 29.5198 29.887C29.6897 29.8024 29.8803 29.8004 30.0386 29.8623L29.492 31.2592C29.7151 31.3465 29.9668 31.3402 30.1889 31.2296C30.3962 31.1263 30.5254 30.9594 30.5963 30.8072C30.7386 30.5018 30.7049 30.1531 30.5433 29.8748L29.2461 30.628ZM30.0478 29.866L25.2046 27.8972L24.6398 29.2868L29.4829 31.2555L30.0478 29.866ZM25.1507 27.8777C25.0295 27.8389 24.9013 27.8267 24.775 27.842L24.9548 29.3312C24.867 29.3418 24.7779 29.3333 24.6937 29.3063L25.1507 27.8777ZM24.775 27.842C24.6487 27.8572 24.5271 27.8995 24.4186 27.966L25.2024 29.2449C25.127 29.2912 25.0425 29.3206 24.9548 29.3312L24.775 27.842ZM24.4186 27.966C24.3101 28.0325 24.2172 28.1216 24.1463 28.2273L25.3917 29.0634C25.3424 29.1368 25.2778 29.1987 25.2024 29.2449L24.4186 27.966ZM24.1463 28.2273C24.0754 28.3329 24.028 28.4526 24.0076 28.5783L25.4881 28.8195C25.4738 28.9068 25.4409 28.99 25.3917 29.0634L24.1463 28.2273ZM24.003 28.6112L23.4067 33.6737L24.8964 33.8491L25.4927 28.7866L24.003 28.6112ZM23.4171 33.6094C23.4406 33.4959 23.5108 33.3479 23.6625 33.2394C23.81 33.1339 23.9688 33.1129 24.0858 33.1251C24.3052 33.148 24.4197 33.2771 24.4627 33.351L23.1655 34.1042C23.3097 34.3526 23.5761 34.5801 23.9304 34.617C24.1149 34.6363 24.337 34.6012 24.5352 34.4595C24.7375 34.3147 24.8457 34.1084 24.886 33.9133L23.4171 33.6094ZM24.4705 33.3648L19.8974 25.0905L18.5845 25.816L23.1576 34.0904L24.4705 33.3648ZM18.5726 25.113L14.3482 33.4098L15.6849 34.0904L19.9093 25.7936L18.5726 25.113ZM14.3771 33.3582C14.41 33.3046 14.5154 33.1751 14.7353 33.1494C14.8539 33.1355 15.0117 33.1553 15.1588 33.2567C15.3082 33.3596 15.3799 33.5004 15.4067 33.6076L13.9515 33.9714C13.998 34.1574 14.1083 34.3545 14.3079 34.492C14.5053 34.6279 14.725 34.6608 14.9097 34.6392C15.2618 34.598 15.5163 34.3701 15.656 34.1421L14.3771 33.3582ZM15.422 33.6869L14.7076 28.5119L13.2217 28.7171L13.9361 33.8921L15.422 33.6869ZM14.6995 28.4644C14.6745 28.3421 14.624 28.2264 14.5511 28.1251L13.333 29.0004C13.2824 28.93 13.2472 28.8496 13.2299 28.7646L14.6995 28.4644ZM14.5511 28.1251C14.4783 28.0237 14.3848 27.9389 14.2768 27.8762L13.5236 29.1734C13.4486 29.1298 13.3836 29.0709 13.333 29.0004L14.5511 28.1251ZM14.2768 27.8762C14.1689 27.8135 14.0489 27.7744 13.9247 27.7613L13.7683 29.2532C13.682 29.2441 13.5986 29.2169 13.5236 29.1734L14.2768 27.8762ZM13.9247 27.7613C13.8005 27.7483 13.675 27.7617 13.5564 27.8007L14.0242 29.2258C13.9418 29.2529 13.8546 29.2622 13.7683 29.2532L13.9247 27.7613ZM13.4933 27.8246L8.78516 29.8552L9.37922 31.2326L14.0873 29.2019L13.4933 27.8246ZM8.87615 29.8227C8.98527 29.7916 9.14021 29.7856 9.29897 29.8603C9.45502 29.9338 9.55197 30.0557 9.60123 30.1669C9.69492 30.3783 9.63095 30.5463 9.59208 30.6118L8.3023 29.846C8.15656 30.0914 8.08134 30.4395 8.22987 30.7746C8.30655 30.9477 8.44745 31.1174 8.66028 31.2176C8.87581 31.319 9.10036 31.3187 9.28823 31.265L8.87615 29.8227ZM9.59732 30.6028L13.5348 23.7572L12.2346 23.0093L8.29706 29.8549L9.59732 30.6028ZM18.6186 9.83175L20.1373 12.9199L21.4833 12.2579L19.9646 9.16977L18.6186 9.83175ZM20.1598 12.9622C20.2258 13.0772 20.3193 13.1743 20.4318 13.2446L21.2268 11.9726C21.3236 12.0331 21.404 12.1166 21.4608 12.2156L20.1598 12.9622ZM20.4318 13.2446C20.5443 13.3149 20.6725 13.3564 20.8048 13.3653L20.9058 11.8687C21.0197 11.8764 21.13 11.9121 21.2268 11.9726L20.4318 13.2446ZM20.7465 13.3591L24.1215 13.8541L24.3392 12.3699L20.9642 11.8749L20.7465 13.3591ZM24.2303 13.862C23.8312 13.862 23.6275 13.5671 23.5677 13.3938C23.5094 13.2246 23.4862 12.8796 23.7839 12.6315L24.7442 13.7838C25.0757 13.5075 25.0581 13.1147 24.9857 12.9048C24.9119 12.6907 24.6744 12.362 24.2303 12.362V13.862ZM23.7405 12.6706L21.2768 15.0725L22.3239 16.1465L24.7876 13.7447L23.7405 12.6706ZM21.1508 15.2345C21.0805 15.3562 21.0435 15.4943 21.0435 15.6348H22.5435C22.5435 15.7576 22.5112 15.8782 22.4498 15.9845L21.1508 15.2345ZM21.0435 15.6348C21.0435 15.7754 21.0805 15.9134 21.1508 16.0351L22.4498 15.2851C22.5112 15.3915 22.5435 15.5121 22.5435 15.6348H21.0435ZM21.0605 15.7834L21.623 19.1584L23.1026 18.9118L22.5401 15.5368L21.0605 15.7834ZM21.6267 19.179C21.6022 19.0536 21.6128 18.9239 21.6573 18.8042L23.0633 19.3269C23.1151 19.1877 23.1274 19.037 23.0989 18.8913L21.6267 19.179ZM21.6573 18.8042C21.7018 18.6845 21.7785 18.5793 21.879 18.5004L22.8057 19.6799C22.9225 19.5882 23.0116 19.466 23.0633 19.3269L21.6573 18.8042ZM21.879 18.5004C21.9794 18.4215 22.0997 18.3718 22.2266 18.3569L22.4018 19.8467C22.5492 19.8293 22.689 19.7716 22.8057 19.6799L21.879 18.5004ZM22.2266 18.3569C22.3534 18.342 22.4819 18.3624 22.598 18.4159L21.9701 19.7781C22.105 19.8403 22.2544 19.864 22.4018 19.8467L22.2266 18.3569ZM22.6331 18.4332L19.5844 16.8301L18.8863 18.1577L21.935 19.7608L22.6331 18.4332ZM19.7175 16.9194C19.5754 16.8001 19.3957 16.7347 19.21 16.7347V18.2347C19.0428 18.2347 18.8811 18.1757 18.7532 18.0684L19.7175 16.9194ZM19.21 16.7347C19.0244 16.7347 18.8447 16.8001 18.7025 16.9194L19.6668 18.0684C19.5389 18.1758 19.3771 18.2347 19.21 18.2347V16.7347ZM18.8278 16.8342L15.8128 18.4655L16.5266 19.7848L19.5416 18.1535L18.8278 16.8342ZM15.8952 18.4272C16.0032 18.3847 16.1203 18.3702 16.2356 18.3851L16.0426 19.8727C16.1785 19.8903 16.3167 19.8732 16.4442 19.8231L15.8952 18.4272ZM16.2356 18.3851C16.3508 18.4001 16.4603 18.444 16.554 18.5126L15.6669 19.7223C15.7774 19.8033 15.9067 19.8551 16.0426 19.8727L16.2356 18.3851ZM16.554 18.5126C16.6476 18.5813 16.7224 18.6726 16.7713 18.778L15.4105 19.4092C15.4682 19.5335 15.5564 19.6412 15.6669 19.7223L16.554 18.5126ZM16.7713 18.778C16.8202 18.8834 16.8416 18.9995 16.8335 19.1153L15.3371 19.0112C15.3276 19.1479 15.3528 19.2848 15.4105 19.4092L16.7713 18.778ZM16.8251 19.1866L17.3876 15.8116L15.908 15.565L15.3455 18.94L16.8251 19.1866ZM17.3176 16.0258C17.3743 15.9132 17.4038 15.7889 17.4038 15.6629H15.9038C15.9038 15.5545 15.9292 15.4476 15.978 15.3508L17.3176 16.0258ZM17.4038 15.6629C17.4038 15.537 17.3743 15.4127 17.3176 15.3001L15.978 15.9751C15.9292 15.8783 15.9038 15.7714 15.9038 15.6629H17.4038ZM17.1707 15.1L14.7014 12.6981L13.6555 13.7734L16.1249 16.1753L17.1707 15.1ZM14.7883 12.7993C14.8528 12.8893 14.8945 12.9936 14.9101 13.1031L13.4249 13.3138C13.4433 13.443 13.4925 13.566 13.5685 13.6722L14.7883 12.7993ZM14.9101 13.1031C14.9256 13.2127 14.9145 13.3244 14.8777 13.4288L13.4632 12.9295C13.4197 13.0527 13.4066 13.1845 13.4249 13.3138L14.9101 13.1031ZM14.8777 13.4288C14.8408 13.5331 14.7794 13.6271 14.6985 13.7026L13.6746 12.6064C13.5791 12.6956 13.5066 12.8064 13.4632 12.9295L14.8777 13.4288ZM14.6985 13.7026C14.6175 13.7782 14.5196 13.8331 14.413 13.8628L14.0114 12.4175C13.8856 12.4525 13.77 12.5173 13.6746 12.6064L14.6985 13.7026ZM14.3201 13.8823L17.7233 13.3873L17.5074 11.9029L14.1042 12.3979L14.3201 13.8823ZM17.6205 13.3951C17.7687 13.3941 17.9136 13.352 18.0393 13.2734L17.2443 12.0014C17.3541 11.9328 17.4807 11.896 17.6101 11.8952L17.6205 13.3951ZM18.0393 13.2734C18.1649 13.1949 18.2663 13.0831 18.3322 12.9503L16.9885 12.2837C17.046 12.1677 17.1345 12.07 17.2443 12.0014L18.0393 13.2734ZM18.3328 12.949L19.8572 9.86086L18.5122 9.19691L16.9878 12.285L18.3328 12.949ZM19.9329 9.47708C19.9441 9.63821 19.8986 9.79813 19.8046 9.92932L18.5856 9.05512C18.4763 9.20758 18.4235 9.39344 18.4365 9.58069L19.9329 9.47708ZM19.8046 9.92932C19.7104 10.0606 19.5735 10.1548 19.4174 10.1959L19.0356 8.7453C18.8542 8.79305 18.695 8.90261 18.5856 9.05512L19.8046 9.92932ZM19.4174 10.1959C19.2612 10.237 19.0956 10.2224 18.9491 10.1544L19.5798 8.79349C19.4095 8.71456 19.2171 8.69755 19.0356 8.7453L19.4174 10.1959ZM18.9491 10.1544C18.8026 10.0865 18.6844 9.96966 18.6148 9.82395L19.9684 9.17757C19.8875 9.00823 19.7501 8.8724 19.5798 8.79349L18.9491 10.1544Z" fill="#EE5238"/>
<path d="M26.4183 6.27738L26.9021 7.74551C27.0464 8.20598 27.3442 8.60306 27.7458 8.87051L29.0002 9.68051C29.4111 9.95653 29.715 10.365 29.8614 10.8378C30.0077 11.3107 29.9877 11.8194 29.8046 12.2793L29.3321 13.4549C29.1213 13.9743 29.1213 14.5554 29.3321 15.0749L29.799 16.1999C29.9845 16.65 30.0121 17.1497 29.8773 17.6176C29.7425 18.0854 29.4531 18.4938 29.0565 18.7761L27.9483 19.5749C27.5504 19.861 27.2609 20.2734 27.1271 20.7449L26.7502 22.1174C26.6139 22.598 26.3152 23.0166 25.9049 23.3017C25.4947 23.5868 24.9982 23.7209 24.5002 23.6811L23.319 23.5799C22.7637 23.5349 22.2123 23.704 21.7777 24.0524L20.6527 24.9693C20.2678 25.2841 19.7859 25.4561 19.2887 25.4561C18.7914 25.4561 18.3095 25.2841 17.9246 24.9693L16.929 24.1874C16.541 23.8674 16.0538 23.6924 15.5508 23.6924H13.8127C13.3224 23.6925 12.8466 23.5254 12.4641 23.2185C12.0816 22.9117 11.8152 22.4836 11.709 22.0049L11.3996 20.683C11.2784 20.153 10.9608 19.6887 10.5108 19.3836L9.48147 18.6693C9.08506 18.3994 8.78974 18.0052 8.64207 17.5489C8.49439 17.0927 8.50276 16.6002 8.66585 16.1493L9.1496 14.8218C9.32687 14.3388 9.32687 13.8085 9.1496 13.3255L8.71647 12.1668C8.54453 11.7047 8.53496 11.1979 8.68933 10.7297C8.8437 10.2614 9.15282 9.8597 9.56585 9.59051L10.6908 8.85363C11.1317 8.56601 11.4535 8.12837 11.5965 7.62176L11.9396 6.39551C12.0758 5.91437 12.3743 5.4952 12.7844 5.20913C13.1945 4.92307 13.691 4.78774 14.1896 4.82613L15.2752 4.92176C15.8304 4.96671 16.3818 4.79767 16.8165 4.44926L17.8458 3.61676C18.232 3.30004 18.7161 3.12695 19.2155 3.12695C19.715 3.12695 20.199 3.30004 20.5852 3.61676L21.519 4.39301C21.95 4.75403 22.5053 4.93173 23.0658 4.88801L24.1908 4.80363C24.6736 4.76394 25.1557 4.88767 25.5597 5.15495C25.9637 5.42223 26.2661 5.81754 26.4183 6.27738V6.27738Z" stroke="#C79569" stroke-width="1.5"/>
</svg>
