<svg width="37" height="36" viewBox="0 0 37 36" fill="none" xmlns="http://www.w3.org/2000/svg">
<path d="M30.0715 32.3831H7.17773V4.25813C7.17773 4.24768 7.18064 4.23744 7.18614 4.22855C7.19163 4.21967 7.19949 4.21249 7.20883 4.20781C7.21817 4.20314 7.22863 4.20116 7.23904 4.2021C7.24944 4.20304 7.25938 4.20686 7.26773 4.21313L9.57961 6.37875C9.59051 6.38577 9.6032 6.38951 9.61617 6.38951C9.62914 6.38951 9.64183 6.38577 9.65273 6.37875L11.509 4.19063C11.5183 4.18232 11.5303 4.17773 11.5427 4.17773C11.5552 4.17773 11.5672 4.18232 11.5765 4.19063L13.669 6.38438C13.6796 6.39215 13.6924 6.39633 13.7055 6.39633C13.7187 6.39633 13.7315 6.39215 13.7421 6.38438L15.5927 4.19625C15.5975 4.19132 15.6031 4.18739 15.6094 4.18471C15.6157 4.18202 15.6225 4.18064 15.6293 4.18064C15.6361 4.18064 15.6429 4.18202 15.6492 4.18471C15.6555 4.18739 15.6611 4.19132 15.6659 4.19625L17.2746 6.37313C17.2857 6.38227 17.2996 6.38727 17.314 6.38727C17.3284 6.38727 17.3423 6.38227 17.3534 6.37313L19.1871 4.19625C19.1918 4.19132 19.1975 4.18739 19.2038 4.18471C19.2101 4.18202 19.2168 4.18064 19.2237 4.18064C19.2305 4.18064 19.2373 4.18202 19.2436 4.18471C19.2498 4.18739 19.2555 4.19132 19.2602 4.19625L20.7734 6.3675C20.7839 6.37781 20.798 6.38358 20.8127 6.38358C20.8275 6.38358 20.8416 6.37781 20.8521 6.3675L22.4721 4.19625C22.4826 4.18594 22.4968 4.18017 22.5115 4.18017C22.5262 4.18017 22.5403 4.18594 22.5509 4.19625L24.154 6.3675C24.1645 6.37781 24.1786 6.38358 24.1934 6.38358C24.2081 6.38358 24.2222 6.37781 24.2327 6.3675L25.7684 4.2075C25.773 4.20054 25.7792 4.19483 25.7866 4.19088C25.794 4.18693 25.8022 4.18486 25.8105 4.18486C25.8189 4.18486 25.8271 4.18693 25.8345 4.19088C25.8418 4.19483 25.8481 4.20054 25.8527 4.2075L27.1184 6.3675C27.129 6.37527 27.1418 6.37946 27.1549 6.37946C27.1681 6.37946 27.1809 6.37527 27.1915 6.3675L30.004 4.19063C30.0127 4.1856 30.0226 4.18299 30.0326 4.18307C30.0426 4.18315 30.0525 4.18592 30.0611 4.19109C30.0697 4.19625 30.0768 4.20363 30.0816 4.21245C30.0864 4.22127 30.0887 4.23122 30.0884 4.24125L30.0715 32.3831Z" stroke="#C79569" stroke-width="1.5" stroke-linecap="round"/>
<path d="M11.5479 24.4912H26.5104M11.5479 28.0012H26.5104" stroke="#EE5238" stroke-width="1.5" stroke-linecap="round"/>
<path d="M15.9629 14.625C16.7913 14.625 17.4629 13.9534 17.4629 13.125C17.4629 12.2966 16.7913 11.625 15.9629 11.625C15.1345 11.625 14.4629 12.2966 14.4629 13.125C14.4629 13.9534 15.1345 14.625 15.9629 14.625Z" stroke="#EE5238" stroke-width="1.5"/>
<path d="M21.9629 19.875C22.7913 19.875 23.4629 19.2034 23.4629 18.375C23.4629 17.5466 22.7913 16.875 21.9629 16.875C21.1345 16.875 20.4629 17.5466 20.4629 18.375C20.4629 19.2034 21.1345 19.875 21.9629 19.875Z" stroke="#EE5238" stroke-width="1.5"/>
<path d="M23.4629 11.625L14.4629 19.875" stroke="#EE5238" stroke-width="1.5"/>
</svg>
