<svg width="37" height="36" viewBox="0 0 37 36" fill="none" xmlns="http://www.w3.org/2000/svg">
<path d="M6.86847 21.7808H17.2391M22.8387 26.469H10.2862L6.28849 29.7003L6.32991 26.469H4.87996C4.75606 26.469 4.63339 26.4445 4.51901 26.3969C4.40463 26.3492 4.30081 26.2795 4.21352 26.1915C4.12623 26.1036 4.05721 25.9993 4.01043 25.8845C3.96365 25.7698 3.94003 25.647 3.94094 25.5231V11.8935C3.94094 11.7696 3.96545 11.647 4.01308 11.5326C4.0607 11.4182 4.13048 11.3144 4.21841 11.2271C4.30634 11.1398 4.41067 11.0708 4.5254 11.024C4.64012 10.9772 4.76297 10.9536 4.88686 10.9545H22.8387C22.9643 10.9508 23.0894 10.9724 23.2065 11.0179C23.3236 11.0634 23.4304 11.132 23.5206 11.2196C23.6107 11.3071 23.6824 11.4119 23.7313 11.5277C23.7802 11.6434 23.8053 11.7679 23.8053 11.8935V25.5024C23.8053 25.7587 23.7034 26.0046 23.5222 26.1859C23.3409 26.3672 23.095 26.469 22.8387 26.469V26.469ZM6.86847 14.7934H20.2978H6.86847ZM6.86847 18.2871H14.2218H6.86847Z" stroke="#C79569" stroke-width="1.5"/>
<path d="M25.5729 20.869H26.8572L30.8549 23.5756L30.8411 20.869H32.2634C32.5125 20.869 32.7513 20.7701 32.9274 20.594C33.1035 20.4179 33.2025 20.179 33.2025 19.93V6.29353C33.2025 6.16964 33.1779 6.04697 33.1303 5.93259C33.0827 5.81821 33.0129 5.71438 32.925 5.6271C32.8371 5.53981 32.7327 5.47079 32.618 5.424C32.5033 5.37722 32.3804 5.35361 32.2565 5.35452H14.3047C14.0557 5.35452 13.8169 5.45345 13.6408 5.62955C13.4647 5.80565 13.3657 6.04449 13.3657 6.29353V9.1313" stroke="#EE5238" stroke-width="1.5"/>
</svg>
