<svg width="37" height="36" viewBox="0 0 37 36" fill="none" xmlns="http://www.w3.org/2000/svg">
<g clip-path="url(#clip0_1317_9848)">
<path d="M10.0136 23.9396H2.46488C2.23514 23.9396 2.01481 23.8469 1.85235 23.6819C1.6899 23.5168 1.59863 23.293 1.59863 23.0596C1.59863 21.8927 2.05496 20.7735 2.86723 19.9483C3.67949 19.1232 4.78116 18.6596 5.92988 18.6596H11.1274C12.2761 18.6596 13.3778 19.1232 14.19 19.9483C14.4898 20.2529 14.7411 20.5974 14.9388 20.9696M11.9936 11.6196C11.9936 12.3158 11.7904 12.9964 11.4097 13.5752C11.0289 14.1541 10.4878 14.6052 9.85463 14.8717C9.22149 15.1381 8.52479 15.2078 7.85265 15.072C7.1805 14.9362 6.5631 14.6009 6.07851 14.1086C5.59392 13.6163 5.26391 12.9891 5.13021 12.3063C4.99651 11.6235 5.06513 10.9158 5.32739 10.2726C5.58965 9.62937 6.03377 9.07962 6.60358 8.69284C7.1734 8.30605 7.84332 8.09961 8.52863 8.09961C9.44761 8.09961 10.3289 8.47047 10.9788 9.13059C11.6286 9.79072 11.9936 10.686 11.9936 11.6196Z" stroke="#C79569" stroke-width="1.5" stroke-linecap="round" stroke-linejoin="round"/>
<path d="M21.9185 20.9696C22.1162 20.5974 22.3675 20.2529 22.6672 19.9483C23.4795 19.1232 24.5812 18.6596 25.7299 18.6596H30.9274C32.0761 18.6596 33.1778 19.1232 33.9901 19.9483C34.8023 20.7735 35.2587 21.8927 35.2587 23.0596C35.2587 23.293 35.1674 23.5168 35.0049 23.6819C34.8425 23.8469 34.6221 23.9396 34.3924 23.9396H26.8438M31.7937 11.6196C31.7937 12.3158 31.5904 12.9964 31.2097 13.5752C30.829 14.1541 30.2878 14.6052 29.6547 14.8717C29.0215 15.1381 28.3248 15.2078 27.6527 15.072C26.9805 14.9362 26.3631 14.6009 25.8785 14.1086C25.3939 13.6163 25.0639 12.9891 24.9302 12.3063C24.7965 11.6235 24.8652 10.9158 25.1274 10.2726C25.3897 9.62937 25.8338 9.07962 26.4036 8.69284C26.9734 8.30605 27.6433 8.09961 28.3287 8.09961C29.2476 8.09961 30.129 8.47047 30.7788 9.13059C31.4286 9.79072 31.7937 10.686 31.7937 11.6196Z" stroke="#C79569" stroke-width="1.5" stroke-linecap="round" stroke-linejoin="round"/>
<path d="M22.8836 12.4996C22.8836 13.3698 22.6223 14.2205 22.1328 14.9441C21.6432 15.6677 20.9475 16.2317 20.1334 16.5647C19.3194 16.8977 18.4236 16.9848 17.5594 16.8151C16.6952 16.6453 15.9014 16.2262 15.2784 15.6109C14.6554 14.9955 14.2311 14.2115 14.0592 13.358C13.8873 12.5045 13.9755 11.6198 14.3127 10.8158C14.6499 10.0118 15.2209 9.32462 15.9535 8.84114C16.6861 8.35766 17.5474 8.09961 18.4286 8.09961C19.6101 8.09961 20.7432 8.56318 21.5787 9.38834C22.4142 10.2135 22.8836 11.3327 22.8836 12.4996ZM21.7698 21.2996H15.0873C13.6104 21.2996 12.1939 21.8791 11.1496 22.9105C10.1053 23.942 9.51855 25.3409 9.51855 26.7996C9.51855 27.0913 9.6359 27.3711 9.84476 27.5774C10.0536 27.7837 10.3369 27.8996 10.6323 27.8996H26.2248C26.5202 27.8996 26.8035 27.7837 27.0123 27.5774C27.2212 27.3711 27.3386 27.0913 27.3386 26.7996C27.3386 25.3409 26.7518 23.942 25.7075 22.9105C24.6632 21.8791 23.2467 21.2996 21.7698 21.2996Z" stroke="#EE5238" stroke-width="1.5" stroke-linecap="round" stroke-linejoin="round"/>
</g>
<defs>
<clipPath id="clip0_1317_9848">
<rect width="36" height="36" fill="white" transform="translate(0.428711)"/>
</clipPath>
</defs>
</svg>
