<svg width="155" height="18" viewBox="0 0 155 18" fill="none" xmlns="http://www.w3.org/2000/svg">
<path d="M10.5602 16.9731H7.94031V9.34138H5.22934L5.161 10.4349C4.96356 12.2878 4.675 13.7002 4.29531 14.6722C3.93081 15.6442 3.46 16.3049 2.88288 16.6542C2.32094 16.9883 1.53878 17.1629 0.536406 17.1781L0.308594 14.6266C0.642719 14.6418 0.954063 14.5507 1.24262 14.3533C1.57675 14.1103 1.87291 13.6015 2.13109 12.8269C2.38928 12.0524 2.55634 11.0804 2.63228 9.91092L2.79175 6.72154H10.5602V16.9731Z" fill="#562212"/>
<path d="M20.198 10.4804L15.414 16.9731H12.7941V6.72154H15.414V13.2142L20.198 6.72154H22.8179V16.9731H20.198V10.4804Z" fill="#562212"/>
<path d="M30.7084 6.72154H33.3282V16.9731H30.7084V13.442C29.949 13.8369 29.0985 14.0343 28.1569 14.0343C26.8811 14.0343 25.9395 13.7002 25.332 13.0319C24.7397 12.3637 24.4435 11.3537 24.4435 10.002V6.72154H27.2456V9.6831C27.2456 10.9437 27.8 11.5739 28.9087 11.5739C29.6225 11.5739 30.2224 11.4373 30.7084 11.1639V6.72154Z" fill="#562212"/>
<path d="M45.2932 16.9731H42.6734V13.0547H38.1854V16.9731H35.5656V6.72154H38.1854V10.5944H42.6734V6.72154H45.2932V16.9731Z" fill="#562212"/>
<path d="M51.2092 16.9731H47.5186V6.72154H50.1385V9.52363H51.4142C52.9482 9.52363 54.0796 9.84257 54.8086 10.4804C55.5528 11.1183 55.9249 11.984 55.9249 13.0775C55.9249 14.2469 55.53 15.1886 54.7403 15.9024C53.9505 16.6162 52.7735 16.9731 51.2092 16.9731ZM60.0028 16.9731H57.3829V6.72154H60.0028V16.9731ZM51.1864 11.6195H50.1385V14.695H51.1636C52.485 14.695 53.1456 14.1862 53.1456 13.1686C53.1456 12.1359 52.4925 11.6195 51.1864 11.6195Z" fill="#562212"/>
<path d="M69.6342 10.4804L64.8502 16.9731H62.2303V6.72154H64.8502V13.2142L69.6342 6.72154H72.2541V16.9731H69.6342V10.4804ZM63.7567 1.59576H66.1487C66.1487 2.09695 66.2474 2.49942 66.4449 2.80317C66.6423 3.10692 66.9385 3.25879 67.3333 3.25879C67.6826 3.25879 67.9484 3.10692 68.1307 2.80317C68.3281 2.48423 68.4268 2.08176 68.4268 1.59576H70.8189C70.8189 2.65888 70.5075 3.51698 69.8848 4.17004C69.2622 4.80792 68.4117 5.12685 67.3333 5.12685C66.1487 5.12685 65.2527 4.81551 64.6451 4.19282C64.0528 3.55495 63.7567 2.68926 63.7567 1.59576Z" fill="#562212"/>
<path d="M85.0406 6.72154H88.3439L84.4027 11.5967L88.8223 16.9731H85.4051L81.35 11.8018L85.0406 6.72154ZM81.2589 16.9731H78.6391V6.72154H81.2589V16.9731Z" fill="#562212"/>
<path d="M90.4773 9.36417L89.8167 7.45054C90.9253 6.79748 92.1328 6.47095 93.4389 6.47095C94.8665 6.47095 95.9068 6.82026 96.5599 7.51888C97.213 8.21751 97.5395 9.28823 97.5395 10.731V16.9731H95.2614V15.7885C94.6539 16.6694 93.6439 17.1098 92.2315 17.1098C91.2595 17.1098 90.4773 16.8288 89.885 16.2669C89.3079 15.6898 89.0193 14.9228 89.0193 13.966C89.0193 12.9029 89.361 12.0827 90.0445 11.5056C90.7279 10.9285 91.6316 10.6399 92.7554 10.6399C93.6819 10.6399 94.4564 10.8601 95.0791 11.3006C95.1095 10.3893 94.9728 9.72107 94.6691 9.29582C94.3805 8.87057 93.8793 8.65795 93.1655 8.65795C92.3757 8.65795 91.4797 8.89335 90.4773 9.36417ZM93.0972 14.9C93.978 14.9 94.6387 14.5887 95.0791 13.966V12.918C94.6539 12.5839 94.054 12.4169 93.2794 12.4169C92.7934 12.4169 92.3985 12.5308 92.0948 12.7586C91.791 12.9864 91.6392 13.2977 91.6392 13.6926C91.6392 14.0571 91.7758 14.3533 92.0492 14.5811C92.3226 14.7937 92.6719 14.9 93.0972 14.9Z" fill="#562212"/>
<path d="M107.242 0.775635L108.609 2.91707C108.244 3.3727 107.789 3.70682 107.242 3.91945C106.756 4.08651 106.148 4.25357 105.419 4.42064C104.706 4.55732 104.113 4.74717 103.642 4.99017C102.382 5.58248 101.645 6.85823 101.433 8.81742H101.478C101.797 8.25548 102.291 7.79985 102.959 7.45054C103.627 7.08604 104.333 6.90379 105.078 6.90379C106.49 6.90379 107.622 7.35942 108.472 8.27067C109.323 9.1971 109.748 10.4197 109.748 11.9384C109.748 13.4116 109.247 14.6646 108.244 15.6974C107.242 16.7149 105.951 17.2237 104.371 17.2237C102.655 17.2237 101.296 16.639 100.294 15.4695C99.3064 14.3001 98.8128 12.7206 98.8128 10.731C98.8128 6.35704 100.104 3.6081 102.686 2.48423C103.248 2.24123 103.87 2.05898 104.554 1.93748C105.328 1.7856 105.898 1.64132 106.262 1.50463C106.627 1.35276 106.953 1.10976 107.242 0.775635ZM101.615 11.2778C101.63 12.3105 101.881 13.1534 102.367 13.8065C102.853 14.4596 103.498 14.7861 104.303 14.7861C105.093 14.7861 105.731 14.5279 106.217 14.0115C106.703 13.4952 106.946 12.8421 106.946 12.0524C106.946 11.2474 106.718 10.5944 106.262 10.0932C105.822 9.59198 105.207 9.34138 104.417 9.34138C103.734 9.34138 103.141 9.52363 102.64 9.88813C102.139 10.2374 101.797 10.7007 101.615 11.2778Z" fill="#562212"/>
<path d="M118.743 10.4804L113.959 16.9731H111.339V6.72154H113.959V13.2142L118.743 6.72154H121.363V16.9731H118.743V10.4804Z" fill="#562212"/>
<path d="M133.331 16.9731H130.711V13.0547H126.223V16.9731H123.604V6.72154H126.223V10.5944H130.711V6.72154H133.331V16.9731Z" fill="#562212"/>
<path d="M143.598 14.1027L144.35 15.9479C143.333 16.7984 142.026 17.2237 140.432 17.2237C138.792 17.2237 137.455 16.7301 136.422 15.7429C135.42 14.7709 134.919 13.4724 134.919 11.8473C134.919 10.3286 135.412 9.05282 136.4 8.02007C137.387 6.98732 138.7 6.47095 140.341 6.47095C141.692 6.47095 142.839 6.91898 143.781 7.81504C144.722 8.7111 145.193 9.85017 145.193 11.2322C145.193 11.8397 145.14 12.3105 145.034 12.6447H137.63C137.736 13.3889 138.063 13.9736 138.609 14.3988C139.171 14.8241 139.87 15.0367 140.705 15.0367C141.844 15.0367 142.809 14.7254 143.598 14.1027ZM140.227 8.65795C138.738 8.65795 137.842 9.40213 137.539 10.8905H142.573C142.588 10.2374 142.376 9.70588 141.935 9.29582C141.51 8.87057 140.941 8.65795 140.227 8.65795Z" fill="#562212"/>
<path d="M148.809 9.34138H145.438V6.72154H154.778V9.34138H151.429V16.9731H148.809V9.34138Z" fill="#562212"/>
</svg>
