<svg width="37" height="36" viewBox="0 0 37 36" fill="none" xmlns="http://www.w3.org/2000/svg">
<path d="M26.1635 18.2643H23.9147M26.1635 21.1889H23.9147M26.1635 24.3218H23.9147M26.1635 27.2399H23.9147M29.492 31.4997H20.5798V11.2168L29.1917 16.2387C29.2838 16.2973 29.3597 16.3789 29.4122 16.4758C29.4648 16.5727 29.4922 16.6816 29.492 16.7923V31.4997Z" stroke="#EE5238" stroke-width="1.5" stroke-linecap="round"/>
<path d="M29.4921 31.5H20.5799V11.2171M16.2229 13.347H11.7253M16.2229 16.9815H11.7253M16.2229 20.5639H11.7253M16.2229 24.1463H11.7253M16.2229 27.7287H11.7253M4.31445 31.5H33.1145M20.516 31.5H7.65571V11.6014C7.65654 11.4854 7.68778 11.3716 7.74618 11.272C7.80459 11.1724 7.88805 11.0905 7.98792 11.0348L19.5705 4.57994C19.668 4.5256 19.7776 4.49808 19.8886 4.5001C19.9996 4.50213 20.1082 4.53363 20.2037 4.59149C20.2991 4.64935 20.3782 4.73158 20.4329 4.83007C20.4877 4.92856 20.5164 5.03991 20.516 5.15312V31.5Z" stroke="#C79569" stroke-width="1.5" stroke-linecap="round"/>
</svg>
