<svg width="37" height="36" viewBox="0 0 37 36" fill="none" xmlns="http://www.w3.org/2000/svg">
<path d="M29.2433 15.6924V23.7663C29.2465 23.9944 29.1852 24.2186 29.0669 24.4114C28.9486 24.6042 28.7784 24.7573 28.5772 24.852L20.6639 28.4457C19.6885 28.8932 18.6259 29.1019 17.5594 29.0554C16.4928 29.0089 15.4511 28.7085 14.5157 28.1778L8.83387 24.9619C8.6522 24.8595 8.50065 24.7084 8.39516 24.5246C8.28966 24.3408 8.23412 24.1311 8.23438 23.9175V15.9191" stroke="#EE5238" stroke-width="1.5" stroke-linecap="round"/>
<path d="M16.828 5.84542L3.48389 12.2839C3.38838 12.3307 3.30778 12.404 3.25137 12.4954C3.19496 12.5868 3.16504 12.6926 3.16504 12.8005C3.16504 12.9084 3.19496 13.0142 3.25137 13.1056C3.30778 13.197 3.38838 13.2703 3.48389 13.317L16.4027 19.9822C17.0293 20.2943 17.7176 20.4565 18.4151 20.4565C19.1126 20.4565 19.8009 20.2943 20.4275 19.9822L33.6997 13.4304C33.7952 13.3836 33.8758 13.3103 33.9322 13.2189C33.9886 13.1275 34.0185 13.0217 34.0185 12.9138C34.0185 12.8059 33.9886 12.7001 33.9322 12.6087C33.8758 12.5174 33.7952 12.444 33.6997 12.3973L20.7874 5.88541C20.1737 5.57333 19.4982 5.40755 18.8123 5.40062C18.1263 5.39369 17.4478 5.54579 16.828 5.84542V5.84542Z" stroke="#EE5238" stroke-width="1.5" stroke-linecap="round"/>
<path d="M18.5813 12.9365L4.39941 13.7963L4.59575 21.9945" stroke="#EE5238" stroke-width="1.5" stroke-linecap="round"/>
<path d="M4.61571 25.6401C5.53015 25.6401 6.27146 24.8852 6.27146 23.9539C6.27146 23.0226 5.53015 22.2676 4.61571 22.2676C3.70126 22.2676 2.95996 23.0226 2.95996 23.9539C2.95996 24.8852 3.70126 25.6401 4.61571 25.6401Z" stroke="#EE5238" stroke-width="1.5" stroke-linecap="round"/>
<path d="M5.18493 25.5342L6.49383 29.7132H2.7373L4.06583 25.5342" stroke="#EE5238" stroke-width="1.5" stroke-linecap="round"/>
</svg>
