<svg width="37" height="36" viewBox="0 0 37 36" fill="none" xmlns="http://www.w3.org/2000/svg">
<path d="M25.5548 19.9698H25.8416M5.21289 11.0408L23.1521 6.06218C23.2869 6.02513 23.4284 6.0193 23.5658 6.04513C23.7032 6.07096 23.8329 6.12776 23.9451 6.21123C24.0572 6.2947 24.1489 6.40264 24.2131 6.52684C24.2773 6.65105 24.3123 6.78825 24.3155 6.92802L24.4617 10.7161L5.21289 11.0408Z" stroke="#EE5238" stroke-width="1.5" stroke-linecap="round"/>
<path d="M25.5547 19.9707H25.8415" stroke="#EE5238" stroke-width="1.5" stroke-linecap="round"/>
<path d="M29.6841 22.9852V28.9C29.6841 29.187 29.5701 29.4623 29.3671 29.6653C29.1642 29.8683 28.8889 29.9823 28.6018 29.9823H5.3323C5.04526 29.9823 4.76997 29.8683 4.567 29.6653C4.36403 29.4623 4.25 29.187 4.25 28.9V12.1243C4.25 11.8373 4.36403 11.562 4.567 11.359C4.76997 11.156 5.04526 11.042 5.3323 11.042H28.6018C28.8889 11.042 29.1642 11.156 29.3671 11.359C29.5701 11.562 29.6841 11.8373 29.6841 12.1243V16.9568" stroke="#EE5238" stroke-width="1.5" stroke-linecap="round"/>
<path d="M31.4638 16.9561H22.7945C22.4986 16.9561 22.2588 17.1959 22.2588 17.4918V22.4487C22.2588 22.7446 22.4986 22.9845 22.7945 22.9845H31.4638C31.7597 22.9845 31.9995 22.7446 31.9995 22.4487V17.4918C31.9995 17.1959 31.7597 16.9561 31.4638 16.9561Z" stroke="#EE5238" stroke-width="1.5" stroke-linecap="round"/>
</svg>
