<svg width="37" height="36" viewBox="0 0 37 36" fill="none" xmlns="http://www.w3.org/2000/svg">
<path d="M15.6546 13.4454C16.7711 13.4454 17.8026 13.1195 18.625 12.5723" stroke="#EE5238" stroke-width="1.5" stroke-linecap="round"/>
<circle cx="10.625" cy="10" r="2" stroke="#EE5238" stroke-width="1.5"/>
<path d="M13.4896 29.1359L14.1352 29.7815L14.4027 29.5141V29.1359H13.4896ZM7.76064 29.1359L6.99964 28.6314C6.75962 28.9934 6.80787 29.4744 7.11501 29.7815L7.76064 29.1359ZM7.76064 15.4593H8.67369V14.912L8.19092 14.654L7.76064 15.4593ZM13.4896 15.4593L13.0593 14.654L12.5766 14.912V15.4593H13.4896ZM10.6251 32.0004L9.9795 32.646L10.6251 33.2916L11.2708 32.646L10.6251 32.0004ZM7.76064 22.655L6.99964 22.1505C6.7969 22.4563 6.7969 22.8537 6.99964 23.1595L7.76064 22.655ZM7.76064 19.4145H6.84758C6.84758 19.594 6.90047 19.7695 6.99964 19.9191L7.76064 19.4145ZM8.83482 21.0348L9.59582 21.5393C9.79856 21.2335 9.79856 20.836 9.59582 20.5302L8.83482 21.0348ZM7.76064 25.8954L6.99964 25.3909C6.7969 25.6967 6.7969 26.0942 6.99964 26.4L7.76064 25.8954ZM8.83482 24.2752L9.59582 24.7797C9.79856 24.4739 9.79856 24.0765 9.59582 23.7707L8.83482 24.2752ZM8.83482 27.5157L9.59582 28.0202C9.79856 27.7144 9.79856 27.3169 9.59582 27.0111L8.83482 27.5157ZM5.45114 10.087C5.45114 7.22953 7.76761 4.91306 10.6251 4.91306V3.08694C6.75908 3.08694 3.62503 6.22099 3.62503 10.087H5.45114ZM10.6251 4.91306C13.4826 4.91306 15.7991 7.22953 15.7991 10.087H17.6252C17.6252 6.22099 14.4912 3.08694 10.6251 3.08694V4.91306ZM12.5766 16.1741V29.1359H14.4027V16.1741H12.5766ZM8.19092 14.654C6.55856 13.7818 5.45114 12.063 5.45114 10.087H3.62503C3.62503 12.7634 5.12732 15.0875 7.33035 16.2646L8.19092 14.654ZM8.67369 16.1741V15.4593H6.84758V16.1741H8.67369ZM15.7991 10.087C15.7991 12.063 14.6917 13.7818 13.0593 14.654L13.9199 16.2646C16.1229 15.0875 17.6252 12.7634 17.6252 10.087H15.7991ZM14.4027 16.1741V15.4593H12.5766V16.1741H14.4027ZM12.844 28.4903L9.9795 31.3548L11.2708 32.646L14.1352 29.7815L12.844 28.4903ZM11.2708 31.3548L8.40627 28.4903L7.11501 29.7815L9.9795 32.646L11.2708 31.3548ZM8.67369 19.4145V16.1741H6.84758V19.4145H8.67369ZM8.52164 23.1595L9.59582 21.5393L8.07382 20.5302L6.99964 22.1505L8.52164 23.1595ZM9.59582 20.5302L8.52164 18.91L6.99964 19.9191L8.07382 21.5393L9.59582 20.5302ZM8.52164 26.4L9.59582 24.7797L8.07382 23.7707L6.99964 25.3909L8.52164 26.4ZM9.59582 23.7707L8.52164 22.1505L6.99964 23.1595L8.07382 24.7797L9.59582 23.7707ZM8.52164 29.6404L9.59582 28.0202L8.07382 27.0111L6.99964 28.6314L8.52164 29.6404ZM9.59582 27.0111L8.52164 25.3909L6.99964 26.4L8.07382 28.0202L9.59582 27.0111Z" fill="#EE5238"/>
<path d="M33.3972 15.9265L27.5513 21.7724C27.3888 21.9349 27.1659 22.0236 26.9315 22.019C26.6972 22.0144 26.4706 21.9169 26.3016 21.7479L18.9709 14.4171C18.9272 14.3738 18.8925 14.3225 18.8688 14.2661C18.8452 14.2097 18.8331 14.1496 18.8332 14.0893L18.9068 7.95332C18.9105 7.84411 18.9546 7.74172 19.0305 7.66582C19.1064 7.58992 19.2088 7.54588 19.318 7.54215L25.7115 7.22267C25.7739 7.22066 25.8364 7.23162 25.8953 7.25487C25.9542 7.27811 26.0081 7.31313 26.0536 7.35772L33.3727 14.6769C33.5417 14.8458 33.6392 15.0724 33.6438 15.3067C33.6484 15.5411 33.5597 15.764 33.3972 15.9265Z" stroke="#EE5238" stroke-width="1.5" stroke-linecap="round"/>
<path d="M10.8008 9.28459C10.8008 6.98753 12.1922 4.5 16 4.5C18.6249 4.5 22.5 5 22.5 10.0003" stroke="#EE5238" stroke-width="1.5" stroke-linecap="round"/>
</svg>
