<svg width="37" height="36" viewBox="0 0 37 36" fill="none" xmlns="http://www.w3.org/2000/svg">
<path d="M31.0053 5.40039H5.24473C4.58102 5.40039 4.04297 5.93844 4.04297 6.60216V24.6524C4.04297 25.3161 4.58102 25.8542 5.24473 25.8542H31.0053C31.669 25.8542 32.2071 25.3161 32.2071 24.6524V6.60216C32.2071 5.93844 31.669 5.40039 31.0053 5.40039Z" stroke="#EE5238" stroke-width="1.5"/>
<path d="M4.04297 21.9629H32.2071M12.8004 30.6013C13.6671 30.1959 14.3581 29.491 14.7462 28.6164C15.1343 27.7419 15.1933 26.7565 14.9124 25.8419M23.9792 30.6013C23.1116 30.1969 22.4198 29.4921 22.0316 28.6172C21.6433 27.7423 21.5849 26.7565 21.8672 25.8419" stroke="#EE5238" stroke-width="1.5"/>
<path d="M9.49805 30.6016H26.7511" stroke="#EE5238" stroke-width="1.5" stroke-linecap="round"/>
<path d="M9.0819 10.3738L10.8072 11.5816L12.943 8.57715M8.83203 16.2042L10.5514 17.406L12.6872 14.4015M16.1021 10.5523H28.4886M16.1021 16.6087H28.4886" stroke="#EE5238" stroke-width="1.5"/>
</svg>
