<svg width="37" height="36" viewBox="0 0 37 36" fill="none" xmlns="http://www.w3.org/2000/svg">
<path d="M7.86061 23.2401L13.0584 19.9681C13.2256 19.8639 13.412 19.7943 13.6066 19.7633C13.8012 19.7324 14 19.7409 14.1913 19.7882C16.0371 20.268 21.5881 21.7874 23.6339 22.5071C25.1733 23.0468 25.793 24.5662 25.1733 25.5724C24.3336 26.9052 23.0542 26.7719 22.1346 26.512C22.009 26.4776 21.8864 26.433 21.7681 26.3788L18.1296 24.8327M7.8073 32.8094L2.86939 25.3792C2.75273 25.2013 2.71108 24.9845 2.75352 24.7761C2.79595 24.5676 2.91904 24.3844 3.09597 24.2663L6.21464 22.2672C6.3888 22.1537 6.60029 22.1125 6.80429 22.1523C7.0083 22.1921 7.18879 22.3098 7.30751 22.4804L12.3454 29.8106C12.4654 29.9874 12.5104 30.2046 12.4704 30.4145C12.4304 30.6244 12.3088 30.8099 12.1321 30.9302L8.92016 33.0826C8.82956 33.1391 8.72853 33.177 8.62306 33.1938C8.51759 33.2107 8.40981 33.2063 8.30608 33.1808C8.20234 33.1554 8.10476 33.1094 8.0191 33.0456C7.93343 32.9818 7.86142 32.9015 7.8073 32.8094V32.8094Z" stroke="#C79569" stroke-width="1.5" stroke-linecap="round"/>
<path d="M11.8926 29.1438L13.5919 28.1709L23.2078 30.8365C23.3066 30.8631 23.4099 30.8686 23.511 30.8525C23.612 30.8364 23.7085 30.7991 23.7942 30.7432C25.127 29.8702 30.9312 26.0318 33.79 24.0127C34.0217 23.8841 34.2179 23.6999 34.3609 23.4766C34.5038 23.2534 34.589 22.9982 34.6088 22.7338C34.6287 22.4695 34.5825 22.2044 34.4744 21.9623C34.3664 21.7203 34.1999 21.5089 33.9899 21.3471C33.6565 21.0486 33.2352 20.8664 32.7893 20.828C32.3435 20.7895 31.8972 20.8969 31.5176 21.1339C30.518 21.6937 27.7392 23.7528 27.7392 23.7528" stroke="#C79569" stroke-width="1.5" stroke-linecap="round"/>
<circle cx="25.9855" cy="11.9855" r="7.98554" stroke="#EE5238" stroke-width="1.5"/>
<circle cx="26" cy="12" r="5" stroke="#EE5238" stroke-width="1.5"/>
</svg>
