<svg width="155" height="42" viewBox="0 0 155 42" fill="none" xmlns="http://www.w3.org/2000/svg">
<path d="M10.3531 16.9475H7.73328V9.31575H5.02231L4.95397 10.4093C4.75653 12.2621 4.46797 13.6746 4.08828 14.6466C3.72378 15.6186 3.25297 16.2792 2.67584 16.6285C2.11391 16.9627 1.33175 17.1373 0.329375 17.1525L0.101562 14.601C0.435688 14.6162 0.747031 14.5251 1.03559 14.3276C1.36972 14.0846 1.66588 13.5758 1.92406 12.8013C2.18225 12.0267 2.34931 11.0547 2.42525 9.88528L2.58472 6.69591H10.3531V16.9475Z" fill="#562212"/>
<path d="M19.991 10.4548L15.207 16.9475H12.5871V6.69591H15.207V13.1886L19.991 6.69591H22.6109V16.9475H19.991V10.4548Z" fill="#562212"/>
<path d="M30.5014 6.69591H33.1212V16.9475H30.5014V13.4164C29.742 13.8113 28.8915 14.0087 27.9499 14.0087C26.6741 14.0087 25.7325 13.6746 25.125 13.0063C24.5327 12.3381 24.2365 11.3281 24.2365 9.97641V6.69591H27.0386V9.65747C27.0386 10.918 27.593 11.5483 28.7016 11.5483C29.4155 11.5483 30.0154 11.4116 30.5014 11.1383V6.69591Z" fill="#562212"/>
<path d="M45.0862 16.9475H42.4663V13.0291H37.9784V16.9475H35.3586V6.69591H37.9784V10.5687H42.4663V6.69591H45.0862V16.9475Z" fill="#562212"/>
<path d="M51.0022 16.9475H47.3116V6.69591H49.9315V9.498H51.2072C52.7411 9.498 53.8726 9.81694 54.6016 10.4548C55.3458 11.0927 55.7179 11.9584 55.7179 13.0519C55.7179 14.2213 55.323 15.1629 54.5333 15.8768C53.7435 16.5906 52.5665 16.9475 51.0022 16.9475ZM59.7957 16.9475H57.1759V6.69591H59.7957V16.9475ZM50.9794 11.5939H49.9315V14.6693H50.9566C52.2779 14.6693 52.9386 14.1606 52.9386 13.143C52.9386 12.1103 52.2855 11.5939 50.9794 11.5939Z" fill="#562212"/>
<path d="M69.4272 10.4548L64.6432 16.9475H62.0233V6.69591H64.6432V13.1886L69.4272 6.69591H72.0471V16.9475H69.4272V10.4548ZM63.5497 1.57013H65.9417C65.9417 2.07131 66.0404 2.47378 66.2378 2.77753C66.4353 3.08128 66.7314 3.23316 67.1263 3.23316C67.4756 3.23316 67.7414 3.08128 67.9237 2.77753C68.1211 2.45859 68.2198 2.05613 68.2198 1.57013H70.6118C70.6118 2.63325 70.3005 3.49134 69.6778 4.14441C69.0551 4.78228 68.2046 5.10122 67.1263 5.10122C65.9417 5.10122 65.0456 4.78987 64.4381 4.16719C63.8458 3.52931 63.5497 2.66362 63.5497 1.57013Z" fill="#562212"/>
<path d="M84.8336 6.69591H88.1369L84.1957 11.5711L88.6153 16.9475H85.1981L81.143 11.7761L84.8336 6.69591ZM81.0519 16.9475H78.432V6.69591H81.0519V16.9475Z" fill="#562212"/>
<path d="M90.2703 9.33853L89.6096 7.42491C90.7183 6.77184 91.9257 6.44531 93.2318 6.44531C94.6595 6.44531 95.6998 6.79462 96.3529 7.49325C97.0059 8.19187 97.3325 9.26259 97.3325 10.7054V16.9475H95.0543V15.7628C94.4468 16.6437 93.4369 17.0842 92.0244 17.0842C91.0524 17.0842 90.2703 16.8032 89.678 16.2413C89.1008 15.6641 88.8123 14.8972 88.8123 13.9403C88.8123 12.8772 89.154 12.0571 89.8374 11.48C90.5209 10.9028 91.4245 10.6143 92.5484 10.6143C93.4748 10.6143 94.2494 10.8345 94.8721 11.2749C94.9025 10.3637 94.7658 9.69544 94.462 9.27019C94.1735 8.84494 93.6723 8.63231 92.9585 8.63231C92.1687 8.63231 91.2727 8.86772 90.2703 9.33853ZM92.8901 14.8744C93.771 14.8744 94.4317 14.563 94.8721 13.9403V12.8924C94.4468 12.5583 93.8469 12.3912 93.0724 12.3912C92.5864 12.3912 92.1915 12.5051 91.8877 12.7329C91.584 12.9608 91.4321 13.2721 91.4321 13.667C91.4321 14.0315 91.5688 14.3276 91.8422 14.5554C92.1156 14.7681 92.4649 14.8744 92.8901 14.8744Z" fill="#562212"/>
<path d="M107.035 0.75L108.402 2.89144C108.037 3.34706 107.582 3.68119 107.035 3.89381C106.549 4.06087 105.941 4.22794 105.212 4.395C104.498 4.53169 103.906 4.72153 103.435 4.96453C102.175 5.55684 101.438 6.83259 101.226 8.79178H101.271C101.59 8.22984 102.084 7.77422 102.752 7.42491C103.42 7.06041 104.126 6.87816 104.871 6.87816C106.283 6.87816 107.414 7.33378 108.265 8.24503C109.115 9.17147 109.541 10.3941 109.541 11.9128C109.541 13.386 109.04 14.639 108.037 15.6717C107.035 16.6893 105.744 17.1981 104.164 17.1981C102.448 17.1981 101.089 16.6133 100.087 15.4439C99.0993 14.2745 98.6057 12.695 98.6057 10.7054C98.6057 6.33141 99.8967 3.58247 102.479 2.45859C103.04 2.21559 103.663 2.03334 104.347 1.91184C105.121 1.75997 105.691 1.61569 106.055 1.479C106.42 1.32713 106.746 1.08413 107.035 0.75ZM101.408 11.2522C101.423 12.2849 101.674 13.1278 102.16 13.7809C102.646 14.4339 103.291 14.7605 104.096 14.7605C104.886 14.7605 105.524 14.5023 106.01 13.9859C106.496 13.4695 106.739 12.8165 106.739 12.0267C106.739 11.2218 106.511 10.5687 106.055 10.0675C105.615 9.56634 105 9.31575 104.21 9.31575C103.526 9.31575 102.934 9.498 102.433 9.8625C101.932 10.2118 101.59 10.675 101.408 11.2522Z" fill="#562212"/>
<path d="M118.536 10.4548L113.752 16.9475H111.132V6.69591H113.752V13.1886L118.536 6.69591H121.156V16.9475H118.536V10.4548Z" fill="#562212"/>
<path d="M133.124 16.9475H130.504V13.0291H126.016V16.9475H123.397V6.69591H126.016V10.5687H130.504V6.69591H133.124V16.9475Z" fill="#562212"/>
<path d="M143.391 14.077L144.143 15.9223C143.126 16.7728 141.819 17.1981 140.225 17.1981C138.585 17.1981 137.248 16.7045 136.215 15.7173C135.213 14.7453 134.712 13.4468 134.712 11.8217C134.712 10.3029 135.205 9.02719 136.192 7.99444C137.18 6.96169 138.493 6.44531 140.134 6.44531C141.485 6.44531 142.632 6.89334 143.574 7.78941C144.515 8.68547 144.986 9.82453 144.986 11.2066C144.986 11.8141 144.933 12.2849 144.827 12.619H137.423C137.529 13.3632 137.856 13.9479 138.402 14.3732C138.964 14.7984 139.663 15.0111 140.498 15.0111C141.637 15.0111 142.602 14.6997 143.391 14.077ZM140.02 8.63231C138.531 8.63231 137.635 9.3765 137.332 10.8649H142.366C142.381 10.2118 142.169 9.68025 141.728 9.27019C141.303 8.84494 140.734 8.63231 140.02 8.63231Z" fill="#562212"/>
<path d="M148.602 9.31575H145.231V6.69591H154.571V9.31575H151.222V16.9475H148.602V9.31575Z" fill="#562212"/>
<path d="M9.19128 37.1975H7.57128V29.6037H2.61003V37.1975H0.990031V28.085H9.19128V37.1975Z" fill="#562212"/>
<path d="M13.3386 41.2475H11.7186V28.085H13.3386V29.1582C13.6626 28.7802 14.1081 28.4765 14.6751 28.247C15.2421 28.004 15.8293 27.8825 16.4368 27.8825C17.7328 27.8825 18.7521 28.3145 19.4946 29.1785C20.2641 30.029 20.6488 31.136 20.6488 32.4995C20.6488 33.89 20.2101 35.0577 19.3326 36.0027C18.4686 36.9342 17.3278 37.4 15.9103 37.4C14.8168 37.4 13.9596 37.1907 13.3386 36.7722V41.2475ZM15.9711 29.4012C14.8911 29.4012 14.0136 29.8197 13.3386 30.6567V35.1725C14.0541 35.645 14.8641 35.8812 15.7686 35.8812C16.7271 35.8812 17.4898 35.5775 18.0568 34.97C18.6373 34.349 18.9276 33.5457 18.9276 32.5602C18.9276 31.6017 18.6643 30.839 18.1378 30.272C17.6113 29.6915 16.8891 29.4012 15.9711 29.4012Z" fill="#562212"/>
<path d="M29.7545 34.9295L30.2608 36.2052C29.3833 37.0017 28.2425 37.4 26.8385 37.4C25.3535 37.4 24.1723 36.968 23.2948 36.104C22.4038 35.24 21.9583 34.0857 21.9583 32.6412C21.9583 31.2777 22.3768 30.1437 23.2138 29.2392C24.0373 28.3347 25.1848 27.8825 26.6563 27.8825C27.8713 27.8825 28.877 28.274 29.6735 29.057C30.4835 29.8265 30.8885 30.8255 30.8885 32.054C30.8885 32.4455 30.8548 32.81 30.7873 33.1475H23.7808C23.8483 33.998 24.1655 34.6662 24.7325 35.1522C25.313 35.6382 26.0555 35.8812 26.96 35.8812C28.148 35.8812 29.0795 35.564 29.7545 34.9295ZM26.5753 29.4012C25.7788 29.4012 25.1173 29.624 24.5908 30.0695C24.0778 30.515 23.774 31.1022 23.6795 31.8312H29.2078C29.1673 31.0752 28.9108 30.4812 28.4383 30.0492C27.9793 29.6172 27.3583 29.4012 26.5753 29.4012Z" fill="#562212"/>
<path d="M32.5886 39.425H31.0698V35.6787H32.2038C32.5413 35.2602 32.8383 34.5852 33.0948 33.6537C33.3513 32.7087 33.5201 31.6557 33.6011 30.4947L33.7428 28.085H39.9596V35.6787H41.4783V39.425H39.9596V37.1975H32.5886V39.425ZM35.2616 29.6037L35.1603 31.1225C35.0793 32.135 34.9173 33.0597 34.6743 33.8967C34.4313 34.7337 34.1816 35.3277 33.9251 35.6787H38.3396V29.6037H35.2616Z" fill="#562212"/>
<path d="M51.0376 37.1975H49.4176V29.6037H44.4563V37.1975H42.8363V28.085H51.0376V37.1975Z" fill="#562212"/>
<path d="M55.1849 41.2475H53.5649V28.085H55.1849V29.1582C55.5089 28.7802 55.9544 28.4765 56.5214 28.247C57.0884 28.004 57.6756 27.8825 58.2831 27.8825C59.5791 27.8825 60.5984 28.3145 61.3409 29.1785C62.1104 30.029 62.4951 31.136 62.4951 32.4995C62.4951 33.89 62.0564 35.0577 61.1789 36.0027C60.3149 36.9342 59.1741 37.4 57.7566 37.4C56.6631 37.4 55.8059 37.1907 55.1849 36.7722V41.2475ZM57.8174 29.4012C56.7374 29.4012 55.8599 29.8197 55.1849 30.6567V35.1725C55.9004 35.645 56.7104 35.8812 57.6149 35.8812C58.5734 35.8812 59.3361 35.5775 59.9031 34.97C60.4836 34.349 60.7739 33.5457 60.7739 32.5602C60.7739 31.6017 60.5106 30.839 59.9841 30.272C59.4576 29.6915 58.7354 29.4012 57.8174 29.4012Z" fill="#562212"/>
<path d="M71.2971 30.4137L66.0321 37.1975H64.4121V28.085H66.0321V34.8687L71.2971 28.085H72.9171V37.1975H71.2971V30.4137Z" fill="#562212"/>
<path d="M83.7595 37.1975H82.1395V33.35H77.077V37.1975H75.457V28.085H77.077V31.8312H82.1395V28.085H83.7595V37.1975Z" fill="#562212"/>
<path d="M93.1695 30.4137L87.9045 37.1975H86.2845V28.085H87.9045V34.8687L93.1695 28.085H94.7895V37.1975H93.1695V30.4137Z" fill="#562212"/>
<path d="M98.9494 37.1975H97.3294V28.085H98.8077L102.311 32.6007L105.632 28.085H107.07V37.1975H105.45V30.5555L102.291 34.7877H102.23L98.9494 30.5555V37.1975Z" fill="#562212"/>
<path d="M110.086 30.0087L109.661 28.7127C110.566 28.1592 111.578 27.8825 112.699 27.8825C113.927 27.8825 114.818 28.1862 115.372 28.7937C115.925 29.4012 116.202 30.3395 116.202 31.6085V37.1975H114.663V36.023C113.947 36.9005 112.975 37.3392 111.747 37.3392C110.91 37.3392 110.235 37.0895 109.722 36.59C109.209 36.077 108.952 35.3885 108.952 34.5245C108.952 33.6335 109.27 32.9315 109.904 32.4185C110.539 31.892 111.369 31.6287 112.395 31.6287C113.353 31.6287 114.109 31.8245 114.663 32.216C114.663 31.19 114.521 30.4542 114.238 30.0087C113.954 29.5632 113.407 29.3405 112.597 29.3405C111.774 29.3405 110.937 29.5632 110.086 30.0087ZM112.314 35.8812C113.218 35.8812 114.001 35.4897 114.663 34.7067V33.5525C114.096 33.1475 113.414 32.945 112.618 32.945C112.064 32.945 111.598 33.08 111.22 33.35C110.856 33.6065 110.674 33.971 110.674 34.4435C110.674 34.889 110.815 35.24 111.099 35.4965C111.396 35.753 111.801 35.8812 112.314 35.8812Z" fill="#562212"/>
<path d="M120.697 29.705H117.355V28.085H125.658V29.705H122.317V37.1975H120.697V29.705Z" fill="#562212"/>
<path d="M133.915 34.9295L134.422 36.2052C133.544 37.0017 132.403 37.4 130.999 37.4C129.514 37.4 128.333 36.968 127.456 36.104C126.565 35.24 126.119 34.0857 126.119 32.6412C126.119 31.2777 126.538 30.1437 127.375 29.2392C128.198 28.3347 129.346 27.8825 130.817 27.8825C132.032 27.8825 133.038 28.274 133.834 29.057C134.644 29.8265 135.049 30.8255 135.049 32.054C135.049 32.4455 135.016 32.81 134.948 33.1475H127.942C128.009 33.998 128.326 34.6662 128.893 35.1522C129.474 35.6382 130.216 35.8812 131.121 35.8812C132.309 35.8812 133.24 35.564 133.915 34.9295ZM130.736 29.4012C129.94 29.4012 129.278 29.624 128.752 30.0695C128.239 30.515 127.935 31.1022 127.84 31.8312H133.369C133.328 31.0752 133.072 30.4812 132.599 30.0492C132.14 29.6172 131.519 29.4012 130.736 29.4012Z" fill="#562212"/>
<path d="M144.343 37.1975H142.723V29.705H139.524L139.423 31.244C139.315 32.4995 139.153 33.5457 138.937 34.3827C138.734 35.2062 138.464 35.8272 138.126 36.2457C137.802 36.6507 137.458 36.9342 137.094 37.0962C136.729 37.2447 136.284 37.319 135.757 37.319L135.636 35.7395C135.784 35.753 135.939 35.7327 136.102 35.6787C136.264 35.6112 136.439 35.4762 136.628 35.2737C136.831 35.0712 137.006 34.8012 137.155 34.4637C137.317 34.1262 137.458 33.6537 137.58 33.0462C137.715 32.4252 137.803 31.7165 137.843 30.92L138.005 28.085H144.343V37.1975Z" fill="#562212"/>
<path d="M150.848 28.085H153.683V37.1975H152.063V34.16H150.301L148.074 37.1975H146.11L148.742 33.755C148.189 33.6335 147.723 33.3365 147.345 32.864C146.967 32.378 146.778 31.7975 146.778 31.1225C146.778 30.191 147.115 29.4552 147.79 28.9152C148.465 28.3617 149.485 28.085 150.848 28.085ZM148.499 31.163C148.499 31.595 148.668 31.9527 149.005 32.2362C149.343 32.5062 149.741 32.6412 150.2 32.6412H152.063V29.6037H150.585C149.896 29.6037 149.377 29.7455 149.026 30.029C148.675 30.3125 148.499 30.6905 148.499 31.163Z" fill="#562212"/>
</svg>
