<svg width="160" height="52" viewBox="0 0 160 52" fill="none" xmlns="http://www.w3.org/2000/svg">
<path d="M8.07617 43.0036L11.8909 51.0906H11.9439L15.8115 43.0036L11.9439 39.1196L8.07617 43.0036Z" fill="#ED5338"/>
<path d="M11.9426 4.64307C11.0949 5.0687 0.392578 10.7616 0.392578 19.8595C0.392578 27.6274 6.69743 39.4388 6.69743 39.4388L11.9426 34.1715L17.1879 39.4388C17.1879 39.4388 23.4927 27.6806 23.4927 19.8595C23.4397 10.7616 12.7374 5.0687 11.9426 4.64307ZM15.3865 30.6068L11.9426 27.1485L8.49882 30.6068C8.33987 30.128 6.00867 23.8499 6.00867 19.7531C6.00867 14.2199 11.5188 11.134 11.9426 10.9212C12.3665 11.0808 17.8766 14.2199 17.8766 19.7531C17.8766 23.8499 15.5454 30.128 15.3865 30.6068Z" fill="#C59368"/>
<path d="M23.4678 0.713386L19.5342 4.66357L23.4678 8.61376L27.4015 4.66357L23.4678 0.713386Z" fill="#C59368"/>
<path d="M14.6971 19.4864C14.6971 20.9761 13.4785 22.1998 11.995 22.1998C10.5116 22.1998 9.29297 20.9761 9.29297 19.4864C9.29297 17.9967 10.5116 16.7729 11.995 16.7729C13.4785 16.7729 14.6971 17.9967 14.6971 19.4864Z" fill="#C59368"/>
<path d="M38.2446 23.2615V11.1304H41.864L45.4834 15.237L48.8208 11.1304H52.3462V23.2615H48.3038V17.3139L45.3894 20.6653H45.2954L42.2401 17.3139V23.2615H38.2446Z" fill="#562212"/>
<path d="M54.1177 17.1724C54.1177 15.3315 54.7287 13.821 55.9509 12.5938C57.173 11.3665 58.8182 10.8 60.8394 10.8C62.8607 10.8 64.5058 11.4137 65.681 12.5938C66.9031 13.821 67.5142 15.3315 67.5142 17.1724C67.5142 19.0133 66.9031 20.5238 65.681 21.7511C64.4588 22.9783 62.8607 23.5448 60.8394 23.5448C58.8182 23.5448 57.173 22.9311 55.9509 21.7511C54.7287 20.571 54.1177 19.0605 54.1177 17.1724ZM60.7924 19.8158C62.2026 19.8158 63.1897 18.8245 63.1897 17.2196C63.1897 15.7091 62.1556 14.6235 60.7924 14.6235C59.4293 14.6235 58.3952 15.6619 58.3952 17.2196C58.3952 18.6829 59.3823 19.8158 60.7924 19.8158Z" fill="#562212"/>
<path d="M73.2025 23.2616H69.207V11.1306H73.2495V17.4557L77.527 11.1306H81.5695V23.2616H77.527V16.9365L73.2025 23.2616ZM74.3306 5.23022C74.3306 6.26868 74.7067 6.78791 75.4588 6.78791C76.1168 6.78791 76.4929 6.26868 76.4929 5.23022H79.9713C79.9713 7.87357 78.3731 9.80888 75.4588 9.80888C72.3094 9.80888 70.8522 7.96798 70.8522 5.23022H74.3306Z" fill="#562212"/>
<path d="M94.5881 5.84342C94.1651 6.45706 93.648 6.83468 93.037 7.07069C92.4259 7.30671 91.6738 7.49552 90.7807 7.58992C89.8876 7.73153 89.1355 7.96754 88.4305 8.25076C86.5973 9.10041 85.6101 11.0357 85.3751 14.1039H85.4221C86.2212 12.4046 88.1484 11.2717 90.1697 11.2717C93.601 11.2717 95.7633 13.6319 95.7633 17.3137C95.7633 19.013 95.1522 20.5235 94.0241 21.7035C92.8489 22.9308 91.3918 23.4972 89.5586 23.4972C87.5844 23.4972 86.0332 22.8364 84.9051 21.4675C83.7299 20.1458 83.2129 18.3049 83.2129 15.9448C83.2129 10.7053 84.7171 7.44831 87.6784 6.17384C88.3835 5.84342 89.1825 5.65461 90.0286 5.513C91.7208 5.22979 92.6609 5.04098 93.366 4.09692L94.5881 5.84342ZM89.6056 21.5147C90.7807 21.5147 91.7208 21.0899 92.4259 20.3346C93.178 19.5322 93.554 18.5881 93.554 17.4081C93.554 14.9535 92.1439 13.3014 89.6996 13.3014C88.6185 13.3014 87.7254 13.5847 86.9733 14.1983C86.2212 14.8119 85.7512 15.5672 85.5631 16.3696C85.5161 19.485 87.2083 21.5147 89.6056 21.5147Z" fill="#562212"/>
<path d="M99.901 23.2615H97.7388V11.1304H99.901V20.1461L106.858 11.1304H109.02V23.2615H106.858V14.2457L99.901 23.2615Z" fill="#562212"/>
<path d="M112.827 23.0729C111.84 22.7425 111.135 22.3649 110.759 21.8928L111.84 20.2879C112.827 21.0904 114.284 21.6096 115.412 21.6096C117.245 21.6096 118.562 20.8072 118.562 19.6271C118.562 18.6358 117.669 18.0694 116.211 18.0694H114.19V16.3229H116.07C117.292 16.3229 118.139 15.5677 118.139 14.6236C118.139 13.538 117.151 12.8771 115.553 12.8771C114.284 12.8771 113.062 13.3491 111.934 14.246L111.088 12.5939C112.075 11.6026 113.908 10.989 115.835 10.989C118.75 10.989 120.348 12.2163 120.348 14.246C120.348 15.6621 119.643 16.6061 118.233 17.0782V17.1254C119.831 17.3142 120.771 18.4942 120.771 19.9575C120.771 22.176 118.703 23.5921 115.647 23.5921C114.801 23.4977 113.814 23.3561 112.827 23.0729Z" fill="#562212"/>
<path d="M131.816 23.2615V18.1164H125.094V23.2143H122.932V11.1304H125.094V16.0867H131.816V11.1304H133.978V23.2615H131.816Z" fill="#562212"/>
<path d="M146.859 21.9386C145.683 22.9771 144.179 23.5435 142.346 23.5435C140.372 23.5435 138.821 22.9771 137.646 21.8442C136.47 20.6642 135.859 19.1537 135.859 17.2656C135.859 15.4247 136.423 13.9142 137.505 12.7341C138.586 11.5069 140.137 10.9404 142.064 10.9404C143.662 10.9404 144.978 11.4597 146.06 12.4981C147.141 13.5366 147.658 14.8583 147.658 16.4631C147.658 17.0296 147.611 17.5016 147.517 17.9264H138.304C138.492 20.1922 140.137 21.561 142.487 21.561C144.085 21.561 145.307 21.1362 146.201 20.2866L146.859 21.9386ZM138.163 16.1327H145.495C145.401 14.103 144.085 12.9229 142.017 12.9229C139.855 12.8757 138.398 14.1974 138.163 16.1327Z" fill="#562212"/>
<path d="M159.597 21.5146C158.61 22.789 156.87 23.5443 154.943 23.5443C153.016 23.5443 151.465 22.9778 150.243 21.845C149.068 20.6649 148.457 19.1544 148.457 17.2663C148.457 15.4726 149.068 13.9621 150.196 12.7821C151.371 11.5548 152.828 10.9412 154.567 10.9412C156.682 10.9412 158.281 11.4604 159.315 12.5461L158.328 14.2453C157.435 13.3957 156.259 12.9709 154.849 12.9709C153.721 12.9709 152.781 13.3957 151.935 14.1981C151.136 15.0006 150.713 16.039 150.713 17.2663C150.713 18.5408 151.136 19.6264 151.935 20.3817C152.781 21.1841 153.815 21.5618 155.037 21.5618C156.447 21.5618 157.576 21.0425 158.516 20.0041L159.597 21.5146Z" fill="#562212"/>
<path d="M38.9148 51.2058H37.9692L41.2785 43.6955H42.0811L45.3905 51.2058H44.39L43.4005 48.9442H39.8933L38.9148 51.2058ZM43.0377 48.0907L41.6524 44.901L40.2671 48.0907H43.0377Z" fill="#C59368"/>
<path d="M46.7656 51.1952V43.7488C47.7844 43.7204 48.4881 43.7061 48.8765 43.7061C49.7121 43.7061 50.3315 43.8697 50.7346 44.1969C51.145 44.5169 51.3503 44.9685 51.3503 45.5517C51.3503 45.9856 51.233 46.3483 50.9984 46.6399C50.7639 46.9315 50.4414 47.1448 50.0309 47.28V47.3013C50.5294 47.3795 50.9178 47.5716 51.1963 47.8774C51.4822 48.1832 51.6251 48.5815 51.6251 49.0722C51.6251 49.7834 51.3759 50.3239 50.8775 50.6938C50.3791 51.0565 49.6974 51.2378 48.8326 51.2378C47.9896 51.2378 47.3007 51.2236 46.7656 51.1952ZM48.9425 47.8027H47.7001V50.3417C48.0006 50.3702 48.3964 50.3844 48.8875 50.3844C49.4666 50.3844 49.91 50.2706 50.2178 50.043C50.533 49.8083 50.6906 49.4669 50.6906 49.0189C50.6906 48.6277 50.5367 48.329 50.2288 48.1227C49.9283 47.9094 49.4995 47.8027 48.9425 47.8027ZM48.8545 44.5596C48.6347 44.5596 48.2498 44.5703 47.7001 44.5916V47.0026H48.9315C49.3639 47.0026 49.7194 46.8923 49.998 46.6719C50.2765 46.4443 50.4157 46.1385 50.4157 45.7544C50.4157 44.9579 49.8953 44.5596 48.8545 44.5596Z" fill="#C59368"/>
<path d="M55.2553 44.5916H52.5617V43.7381H58.8835V44.5916H56.1899V51.2058H55.2553V44.5916Z" fill="#C59368"/>
<path d="M59.2301 47.472C59.2301 46.3909 59.6002 45.4806 60.3405 44.7409C61.0808 44.0013 62.019 43.6315 63.1551 43.6315C64.2838 43.6315 65.2183 43.9906 65.9586 44.7089C66.7062 45.4273 67.0801 46.3483 67.0801 47.472C67.0801 48.5672 66.7062 49.4847 65.9586 50.2244C65.211 50.9498 64.2765 51.3125 63.1551 51.3125C62.0336 51.3125 61.0954 50.9533 60.3405 50.235C59.6002 49.5167 59.2301 48.5957 59.2301 47.472ZM60.2196 47.472C60.2196 48.3112 60.5017 49.0224 61.0661 49.6056C61.6305 50.1746 62.3268 50.4591 63.1551 50.4591C64.02 50.4591 64.7236 50.1746 65.266 49.6056C65.8157 49.0366 66.0906 48.3254 66.0906 47.472C66.0906 46.6185 65.8084 45.9073 65.244 45.3384C64.6796 44.7694 63.9833 44.4849 63.1551 44.4849C62.3122 44.4849 61.6122 44.7658 61.0551 45.3277C60.4981 45.8895 60.2196 46.6043 60.2196 47.472Z" fill="#C59368"/>
<path d="M74.946 51.2058H74.0115V47.824H69.7787V51.2058H68.8441V43.7381H69.7787V46.9706H74.0115V43.7381H74.946V51.2058Z" fill="#C59368"/>
<path d="M76.7013 47.472C76.7013 46.3909 77.0714 45.4806 77.8117 44.7409C78.552 44.0013 79.4902 43.6315 80.6263 43.6315C81.755 43.6315 82.6895 43.9906 83.4298 44.7089C84.1774 45.4273 84.5513 46.3483 84.5513 47.472C84.5513 48.5672 84.1774 49.4847 83.4298 50.2244C82.6822 50.9498 81.7477 51.3125 80.6263 51.3125C79.5048 51.3125 78.5666 50.9533 77.8117 50.235C77.0714 49.5167 76.7013 48.5957 76.7013 47.472ZM77.6908 47.472C77.6908 48.3112 77.9729 49.0224 78.5373 49.6056C79.1017 50.1746 79.798 50.4591 80.6263 50.4591C81.4912 50.4591 82.1948 50.1746 82.7372 49.6056C83.2869 49.0366 83.5618 48.3254 83.5618 47.472C83.5618 46.6185 83.2796 45.9073 82.7152 45.3384C82.1508 44.7694 81.4545 44.4849 80.6263 44.4849C79.7834 44.4849 79.0834 44.7658 78.5263 45.3277C77.9693 45.8895 77.6908 46.6043 77.6908 47.472Z" fill="#C59368"/>
<path d="M87.2499 51.2058H86.3153V43.7381H87.2609L90.1524 47.568L92.923 43.7381H93.8135V51.2058H92.879V45.1677L90.1524 48.8802H90.0095L87.2499 45.1997V51.2058Z" fill="#C59368"/>
<path d="M102.275 51.2058H101.34V47.824H97.1074V51.2058H96.1729V43.7381H97.1074V46.9706H101.34V43.7381H102.275V51.2058Z" fill="#C59368"/>
<path d="M111.616 51.2058H110.682V43.7381H111.616V51.2058ZM106.526 47.312C106.269 47.312 105.95 47.3333 105.569 47.376V50.3417C106.163 50.363 106.471 50.3737 106.493 50.3737C107.797 50.3737 108.45 49.8439 108.45 48.7842C108.45 48.3077 108.285 47.9449 107.955 47.696C107.625 47.44 107.149 47.312 106.526 47.312ZM104.635 43.7381H105.569V46.5119C106.082 46.4763 106.423 46.4585 106.592 46.4585C107.523 46.4585 108.23 46.6612 108.714 47.0666C109.197 47.4649 109.439 48.0303 109.439 48.7628C109.439 49.5452 109.172 50.1532 108.637 50.5871C108.102 51.0138 107.35 51.2272 106.383 51.2272C106.016 51.2272 105.698 51.2236 105.426 51.2165C105.162 51.2094 104.899 51.2058 104.635 51.2058V43.7381Z" fill="#C59368"/>
<path d="M119.474 45.2317L114.802 51.2058H113.977V43.7381H114.911V49.7123L119.584 43.7381H120.409V51.2058H119.474V45.2317ZM115.208 42.0312H116.088C116.264 42.4935 116.656 42.7247 117.264 42.7247C117.909 42.7247 118.287 42.4935 118.397 42.0312H119.276C119.225 42.4295 119.009 42.7531 118.628 43.002C118.254 43.2439 117.799 43.3648 117.264 43.3648C116.7 43.3648 116.231 43.2439 115.857 43.002C115.491 42.7602 115.274 42.4366 115.208 42.0312Z" fill="#C59368"/>
<path d="M124.691 47.472C124.691 46.3909 125.061 45.4806 125.802 44.7409C126.542 44.0013 127.48 43.6315 128.616 43.6315C129.745 43.6315 130.68 43.9906 131.42 44.7089C132.168 45.4273 132.541 46.3483 132.541 47.472C132.541 48.5672 132.168 49.4847 131.42 50.2244C130.672 50.9498 129.738 51.3125 128.616 51.3125C127.495 51.3125 126.557 50.9533 125.802 50.235C125.061 49.5167 124.691 48.5957 124.691 47.472ZM125.681 47.472C125.681 48.3112 125.963 49.0224 126.527 49.6056C127.092 50.1746 127.788 50.4591 128.616 50.4591C129.481 50.4591 130.185 50.1746 130.727 49.6056C131.277 49.0366 131.552 48.3254 131.552 47.472C131.552 46.6185 131.27 45.9073 130.705 45.3384C130.141 44.7694 129.445 44.4849 128.616 44.4849C127.773 44.4849 127.073 44.7658 126.516 45.3277C125.959 45.8895 125.681 46.6043 125.681 47.472Z" fill="#C59368"/>
<path d="M138.802 43.7381H139.935L136.504 47.248L140.11 51.2058H138.912L135.427 47.312L138.802 43.7381ZM135.24 51.2058H134.305V43.7381H135.24V51.2058Z" fill="#C59368"/>
<path d="M142.478 48.3361V51.2058H141.543V43.7381C141.851 43.7381 142.177 43.7346 142.522 43.7275C142.866 43.7204 143.211 43.7168 143.555 43.7168C144.567 43.7168 145.292 43.9373 145.732 44.3782C146.179 44.8121 146.403 45.3633 146.403 46.0318C146.403 46.679 146.161 47.2337 145.677 47.696C145.208 48.1512 144.526 48.3788 143.632 48.3788C143.163 48.3788 142.778 48.3645 142.478 48.3361ZM143.643 44.5703C143.511 44.5703 143.123 44.5774 142.478 44.5916V47.472C142.94 47.5075 143.313 47.5253 143.599 47.5253C144.164 47.5253 144.607 47.3937 144.93 47.1306C145.252 46.8603 145.413 46.4905 145.413 46.0211C145.413 45.5588 145.263 45.2032 144.962 44.9543C144.669 44.6983 144.23 44.5703 143.643 44.5703Z" fill="#C59368"/>
<path d="M152.861 43.7381H153.807L151.146 49.4989C150.875 50.0963 150.589 50.5302 150.289 50.8004C149.996 51.0707 149.644 51.2058 149.233 51.2058C148.837 51.2058 148.526 51.1169 148.299 50.9391L148.629 50.171C148.819 50.299 149.017 50.363 149.222 50.363C149.596 50.363 149.911 50.1106 150.168 49.6056L150.3 49.3282L146.815 43.7381H147.87L150.751 48.4214L152.861 43.7381Z" fill="#C59368"/>
<path d="M156.116 51.2058H155.181V43.7381H159.469V44.5916H156.116V51.2058Z" fill="#C59368"/>
<path d="M44.5443 38.4956H43.495V35.304H41.8778L39.6433 38.4956H38.4582L40.8531 35.1199C40.3429 34.9153 39.9313 34.6043 39.6186 34.187C39.3059 33.7615 39.1495 33.2704 39.1495 32.714C39.1495 31.8874 39.4334 31.2082 40.0013 30.6763C40.5692 30.1362 41.4087 29.8661 42.5197 29.8661C42.5526 29.8661 42.8983 29.8743 43.5567 29.8907C43.8859 29.8988 44.2151 29.9029 44.5443 29.9029V38.4956ZM41.7543 34.322H43.495V30.885C42.9271 30.8604 42.5362 30.8481 42.3222 30.8481C41.6802 30.8481 41.1741 31.0159 40.8037 31.3514C40.4416 31.6788 40.2606 32.1125 40.2606 32.6526C40.2606 33.0945 40.4087 33.4668 40.705 33.7696C41.0013 34.0806 41.351 34.2647 41.7543 34.322Z" fill="#C59368"/>
<path d="M48.2485 38.4956H47.1991V29.9029H48.2608L51.5076 34.3097L54.6186 29.9029H55.6185V38.4956H54.5692V31.5478L51.5076 35.8196H51.3471L48.2485 31.5846V38.4956Z" fill="#C59368"/>
<path d="M58.2184 38.4956H57.1568L60.8727 29.8538H61.7739L65.4898 38.4956H64.3663L63.2553 35.8932H59.3172L58.2184 38.4956ZM62.8479 34.9112L61.2924 31.2409L59.7369 34.9112H62.8479Z" fill="#C59368"/>
<path d="M73.2593 38.4956H72.21V30.885H69.0743L68.9262 32.5053C68.8274 33.5691 68.6998 34.4816 68.5435 35.2427C68.3871 35.9955 68.2184 36.5888 68.0373 37.0226C67.8562 37.4563 67.6423 37.7918 67.3954 38.0291C67.1567 38.2665 66.9221 38.4138 66.6917 38.471C66.4612 38.5283 66.1979 38.5365 65.9016 38.4956L65.9139 37.4522C66.0868 37.4767 66.2349 37.4645 66.3584 37.4154C66.4818 37.3581 66.6217 37.2312 66.7781 37.0348C66.9509 36.8303 67.1073 36.5234 67.2472 36.1142C67.5764 35.1976 67.8151 33.7001 67.9632 31.6215L68.0867 29.9029H73.2593V38.4956Z" fill="#C59368"/>
<path d="M75.2294 34.1993C75.2294 32.9554 75.645 31.9079 76.4763 31.0568C77.3075 30.2057 78.361 29.7802 79.6367 29.7802C80.9041 29.7802 81.9534 30.1935 82.7847 31.02C83.6241 31.8465 84.0439 32.9063 84.0439 34.1993C84.0439 35.4595 83.6241 36.5152 82.7847 37.3663C81.9452 38.201 80.8959 38.6183 79.6367 38.6183C78.3774 38.6183 77.324 38.2051 76.4763 37.3785C75.645 36.552 75.2294 35.4923 75.2294 34.1993ZM76.3405 34.1993C76.3405 35.1649 76.6574 35.9833 77.2911 36.6543C77.9248 37.309 78.7066 37.6363 79.6367 37.6363C80.6078 37.6363 81.3979 37.309 82.0069 36.6543C82.6242 35.9996 82.9328 35.1813 82.9328 34.1993C82.9328 33.2172 82.616 32.3989 81.9822 31.7442C81.3485 31.0895 80.5667 30.7622 79.6367 30.7622C78.6902 30.7622 77.9042 31.0855 77.2787 31.7319C76.6532 32.3784 76.3405 33.2009 76.3405 34.1993Z" fill="#C59368"/>
<path d="M88.7495 35.6109H85.799V34.6903H88.7495V35.6109Z" fill="#C59368"/>
<path d="M97.8809 38.4956H96.8316V34.6043H92.0787V38.4956H91.0293V29.9029H92.0787V33.6223H96.8316V29.9029H97.8809V38.4956Z" fill="#C59368"/>
<path d="M105.531 38.4956H100.531V29.9029H105.407V30.885H101.58V33.6592H105.037V34.6412H101.58V37.5136H105.531V38.4956Z" fill="#C59368"/>
<path d="M114.545 38.4956H113.496V34.6043H108.743V38.4956H107.693V29.9029H108.743V33.6223H113.496V29.9029H114.545V38.4956Z" fill="#C59368"/>
<path d="M122.195 38.4956H117.195V29.9029H122.071V30.885H118.244V33.6592H121.701V34.6412H118.244V37.5136H122.195V38.4956Z" fill="#C59368"/>
<path d="M131.271 38.4956H124.357V29.9029H125.407V37.5136H130.036V29.9029H131.086V37.5136H132.258V40.0914H131.271V38.4956Z" fill="#C59368"/>
<path d="M139.041 29.9029H140.312L136.461 33.9415L140.51 38.4956H139.164L135.251 34.0151L139.041 29.9029ZM135.041 38.4956H133.992V29.9029H135.041V38.4956Z" fill="#C59368"/>
<path d="M148.291 31.6215L143.044 38.4956H142.119V29.9029H143.168V36.7771L148.415 29.9029H149.341V38.4956H148.291V31.6215Z" fill="#C59368"/>
<path d="M158.166 31.6215L152.92 38.4956H151.994V29.9029H153.043V36.7771L158.29 29.9029H159.216V38.4956H158.166V31.6215ZM153.376 27.9389H154.364C154.562 28.4708 155.002 28.7368 155.685 28.7368C156.409 28.7368 156.833 28.4708 156.957 27.9389H157.944C157.887 28.3972 157.644 28.7695 157.216 29.056C156.796 29.3342 156.286 29.4733 155.685 29.4733C155.051 29.4733 154.525 29.3342 154.105 29.056C153.693 28.7777 153.451 28.4054 153.376 27.9389Z" fill="#C59368"/>
<path fill-rule="evenodd" clip-rule="evenodd" d="M44.7979 38.7475H43.2414V35.5559H42.0103L39.7758 38.7475H37.9692L40.4701 35.2225C40.0484 35.0066 39.6956 34.7115 39.4152 34.3374L39.4138 34.3355C39.0675 33.8644 38.8959 33.3207 38.8959 32.714C38.8959 31.8235 39.2048 31.0765 39.8267 30.4937C40.4582 29.8934 41.3709 29.6142 42.5197 29.6142C42.5568 29.6142 42.9081 29.6226 43.5631 29.6388C43.8901 29.647 44.2172 29.651 44.5443 29.651H44.7979V38.7475ZM40.0013 30.6763C39.4334 31.2082 39.1495 31.8874 39.1495 32.714C39.1495 33.2704 39.3059 33.7615 39.6186 34.187C39.8817 34.5381 40.2148 34.814 40.6177 35.0145C40.6937 35.0523 40.7722 35.0874 40.8531 35.1199L38.4582 38.4956H39.6433L41.8778 35.304H43.495V38.4956H44.5443V29.9029C44.2151 29.9029 43.8859 29.8988 43.5567 29.8907C42.8983 29.8743 42.5526 29.8661 42.5197 29.8661C41.4087 29.8661 40.5692 30.1362 40.0013 30.6763ZM40.9744 31.5377C40.6712 31.8118 40.5141 32.1747 40.5141 32.6526C40.5141 33.0323 40.6388 33.3406 40.8868 33.5941L40.8891 33.5965C41.1442 33.8642 41.437 34.0187 41.773 34.0701H43.2414V31.1264C42.8044 31.1087 42.4989 31.1 42.3222 31.1C41.7251 31.1 41.286 31.2554 40.9744 31.5377ZM43.495 30.885V34.322H41.7543C41.351 34.2647 41.0013 34.0806 40.705 33.7696C40.4087 33.4668 40.2606 33.0945 40.2606 32.6526C40.2606 32.1125 40.4416 31.6788 40.8037 31.3514C41.1741 31.0159 41.6802 30.8481 42.3222 30.8481C42.5362 30.8481 42.9271 30.8604 43.495 30.885ZM48.502 38.7475H46.9456V29.651H48.3894L51.5032 33.8773L54.4867 29.651H55.8721V38.7475H54.3156V32.3359L51.6383 36.0715H51.2179L48.502 32.3596V38.7475ZM48.2485 31.5846L51.3471 35.8196H51.5076L54.5692 31.5478V38.4956H55.6185V29.9029H54.6186L51.5076 34.3097L48.2608 29.9029H47.1991V38.4956H48.2485V31.5846ZM58.387 38.7475H56.7727L60.7053 29.6019H61.9413L65.6512 38.2298L65.6638 37.1622L65.9498 37.2028C66.0875 37.2224 66.1864 37.2107 66.2572 37.1842C66.3264 37.1499 66.4343 37.0606 66.5792 36.8786L66.5815 36.8757L66.5839 36.8729C66.7279 36.7024 66.8719 36.4288 67.0071 36.0332L67.0084 36.0295C67.3252 35.1475 67.5624 33.6793 67.7103 31.6037L67.8506 29.651H73.5129V38.7475H71.9564V31.1369H69.3059L69.1787 32.5281C69.0793 33.5979 68.9506 34.5203 68.7919 35.293L68.7918 35.2936C68.6339 36.0535 68.4613 36.6643 68.2715 37.1191C68.0822 37.5726 67.8518 37.9403 67.5732 38.2087C67.3155 38.4646 67.0427 38.6435 66.7532 38.7154C66.486 38.7818 66.1911 38.7892 65.8731 38.746L65.8738 38.7475H64.1985L63.0874 36.1451H59.4858L58.387 38.7475ZM59.3172 35.8932H63.2553L64.3663 38.4956H65.4898L61.7739 29.8538H60.8727L57.1568 38.4956H58.2184L59.3172 35.8932ZM69.0743 30.885H72.21V38.4956H73.2593V29.9029H68.0867L67.9632 31.6215C67.8151 33.7001 67.5764 35.1976 67.2472 36.1142C67.1073 36.5234 66.9509 36.8303 66.7781 37.0348C66.6217 37.2312 66.4818 37.3581 66.3584 37.4154C66.3002 37.4385 66.2365 37.4535 66.1674 37.4603C66.0898 37.4679 66.0053 37.4652 65.9139 37.4522L65.9016 38.4956C66.1979 38.5365 66.4612 38.5283 66.6917 38.471C66.9221 38.4138 67.1567 38.2665 67.3954 38.0291C67.6423 37.7918 67.8562 37.4563 68.0373 37.0226C68.2184 36.5888 68.3871 35.9955 68.5435 35.2427C68.6998 34.4816 68.8274 33.5691 68.9262 32.5053L69.0743 30.885ZM82.9658 37.5426L82.964 37.5443C82.0739 38.4294 80.9586 38.8702 79.6367 38.8702C78.3154 38.8702 77.1969 38.4341 76.2987 37.5583L76.2969 37.5566C75.4129 36.6776 74.9759 35.5512 74.9759 34.1993C74.9759 32.8934 75.4147 31.782 76.2943 30.8814C77.1768 29.9778 78.2977 29.5283 79.6367 29.5283C80.9654 29.5283 82.0809 29.9641 82.9636 30.8415C83.8559 31.7203 84.2974 32.8468 84.2974 34.1993C84.2974 35.5212 83.8546 36.6415 82.9658 37.5426ZM82.7847 31.02C83.6241 31.8465 84.0439 32.9063 84.0439 34.1993C84.0439 35.4595 83.6241 36.5152 82.7847 37.3663C81.9452 38.201 80.8959 38.6183 79.6367 38.6183C78.3774 38.6183 77.324 38.2051 76.4763 37.3785C75.645 36.552 75.2294 35.4923 75.2294 34.1993C75.2294 32.9554 75.645 31.9079 76.4763 31.0568C77.3075 30.2057 78.361 29.7802 79.6367 29.7802C80.9041 29.7802 81.9534 30.1935 82.7847 31.02ZM81.8207 36.4833L81.8219 36.4821C82.3908 35.8787 82.6793 35.1239 82.6793 34.1993C82.6793 33.2766 82.3839 32.5226 81.7995 31.9188C81.2145 31.3145 80.499 31.0141 79.6367 31.0141C78.7554 31.0141 78.0367 31.3121 77.4615 31.9065C76.8867 32.5006 76.594 33.2579 76.594 34.1993C76.594 35.1038 76.8883 35.8591 77.4748 36.4808C78.0597 37.0844 78.7748 37.3844 79.6367 37.3844C80.5436 37.3844 81.2639 37.0819 81.8207 36.4833ZM77.2911 36.6543C76.6574 35.9833 76.3405 35.1649 76.3405 34.1993C76.3405 33.2009 76.6532 32.3784 77.2787 31.7319C77.9042 31.0855 78.6902 30.7622 79.6367 30.7622C80.5667 30.7622 81.3485 31.0895 81.9822 31.7442C82.616 32.3989 82.9328 33.2172 82.9328 34.1993C82.9328 35.1813 82.6242 35.9996 82.0069 36.6543C81.3979 37.309 80.6078 37.6363 79.6367 37.6363C78.7066 37.6363 77.9248 37.309 77.2911 36.6543ZM89.0031 35.8628H85.5455V34.4384H89.0031V35.8628ZM98.1345 38.7475H96.578V34.8562H92.3322V38.7475H90.7758V29.651H92.3322V33.3704H96.578V29.651H98.1345V38.7475ZM96.8316 29.9029H97.8809V38.4956H96.8316V34.6043H92.0787V38.4956H91.0293V29.9029H92.0787V33.6223H96.8316V29.9029ZM105.784 38.7475H100.277V29.651H105.661V31.1369H101.834V33.4073H105.29V34.8931H101.834V37.2617H105.784V38.7475ZM101.58 37.5136V34.6412H105.037V33.6592H101.58V30.885H105.407V29.9029H100.531V38.4956H105.531V37.5136H101.58ZM114.799 38.7475H113.242V34.8562H108.996V38.7475H107.44V29.651H108.996V33.3704H113.242V29.651H114.799V38.7475ZM113.496 29.9029H114.545V38.4956H113.496V34.6043H108.743V38.4956H107.693V29.9029H108.743V33.6223H113.496V29.9029ZM122.448 38.7475H116.941V29.651H122.325V31.1369H118.498V33.4073H121.954V34.8931H118.498V37.2617H122.448V38.7475ZM118.244 37.5136V34.6412H121.701V33.6592H118.244V30.885H122.071V29.9029H117.195V38.4956H122.195V37.5136H118.244ZM124.104 38.7475V29.651H125.66V37.2617H129.783V29.651H131.339V37.2617H132.512V40.3433H131.017V38.7475H124.104ZM131.271 38.4956V40.0914H132.258V37.5136H131.086V29.9029H130.036V37.5136H125.407V29.9029H124.357V38.4956H131.271ZM138.929 29.651H140.902L136.804 33.9474L141.072 38.7475H139.048L135.294 34.4495V38.7475H133.738V29.651H135.294V33.5947L138.929 29.651ZM139.041 29.9029H140.312L136.461 33.9415L140.51 38.4956H139.164L135.251 34.0151L139.041 29.9029ZM135.041 29.9029H133.992V38.4956H135.041V29.9029ZM143.17 38.7475H141.865V29.651H143.421V36.028L148.289 29.651H149.594V38.7475H148.038V32.3706L143.17 38.7475ZM148.291 31.6215V38.4956H149.341V29.9029H148.415L143.168 36.7771V29.9029H142.119V38.4956H143.044L148.291 31.6215ZM153.046 38.7475H151.74V29.651H153.297V36.028L158.164 29.651H159.469V38.7475H157.913V32.3706L153.046 38.7475ZM158.166 31.6215V38.4956H159.216V29.9029H158.29L153.043 36.7771V29.9029H151.994V38.4956H152.92L158.166 31.6215ZM153.08 27.687H154.541L154.602 27.8517C154.683 28.0704 154.808 28.2219 154.974 28.3221C155.144 28.4245 155.375 28.4849 155.685 28.4849C156.019 28.4849 156.253 28.423 156.411 28.3244C156.56 28.2304 156.661 28.0904 156.709 27.8823L156.755 27.687H158.231L158.196 27.9701C158.128 28.5091 157.839 28.9428 157.357 29.2649L157.356 29.2655C156.888 29.5763 156.326 29.7252 155.685 29.7252C155.014 29.7252 154.435 29.5777 153.964 29.2655L153.962 29.2642C153.496 28.9489 153.212 28.5169 153.126 27.9782L153.08 27.687ZM61.2924 31.2409L59.7369 34.9112H62.8479L61.2924 31.2409ZM61.2924 31.8901L60.1188 34.6593H62.466L61.2924 31.8901ZM153.376 27.9389C153.39 28.0262 153.41 28.1101 153.436 28.1908C153.547 28.5414 153.77 28.8298 154.105 29.056C154.525 29.3342 155.051 29.4733 155.685 29.4733C156.286 29.4733 156.796 29.3342 157.216 29.056C157.562 28.8239 157.788 28.5356 157.891 28.1908C157.916 28.1099 157.933 28.026 157.944 27.9389H156.957C156.833 28.4708 156.409 28.7368 155.685 28.7368C155.002 28.7368 154.562 28.4708 154.364 27.9389H153.376ZM88.7495 35.6109V34.6903H85.799V35.6109H88.7495Z" fill="#C59368"/>
</svg>
