<svg width="33" height="32" fill="none" xmlns="http://www.w3.org/2000/svg"><path d="M12.857 20l8-8-8 8zm14.96-7.56c-.4-1.214-.133-2.774-.867-3.774-.733-1-2.306-1.253-3.32-2-1.013-.746-1.706-2.146-2.92-2.533-1.213-.387-2.52.347-3.853.347-1.333 0-2.667-.734-3.853-.347-1.187.387-1.907 1.813-2.92 2.533-1.014.72-2.56.974-3.32 2-.76 1.027-.467 2.56-.867 3.774-.4 1.213-1.52 2.226-1.52 3.56 0 1.333 1.147 2.386 1.52 3.56.373 1.173.133 2.773.867 3.773.733 1 2.306 1.253 3.32 1.987 1.013.733 1.706 2.16 2.92 2.546 1.213.387 2.52-.346 3.853-.346 1.333 0 2.667.733 3.853.346 1.187-.386 1.907-1.813 2.92-2.546 1.014-.734 2.587-.96 3.32-1.987.734-1.027.467-2.56.867-3.773.4-1.214 1.52-2.227 1.52-3.56 0-1.334-1.147-2.387-1.52-3.56zm-14.36.226h.133m6.534 6.668h.133" stroke="#000" stroke-width="2" stroke-linecap="round" stroke-linejoin="round"/></svg>