<svg width="33" height="32" fill="none" xmlns="http://www.w3.org/2000/svg"><path d="M17.708 6.667h4A1.333 1.333 0 0123.041 8v5.333M9.708 6.667h-4A1.333 1.333 0 004.375 8v18.666A1.333 1.333 0 005.708 28h16a1.333 1.333 0 001.334-1.334v-5.333" stroke="#231F20" stroke-width="2" stroke-linecap="round" stroke-linejoin="round"/><path d="M17.708 5.333A1.334 1.334 0 0016.375 4H11.04a1.333 1.333 0 00-1.333 1.333v4h8v-4zm10.28 8.92l-1.867-1.866a1.333 1.333 0 00-1.866 0l-6.547 6.546v3.734h3.733l6.547-6.547a1.333 1.333 0 000-1.867v0z" stroke="#231F20" stroke-width="2" stroke-linecap="round" stroke-linejoin="round"/></svg>