<svg width="33" height="32" fill="none" xmlns="http://www.w3.org/2000/svg"><path d="M19.38 4h-12a1.333 1.333 0 00-1.333 1.333V28l3.12-1.333L12.274 28l3.106-1.333L18.487 28l3.107-1.333L24.713 28v-4m-8.333-4h-5.333m5.333-5h-5.333" stroke="#000" stroke-width="2" stroke-linecap="round" stroke-linejoin="round"/><path d="M25.667 5a1 1 0 10-2 0h2zm-2 12.5a1 1 0 102 0h-2zM22.5 13.9a1 1 0 100 2v-2zm4.723 2a1 1 0 100-2v2zM22.5 5.233a1 1 0 100 2v-2zm0 5.2a1 1 0 100 2v-2zM23.667 5v9.9h2V5h-2zm0 9.9v2.6h2v-2.6h-2zm-1.167 1h2.167v-2H22.5v2zm2.167 0h2.555v-2h-2.555v2zM29 8.833c0 .86-.722 1.6-1.666 1.6v2c2 0 3.666-1.588 3.666-3.6h-2zm-1.666-1.6c.944 0 1.666.74 1.666 1.6h2c0-2.012-1.665-3.6-3.666-3.6v2zm0-2H22.5v2h4.834v-2zm0 6.2v-1H22.5v2h4.833v-1z" fill="#000"/></svg>