<svg width="33" height="32" viewBox="0 0 33 32" fill="none" xmlns="http://www.w3.org/2000/svg">
<path d="M21.9049 12V9.33333C21.9049 7.91885 21.343 6.56229 20.3429 5.5621C19.3427 4.5619 17.9861 4 16.5716 4C15.1571 4 13.8006 4.5619 12.8004 5.5621C11.8002 6.56229 11.2383 7.91885 11.2383 9.33333V12M24.5716 28H8.57161C8.21799 28 7.87885 27.8595 7.62881 27.6095C7.37876 27.3594 7.23828 27.0203 7.23828 26.6667V13.3333C7.23828 12.9797 7.37876 12.6406 7.62881 12.3905C7.87885 12.1405 8.21799 12 8.57161 12H24.5716C24.9252 12 25.2644 12.1405 25.5144 12.3905C25.7645 12.6406 25.9049 12.9797 25.9049 13.3333V26.6667C25.9049 27.0203 25.7645 27.3594 25.5144 27.6095C25.2644 27.8595 24.9252 28 24.5716 28Z" stroke="black" stroke-width="2" stroke-linecap="round" stroke-linejoin="round"/>
</svg>
