<svg width="33" height="32" viewBox="0 0 33 32" fill="none" xmlns="http://www.w3.org/2000/svg">
<path d="M19.3802 4H7.38021C7.02659 4 6.68745 4.14048 6.4374 4.39052C6.18735 4.64057 6.04688 4.97971 6.04688 5.33333V28L9.16688 26.6667L12.2735 28L15.3802 26.6667L18.4869 28L21.5935 26.6667L24.7135 28V24" stroke="black" stroke-width="2" stroke-linecap="round" stroke-linejoin="round"/>
<path d="M16.3802 20.0002H11.0469M16.3802 15H11.0469" stroke="black" stroke-width="2" stroke-linecap="round" stroke-linejoin="round"/>
<path d="M25.6669 5C25.6669 4.44772 25.2192 4 24.6669 4C24.1146 4 23.6669 4.44772 23.6669 5H25.6669ZM23.6669 17.5C23.6669 18.0523 24.1146 18.5 24.6669 18.5C25.2192 18.5 25.6669 18.0523 25.6669 17.5H23.6669ZM22.5 13.9C21.9477 13.9 21.5 14.3477 21.5 14.9C21.5 15.4523 21.9477 15.9 22.5 15.9V13.9ZM27.2225 15.9C27.7748 15.9 28.2225 15.4523 28.2225 14.9C28.2225 14.3477 27.7748 13.9 27.2225 13.9V15.9ZM22.5 5.23333C21.9477 5.23333 21.5 5.68105 21.5 6.23333C21.5 6.78562 21.9477 7.23333 22.5 7.23333V5.23333ZM22.5 10.4333C21.9477 10.4333 21.5 10.881 21.5 11.4333C21.5 11.9856 21.9477 12.4333 22.5 12.4333V10.4333ZM23.6669 5V14.9H25.6669V5H23.6669ZM23.6669 14.9V17.5H25.6669V14.9H23.6669ZM22.5 15.9H24.6669V13.9H22.5V15.9ZM24.6669 15.9H27.2225V13.9H24.6669V15.9ZM29.0003 8.83333C29.0003 9.69327 28.2781 10.4333 27.3336 10.4333V12.4333C29.3346 12.4333 31.0003 10.8453 31.0003 8.83333H29.0003ZM27.3336 7.23333C28.2781 7.23333 29.0003 7.97339 29.0003 8.83333H31.0003C31.0003 6.82139 29.3346 5.23333 27.3336 5.23333V7.23333ZM27.3336 5.23333H22.5V7.23333H27.3336V5.23333ZM27.3336 11.4333C27.3336 10.4333 27.3336 10.4333 27.3336 10.4333C27.3335 10.4333 27.3335 10.4333 27.3335 10.4333C27.3334 10.4333 27.3334 10.4333 27.3333 10.4333C27.3332 10.4333 27.3332 10.4333 27.3331 10.4333C27.333 10.4333 27.3329 10.4333 27.3328 10.4333C27.3327 10.4333 27.3326 10.4333 27.3325 10.4333C27.3323 10.4333 27.3322 10.4333 27.3321 10.4333C27.3319 10.4333 27.3318 10.4333 27.3316 10.4333C27.3314 10.4333 27.3312 10.4333 27.3311 10.4333C27.3309 10.4333 27.3307 10.4333 27.3305 10.4333C27.3303 10.4333 27.33 10.4333 27.3298 10.4333C27.3296 10.4333 27.3294 10.4333 27.3291 10.4333C27.3289 10.4333 27.3286 10.4333 27.3283 10.4333C27.3281 10.4333 27.3278 10.4333 27.3275 10.4333C27.3272 10.4333 27.3269 10.4333 27.3266 10.4333C27.3263 10.4333 27.326 10.4333 27.3256 10.4333C27.3253 10.4333 27.325 10.4333 27.3246 10.4333C27.3243 10.4333 27.3239 10.4333 27.3235 10.4333C27.3232 10.4333 27.3228 10.4333 27.3224 10.4333C27.322 10.4333 27.3216 10.4333 27.3212 10.4333C27.3208 10.4333 27.3204 10.4333 27.3199 10.4333C27.3195 10.4333 27.3191 10.4333 27.3186 10.4333C27.3182 10.4333 27.3177 10.4333 27.3173 10.4333C27.3168 10.4333 27.3163 10.4333 27.3158 10.4333C27.3153 10.4333 27.3148 10.4333 27.3143 10.4333C27.3138 10.4333 27.3133 10.4333 27.3128 10.4333C27.3122 10.4333 27.3117 10.4333 27.3111 10.4333C27.3106 10.4333 27.31 10.4333 27.3095 10.4333C27.3089 10.4333 27.3083 10.4333 27.3077 10.4333C27.3072 10.4333 27.3066 10.4333 27.3059 10.4333C27.3053 10.4333 27.3047 10.4333 27.3041 10.4333C27.3035 10.4333 27.3028 10.4333 27.3022 10.4333C27.3015 10.4333 27.3009 10.4333 27.3002 10.4333C27.2996 10.4333 27.2989 10.4333 27.2982 10.4333C27.2975 10.4333 27.2968 10.4333 27.2961 10.4333C27.2954 10.4333 27.2947 10.4333 27.294 10.4333C27.2933 10.4333 27.2925 10.4333 27.2918 10.4333C27.291 10.4333 27.2903 10.4333 27.2895 10.4333C27.2888 10.4333 27.288 10.4333 27.2872 10.4333C27.2864 10.4333 27.2857 10.4333 27.2849 10.4333C27.2841 10.4333 27.2832 10.4333 27.2824 10.4333C27.2816 10.4333 27.2808 10.4333 27.2799 10.4333C27.2791 10.4333 27.2783 10.4333 27.2774 10.4333C27.2766 10.4333 27.2757 10.4333 27.2748 10.4333C27.2739 10.4333 27.2731 10.4333 27.2722 10.4333C27.2713 10.4333 27.2704 10.4333 27.2695 10.4333C27.2685 10.4333 27.2676 10.4333 27.2667 10.4333C27.2658 10.4333 27.2648 10.4333 27.2639 10.4333C27.2629 10.4333 27.262 10.4333 27.261 10.4333C27.26 10.4333 27.2591 10.4333 27.2581 10.4333C27.2571 10.4333 27.2561 10.4333 27.2551 10.4333C27.2541 10.4333 27.2531 10.4333 27.2521 10.4333C27.251 10.4333 27.25 10.4333 27.249 10.4333C27.2479 10.4333 27.2469 10.4333 27.2458 10.4333C27.2447 10.4333 27.2437 10.4333 27.2426 10.4333C27.2415 10.4333 27.2404 10.4333 27.2393 10.4333C27.2382 10.4333 27.2371 10.4333 27.236 10.4333C27.2349 10.4333 27.2338 10.4333 27.2327 10.4333C27.2315 10.4333 27.2304 10.4333 27.2292 10.4333C27.2281 10.4333 27.2269 10.4333 27.2258 10.4333C27.2246 10.4333 27.2234 10.4333 27.2222 10.4333C27.2211 10.4333 27.2199 10.4333 27.2187 10.4333C27.2175 10.4333 27.2162 10.4333 27.215 10.4333C27.2138 10.4333 27.2126 10.4333 27.2113 10.4333C27.2101 10.4333 27.2088 10.4333 27.2076 10.4333C27.2063 10.4333 27.2051 10.4333 27.2038 10.4333C27.2025 10.4333 27.2012 10.4333 27.1999 10.4333C27.1986 10.4333 27.1973 10.4333 27.196 10.4333C27.1947 10.4333 27.1934 10.4333 27.1921 10.4333C27.1908 10.4333 27.1894 10.4333 27.1881 10.4333C27.1867 10.4333 27.1854 10.4333 27.184 10.4333C27.1827 10.4333 27.1813 10.4333 27.1799 10.4333C27.1785 10.4333 27.1771 10.4333 27.1757 10.4333C27.1743 10.4333 27.1729 10.4333 27.1715 10.4333C27.1701 10.4333 27.1687 10.4333 27.1673 10.4333C27.1658 10.4333 27.1644 10.4333 27.1629 10.4333C27.1615 10.4333 27.16 10.4333 27.1586 10.4333C27.1571 10.4333 27.1556 10.4333 27.1542 10.4333C27.1527 10.4333 27.1512 10.4333 27.1497 10.4333C27.1482 10.4333 27.1467 10.4333 27.1452 10.4333C27.1436 10.4333 27.1421 10.4333 27.1406 10.4333C27.1391 10.4333 27.1375 10.4333 27.136 10.4333C27.1344 10.4333 27.1329 10.4333 27.1313 10.4333C27.1297 10.4333 27.1281 10.4333 27.1266 10.4333C27.125 10.4333 27.1234 10.4333 27.1218 10.4333C27.1202 10.4333 27.1186 10.4333 27.117 10.4333C27.1154 10.4333 27.1137 10.4333 27.1121 10.4333C27.1105 10.4333 27.1088 10.4333 27.1072 10.4333C27.1055 10.4333 27.1039 10.4333 27.1022 10.4333C27.1005 10.4333 27.0989 10.4333 27.0972 10.4333C27.0955 10.4333 27.0938 10.4333 27.0921 10.4333C27.0904 10.4333 27.0887 10.4333 27.087 10.4333C27.0853 10.4333 27.0835 10.4333 27.0818 10.4333C27.0801 10.4333 27.0783 10.4333 27.0766 10.4333C27.0748 10.4333 27.0731 10.4333 27.0713 10.4333C27.0696 10.4333 27.0678 10.4333 27.066 10.4333C27.0642 10.4333 27.0624 10.4333 27.0606 10.4333C27.0588 10.4333 27.057 10.4333 27.0552 10.4333C27.0534 10.4333 27.0516 10.4333 27.0498 10.4333C27.0479 10.4333 27.0461 10.4333 27.0443 10.4333C27.0424 10.4333 27.0406 10.4333 27.0387 10.4333C27.0368 10.4333 27.035 10.4333 27.0331 10.4333C27.0312 10.4333 27.0293 10.4333 27.0275 10.4333C27.0256 10.4333 27.0237 10.4333 27.0218 10.4333C27.0198 10.4333 27.0179 10.4333 27.016 10.4333C27.0141 10.4333 27.0122 10.4333 27.0102 10.4333C27.0083 10.4333 27.0063 10.4333 27.0044 10.4333C27.0024 10.4333 27.0005 10.4333 26.9985 10.4333C26.9965 10.4333 26.9945 10.4333 26.9926 10.4333C26.9906 10.4333 26.9886 10.4333 26.9866 10.4333C26.9846 10.4333 26.9826 10.4333 26.9806 10.4333C26.9785 10.4333 26.9765 10.4333 26.9745 10.4333C26.9725 10.4333 26.9704 10.4333 26.9684 10.4333C26.9663 10.4333 26.9643 10.4333 26.9622 10.4333C26.9602 10.4333 26.9581 10.4333 26.956 10.4333C26.9539 10.4333 26.9518 10.4333 26.9498 10.4333C26.9477 10.4333 26.9456 10.4333 26.9435 10.4333C26.9413 10.4333 26.9392 10.4333 26.9371 10.4333C26.935 10.4333 26.9329 10.4333 26.9307 10.4333C26.9286 10.4333 26.9264 10.4333 26.9243 10.4333C26.9221 10.4333 26.92 10.4333 26.9178 10.4333C26.9156 10.4333 26.9135 10.4333 26.9113 10.4333C26.9091 10.4333 26.9069 10.4333 26.9047 10.4333C26.9025 10.4333 26.9003 10.4333 26.8981 10.4333C26.8959 10.4333 26.8937 10.4333 26.8915 10.4333C26.8892 10.4333 26.887 10.4333 26.8848 10.4333C26.8825 10.4333 26.8803 10.4333 26.878 10.4333C26.8758 10.4333 26.8735 10.4333 26.8712 10.4333C26.869 10.4333 26.8667 10.4333 26.8644 10.4333C26.8621 10.4333 26.8598 10.4333 26.8575 10.4333C26.8552 10.4333 26.8529 10.4333 26.8506 10.4333C26.8483 10.4333 26.846 10.4333 26.8437 10.4333C26.8413 10.4333 26.839 10.4333 26.8367 10.4333C26.8343 10.4333 26.832 10.4333 26.8296 10.4333C26.8273 10.4333 26.8249 10.4333 26.8225 10.4333C26.8202 10.4333 26.8178 10.4333 26.8154 10.4333C26.813 10.4333 26.8106 10.4333 26.8082 10.4333C26.8058 10.4333 26.8034 10.4333 26.801 10.4333C26.7986 10.4333 26.7962 10.4333 26.7938 10.4333C26.7913 10.4333 26.7889 10.4333 26.7865 10.4333C26.784 10.4333 26.7816 10.4333 26.7791 10.4333C26.7767 10.4333 26.7742 10.4333 26.7718 10.4333C26.7693 10.4333 26.7668 10.4333 26.7643 10.4333C26.7619 10.4333 26.7594 10.4333 26.7569 10.4333C26.7544 10.4333 26.7519 10.4333 26.7494 10.4333C26.7469 10.4333 26.7444 10.4333 26.7418 10.4333C26.7393 10.4333 26.7368 10.4333 26.7342 10.4333C26.7317 10.4333 26.7292 10.4333 26.7266 10.4333C26.7241 10.4333 26.7215 10.4333 26.719 10.4333C26.7164 10.4333 26.7138 10.4333 26.7113 10.4333C26.7087 10.4333 26.7061 10.4333 26.7035 10.4333C26.7009 10.4333 26.6983 10.4333 26.6957 10.4333C26.6931 10.4333 26.6905 10.4333 26.6879 10.4333C26.6853 10.4333 26.6827 10.4333 26.68 10.4333C26.6774 10.4333 26.6748 10.4333 26.6721 10.4333C26.6695 10.4333 26.6668 10.4333 26.6642 10.4333C26.6615 10.4333 26.6589 10.4333 26.6562 10.4333C26.6535 10.4333 26.6509 10.4333 26.6482 10.4333C26.6455 10.4333 26.6428 10.4333 26.6401 10.4333C26.6374 10.4333 26.6347 10.4333 26.632 10.4333C26.6293 10.4333 26.6266 10.4333 26.6239 10.4333C26.6212 10.4333 26.6184 10.4333 26.6157 10.4333C26.613 10.4333 26.6102 10.4333 26.6075 10.4333C26.6048 10.4333 26.602 10.4333 26.5993 10.4333C26.5965 10.4333 26.5937 10.4333 26.591 10.4333C26.5882 10.4333 26.5854 10.4333 26.5826 10.4333C26.5799 10.4333 26.5771 10.4333 26.5743 10.4333C26.5715 10.4333 26.5687 10.4333 26.5659 10.4333C26.5631 10.4333 26.5603 10.4333 26.5574 10.4333C26.5546 10.4333 26.5518 10.4333 26.549 10.4333C26.5461 10.4333 26.5433 10.4333 26.5404 10.4333C26.5376 10.4333 26.5347 10.4333 26.5319 10.4333C26.529 10.4333 26.5262 10.4333 26.5233 10.4333C26.5204 10.4333 26.5176 10.4333 26.5147 10.4333C26.5118 10.4333 26.5089 10.4333 26.506 10.4333C26.5031 10.4333 26.5002 10.4333 26.4973 10.4333C26.4944 10.4333 26.4915 10.4333 26.4886 10.4333C26.4857 10.4333 26.4828 10.4333 26.4798 10.4333C26.4769 10.4333 26.474 10.4333 26.471 10.4333C26.4681 10.4333 26.4651 10.4333 26.4622 10.4333C26.4592 10.4333 26.4563 10.4333 26.4533 10.4333C26.4503 10.4333 26.4474 10.4333 26.4444 10.4333C26.4414 10.4333 26.4384 10.4333 26.4355 10.4333C26.4325 10.4333 26.4295 10.4333 26.4265 10.4333C26.4235 10.4333 26.4205 10.4333 26.4175 10.4333C26.4144 10.4333 26.4114 10.4333 26.4084 10.4333C26.4054 10.4333 26.4024 10.4333 26.3993 10.4333C26.3963 10.4333 26.3932 10.4333 26.3902 10.4333C26.3872 10.4333 26.3841 10.4333 26.3811 10.4333C26.378 10.4333 26.3749 10.4333 26.3719 10.4333C26.3688 10.4333 26.3657 10.4333 26.3626 10.4333C26.3596 10.4333 26.3565 10.4333 26.3534 10.4333C26.3503 10.4333 26.3472 10.4333 26.3441 10.4333C26.341 10.4333 26.3379 10.4333 26.3348 10.4333C26.3317 10.4333 26.3285 10.4333 26.3254 10.4333C26.3223 10.4333 26.3192 10.4333 26.316 10.4333C26.3129 10.4333 26.3098 10.4333 26.3066 10.4333C26.3035 10.4333 26.3003 10.4333 26.2972 10.4333C26.294 10.4333 26.2908 10.4333 26.2877 10.4333C26.2845 10.4333 26.2813 10.4333 26.2782 10.4333C26.275 10.4333 26.2718 10.4333 26.2686 10.4333C26.2654 10.4333 26.2622 10.4333 26.259 10.4333C26.2558 10.4333 26.2526 10.4333 26.2494 10.4333C26.2462 10.4333 26.243 10.4333 26.2398 10.4333C26.2365 10.4333 26.2333 10.4333 26.2301 10.4333C26.2268 10.4333 26.2236 10.4333 26.2204 10.4333C26.2171 10.4333 26.2139 10.4333 26.2106 10.4333C26.2074 10.4333 26.2041 10.4333 26.2008 10.4333C26.1976 10.4333 26.1943 10.4333 26.191 10.4333C26.1878 10.4333 26.1845 10.4333 26.1812 10.4333C26.1779 10.4333 26.1746 10.4333 26.1713 10.4333C26.168 10.4333 26.1647 10.4333 26.1614 10.4333C26.1581 10.4333 26.1548 10.4333 26.1515 10.4333C26.1482 10.4333 26.1449 10.4333 26.1416 10.4333C26.1382 10.4333 26.1349 10.4333 26.1316 10.4333C26.1282 10.4333 26.1249 10.4333 26.1215 10.4333C26.1182 10.4333 26.1149 10.4333 26.1115 10.4333C26.1081 10.4333 26.1048 10.4333 26.1014 10.4333C26.0981 10.4333 26.0947 10.4333 26.0913 10.4333C26.0879 10.4333 26.0846 10.4333 26.0812 10.4333C26.0778 10.4333 26.0744 10.4333 26.071 10.4333C26.0676 10.4333 26.0642 10.4333 26.0608 10.4333C26.0574 10.4333 26.054 10.4333 26.0506 10.4333C26.0472 10.4333 26.0437 10.4333 26.0403 10.4333C26.0369 10.4333 26.0335 10.4333 26.03 10.4333C26.0266 10.4333 26.0232 10.4333 26.0197 10.4333C26.0163 10.4333 26.0128 10.4333 26.0094 10.4333C26.0059 10.4333 26.0025 10.4333 25.999 10.4333C25.9956 10.4333 25.9921 10.4333 25.9886 10.4333C25.9852 10.4333 25.9817 10.4333 25.9782 10.4333C25.9747 10.4333 25.9712 10.4333 25.9677 10.4333C25.9643 10.4333 25.9608 10.4333 25.9573 10.4333C25.9538 10.4333 25.9503 10.4333 25.9468 10.4333C25.9433 10.4333 25.9397 10.4333 25.9362 10.4333C25.9327 10.4333 25.9292 10.4333 25.9257 10.4333C25.9221 10.4333 25.9186 10.4333 25.9151 10.4333C25.9115 10.4333 25.908 10.4333 25.9045 10.4333C25.9009 10.4333 25.8974 10.4333 25.8938 10.4333C25.8903 10.4333 25.8867 10.4333 25.8831 10.4333C25.8796 10.4333 25.876 10.4333 25.8724 10.4333C25.8689 10.4333 25.8653 10.4333 25.8617 10.4333C25.8581 10.4333 25.8546 10.4333 25.851 10.4333C25.8474 10.4333 25.8438 10.4333 25.8402 10.4333C25.8366 10.4333 25.833 10.4333 25.8294 10.4333C25.8258 10.4333 25.8222 10.4333 25.8186 10.4333C25.815 10.4333 25.8113 10.4333 25.8077 10.4333C25.8041 10.4333 25.8005 10.4333 25.7969 10.4333C25.7932 10.4333 25.7896 10.4333 25.7859 10.4333C25.7823 10.4333 25.7787 10.4333 25.775 10.4333C25.7714 10.4333 25.7677 10.4333 25.7641 10.4333C25.7604 10.4333 25.7568 10.4333 25.7531 10.4333C25.7494 10.4333 25.7458 10.4333 25.7421 10.4333C25.7384 10.4333 25.7347 10.4333 25.7311 10.4333C25.7274 10.4333 25.7237 10.4333 25.72 10.4333C25.7163 10.4333 25.7126 10.4333 25.7089 10.4333C25.7052 10.4333 25.7015 10.4333 25.6978 10.4333C25.6941 10.4333 25.6904 10.4333 25.6867 10.4333C25.683 10.4333 25.6793 10.4333 25.6756 10.4333C25.6719 10.4333 25.6681 10.4333 25.6644 10.4333C25.6607 10.4333 25.657 10.4333 25.6532 10.4333C25.6495 10.4333 25.6457 10.4333 25.642 10.4333C25.6383 10.4333 25.6345 10.4333 25.6308 10.4333C25.627 10.4333 25.6233 10.4333 25.6195 10.4333C25.6157 10.4333 25.612 10.4333 25.6082 10.4333C25.6045 10.4333 25.6007 10.4333 25.5969 10.4333C25.5931 10.4333 25.5894 10.4333 25.5856 10.4333C25.5818 10.4333 25.578 10.4333 25.5742 10.4333C25.5704 10.4333 25.5666 10.4333 25.5629 10.4333C25.5591 10.4333 25.5553 10.4333 25.5515 10.4333C25.5477 10.4333 25.5438 10.4333 25.54 10.4333C25.5362 10.4333 25.5324 10.4333 25.5286 10.4333C25.5248 10.4333 25.521 10.4333 25.5171 10.4333C25.5133 10.4333 25.5095 10.4333 25.5057 10.4333C25.5018 10.4333 25.498 10.4333 25.4942 10.4333C25.4903 10.4333 25.4865 10.4333 25.4826 10.4333C25.4788 10.4333 25.4749 10.4333 25.4711 10.4333C25.4672 10.4333 25.4634 10.4333 25.4595 10.4333C25.4557 10.4333 25.4518 10.4333 25.4479 10.4333C25.4441 10.4333 25.4402 10.4333 25.4363 10.4333C25.4324 10.4333 25.4286 10.4333 25.4247 10.4333C25.4208 10.4333 25.4169 10.4333 25.413 10.4333C25.4092 10.4333 25.4053 10.4333 25.4014 10.4333C25.3975 10.4333 25.3936 10.4333 25.3897 10.4333C25.3858 10.4333 25.3819 10.4333 25.378 10.4333C25.3741 10.4333 25.3702 10.4333 25.3663 10.4333C25.3623 10.4333 25.3584 10.4333 25.3545 10.4333C25.3506 10.4333 25.3467 10.4333 25.3427 10.4333C25.3388 10.4333 25.3349 10.4333 25.331 10.4333C25.327 10.4333 25.3231 10.4333 25.3192 10.4333C25.3152 10.4333 25.3113 10.4333 25.3073 10.4333C25.3034 10.4333 25.2994 10.4333 25.2955 10.4333C25.2915 10.4333 25.2876 10.4333 25.2836 10.4333C25.2797 10.4333 25.2757 10.4333 25.2718 10.4333C25.2678 10.4333 25.2638 10.4333 25.2599 10.4333C25.2559 10.4333 25.2519 10.4333 25.2479 10.4333C25.244 10.4333 25.24 10.4333 25.236 10.4333C25.232 10.4333 25.228 10.4333 25.2241 10.4333C25.2201 10.4333 25.2161 10.4333 25.2121 10.4333C25.2081 10.4333 25.2041 10.4333 25.2001 10.4333C25.1961 10.4333 25.1921 10.4333 25.1881 10.4333C25.1841 10.4333 25.1801 10.4333 25.1761 10.4333C25.1721 10.4333 25.1681 10.4333 25.164 10.4333C25.16 10.4333 25.156 10.4333 25.152 10.4333C25.148 10.4333 25.144 10.4333 25.1399 10.4333C25.1359 10.4333 25.1319 10.4333 25.1278 10.4333C25.1238 10.4333 25.1198 10.4333 25.1157 10.4333C25.1117 10.4333 25.1077 10.4333 25.1036 10.4333C25.0996 10.4333 25.0955 10.4333 25.0915 10.4333C25.0874 10.4333 25.0834 10.4333 25.0793 10.4333C25.0753 10.4333 25.0712 10.4333 25.0672 10.4333C25.0631 10.4333 25.059 10.4333 25.055 10.4333C25.0509 10.4333 25.0469 10.4333 25.0428 10.4333C25.0387 10.4333 25.0346 10.4333 25.0306 10.4333C25.0265 10.4333 25.0224 10.4333 25.0183 10.4333C25.0143 10.4333 25.0102 10.4333 25.0061 10.4333C25.002 10.4333 24.9979 10.4333 24.9938 10.4333C24.9898 10.4333 24.9857 10.4333 24.9816 10.4333C24.9775 10.4333 24.9734 10.4333 24.9693 10.4333C24.9652 10.4333 24.9611 10.4333 24.957 10.4333C24.9529 10.4333 24.9488 10.4333 24.9447 10.4333C24.9406 10.4333 24.9365 10.4333 24.9323 10.4333C24.9282 10.4333 24.9241 10.4333 24.92 10.4333C24.9159 10.4333 24.9118 10.4333 24.9076 10.4333C24.9035 10.4333 24.8994 10.4333 24.8953 10.4333C24.8911 10.4333 24.887 10.4333 24.8829 10.4333C24.8788 10.4333 24.8746 10.4333 24.8705 10.4333C24.8664 10.4333 24.8622 10.4333 24.8581 10.4333C24.8539 10.4333 24.8498 10.4333 24.8457 10.4333C24.8415 10.4333 24.8374 10.4333 24.8332 10.4333C24.8291 10.4333 24.8249 10.4333 24.8208 10.4333C24.8166 10.4333 24.8125 10.4333 24.8083 10.4333C24.8042 10.4333 24.8 10.4333 24.7958 10.4333C24.7917 10.4333 24.7875 10.4333 24.7833 10.4333C24.7792 10.4333 24.775 10.4333 24.7708 10.4333C24.7667 10.4333 24.7625 10.4333 24.7583 10.4333C24.7542 10.4333 24.75 10.4333 24.7458 10.4333C24.7416 10.4333 24.7375 10.4333 24.7333 10.4333C24.7291 10.4333 24.7249 10.4333 24.7207 10.4333C24.7166 10.4333 24.7124 10.4333 24.7082 10.4333C24.704 10.4333 24.6998 10.4333 24.6956 10.4333C24.6914 10.4333 24.6872 10.4333 24.683 10.4333C24.6788 10.4333 24.6746 10.4333 24.6704 10.4333C24.6662 10.4333 24.662 10.4333 24.6578 10.4333C24.6536 10.4333 24.6494 10.4333 24.6452 10.4333C24.641 10.4333 24.6368 10.4333 24.6326 10.4333C24.6284 10.4333 24.6242 10.4333 24.62 10.4333C24.6158 10.4333 24.6116 10.4333 24.6073 10.4333C24.6031 10.4333 24.5989 10.4333 24.5947 10.4333C24.5905 10.4333 24.5863 10.4333 24.582 10.4333C24.5778 10.4333 24.5736 10.4333 24.5694 10.4333C24.5651 10.4333 24.5609 10.4333 24.5567 10.4333C24.5525 10.4333 24.5482 10.4333 24.544 10.4333C24.5398 10.4333 24.5355 10.4333 24.5313 10.4333C24.5271 10.4333 24.5228 10.4333 24.5186 10.4333C24.5143 10.4333 24.5101 10.4333 24.5059 10.4333C24.5016 10.4333 24.4974 10.4333 24.4931 10.4333C24.4889 10.4333 24.4847 10.4333 24.4804 10.4333C24.4762 10.4333 24.4719 10.4333 24.4677 10.4333C24.4634 10.4333 24.4592 10.4333 24.4549 10.4333C24.4507 10.4333 24.4464 10.4333 24.4422 10.4333C24.4379 10.4333 24.4337 10.4333 24.4294 10.4333C24.4251 10.4333 24.4209 10.4333 24.4166 10.4333C24.4124 10.4333 24.4081 10.4333 24.4038 10.4333C24.3996 10.4333 24.3953 10.4333 24.391 10.4333C24.3868 10.4333 24.3825 10.4333 24.3783 10.4333C24.374 10.4333 24.3697 10.4333 24.3654 10.4333C24.3612 10.4333 24.3569 10.4333 24.3526 10.4333C24.3484 10.4333 24.3441 10.4333 24.3398 10.4333C24.3355 10.4333 24.3313 10.4333 24.327 10.4333C24.3227 10.4333 24.3184 10.4333 24.3142 10.4333C24.3099 10.4333 24.3056 10.4333 24.3013 10.4333C24.297 10.4333 24.2928 10.4333 24.2885 10.4333C24.2842 10.4333 24.2799 10.4333 24.2756 10.4333C24.2714 10.4333 24.2671 10.4333 24.2628 10.4333C24.2585 10.4333 24.2542 10.4333 24.2499 10.4333C24.2456 10.4333 24.2413 10.4333 24.2371 10.4333C24.2328 10.4333 24.2285 10.4333 24.2242 10.4333C24.2199 10.4333 24.2156 10.4333 24.2113 10.4333C24.207 10.4333 24.2027 10.4333 24.1984 10.4333C24.1941 10.4333 24.1898 10.4333 24.1855 10.4333C24.1812 10.4333 24.1769 10.4333 24.1726 10.4333C24.1683 10.4333 24.164 10.4333 24.1597 10.4333C24.1554 10.4333 24.1511 10.4333 24.1468 10.4333C24.1425 10.4333 24.1382 10.4333 24.1339 10.4333C24.1296 10.4333 24.1253 10.4333 24.121 10.4333C24.1167 10.4333 24.1124 10.4333 24.1081 10.4333C24.1038 10.4333 24.0995 10.4333 24.0952 10.4333C24.0909 10.4333 24.0866 10.4333 24.0823 10.4333C24.078 10.4333 24.0736 10.4333 24.0693 10.4333C24.065 10.4333 24.0607 10.4333 24.0564 10.4333C24.0521 10.4333 24.0478 10.4333 24.0435 10.4333C24.0392 10.4333 24.0348 10.4333 24.0305 10.4333C24.0262 10.4333 24.0219 10.4333 24.0176 10.4333C24.0133 10.4333 24.009 10.4333 24.0047 10.4333C24.0003 10.4333 23.996 10.4333 23.9917 10.4333C23.9874 10.4333 23.9831 10.4333 23.9788 10.4333C23.9744 10.4333 23.9701 10.4333 23.9658 10.4333C23.9615 10.4333 23.9572 10.4333 23.9529 10.4333C23.9485 10.4333 23.9442 10.4333 23.9399 10.4333C23.9356 10.4333 23.9313 10.4333 23.9269 10.4333C23.9226 10.4333 23.9183 10.4333 23.914 10.4333C23.9097 10.4333 23.9053 10.4333 23.901 10.4333C23.8967 10.4333 23.8924 10.4333 23.8881 10.4333C23.8837 10.4333 23.8794 10.4333 23.8751 10.4333C23.8708 10.4333 23.8665 10.4333 23.8621 10.4333C23.8578 10.4333 23.8535 10.4333 23.8492 10.4333C23.8448 10.4333 23.8405 10.4333 23.8362 10.4333C23.8319 10.4333 23.8276 10.4333 23.8232 10.4333C23.8189 10.4333 23.8146 10.4333 23.8103 10.4333C23.8059 10.4333 23.8016 10.4333 23.7973 10.4333C23.793 10.4333 23.7887 10.4333 23.7843 10.4333C23.78 10.4333 23.7757 10.4333 23.7714 10.4333C23.767 10.4333 23.7627 10.4333 23.7584 10.4333C23.7541 10.4333 23.7497 10.4333 23.7454 10.4333C23.7411 10.4333 23.7368 10.4333 23.7325 10.4333C23.7281 10.4333 23.7238 10.4333 23.7195 10.4333C23.7152 10.4333 23.7108 10.4333 23.7065 10.4333C23.7022 10.4333 23.6979 10.4333 23.6936 10.4333C23.6892 10.4333 23.6849 10.4333 23.6806 10.4333C23.6763 10.4333 23.6719 10.4333 23.6676 10.4333C23.6633 10.4333 23.659 10.4333 23.6547 10.4333C23.6503 10.4333 23.646 10.4333 23.6417 10.4333C23.6374 10.4333 23.6331 10.4333 23.6287 10.4333C23.6244 10.4333 23.6201 10.4333 23.6158 10.4333C23.6115 10.4333 23.6071 10.4333 23.6028 10.4333C23.5985 10.4333 23.5942 10.4333 23.5899 10.4333C23.5856 10.4333 23.5812 10.4333 23.5769 10.4333C23.5726 10.4333 23.5683 10.4333 23.564 10.4333C23.5597 10.4333 23.5553 10.4333 23.551 10.4333C23.5467 10.4333 23.5424 10.4333 23.5381 10.4333C23.5338 10.4333 23.5294 10.4333 23.5251 10.4333C23.5208 10.4333 23.5165 10.4333 23.5122 10.4333C23.5079 10.4333 23.5036 10.4333 23.4993 10.4333C23.4949 10.4333 23.4906 10.4333 23.4863 10.4333C23.482 10.4333 23.4777 10.4333 23.4734 10.4333C23.4691 10.4333 23.4648 10.4333 23.4605 10.4333C23.4562 10.4333 23.4519 10.4333 23.4475 10.4333C23.4432 10.4333 23.4389 10.4333 23.4346 10.4333C23.4303 10.4333 23.426 10.4333 23.4217 10.4333C23.4174 10.4333 23.4131 10.4333 23.4088 10.4333C23.4045 10.4333 23.4002 10.4333 23.3959 10.4333C23.3916 10.4333 23.3873 10.4333 23.383 10.4333C23.3787 10.4333 23.3744 10.4333 23.3701 10.4333C23.3658 10.4333 23.3615 10.4333 23.3572 10.4333C23.3529 10.4333 23.3486 10.4333 23.3443 10.4333C23.34 10.4333 23.3357 10.4333 23.3314 10.4333C23.3271 10.4333 23.3228 10.4333 23.3186 10.4333C23.3143 10.4333 23.31 10.4333 23.3057 10.4333C23.3014 10.4333 23.2971 10.4333 23.2928 10.4333C23.2885 10.4333 23.2842 10.4333 23.28 10.4333C23.2757 10.4333 23.2714 10.4333 23.2671 10.4333C23.2628 10.4333 23.2585 10.4333 23.2543 10.4333C23.25 10.4333 23.2457 10.4333 23.2414 10.4333C23.2371 10.4333 23.2328 10.4333 23.2286 10.4333C23.2243 10.4333 23.22 10.4333 23.2157 10.4333C23.2115 10.4333 23.2072 10.4333 23.2029 10.4333C23.1986 10.4333 23.1944 10.4333 23.1901 10.4333C23.1858 10.4333 23.1816 10.4333 23.1773 10.4333C23.173 10.4333 23.1688 10.4333 23.1645 10.4333C23.1602 10.4333 23.156 10.4333 23.1517 10.4333C23.1474 10.4333 23.1432 10.4333 23.1389 10.4333C23.1346 10.4333 23.1304 10.4333 23.1261 10.4333C23.1219 10.4333 23.1176 10.4333 23.1133 10.4333C23.1091 10.4333 23.1048 10.4333 23.1006 10.4333C23.0963 10.4333 23.0921 10.4333 23.0878 10.4333C23.0836 10.4333 23.0793 10.4333 23.0751 10.4333C23.0708 10.4333 23.0666 10.4333 23.0623 10.4333C23.0581 10.4333 23.0538 10.4333 23.0496 10.4333C23.0454 10.4333 23.0411 10.4333 23.0369 10.4333C23.0326 10.4333 23.0284 10.4333 23.0242 10.4333C23.0199 10.4333 23.0157 10.4333 23.0115 10.4333C23.0072 10.4333 23.003 10.4333 22.9988 10.4333C22.9945 10.4333 22.9903 10.4333 22.9861 10.4333C22.9818 10.4333 22.9776 10.4333 22.9734 10.4333C22.9692 10.4333 22.9649 10.4333 22.9607 10.4333C22.9565 10.4333 22.9523 10.4333 22.9481 10.4333C22.9438 10.4333 22.9396 10.4333 22.9354 10.4333C22.9312 10.4333 22.927 10.4333 22.9228 10.4333C22.9186 10.4333 22.9143 10.4333 22.9101 10.4333C22.9059 10.4333 22.9017 10.4333 22.8975 10.4333C22.8933 10.4333 22.8891 10.4333 22.8849 10.4333C22.8807 10.4333 22.8765 10.4333 22.8723 10.4333C22.8681 10.4333 22.8639 10.4333 22.8597 10.4333C22.8555 10.4333 22.8513 10.4333 22.8471 10.4333C22.843 10.4333 22.8388 10.4333 22.8346 10.4333C22.8304 10.4333 22.8262 10.4333 22.822 10.4333C22.8178 10.4333 22.8137 10.4333 22.8095 10.4333C22.8053 10.4333 22.8011 10.4333 22.7969 10.4333C22.7928 10.4333 22.7886 10.4333 22.7844 10.4333C22.7803 10.4333 22.7761 10.4333 22.7719 10.4333C22.7677 10.4333 22.7636 10.4333 22.7594 10.4333C22.7553 10.4333 22.7511 10.4333 22.7469 10.4333C22.7428 10.4333 22.7386 10.4333 22.7345 10.4333C22.7303 10.4333 22.7261 10.4333 22.722 10.4333C22.7178 10.4333 22.7137 10.4333 22.7096 10.4333C22.7054 10.4333 22.7013 10.4333 22.6971 10.4333C22.693 10.4333 22.6888 10.4333 22.6847 10.4333C22.6806 10.4333 22.6764 10.4333 22.6723 10.4333C22.6681 10.4333 22.664 10.4333 22.6599 10.4333C22.6558 10.4333 22.6516 10.4333 22.6475 10.4333C22.6434 10.4333 22.6393 10.4333 22.6351 10.4333C22.631 10.4333 22.6269 10.4333 22.6228 10.4333C22.6187 10.4333 22.6145 10.4333 22.6104 10.4333C22.6063 10.4333 22.6022 10.4333 22.5981 10.4333C22.594 10.4333 22.5899 10.4333 22.5858 10.4333C22.5817 10.4333 22.5776 10.4333 22.5735 10.4333C22.5694 10.4333 22.5653 10.4333 22.5612 10.4333C22.5571 10.4333 22.553 10.4333 22.5489 10.4333C22.5448 10.4333 22.5408 10.4333 22.5367 10.4333C22.5326 10.4333 22.5285 10.4333 22.5244 10.4333C22.5204 10.4333 22.5163 10.4333 22.5122 10.4333C22.5081 10.4333 22.5041 10.4333 22.5 10.4333V12.4333C22.5041 12.4333 22.5081 12.4333 22.5122 12.4333C22.5163 12.4333 22.5204 12.4333 22.5244 12.4333C22.5285 12.4333 22.5326 12.4333 22.5367 12.4333C22.5408 12.4333 22.5448 12.4333 22.5489 12.4333C22.553 12.4333 22.5571 12.4333 22.5612 12.4333C22.5653 12.4333 22.5694 12.4333 22.5735 12.4333C22.5776 12.4333 22.5817 12.4333 22.5858 12.4333C22.5899 12.4333 22.594 12.4333 22.5981 12.4333C22.6022 12.4333 22.6063 12.4333 22.6104 12.4333C22.6145 12.4333 22.6187 12.4333 22.6228 12.4333C22.6269 12.4333 22.631 12.4333 22.6351 12.4333C22.6393 12.4333 22.6434 12.4333 22.6475 12.4333C22.6516 12.4333 22.6558 12.4333 22.6599 12.4333C22.664 12.4333 22.6681 12.4333 22.6723 12.4333C22.6764 12.4333 22.6806 12.4333 22.6847 12.4333C22.6888 12.4333 22.693 12.4333 22.6971 12.4333C22.7013 12.4333 22.7054 12.4333 22.7096 12.4333C22.7137 12.4333 22.7178 12.4333 22.722 12.4333C22.7261 12.4333 22.7303 12.4333 22.7345 12.4333C22.7386 12.4333 22.7428 12.4333 22.7469 12.4333C22.7511 12.4333 22.7553 12.4333 22.7594 12.4333C22.7636 12.4333 22.7677 12.4333 22.7719 12.4333C22.7761 12.4333 22.7803 12.4333 22.7844 12.4333C22.7886 12.4333 22.7928 12.4333 22.7969 12.4333C22.8011 12.4333 22.8053 12.4333 22.8095 12.4333C22.8137 12.4333 22.8178 12.4333 22.822 12.4333C22.8262 12.4333 22.8304 12.4333 22.8346 12.4333C22.8388 12.4333 22.843 12.4333 22.8471 12.4333C22.8513 12.4333 22.8555 12.4333 22.8597 12.4333C22.8639 12.4333 22.8681 12.4333 22.8723 12.4333C22.8765 12.4333 22.8807 12.4333 22.8849 12.4333C22.8891 12.4333 22.8933 12.4333 22.8975 12.4333C22.9017 12.4333 22.9059 12.4333 22.9101 12.4333C22.9143 12.4333 22.9186 12.4333 22.9228 12.4333C22.927 12.4333 22.9312 12.4333 22.9354 12.4333C22.9396 12.4333 22.9438 12.4333 22.9481 12.4333C22.9523 12.4333 22.9565 12.4333 22.9607 12.4333C22.9649 12.4333 22.9692 12.4333 22.9734 12.4333C22.9776 12.4333 22.9818 12.4333 22.9861 12.4333C22.9903 12.4333 22.9945 12.4333 22.9988 12.4333C23.003 12.4333 23.0072 12.4333 23.0115 12.4333C23.0157 12.4333 23.0199 12.4333 23.0242 12.4333C23.0284 12.4333 23.0326 12.4333 23.0369 12.4333C23.0411 12.4333 23.0454 12.4333 23.0496 12.4333C23.0538 12.4333 23.0581 12.4333 23.0623 12.4333C23.0666 12.4333 23.0708 12.4333 23.0751 12.4333C23.0793 12.4333 23.0836 12.4333 23.0878 12.4333C23.0921 12.4333 23.0963 12.4333 23.1006 12.4333C23.1048 12.4333 23.1091 12.4333 23.1133 12.4333C23.1176 12.4333 23.1219 12.4333 23.1261 12.4333C23.1304 12.4333 23.1346 12.4333 23.1389 12.4333C23.1432 12.4333 23.1474 12.4333 23.1517 12.4333C23.156 12.4333 23.1602 12.4333 23.1645 12.4333C23.1688 12.4333 23.173 12.4333 23.1773 12.4333C23.1816 12.4333 23.1858 12.4333 23.1901 12.4333C23.1944 12.4333 23.1986 12.4333 23.2029 12.4333C23.2072 12.4333 23.2115 12.4333 23.2157 12.4333C23.22 12.4333 23.2243 12.4333 23.2286 12.4333C23.2328 12.4333 23.2371 12.4333 23.2414 12.4333C23.2457 12.4333 23.25 12.4333 23.2543 12.4333C23.2585 12.4333 23.2628 12.4333 23.2671 12.4333C23.2714 12.4333 23.2757 12.4333 23.28 12.4333C23.2842 12.4333 23.2885 12.4333 23.2928 12.4333C23.2971 12.4333 23.3014 12.4333 23.3057 12.4333C23.31 12.4333 23.3143 12.4333 23.3186 12.4333C23.3228 12.4333 23.3271 12.4333 23.3314 12.4333C23.3357 12.4333 23.34 12.4333 23.3443 12.4333C23.3486 12.4333 23.3529 12.4333 23.3572 12.4333C23.3615 12.4333 23.3658 12.4333 23.3701 12.4333C23.3744 12.4333 23.3787 12.4333 23.383 12.4333C23.3873 12.4333 23.3916 12.4333 23.3959 12.4333C23.4002 12.4333 23.4045 12.4333 23.4088 12.4333C23.4131 12.4333 23.4174 12.4333 23.4217 12.4333C23.426 12.4333 23.4303 12.4333 23.4346 12.4333C23.4389 12.4333 23.4432 12.4333 23.4475 12.4333C23.4519 12.4333 23.4562 12.4333 23.4605 12.4333C23.4648 12.4333 23.4691 12.4333 23.4734 12.4333C23.4777 12.4333 23.482 12.4333 23.4863 12.4333C23.4906 12.4333 23.4949 12.4333 23.4993 12.4333C23.5036 12.4333 23.5079 12.4333 23.5122 12.4333C23.5165 12.4333 23.5208 12.4333 23.5251 12.4333C23.5294 12.4333 23.5338 12.4333 23.5381 12.4333C23.5424 12.4333 23.5467 12.4333 23.551 12.4333C23.5553 12.4333 23.5597 12.4333 23.564 12.4333C23.5683 12.4333 23.5726 12.4333 23.5769 12.4333C23.5812 12.4333 23.5856 12.4333 23.5899 12.4333C23.5942 12.4333 23.5985 12.4333 23.6028 12.4333C23.6071 12.4333 23.6115 12.4333 23.6158 12.4333C23.6201 12.4333 23.6244 12.4333 23.6287 12.4333C23.6331 12.4333 23.6374 12.4333 23.6417 12.4333C23.646 12.4333 23.6503 12.4333 23.6547 12.4333C23.659 12.4333 23.6633 12.4333 23.6676 12.4333C23.6719 12.4333 23.6763 12.4333 23.6806 12.4333C23.6849 12.4333 23.6892 12.4333 23.6936 12.4333C23.6979 12.4333 23.7022 12.4333 23.7065 12.4333C23.7108 12.4333 23.7152 12.4333 23.7195 12.4333C23.7238 12.4333 23.7281 12.4333 23.7325 12.4333C23.7368 12.4333 23.7411 12.4333 23.7454 12.4333C23.7497 12.4333 23.7541 12.4333 23.7584 12.4333C23.7627 12.4333 23.767 12.4333 23.7714 12.4333C23.7757 12.4333 23.78 12.4333 23.7843 12.4333C23.7887 12.4333 23.793 12.4333 23.7973 12.4333C23.8016 12.4333 23.8059 12.4333 23.8103 12.4333C23.8146 12.4333 23.8189 12.4333 23.8232 12.4333C23.8276 12.4333 23.8319 12.4333 23.8362 12.4333C23.8405 12.4333 23.8448 12.4333 23.8492 12.4333C23.8535 12.4333 23.8578 12.4333 23.8621 12.4333C23.8665 12.4333 23.8708 12.4333 23.8751 12.4333C23.8794 12.4333 23.8837 12.4333 23.8881 12.4333C23.8924 12.4333 23.8967 12.4333 23.901 12.4333C23.9053 12.4333 23.9097 12.4333 23.914 12.4333C23.9183 12.4333 23.9226 12.4333 23.9269 12.4333C23.9313 12.4333 23.9356 12.4333 23.9399 12.4333C23.9442 12.4333 23.9485 12.4333 23.9529 12.4333C23.9572 12.4333 23.9615 12.4333 23.9658 12.4333C23.9701 12.4333 23.9744 12.4333 23.9788 12.4333C23.9831 12.4333 23.9874 12.4333 23.9917 12.4333C23.996 12.4333 24.0003 12.4333 24.0047 12.4333C24.009 12.4333 24.0133 12.4333 24.0176 12.4333C24.0219 12.4333 24.0262 12.4333 24.0305 12.4333C24.0348 12.4333 24.0392 12.4333 24.0435 12.4333C24.0478 12.4333 24.0521 12.4333 24.0564 12.4333C24.0607 12.4333 24.065 12.4333 24.0693 12.4333C24.0736 12.4333 24.078 12.4333 24.0823 12.4333C24.0866 12.4333 24.0909 12.4333 24.0952 12.4333C24.0995 12.4333 24.1038 12.4333 24.1081 12.4333C24.1124 12.4333 24.1167 12.4333 24.121 12.4333C24.1253 12.4333 24.1296 12.4333 24.1339 12.4333C24.1382 12.4333 24.1425 12.4333 24.1468 12.4333C24.1511 12.4333 24.1554 12.4333 24.1597 12.4333C24.164 12.4333 24.1683 12.4333 24.1726 12.4333C24.1769 12.4333 24.1812 12.4333 24.1855 12.4333C24.1898 12.4333 24.1941 12.4333 24.1984 12.4333C24.2027 12.4333 24.207 12.4333 24.2113 12.4333C24.2156 12.4333 24.2199 12.4333 24.2242 12.4333C24.2285 12.4333 24.2328 12.4333 24.2371 12.4333C24.2413 12.4333 24.2456 12.4333 24.2499 12.4333C24.2542 12.4333 24.2585 12.4333 24.2628 12.4333C24.2671 12.4333 24.2714 12.4333 24.2756 12.4333C24.2799 12.4333 24.2842 12.4333 24.2885 12.4333C24.2928 12.4333 24.297 12.4333 24.3013 12.4333C24.3056 12.4333 24.3099 12.4333 24.3142 12.4333C24.3184 12.4333 24.3227 12.4333 24.327 12.4333C24.3313 12.4333 24.3355 12.4333 24.3398 12.4333C24.3441 12.4333 24.3484 12.4333 24.3526 12.4333C24.3569 12.4333 24.3612 12.4333 24.3654 12.4333C24.3697 12.4333 24.374 12.4333 24.3783 12.4333C24.3825 12.4333 24.3868 12.4333 24.391 12.4333C24.3953 12.4333 24.3996 12.4333 24.4038 12.4333C24.4081 12.4333 24.4124 12.4333 24.4166 12.4333C24.4209 12.4333 24.4251 12.4333 24.4294 12.4333C24.4337 12.4333 24.4379 12.4333 24.4422 12.4333C24.4464 12.4333 24.4507 12.4333 24.4549 12.4333C24.4592 12.4333 24.4634 12.4333 24.4677 12.4333C24.4719 12.4333 24.4762 12.4333 24.4804 12.4333C24.4847 12.4333 24.4889 12.4333 24.4931 12.4333C24.4974 12.4333 24.5016 12.4333 24.5059 12.4333C24.5101 12.4333 24.5143 12.4333 24.5186 12.4333C24.5228 12.4333 24.5271 12.4333 24.5313 12.4333C24.5355 12.4333 24.5398 12.4333 24.544 12.4333C24.5482 12.4333 24.5525 12.4333 24.5567 12.4333C24.5609 12.4333 24.5651 12.4333 24.5694 12.4333C24.5736 12.4333 24.5778 12.4333 24.582 12.4333C24.5863 12.4333 24.5905 12.4333 24.5947 12.4333C24.5989 12.4333 24.6031 12.4333 24.6073 12.4333C24.6116 12.4333 24.6158 12.4333 24.62 12.4333C24.6242 12.4333 24.6284 12.4333 24.6326 12.4333C24.6368 12.4333 24.641 12.4333 24.6452 12.4333C24.6494 12.4333 24.6536 12.4333 24.6578 12.4333C24.662 12.4333 24.6662 12.4333 24.6704 12.4333C24.6746 12.4333 24.6788 12.4333 24.683 12.4333C24.6872 12.4333 24.6914 12.4333 24.6956 12.4333C24.6998 12.4333 24.704 12.4333 24.7082 12.4333C24.7124 12.4333 24.7166 12.4333 24.7207 12.4333C24.7249 12.4333 24.7291 12.4333 24.7333 12.4333C24.7375 12.4333 24.7416 12.4333 24.7458 12.4333C24.75 12.4333 24.7542 12.4333 24.7583 12.4333C24.7625 12.4333 24.7667 12.4333 24.7708 12.4333C24.775 12.4333 24.7792 12.4333 24.7833 12.4333C24.7875 12.4333 24.7917 12.4333 24.7958 12.4333C24.8 12.4333 24.8042 12.4333 24.8083 12.4333C24.8125 12.4333 24.8166 12.4333 24.8208 12.4333C24.8249 12.4333 24.8291 12.4333 24.8332 12.4333C24.8374 12.4333 24.8415 12.4333 24.8457 12.4333C24.8498 12.4333 24.8539 12.4333 24.8581 12.4333C24.8622 12.4333 24.8664 12.4333 24.8705 12.4333C24.8746 12.4333 24.8788 12.4333 24.8829 12.4333C24.887 12.4333 24.8911 12.4333 24.8953 12.4333C24.8994 12.4333 24.9035 12.4333 24.9076 12.4333C24.9118 12.4333 24.9159 12.4333 24.92 12.4333C24.9241 12.4333 24.9282 12.4333 24.9323 12.4333C24.9365 12.4333 24.9406 12.4333 24.9447 12.4333C24.9488 12.4333 24.9529 12.4333 24.957 12.4333C24.9611 12.4333 24.9652 12.4333 24.9693 12.4333C24.9734 12.4333 24.9775 12.4333 24.9816 12.4333C24.9857 12.4333 24.9898 12.4333 24.9938 12.4333C24.9979 12.4333 25.002 12.4333 25.0061 12.4333C25.0102 12.4333 25.0143 12.4333 25.0183 12.4333C25.0224 12.4333 25.0265 12.4333 25.0306 12.4333C25.0346 12.4333 25.0387 12.4333 25.0428 12.4333C25.0469 12.4333 25.0509 12.4333 25.055 12.4333C25.059 12.4333 25.0631 12.4333 25.0672 12.4333C25.0712 12.4333 25.0753 12.4333 25.0793 12.4333C25.0834 12.4333 25.0874 12.4333 25.0915 12.4333C25.0955 12.4333 25.0996 12.4333 25.1036 12.4333C25.1077 12.4333 25.1117 12.4333 25.1157 12.4333C25.1198 12.4333 25.1238 12.4333 25.1278 12.4333C25.1319 12.4333 25.1359 12.4333 25.1399 12.4333C25.144 12.4333 25.148 12.4333 25.152 12.4333C25.156 12.4333 25.16 12.4333 25.164 12.4333C25.1681 12.4333 25.1721 12.4333 25.1761 12.4333C25.1801 12.4333 25.1841 12.4333 25.1881 12.4333C25.1921 12.4333 25.1961 12.4333 25.2001 12.4333C25.2041 12.4333 25.2081 12.4333 25.2121 12.4333C25.2161 12.4333 25.2201 12.4333 25.2241 12.4333C25.228 12.4333 25.232 12.4333 25.236 12.4333C25.24 12.4333 25.244 12.4333 25.2479 12.4333C25.2519 12.4333 25.2559 12.4333 25.2599 12.4333C25.2638 12.4333 25.2678 12.4333 25.2718 12.4333C25.2757 12.4333 25.2797 12.4333 25.2836 12.4333C25.2876 12.4333 25.2915 12.4333 25.2955 12.4333C25.2994 12.4333 25.3034 12.4333 25.3073 12.4333C25.3113 12.4333 25.3152 12.4333 25.3192 12.4333C25.3231 12.4333 25.327 12.4333 25.331 12.4333C25.3349 12.4333 25.3388 12.4333 25.3427 12.4333C25.3467 12.4333 25.3506 12.4333 25.3545 12.4333C25.3584 12.4333 25.3623 12.4333 25.3663 12.4333C25.3702 12.4333 25.3741 12.4333 25.378 12.4333C25.3819 12.4333 25.3858 12.4333 25.3897 12.4333C25.3936 12.4333 25.3975 12.4333 25.4014 12.4333C25.4053 12.4333 25.4092 12.4333 25.413 12.4333C25.4169 12.4333 25.4208 12.4333 25.4247 12.4333C25.4286 12.4333 25.4324 12.4333 25.4363 12.4333C25.4402 12.4333 25.4441 12.4333 25.4479 12.4333C25.4518 12.4333 25.4557 12.4333 25.4595 12.4333C25.4634 12.4333 25.4672 12.4333 25.4711 12.4333C25.4749 12.4333 25.4788 12.4333 25.4826 12.4333C25.4865 12.4333 25.4903 12.4333 25.4942 12.4333C25.498 12.4333 25.5018 12.4333 25.5057 12.4333C25.5095 12.4333 25.5133 12.4333 25.5171 12.4333C25.521 12.4333 25.5248 12.4333 25.5286 12.4333C25.5324 12.4333 25.5362 12.4333 25.54 12.4333C25.5438 12.4333 25.5477 12.4333 25.5515 12.4333C25.5553 12.4333 25.5591 12.4333 25.5629 12.4333C25.5666 12.4333 25.5704 12.4333 25.5742 12.4333C25.578 12.4333 25.5818 12.4333 25.5856 12.4333C25.5894 12.4333 25.5931 12.4333 25.5969 12.4333C25.6007 12.4333 25.6045 12.4333 25.6082 12.4333C25.612 12.4333 25.6157 12.4333 25.6195 12.4333C25.6233 12.4333 25.627 12.4333 25.6308 12.4333C25.6345 12.4333 25.6383 12.4333 25.642 12.4333C25.6457 12.4333 25.6495 12.4333 25.6532 12.4333C25.657 12.4333 25.6607 12.4333 25.6644 12.4333C25.6681 12.4333 25.6719 12.4333 25.6756 12.4333C25.6793 12.4333 25.683 12.4333 25.6867 12.4333C25.6904 12.4333 25.6941 12.4333 25.6978 12.4333C25.7015 12.4333 25.7052 12.4333 25.7089 12.4333C25.7126 12.4333 25.7163 12.4333 25.72 12.4333C25.7237 12.4333 25.7274 12.4333 25.7311 12.4333C25.7347 12.4333 25.7384 12.4333 25.7421 12.4333C25.7458 12.4333 25.7494 12.4333 25.7531 12.4333C25.7568 12.4333 25.7604 12.4333 25.7641 12.4333C25.7677 12.4333 25.7714 12.4333 25.775 12.4333C25.7787 12.4333 25.7823 12.4333 25.7859 12.4333C25.7896 12.4333 25.7932 12.4333 25.7969 12.4333C25.8005 12.4333 25.8041 12.4333 25.8077 12.4333C25.8113 12.4333 25.815 12.4333 25.8186 12.4333C25.8222 12.4333 25.8258 12.4333 25.8294 12.4333C25.833 12.4333 25.8366 12.4333 25.8402 12.4333C25.8438 12.4333 25.8474 12.4333 25.851 12.4333C25.8546 12.4333 25.8581 12.4333 25.8617 12.4333C25.8653 12.4333 25.8689 12.4333 25.8724 12.4333C25.876 12.4333 25.8796 12.4333 25.8831 12.4333C25.8867 12.4333 25.8903 12.4333 25.8938 12.4333C25.8974 12.4333 25.9009 12.4333 25.9045 12.4333C25.908 12.4333 25.9115 12.4333 25.9151 12.4333C25.9186 12.4333 25.9221 12.4333 25.9257 12.4333C25.9292 12.4333 25.9327 12.4333 25.9362 12.4333C25.9397 12.4333 25.9433 12.4333 25.9468 12.4333C25.9503 12.4333 25.9538 12.4333 25.9573 12.4333C25.9608 12.4333 25.9643 12.4333 25.9677 12.4333C25.9712 12.4333 25.9747 12.4333 25.9782 12.4333C25.9817 12.4333 25.9852 12.4333 25.9886 12.4333C25.9921 12.4333 25.9956 12.4333 25.999 12.4333C26.0025 12.4333 26.0059 12.4333 26.0094 12.4333C26.0128 12.4333 26.0163 12.4333 26.0197 12.4333C26.0232 12.4333 26.0266 12.4333 26.03 12.4333C26.0335 12.4333 26.0369 12.4333 26.0403 12.4333C26.0437 12.4333 26.0472 12.4333 26.0506 12.4333C26.054 12.4333 26.0574 12.4333 26.0608 12.4333C26.0642 12.4333 26.0676 12.4333 26.071 12.4333C26.0744 12.4333 26.0778 12.4333 26.0812 12.4333C26.0846 12.4333 26.0879 12.4333 26.0913 12.4333C26.0947 12.4333 26.0981 12.4333 26.1014 12.4333C26.1048 12.4333 26.1081 12.4333 26.1115 12.4333C26.1149 12.4333 26.1182 12.4333 26.1215 12.4333C26.1249 12.4333 26.1282 12.4333 26.1316 12.4333C26.1349 12.4333 26.1382 12.4333 26.1416 12.4333C26.1449 12.4333 26.1482 12.4333 26.1515 12.4333C26.1548 12.4333 26.1581 12.4333 26.1614 12.4333C26.1647 12.4333 26.168 12.4333 26.1713 12.4333C26.1746 12.4333 26.1779 12.4333 26.1812 12.4333C26.1845 12.4333 26.1878 12.4333 26.191 12.4333C26.1943 12.4333 26.1976 12.4333 26.2008 12.4333C26.2041 12.4333 26.2074 12.4333 26.2106 12.4333C26.2139 12.4333 26.2171 12.4333 26.2204 12.4333C26.2236 12.4333 26.2268 12.4333 26.2301 12.4333C26.2333 12.4333 26.2365 12.4333 26.2398 12.4333C26.243 12.4333 26.2462 12.4333 26.2494 12.4333C26.2526 12.4333 26.2558 12.4333 26.259 12.4333C26.2622 12.4333 26.2654 12.4333 26.2686 12.4333C26.2718 12.4333 26.275 12.4333 26.2782 12.4333C26.2813 12.4333 26.2845 12.4333 26.2877 12.4333C26.2908 12.4333 26.294 12.4333 26.2972 12.4333C26.3003 12.4333 26.3035 12.4333 26.3066 12.4333C26.3098 12.4333 26.3129 12.4333 26.316 12.4333C26.3192 12.4333 26.3223 12.4333 26.3254 12.4333C26.3285 12.4333 26.3317 12.4333 26.3348 12.4333C26.3379 12.4333 26.341 12.4333 26.3441 12.4333C26.3472 12.4333 26.3503 12.4333 26.3534 12.4333C26.3565 12.4333 26.3596 12.4333 26.3626 12.4333C26.3657 12.4333 26.3688 12.4333 26.3719 12.4333C26.3749 12.4333 26.378 12.4333 26.3811 12.4333C26.3841 12.4333 26.3872 12.4333 26.3902 12.4333C26.3932 12.4333 26.3963 12.4333 26.3993 12.4333C26.4024 12.4333 26.4054 12.4333 26.4084 12.4333C26.4114 12.4333 26.4144 12.4333 26.4175 12.4333C26.4205 12.4333 26.4235 12.4333 26.4265 12.4333C26.4295 12.4333 26.4325 12.4333 26.4355 12.4333C26.4384 12.4333 26.4414 12.4333 26.4444 12.4333C26.4474 12.4333 26.4503 12.4333 26.4533 12.4333C26.4563 12.4333 26.4592 12.4333 26.4622 12.4333C26.4651 12.4333 26.4681 12.4333 26.471 12.4333C26.474 12.4333 26.4769 12.4333 26.4798 12.4333C26.4828 12.4333 26.4857 12.4333 26.4886 12.4333C26.4915 12.4333 26.4944 12.4333 26.4973 12.4333C26.5002 12.4333 26.5031 12.4333 26.506 12.4333C26.5089 12.4333 26.5118 12.4333 26.5147 12.4333C26.5176 12.4333 26.5204 12.4333 26.5233 12.4333C26.5262 12.4333 26.529 12.4333 26.5319 12.4333C26.5347 12.4333 26.5376 12.4333 26.5404 12.4333C26.5433 12.4333 26.5461 12.4333 26.549 12.4333C26.5518 12.4333 26.5546 12.4333 26.5574 12.4333C26.5603 12.4333 26.5631 12.4333 26.5659 12.4333C26.5687 12.4333 26.5715 12.4333 26.5743 12.4333C26.5771 12.4333 26.5799 12.4333 26.5826 12.4333C26.5854 12.4333 26.5882 12.4333 26.591 12.4333C26.5937 12.4333 26.5965 12.4333 26.5993 12.4333C26.602 12.4333 26.6048 12.4333 26.6075 12.4333C26.6102 12.4333 26.613 12.4333 26.6157 12.4333C26.6184 12.4333 26.6212 12.4333 26.6239 12.4333C26.6266 12.4333 26.6293 12.4333 26.632 12.4333C26.6347 12.4333 26.6374 12.4333 26.6401 12.4333C26.6428 12.4333 26.6455 12.4333 26.6482 12.4333C26.6509 12.4333 26.6535 12.4333 26.6562 12.4333C26.6589 12.4333 26.6615 12.4333 26.6642 12.4333C26.6668 12.4333 26.6695 12.4333 26.6721 12.4333C26.6748 12.4333 26.6774 12.4333 26.68 12.4333C26.6827 12.4333 26.6853 12.4333 26.6879 12.4333C26.6905 12.4333 26.6931 12.4333 26.6957 12.4333C26.6983 12.4333 26.7009 12.4333 26.7035 12.4333C26.7061 12.4333 26.7087 12.4333 26.7113 12.4333C26.7138 12.4333 26.7164 12.4333 26.719 12.4333C26.7215 12.4333 26.7241 12.4333 26.7266 12.4333C26.7292 12.4333 26.7317 12.4333 26.7342 12.4333C26.7368 12.4333 26.7393 12.4333 26.7418 12.4333C26.7444 12.4333 26.7469 12.4333 26.7494 12.4333C26.7519 12.4333 26.7544 12.4333 26.7569 12.4333C26.7594 12.4333 26.7619 12.4333 26.7643 12.4333C26.7668 12.4333 26.7693 12.4333 26.7718 12.4333C26.7742 12.4333 26.7767 12.4333 26.7791 12.4333C26.7816 12.4333 26.784 12.4333 26.7865 12.4333C26.7889 12.4333 26.7913 12.4333 26.7938 12.4333C26.7962 12.4333 26.7986 12.4333 26.801 12.4333C26.8034 12.4333 26.8058 12.4333 26.8082 12.4333C26.8106 12.4333 26.813 12.4333 26.8154 12.4333C26.8178 12.4333 26.8202 12.4333 26.8225 12.4333C26.8249 12.4333 26.8273 12.4333 26.8296 12.4333C26.832 12.4333 26.8343 12.4333 26.8367 12.4333C26.839 12.4333 26.8413 12.4333 26.8437 12.4333C26.846 12.4333 26.8483 12.4333 26.8506 12.4333C26.8529 12.4333 26.8552 12.4333 26.8575 12.4333C26.8598 12.4333 26.8621 12.4333 26.8644 12.4333C26.8667 12.4333 26.869 12.4333 26.8712 12.4333C26.8735 12.4333 26.8758 12.4333 26.878 12.4333C26.8803 12.4333 26.8825 12.4333 26.8848 12.4333C26.887 12.4333 26.8892 12.4333 26.8915 12.4333C26.8937 12.4333 26.8959 12.4333 26.8981 12.4333C26.9003 12.4333 26.9025 12.4333 26.9047 12.4333C26.9069 12.4333 26.9091 12.4333 26.9113 12.4333C26.9135 12.4333 26.9156 12.4333 26.9178 12.4333C26.92 12.4333 26.9221 12.4333 26.9243 12.4333C26.9264 12.4333 26.9286 12.4333 26.9307 12.4333C26.9329 12.4333 26.935 12.4333 26.9371 12.4333C26.9392 12.4333 26.9413 12.4333 26.9435 12.4333C26.9456 12.4333 26.9477 12.4333 26.9498 12.4333C26.9518 12.4333 26.9539 12.4333 26.956 12.4333C26.9581 12.4333 26.9602 12.4333 26.9622 12.4333C26.9643 12.4333 26.9663 12.4333 26.9684 12.4333C26.9704 12.4333 26.9725 12.4333 26.9745 12.4333C26.9765 12.4333 26.9785 12.4333 26.9806 12.4333C26.9826 12.4333 26.9846 12.4333 26.9866 12.4333C26.9886 12.4333 26.9906 12.4333 26.9926 12.4333C26.9945 12.4333 26.9965 12.4333 26.9985 12.4333C27.0005 12.4333 27.0024 12.4333 27.0044 12.4333C27.0063 12.4333 27.0083 12.4333 27.0102 12.4333C27.0122 12.4333 27.0141 12.4333 27.016 12.4333C27.0179 12.4333 27.0198 12.4333 27.0218 12.4333C27.0237 12.4333 27.0256 12.4333 27.0275 12.4333C27.0293 12.4333 27.0312 12.4333 27.0331 12.4333C27.035 12.4333 27.0368 12.4333 27.0387 12.4333C27.0406 12.4333 27.0424 12.4333 27.0443 12.4333C27.0461 12.4333 27.0479 12.4333 27.0498 12.4333C27.0516 12.4333 27.0534 12.4333 27.0552 12.4333C27.057 12.4333 27.0588 12.4333 27.0606 12.4333C27.0624 12.4333 27.0642 12.4333 27.066 12.4333C27.0678 12.4333 27.0696 12.4333 27.0713 12.4333C27.0731 12.4333 27.0748 12.4333 27.0766 12.4333C27.0783 12.4333 27.0801 12.4333 27.0818 12.4333C27.0835 12.4333 27.0853 12.4333 27.087 12.4333C27.0887 12.4333 27.0904 12.4333 27.0921 12.4333C27.0938 12.4333 27.0955 12.4333 27.0972 12.4333C27.0989 12.4333 27.1005 12.4333 27.1022 12.4333C27.1039 12.4333 27.1055 12.4333 27.1072 12.4333C27.1088 12.4333 27.1105 12.4333 27.1121 12.4333C27.1137 12.4333 27.1154 12.4333 27.117 12.4333C27.1186 12.4333 27.1202 12.4333 27.1218 12.4333C27.1234 12.4333 27.125 12.4333 27.1266 12.4333C27.1281 12.4333 27.1297 12.4333 27.1313 12.4333C27.1329 12.4333 27.1344 12.4333 27.136 12.4333C27.1375 12.4333 27.1391 12.4333 27.1406 12.4333C27.1421 12.4333 27.1436 12.4333 27.1452 12.4333C27.1467 12.4333 27.1482 12.4333 27.1497 12.4333C27.1512 12.4333 27.1527 12.4333 27.1542 12.4333C27.1556 12.4333 27.1571 12.4333 27.1586 12.4333C27.16 12.4333 27.1615 12.4333 27.1629 12.4333C27.1644 12.4333 27.1658 12.4333 27.1673 12.4333C27.1687 12.4333 27.1701 12.4333 27.1715 12.4333C27.1729 12.4333 27.1743 12.4333 27.1757 12.4333C27.1771 12.4333 27.1785 12.4333 27.1799 12.4333C27.1813 12.4333 27.1827 12.4333 27.184 12.4333C27.1854 12.4333 27.1867 12.4333 27.1881 12.4333C27.1894 12.4333 27.1908 12.4333 27.1921 12.4333C27.1934 12.4333 27.1947 12.4333 27.196 12.4333C27.1973 12.4333 27.1986 12.4333 27.1999 12.4333C27.2012 12.4333 27.2025 12.4333 27.2038 12.4333C27.2051 12.4333 27.2063 12.4333 27.2076 12.4333C27.2088 12.4333 27.2101 12.4333 27.2113 12.4333C27.2126 12.4333 27.2138 12.4333 27.215 12.4333C27.2162 12.4333 27.2175 12.4333 27.2187 12.4333C27.2199 12.4333 27.2211 12.4333 27.2222 12.4333C27.2234 12.4333 27.2246 12.4333 27.2258 12.4333C27.2269 12.4333 27.2281 12.4333 27.2292 12.4333C27.2304 12.4333 27.2315 12.4333 27.2327 12.4333C27.2338 12.4333 27.2349 12.4333 27.236 12.4333C27.2371 12.4333 27.2382 12.4333 27.2393 12.4333C27.2404 12.4333 27.2415 12.4333 27.2426 12.4333C27.2437 12.4333 27.2447 12.4333 27.2458 12.4333C27.2469 12.4333 27.2479 12.4333 27.249 12.4333C27.25 12.4333 27.251 12.4333 27.2521 12.4333C27.2531 12.4333 27.2541 12.4333 27.2551 12.4333C27.2561 12.4333 27.2571 12.4333 27.2581 12.4333C27.2591 12.4333 27.26 12.4333 27.261 12.4333C27.262 12.4333 27.2629 12.4333 27.2639 12.4333C27.2648 12.4333 27.2658 12.4333 27.2667 12.4333C27.2676 12.4333 27.2685 12.4333 27.2695 12.4333C27.2704 12.4333 27.2713 12.4333 27.2722 12.4333C27.2731 12.4333 27.2739 12.4333 27.2748 12.4333C27.2757 12.4333 27.2766 12.4333 27.2774 12.4333C27.2783 12.4333 27.2791 12.4333 27.2799 12.4333C27.2808 12.4333 27.2816 12.4333 27.2824 12.4333C27.2832 12.4333 27.2841 12.4333 27.2849 12.4333C27.2857 12.4333 27.2864 12.4333 27.2872 12.4333C27.288 12.4333 27.2888 12.4333 27.2895 12.4333C27.2903 12.4333 27.291 12.4333 27.2918 12.4333C27.2925 12.4333 27.2933 12.4333 27.294 12.4333C27.2947 12.4333 27.2954 12.4333 27.2961 12.4333C27.2968 12.4333 27.2975 12.4333 27.2982 12.4333C27.2989 12.4333 27.2996 12.4333 27.3002 12.4333C27.3009 12.4333 27.3015 12.4333 27.3022 12.4333C27.3028 12.4333 27.3035 12.4333 27.3041 12.4333C27.3047 12.4333 27.3053 12.4333 27.3059 12.4333C27.3066 12.4333 27.3072 12.4333 27.3077 12.4333C27.3083 12.4333 27.3089 12.4333 27.3095 12.4333C27.31 12.4333 27.3106 12.4333 27.3111 12.4333C27.3117 12.4333 27.3122 12.4333 27.3128 12.4333C27.3133 12.4333 27.3138 12.4333 27.3143 12.4333C27.3148 12.4333 27.3153 12.4333 27.3158 12.4333C27.3163 12.4333 27.3168 12.4333 27.3173 12.4333C27.3177 12.4333 27.3182 12.4333 27.3186 12.4333C27.3191 12.4333 27.3195 12.4333 27.3199 12.4333C27.3204 12.4333 27.3208 12.4333 27.3212 12.4333C27.3216 12.4333 27.322 12.4333 27.3224 12.4333C27.3228 12.4333 27.3232 12.4333 27.3235 12.4333C27.3239 12.4333 27.3243 12.4333 27.3246 12.4333C27.325 12.4333 27.3253 12.4333 27.3256 12.4333C27.326 12.4333 27.3263 12.4333 27.3266 12.4333C27.3269 12.4333 27.3272 12.4333 27.3275 12.4333C27.3278 12.4333 27.3281 12.4333 27.3283 12.4333C27.3286 12.4333 27.3289 12.4333 27.3291 12.4333C27.3294 12.4333 27.3296 12.4333 27.3298 12.4333C27.33 12.4333 27.3303 12.4333 27.3305 12.4333C27.3307 12.4333 27.3309 12.4333 27.3311 12.4333C27.3312 12.4333 27.3314 12.4333 27.3316 12.4333C27.3318 12.4333 27.3319 12.4333 27.3321 12.4333C27.3322 12.4333 27.3323 12.4333 27.3325 12.4333C27.3326 12.4333 27.3327 12.4333 27.3328 12.4333C27.3329 12.4333 27.333 12.4333 27.3331 12.4333C27.3332 12.4333 27.3332 12.4333 27.3333 12.4333C27.3334 12.4333 27.3334 12.4333 27.3335 12.4333C27.3335 12.4333 27.3335 12.4333 27.3336 12.4333C27.3336 12.4333 27.3336 12.4333 27.3336 11.4333Z" fill="black"/>
</svg>
