<svg width="33" height="32" viewBox="0 0 33 32" fill="none" xmlns="http://www.w3.org/2000/svg">
<path d="M23.5417 22.6667V26.6667C23.5417 27.0203 23.4012 27.3594 23.1511 27.6095C22.9011 27.8595 22.562 28 22.2083 28H6.20833C5.85471 28 5.51557 27.8595 5.26552 27.6095C5.01548 27.3594 4.875 27.0203 4.875 26.6667V5.33333C4.875 4.97971 5.01548 4.64057 5.26552 4.39052C5.51557 4.14048 5.85471 4 6.20833 4H22.2083" stroke="#231F20" stroke-width="2" stroke-linecap="round" stroke-linejoin="round"/>
<path d="M10.208 22.6668V16.0002V22.6668ZM15.5413 22.6668V20.0002V22.6668ZM28.8747 20.0002L25.1013 16.2268L28.8747 20.0002ZM18.208 13.3335C18.208 14.1246 18.4426 14.898 18.8821 15.5558C19.3217 16.2136 19.9464 16.7263 20.6773 17.029C21.4082 17.3318 22.2124 17.411 22.9884 17.2566C23.7643 17.1023 24.477 16.7213 25.0364 16.1619C25.5958 15.6025 25.9768 14.8898 26.1311 14.1139C26.2855 13.3379 26.2063 12.5337 25.9035 11.8028C25.6008 11.0719 25.0881 10.4471 24.4303 10.0076C23.7725 9.56809 22.9991 9.3335 22.208 9.3335C21.1471 9.3335 20.1297 9.75492 19.3796 10.5051C18.6294 11.2552 18.208 12.2726 18.208 13.3335Z" stroke="#231F20" stroke-width="2" stroke-linecap="round" stroke-linejoin="round"/>
</svg>
