<svg xmlns="http://www.w3.org/2000/svg" viewBox="0 0 90 170"><path d="M23.41 170.797c-.38-.38-.69-19.515-.69-42.523V86.441h-7.3c-4.344 0-7.786-.486-8.5-1.2-1.659-1.66-1.659-24.941 0-26.6.714-.714 4.156-1.2 8.5-1.2h7.3V45.124c0-20.585 2.263-28.224 10.514-35.486 7.422-6.534 11.259-7.466 32.764-7.957l18.777-.429-.277 14.845-.278 14.844-10.475.287c-14.579.4-15.025.857-15.025 15.387v10.826h12.532c10.407 0 12.632.263 13.127 1.553.746 1.944-1.607 23.325-2.828 25.697-.774 1.504-2.428 1.75-11.759 1.75-9.13 0-10.958.26-11.486 1.636-.345.9-.598 19.912-.562 42.25l.066 40.614-16.856.272c-9.27.15-17.165-.037-17.544-.416z"/></svg>