<svg width="20" height="20" viewBox="0 0 20 20" style="fill-rule: evenodd;" xmlns="http://www.w3.org/2000/svg">
<path d="M 16.405 1.525 C 16.5818 1.5217 16.7585 1.525 16.935 1.535 C 17.2333 1.5883 17.4966 1.7099 17.725 1.9 C 18.1797 2.3293 18.3497 2.8543 18.235 3.475 C 18.092 4.0069 17.767 4.3836 17.26 4.605 C 16.7131 4.7924 16.2014 4.7274 15.725 4.41 C 15.247 4.0366 15.032 3.5449 15.08 2.935 C 15.1005 2.8121 15.1255 2.6938 15.155 2.58 C 15.1801 2.5382 15.1984 2.4932 15.21 2.445 C 15.2752 2.3145 15.3552 2.1945 15.45 2.085 C 15.4533 2.075 15.4567 2.065 15.46 2.055 C 15.5083 2.0067 15.5567 1.9583 15.605 1.91 C 15.6612 1.8667 15.7179 1.8234 15.775 1.78 C 15.9566 1.6618 16.1549 1.5835 16.37 1.545 C 16.3868 1.5439 16.3985 1.5373 16.405 1.525 Z" style="opacity: 1;" />
<path d="M 0.815 4.505 C 4.6417 4.5018 8.4684 4.5051 12.295 4.515 C 12.7563 4.5277 13.2096 4.5926 13.655 4.71 C 14.147 4.8768 14.5687 5.1451 14.92 5.515 C 14.9564 5.5631 14.9948 5.6098 15.035 5.655 C 15.0329 5.6609 15.0296 5.6659 15.025 5.67 C 15.0539 5.6947 15.0806 5.7214 15.105 5.75 C 15.1017 5.7533 15.0983 5.7567 15.095 5.76 C 15.1042 5.7637 15.1125 5.7687 15.12 5.775 C 15.1561 5.8242 15.1861 5.8775 15.21 5.935 C 15.2175 5.9413 15.2258 5.9463 15.235 5.95 C 15.2554 6.01 15.2837 6.065 15.32 6.115 C 15.4422 6.3934 15.5322 6.6834 15.59 6.985 C 15.6054 7.1136 15.6237 7.2386 15.645 7.36 C 15.6787 7.806 15.6921 8.2527 15.685 8.7 C 15.692 9.1557 15.6786 9.6107 15.645 10.065 C 15.6072 10.4048 15.5405 10.7381 15.445 11.065 C 15.4074 11.1724 15.3657 11.2824 15.32 11.395 C 15.315 11.4067 15.3067 11.415 15.295 11.42 C 15.2983 11.4233 15.3017 11.4267 15.305 11.43 C 15.255 11.5125 15.2117 11.5942 15.175 11.675 C 14.9034 12.0836 14.5334 12.392 14.065 12.6 C 13.7475 12.7235 13.4208 12.8169 13.085 12.88 C 13.1149 12.9088 13.1399 12.9472 13.16 12.995 C 13.2038 13.0562 13.2521 13.1128 13.305 13.165 C 13.3217 13.1998 13.34 13.2331 13.36 13.265 C 13.4019 13.3227 13.4503 13.3794 13.505 13.435 C 13.5217 13.4698 13.54 13.5031 13.56 13.535 C 13.5861 13.559 13.6111 13.584 13.635 13.61 C 13.6317 13.6133 13.6283 13.6167 13.625 13.62 C 13.6358 13.6296 13.6475 13.6379 13.66 13.645 C 13.6933 13.6983 13.7267 13.7517 13.76 13.805 C 13.7861 13.829 13.8111 13.854 13.835 13.88 C 13.8317 13.8833 13.8283 13.8867 13.825 13.89 C 13.9003 13.9808 13.967 14.0708 14.025 14.16 C 14.0342 14.1637 14.0425 14.1687 14.05 14.175 C 14.0831 14.2346 14.1197 14.2913 14.16 14.345 C 14.1833 14.3713 14.2083 14.3963 14.235 14.42 C 14.2317 14.4233 14.2283 14.4267 14.225 14.43 C 14.2342 14.4337 14.2425 14.4387 14.25 14.445 C 14.2633 14.4717 14.2767 14.4983 14.29 14.525 C 14.3327 14.5859 14.3811 14.6409 14.435 14.69 C 14.4317 14.6933 14.4283 14.6967 14.425 14.7 C 14.4505 14.7289 14.4722 14.7606 14.49 14.795 C 14.5327 14.8559 14.5811 14.9109 14.635 14.96 C 14.6317 14.9633 14.6283 14.9667 14.625 14.97 C 14.6505 14.9989 14.6722 15.0306 14.69 15.065 C 14.7 15.0717 14.71 15.0783 14.72 15.085 C 14.776 15.1679 14.8327 15.2512 14.89 15.335 C 14.921 15.3736 14.9543 15.4102 14.99 15.445 C 14.9993 15.4694 15.011 15.4927 15.025 15.515 C 15.0591 15.5507 15.0908 15.5873 15.12 15.625 C 15.1797 15.7215 15.2464 15.8115 15.32 15.895 C 15.3764 15.9781 15.433 16.0615 15.49 16.145 C 15.5404 16.1989 15.5838 16.2589 15.62 16.325 C 15.6557 16.3598 15.689 16.3964 15.72 16.435 C 15.7573 16.4857 15.7906 16.539 15.82 16.595 C 15.851 16.6336 15.8843 16.6702 15.92 16.705 C 15.9573 16.7557 15.9906 16.809 16.02 16.865 C 16.0456 16.8722 16.0572 16.8889 16.055 16.915 C 14.885 16.9183 13.715 16.915 12.545 16.905 C 11.6502 15.5796 10.7535 14.2446 9.855 12.9 C 7.8783 12.895 5.9017 12.8933 3.925 12.895 C 3.925 14.235 3.925 15.575 3.925 16.915 C 2.8883 16.915 1.8517 16.915 0.815 16.915 C 0.815 12.7783 0.815 8.6417 0.815 4.505 Z M 3.925 7.265 C 6.5251 7.2602 9.1251 7.2652 11.725 7.28 C 11.8125 7.2856 11.8992 7.2973 11.985 7.315 C 12.0439 7.3364 12.1039 7.3547 12.165 7.37 C 12.3369 7.4548 12.4519 7.5898 12.51 7.775 C 12.5248 7.8656 12.5431 7.9539 12.565 8.04 C 12.5517 8.4833 12.5517 8.9267 12.565 9.37 C 12.5447 9.4634 12.5247 9.5584 12.505 9.655 C 12.4325 9.8958 12.2725 10.0408 12.025 10.09 C 11.8857 10.1126 11.7457 10.1293 11.605 10.14 C 9.045 10.145 6.485 10.1467 3.925 10.145 C 3.925 9.185 3.925 8.225 3.925 7.265 Z" style="opacity: 0.996;" />
</svg>
