<svg width="12" height="19" viewBox="0 0 12 19" xmlns="http://www.w3.org/2000/svg">
  <path d="M5.80619 0.0625C3.1453 0.0625 0.988281 2.23065 0.988281 4.90512C0.988281 7.57965 3.1453 9.74794 5.80619 9.74794C8.46708 9.74794 10.6241 7.57965 10.6241 4.90512C10.6241 2.23065 8.46708 0.0625 5.80619 0.0625ZM5.80619 6.90708C4.70627 6.90708 3.81457 6.01074 3.81457 4.90519C3.81457 3.79963 4.70627 2.90336 5.80619 2.90336C6.90611 2.90336 7.79781 3.79963 7.79781 4.90519C7.79781 6.01074 6.90611 6.90708 5.80619 6.90708Z M7.50751 13.6011C9.43631 13.2062 10.5921 12.2881 10.6533 12.2388C11.2177 11.7839 11.3084 10.9552 10.8557 10.3878C10.4032 9.8205 9.57875 9.72937 9.01421 10.1843C9.00229 10.194 7.76951 11.1445 5.74114 11.1459C3.71285 11.1445 2.45401 10.194 2.44208 10.1843C1.87754 9.72937 1.05314 9.8205 0.600569 10.3878C0.14793 10.9552 0.238596 11.7839 0.802998 12.2388C0.864982 12.2888 2.06853 13.2308 4.05138 13.6165L1.28791 16.5193C0.785693 17.0428 0.800792 17.8764 1.32162 18.3812C1.57583 18.6275 1.90347 18.75 2.23083 18.75C2.57405 18.75 2.91692 18.6152 3.17396 18.3472L5.74121 15.5984L8.56778 18.365C9.07992 18.8789 9.90922 18.8781 10.4204 18.3636C10.9316 17.8489 10.9309 17.0152 10.4189 16.5014L7.50751 13.6011Z M5.74154 11.1458C5.73706 11.1458 5.74591 11.1458 5.74154 11.1459C5.73716 11.1458 5.74601 11.1458 5.74154 11.1458Z" />
</svg>
