<svg width="20" height="20" viewBox="0 0 20 20" fill="none" xmlns="http://www.w3.org/2000/svg">
<path d="M14.1663 6.66667C14.1663 7.49076 13.922 8.29634 13.4641 8.98154C13.0063 9.66675 12.3555 10.2008 11.5942 10.5162C10.8328 10.8315 9.99505 10.914 9.1868 10.7533C8.37854 10.5925 7.63611 10.1957 7.0534 9.61294C6.47068 9.03023 6.07384 8.2878 5.91307 7.47954C5.7523 6.67129 5.83481 5.83351 6.15018 5.07215C6.46554 4.31079 6.99959 3.66005 7.6848 3.20221C8.37 2.74437 9.17559 2.5 9.99967 2.5C11.1047 2.5 12.1646 2.93899 12.946 3.72039C13.7274 4.50179 14.1663 5.5616 14.1663 6.66667ZM7.49967 10.8333C6.39461 10.8333 5.3348 11.2723 4.5534 12.0537C3.77199 12.8351 3.33301 13.8949 3.33301 15V15V15.8333C3.33301 15.8333 4.99967 17.5 9.99967 17.5C14.9997 17.5 16.6663 15.8333 16.6663 15.8333V15C16.6663 13.8949 16.2274 12.8351 15.446 12.0537C14.6646 11.2723 13.6047 10.8333 12.4997 10.8333H7.49967Z" stroke="#231F20" stroke-width="1.5" stroke-linecap="round" stroke-linejoin="round"/>
</svg>
