<svg viewBox="0 0 15 15" xmlns="http://www.w3.org/2000/svg"><g clip-path="url(#clip0)"><path d="M8.804 8.804A2.288 2.288 0 009.5 7.125a2.29 2.29 0 00-.696-1.68 2.288 2.288 0 00-1.679-.695 2.29 2.29 0 00-1.68.696 2.288 2.288 0 00-.695 1.679c0 .656.232 1.215.696 1.68a2.288 2.288 0 001.679.695 2.29 2.29 0 001.68-.696zm.91-4.267c.71.71 1.066 1.574 1.066 2.588s-.355 1.877-1.067 2.588c-.71.712-1.574 1.067-2.588 1.067s-1.877-.355-2.588-1.067C3.825 9.003 3.47 8.14 3.47 7.125s.355-1.877 1.067-2.588c.71-.712 1.574-1.067 2.588-1.067s1.877.355 2.588 1.067zm1.818-1.819c.167.167.25.368.25.603a.822.822 0 01-.25.603.822.822 0 01-.603.25.822.822 0 01-.603-.25.822.822 0 01-.25-.603c0-.235.083-.436.25-.603a.822.822 0 01.603-.25c.235 0 .436.083.603.25zM7.835 1.276l-.71.004-.71-.004a50.37 50.37 0 00-.978 0c-.223.003-.522.012-.896.027a7.351 7.351 0 00-.955.093 3.72 3.72 0 00-.664.172 2.412 2.412 0 00-.816.538 2.407 2.407 0 00-.538.816c-.068.18-.125.4-.172.664a7.351 7.351 0 00-.093.955c-.015.374-.024.673-.027.896a50.37 50.37 0 000 .978l.004.71-.004.71c-.003.43-.003.756 0 .978.003.223.012.522.027.896.016.374.047.692.093.955.047.263.104.484.172.664.124.309.303.581.538.816.235.235.507.414.816.538.18.068.4.125.664.172.263.046.581.077.955.093.374.015.673.024.896.027.222.003.548.003.978 0l.71-.004.71.004c.43.003.756.003.978 0 .223-.003.522-.012.896-.027a7.51 7.51 0 00.955-.093c.263-.047.484-.104.664-.172.309-.124.581-.303.816-.538.235-.235.414-.507.538-.816.068-.18.125-.4.172-.664a7.51 7.51 0 00.093-.955c.015-.374.024-.673.027-.896.003-.222.003-.548 0-.978l-.004-.71.004-.71c.003-.43.003-.756 0-.978a34.288 34.288 0 00-.027-.896 7.358 7.358 0 00-.093-.955 3.715 3.715 0 00-.172-.664 2.406 2.406 0 00-.538-.816 2.406 2.406 0 00-.816-.538 3.77 3.77 0 00-.664-.172 7.352 7.352 0 00-.955-.093 34.376 34.376 0 00-.896-.027 50.37 50.37 0 00-.978 0zm6.369 2.908c.03.544.046 1.525.046 2.941s-.015 2.397-.046 2.94c-.062 1.287-.446 2.283-1.15 2.988-.706.705-1.702 1.089-2.988 1.15-.544.032-1.525.047-2.941.047s-2.397-.015-2.94-.046c-1.287-.062-2.283-.446-2.988-1.15-.705-.706-1.089-1.702-1.15-2.988C.014 9.522 0 8.54 0 7.125s.015-2.397.046-2.94c.062-1.287.446-2.283 1.15-2.988C1.903.492 2.899.108 4.185.047 4.728.014 5.71 0 7.125 0s2.397.015 2.94.046c1.287.062 2.283.446 2.988 1.15.705.706 1.089 1.702 1.15 2.988z"/></g><defs><clipPath id="clip0"><path d="M0 0h14.25v14.25H0z"/></clipPath></defs></svg>