<svg xmlns="http://www.w3.org/2000/svg" viewBox="0 0 120 180" id="od"><path d="M21.715 177.212c-3.876-2.364-6.624-8.097-5.687-11.867.38-1.523 7.745-9.75 17.71-19.781 10.99-11.063 16.864-17.684 16.509-18.61-.325-.846-2.647-1.714-5.646-2.112-8.42-1.117-19.107-5.273-26.435-10.28C8.15 107.719 5.664 102.739 9.02 96.248c3.88-7.502 9.05-7.734 22.211-.997 11.932 6.108 19.078 7.99 30.255 7.972 13.453-.024 20.704-2.236 36.024-10.994 5.19-2.967 10.529-2.632 14.041.88 5.669 5.669 5.138 11.463-1.628 17.77-7.17 6.684-25.424 14.358-34.152 14.358-1.17 0-2.428.487-2.795 1.08-.375.606 6.793 8.628 16.305 18.25 9.335 9.444 17.302 18.222 17.704 19.507 1.945 6.222-2.986 13.725-9.74 14.821-5.062.822-8.037-1.298-22.577-16.088-6.796-6.913-12.653-12.57-13.014-12.57-.362 0-6.5 5.881-13.643 13.07-16.742 16.849-19.272 18.187-26.296 13.905zm26.608-88.906c-21.365-6.83-34.675-27.867-31.678-50.069C18.98 20.927 32.963 5.222 49.985.79c21.292-5.544 43.236 4.918 52.839 25.19 3.049 6.436 3.201 7.331 3.201 18.758 0 11.438-.15 12.318-3.215 18.788-3.79 8.003-12.212 17.267-19.11 21.021-10.463 5.694-24.622 7.2-35.377 3.76zm22.92-23.422c7.29-3.77 12.238-11.916 12.238-20.147 0-18.567-21.929-28.774-35.98-16.746C31.04 42.08 42.2 68.76 63.72 66.777c2.584-.238 5.968-1.09 7.521-1.893z"></path></svg>
