<svg width="24" height="24" viewBox="0 0 24 24" fill="none" xmlns="http://www.w3.org/2000/svg">
<path d="M16.9502 15H17.0502" stroke="#EE5238" stroke-width="2" stroke-linecap="round" stroke-linejoin="round"/>
<path d="M21 10V20C21 20.2652 20.8946 20.5196 20.7071 20.7071C20.5196 20.8946 20.2652 21 20 21H4C3.73478 21 3.48043 20.8946 3.29289 20.7071C3.10536 20.5196 3 20.2652 3 20V10C3 9.73478 3.10536 9.48043 3.29289 9.29289C3.48043 9.10536 3.73478 9 4 9H20C20.2652 9 20.5196 9.10536 20.7071 9.29289C20.8946 9.48043 21 9.73478 21 10ZM17.21 9L19 6.44L14.09 3L9.88 9H17.21ZM9.09 3L4.88 9H9.88L12.44 5.35L9.09 3Z" stroke="#EE5238" stroke-width="2" stroke-linecap="round" stroke-linejoin="round"/>
</svg>
