<svg width="20" height="20" fill="none" xmlns="http://www.w3.org/2000/svg"><path d="M17.5 12.5v3.275a1.666 1.666 0 01-1.909 1.667A15 15 0 012.616 4.408 1.667 1.667 0 014.275 2.5H7.5a.833.833 0 01.833.742 8.95 8.95 0 00.833 3.15.833.833 0 01-.35 1.05L8.1 7.85a.833.833 0 00-.275 1.217 11.733 11.733 0 003.075 3.075.833.833 0 001.216-.275l.409-.717a.833.833 0 011.083-.317 8.94 8.94 0 003.15.834.834.834 0 01.742.833z" stroke="#000" stroke-width="1.5" stroke-linecap="round" stroke-linejoin="round"/></svg>