<svg width="20" height="20" viewBox="0 0 20 20" fill="none" xmlns="http://www.w3.org/2000/svg">
<path d="M17.4996 12.5V15.775C17.5021 16.0158 17.4525 16.2543 17.354 16.474C17.2556 16.6938 17.1107 16.8896 16.9294 17.048C16.748 17.2064 16.5345 17.3236 16.3035 17.3915C16.0725 17.4595 15.8295 17.4766 15.5913 17.4417C12.2887 17.0175 9.22121 15.5064 6.87206 13.1467C4.52291 10.787 3.02567 7.71276 2.61625 4.40836C2.58144 4.17082 2.59835 3.92856 2.66584 3.69816C2.73333 3.46776 2.84979 3.25466 3.00727 3.07344C3.16475 2.89223 3.35951 2.74717 3.57825 2.6482C3.79698 2.54923 4.03451 2.49869 4.27458 2.50003H7.49958C7.7056 2.49878 7.90477 2.57388 8.05866 2.71085C8.21256 2.84781 8.31026 3.03693 8.33292 3.24169C8.41561 4.33384 8.69807 5.40153 9.16625 6.39169C9.24653 6.57922 9.25525 6.78967 9.19074 6.98319C9.12623 7.17671 8.99299 7.33984 8.81625 7.44169L8.09958 7.85003C7.99628 7.90684 7.90621 7.98493 7.83532 8.07913C7.76443 8.17333 7.71434 8.28149 7.68835 8.39649C7.66236 8.51148 7.66106 8.63068 7.68455 8.74621C7.70803 8.86174 7.75576 8.97097 7.82458 9.06669C8.64902 10.2743 9.69193 11.3173 10.8996 12.1417C10.9953 12.2105 11.1045 12.2582 11.2201 12.2817C11.3356 12.3052 11.4548 12.3039 11.5698 12.2779C11.6848 12.2519 11.793 12.2018 11.8872 12.131C11.9814 12.0601 12.0594 11.97 12.1163 11.8667L12.5246 11.15C12.6325 10.971 12.8038 10.839 13.0045 10.7804C13.2052 10.7217 13.4205 10.7406 13.6079 10.8334C14.5981 11.3015 15.6658 11.584 16.7579 11.6667C16.9627 11.6893 17.1518 11.7871 17.2888 11.9409C17.4257 12.0948 17.5008 12.294 17.4996 12.5Z" stroke="black" stroke-width="1.5" stroke-linecap="round" stroke-linejoin="round"/>
</svg>
