<svg width="24" height="24" viewBox="0 0 24 24" fill="none" xmlns="http://www.w3.org/2000/svg">
<path d="M19.2895 9.38996L21.1895 11.29C21.2832 11.3829 21.3576 11.4935 21.4084 11.6154C21.4591 11.7372 21.4853 11.8679 21.4853 12C21.4853 12.132 21.4591 12.2627 21.4084 12.3845C21.3576 12.5064 21.2832 12.617 21.1895 12.71L19.2895 14.61C19.1047 14.7962 19.0006 15.0476 18.9995 15.31V18C18.9995 18.2652 18.8941 18.5195 18.7066 18.7071C18.519 18.8946 18.2647 19 17.9995 19H15.3095C15.0471 19.0011 14.7957 19.1052 14.6095 19.29L12.7095 21.19C12.6165 21.2837 12.5059 21.3581 12.384 21.4088C12.2622 21.4596 12.1315 21.4858 11.9995 21.4858C11.8675 21.4858 11.7368 21.4596 11.6149 21.4088C11.493 21.3581 11.3824 21.2837 11.2895 21.19L9.38947 19.29C9.20321 19.1052 8.95181 19.0011 8.68947 19H5.99947C5.73425 19 5.4799 18.8946 5.29236 18.7071C5.10483 18.5195 4.99947 18.2652 4.99947 18V15.31C4.99837 15.0476 4.89421 14.7962 4.70947 14.61L2.80947 12.71C2.71574 12.617 2.64135 12.5064 2.59058 12.3845C2.53981 12.2627 2.51367 12.132 2.51367 12C2.51367 11.8679 2.53981 11.7372 2.59058 11.6154C2.64135 11.4935 2.71574 11.3829 2.80947 11.29L4.70947 9.38996C4.89421 9.2037 4.99837 8.9523 4.99947 8.68996V5.99996C4.99947 5.73474 5.10483 5.48039 5.29236 5.29285C5.4799 5.10532 5.73425 4.99996 5.99947 4.99996H8.68947C8.95181 4.99885 9.20321 4.8947 9.38947 4.70996L11.2895 2.80996C11.3824 2.71623 11.493 2.64184 11.6149 2.59107C11.7368 2.5403 11.8675 2.51416 11.9995 2.51416C12.1315 2.51416 12.2622 2.5403 12.384 2.59107C12.5059 2.64184 12.6165 2.71623 12.7095 2.80996L14.6095 4.70996C14.7957 4.8947 15.0471 4.99885 15.3095 4.99996H17.9995C18.2647 4.99996 18.519 5.10532 18.7066 5.29285C18.8941 5.48039 18.9995 5.73474 18.9995 5.99996V8.68996C19.0006 8.9523 19.1047 9.2037 19.2895 9.38996ZM11.9995 8.99996C11.4061 8.99996 10.8261 9.17591 10.3328 9.50555C9.83941 9.83519 9.45489 10.3037 9.22783 10.8519C9.00077 11.4001 8.94136 12.0033 9.05711 12.5852C9.17287 13.1672 9.45859 13.7017 9.87815 14.1213C10.2977 14.5408 10.8323 14.8266 11.4142 14.9423C11.9961 15.0581 12.5993 14.9987 13.1475 14.7716C13.6957 14.5445 14.1642 14.16 14.4939 13.6667C14.8235 13.1733 14.9995 12.5933 14.9995 12C14.9995 11.2043 14.6834 10.4412 14.1208 9.87864C13.5582 9.31603 12.7951 8.99996 11.9995 8.99996Z" stroke="black" stroke-width="2" stroke-linecap="round" stroke-linejoin="round"/>
</svg>
