<svg width="25" height="24" viewBox="0 0 25 24" fill="none" xmlns="http://www.w3.org/2000/svg">
<path d="M17.5916 12.1769H16.0924M17.5916 14.1266H16.0924M17.5916 16.2152H16.0924M17.5916 18.1606H16.0924M19.8106 21.0004H13.8691V7.47852L19.6104 10.8264C19.6718 10.8655 19.7224 10.92 19.7574 10.9845C19.7924 11.0491 19.8107 11.1217 19.8106 11.1955V21.0004Z" stroke="#C79569" stroke-width="1.5" stroke-linecap="round"/>
<path d="M19.8105 21H13.869V7.47809M10.9643 8.89802H7.96594M10.9643 11.321H7.96594M10.9643 13.7093H7.96594M10.9643 16.0975H7.96594M10.9643 18.4858H7.96594M3.02539 21H22.2254M13.8265 21H5.2529V7.73429C5.25345 7.65691 5.27427 7.58109 5.31321 7.51467C5.35215 7.44825 5.40779 7.39365 5.47437 7.35651L13.1961 3.05329C13.2611 3.01706 13.3341 2.99872 13.4082 3.00007C13.4822 3.00142 13.5546 3.02242 13.6182 3.06099C13.6819 3.09957 13.7345 3.15439 13.771 3.22005C13.8076 3.28571 13.8267 3.35994 13.8265 3.43542V21Z" stroke="#C79569" stroke-width="1.5" stroke-linecap="round"/>
</svg>
