<svg width="25" height="24" viewBox="0 0 25 24" fill="none" xmlns="http://www.w3.org/2000/svg">
<path d="M5.42539 21.6004H8.42539M16.2254 9.00039L16.2254 7.24306C16.2263 7.06556 16.1815 6.89066 16.095 6.73421C16.0086 6.57775 15.8832 6.44468 15.7304 6.34706L9.62539 2.40039L3.5204 6.34706C3.36753 6.44468 3.2422 6.57775 3.15576 6.73421C3.06933 6.89066 3.02452 7.06556 3.0254 7.24306V21.6004H16.2254L16.2254 18.6004M5.42539 9.00039V12.6004H8.42539V9.00039H5.42539ZM5.42539 15.3004V18.9004H8.42539V15.3004H5.42539Z" stroke="#EE5238" stroke-width="1.5" stroke-linecap="round" stroke-linejoin="round"/>
<path d="M13.8252 11.4V9H10.8252V12.6H13.2252" stroke="#EE5238" stroke-width="1.5" stroke-linecap="round" stroke-linejoin="round"/>
<circle cx="18.0246" cy="13.8" r="4.8" stroke="#EE5238" stroke-width="1.5"/>
<circle cx="18.0254" cy="13.7998" r="3" stroke="#EE5238" stroke-width="1.5"/>
</svg>
