<svg width="25" height="24" viewBox="0 0 25 24" fill="none" xmlns="http://www.w3.org/2000/svg">
<path d="M19.8712 10.4609V15.8436C19.8733 15.9956 19.8324 16.1451 19.7536 16.2736C19.6747 16.4021 19.5613 16.5042 19.4271 16.5673L14.1516 18.9632C13.5013 19.2615 12.7929 19.4006 12.0819 19.3696C11.3708 19.3386 10.6764 19.1384 10.0528 18.7845L6.2649 16.6406C6.14378 16.5723 6.04275 16.4716 5.97242 16.3491C5.90209 16.2265 5.86507 16.0867 5.86523 15.9443V10.6121" stroke="#EE5238" stroke-width="1.5" stroke-linecap="round"/>
<path d="M11.594 3.89629L2.69792 8.18865C2.63424 8.21984 2.58051 8.26871 2.54291 8.32963C2.5053 8.39056 2.48535 8.46105 2.48535 8.53301C2.48535 8.60497 2.5053 8.67547 2.54291 8.73639C2.58051 8.79732 2.63424 8.84619 2.69792 8.87738L11.3104 13.3208C11.7282 13.5288 12.187 13.637 12.652 13.637C13.1171 13.637 13.5759 13.5288 13.9937 13.3208L22.8418 8.95292C22.9054 8.92173 22.9592 8.87286 22.9968 8.81193C23.0344 8.75101 23.0543 8.68051 23.0543 8.60855C23.0543 8.53659 23.0344 8.46609 22.9968 8.40517C22.9592 8.34425 22.9054 8.29538 22.8418 8.26419L14.2336 3.92295C13.8244 3.7149 13.3742 3.60438 12.9168 3.59976C12.4595 3.59514 12.0072 3.69654 11.594 3.89629V3.89629Z" stroke="#EE5238" stroke-width="1.5" stroke-linecap="round"/>
<path d="M12.7632 8.62402L3.30859 9.19723L3.43948 14.6626" stroke="#EE5238" stroke-width="1.5" stroke-linecap="round"/>
<path d="M3.45247 17.0931C4.0621 17.0931 4.5563 16.5898 4.5563 15.9689C4.5563 15.348 4.0621 14.8447 3.45247 14.8447C2.84284 14.8447 2.34863 15.348 2.34863 15.9689C2.34863 16.5898 2.84284 17.0931 3.45247 17.0931Z" stroke="#EE5238" stroke-width="1.5" stroke-linecap="round"/>
<path d="M3.83195 17.0215L4.70454 19.8075H2.2002L3.08588 17.0215" stroke="#EE5238" stroke-width="1.5" stroke-linecap="round"/>
</svg>
