<svg width="25" height="24" viewBox="0 0 25 24" fill="none" xmlns="http://www.w3.org/2000/svg">
<path d="M20.4552 14.3896L19.7352 20.1196C19.7057 20.3636 19.5874 20.5881 19.403 20.7504C19.2186 20.9127 18.9808 21.0014 18.7352 20.9996H6.50516C6.25948 21.0014 6.02174 20.9127 5.83731 20.7504C5.65287 20.5881 5.53463 20.3636 5.50516 20.1196L4.78516 14.3896" stroke="#C79569" stroke-width="1.5" stroke-linecap="round" stroke-linejoin="round"/>
<path d="M20.9454 14.23L16.4154 15.74C13.9551 16.559 11.2957 16.559 8.83538 15.74L4.30538 14.23C4.0984 14.1604 3.91989 14.025 3.7971 13.8444C3.67431 13.6639 3.614 13.4481 3.62538 13.23V7H21.6254V13.28C21.6259 13.4896 21.5606 13.6942 21.4385 13.8646C21.3165 14.0351 21.144 14.1629 20.9454 14.23ZM11.6254 12H13.6254H11.6254ZM17.6254 6C17.6254 5.20435 17.3093 4.44129 16.7467 3.87868C16.1841 3.31607 15.421 3 14.6254 3H10.6254C9.82973 3 9.06667 3.31607 8.50406 3.87868C7.94145 4.44129 7.62538 5.20435 7.62538 6V7H17.6254V6Z" stroke="#C79569" stroke-width="1.5" stroke-linecap="round" stroke-linejoin="round"/>
</svg>
