<svg width="25" height="24" viewBox="0 0 25 24" fill="none" xmlns="http://www.w3.org/2000/svg">
<path d="M17.9971 15.2158C17.7911 14.8565 17.3328 14.7322 16.9734 14.9382C16.6141 15.1442 16.4898 15.6025 16.6958 15.9619L17.9971 15.2158ZM19.9715 20.1676L19.3208 20.5406L19.3229 20.5442L19.9715 20.1676ZM19.8852 20.3738L19.6028 21.0687L19.6119 21.0723L19.8852 20.3738ZM16.6565 19.0613L16.9389 18.3665L16.9123 18.3557L16.885 18.347L16.6565 19.0613ZM16.5402 19.1326L15.8 19.012L15.7973 19.0284L15.7954 19.0449L16.5402 19.1326ZM16.1427 22.5076L16.8772 22.6595L16.8838 22.6277L16.8876 22.5953L16.1427 22.5076ZM15.9177 22.4851L15.2613 22.8479L15.2651 22.8548L15.2691 22.8617L15.9177 22.4851ZM12.869 16.9688L13.5254 16.606C13.3911 16.3631 13.1337 16.2142 12.8562 16.2189C12.5787 16.2237 12.3265 16.3812 12.2006 16.6285L12.869 16.9688ZM10.0527 22.5001L10.6922 22.892L10.7076 22.8668L10.7211 22.8404L10.0527 22.5001ZM9.82771 22.5263L9.08476 22.6289L9.09029 22.669L9.1001 22.7082L9.82771 22.5263ZM9.35146 19.0763L10.0944 18.9738L10.0911 18.9499L10.0863 18.9262L9.35146 19.0763ZM9.23521 19.0088L9.00129 18.2962L8.9692 18.3068L8.93818 18.3202L9.23521 19.0088ZM6.09646 20.3626L6.3025 21.0837L6.34904 21.0704L6.39349 21.0513L6.09646 20.3626ZM6.00646 20.1526L6.65141 20.5355L6.65659 20.5265L6.00646 20.1526ZM9.28159 15.9628C9.48811 15.6037 9.36446 15.1452 9.0054 14.9387C8.64635 14.7322 8.18786 14.8558 7.98133 15.2149L9.28159 15.9628ZM12.9027 6.33384L12.2259 6.65705L12.2297 6.66483L12.9027 6.33384ZM13.9152 8.39259L13.2422 8.72358L13.2528 8.74509L13.2647 8.76589L13.9152 8.39259ZM13.9452 8.41134L14.054 7.66928L14.025 7.66502L13.9957 7.66304L13.9452 8.41134ZM16.1952 8.74134L16.0864 9.4834L16.1405 9.49134H16.1952V8.74134ZM16.2177 8.80509L15.7376 8.22892L15.7151 8.24764L15.6942 8.26806L16.2177 8.80509ZM14.5752 10.4063L14.0517 9.86931L13.9775 9.94162L13.9257 10.0313L14.5752 10.4063ZM14.5707 10.4232L13.8207 10.4232L14.5707 10.4232ZM14.5752 10.4401L15.315 10.3168L15.2927 10.1828L15.2247 10.0651L14.5752 10.4401ZM14.9502 12.6901L14.2104 12.8134L14.2121 12.8237L14.2141 12.834L14.9502 12.6901ZM14.8977 12.7313L14.5487 13.3952L14.566 13.4043L14.5838 13.4125L14.8977 12.7313ZM12.8652 11.6626L12.3831 12.2371L12.4448 12.2889L12.5162 12.3264L12.8652 11.6626ZM12.8315 11.6626L13.1884 12.3222L13.2553 12.286L13.3136 12.2371L12.8315 11.6626ZM10.8215 12.7501L11.096 13.448L11.1383 13.4314L11.1784 13.4097L10.8215 12.7501ZM10.7652 12.7088L10.0254 12.5855L10.0195 12.621L10.017 12.6568L10.7652 12.7088ZM11.1402 10.4588L10.4704 10.1213L10.4192 10.2231L10.4004 10.3355L11.1402 10.4588ZM11.1402 10.4251L11.81 10.0876L11.7534 9.97521L11.6631 9.88746L11.1402 10.4251ZM9.49396 8.82384L8.88405 9.26032L8.92302 9.31477L8.97103 9.36147L9.49396 8.82384ZM9.51646 8.76009L9.4085 8.0179L9.36145 8.02474L9.31564 8.03748L9.51646 8.76009ZM11.7852 8.43009L11.78 7.68011L11.7284 7.68047L11.6773 7.6879L11.7852 8.43009ZM11.8152 8.41134L12.4871 8.74466L12.4877 8.74332L11.8152 8.41134ZM12.8315 6.35259L13.504 6.68457L13.5937 6.5029L13.5797 6.30078L12.8315 6.35259ZM16.6958 15.9619L19.3208 20.5406L20.6221 19.7946L17.9971 15.2158L16.6958 15.9619ZM19.3229 20.5442C19.2457 20.4112 19.2119 20.2124 19.3062 20.0102C19.3531 19.9095 19.4463 19.7825 19.6101 19.7009C19.7886 19.612 19.9894 19.6092 20.1585 19.6754L19.6119 21.0723C19.8242 21.1553 20.0657 21.1498 20.2791 21.0435C20.4777 20.9445 20.5997 20.7856 20.6658 20.6437C20.7985 20.359 20.7648 20.0402 20.6201 19.791L19.3229 20.5442ZM20.1676 19.679L16.9389 18.3665L16.374 19.7561L19.6028 21.0686L20.1676 19.679ZM16.885 18.347C16.7699 18.3102 16.6483 18.2986 16.5284 18.3131L16.7081 19.8023C16.6139 19.8137 16.5184 19.8046 16.428 19.7757L16.885 18.347ZM16.5284 18.3131C16.4085 18.3276 16.2931 18.3677 16.1901 18.4309L16.9739 19.7098C16.893 19.7594 16.8023 19.7909 16.7081 19.8023L16.5284 18.3131ZM16.1901 18.4309C16.0871 18.494 15.9989 18.5786 15.9316 18.6789L17.177 19.5149C17.1241 19.5937 17.0548 19.6602 16.9739 19.7098L16.1901 18.4309ZM15.9316 18.6789C15.8643 18.7791 15.8194 18.8927 15.8 19.012L17.2805 19.2532C17.2652 19.3469 17.2299 19.4362 17.177 19.5149L15.9316 18.6789ZM15.7954 19.0449L15.3979 22.4199L16.8876 22.5953L17.2851 19.2203L15.7954 19.0449ZM15.4083 22.3556C15.4346 22.2285 15.5111 22.0708 15.6712 21.9563C15.8272 21.8447 15.9966 21.8214 16.1248 21.8347C16.3667 21.8599 16.5065 22.0054 16.5663 22.1085L15.2691 22.8617C15.3964 23.081 15.6375 23.2921 15.9694 23.3267C16.1426 23.3447 16.3542 23.312 16.5439 23.1763C16.7378 23.0376 16.8396 22.841 16.8772 22.6595L15.4083 22.3556ZM16.5741 22.1223L13.5254 16.606L12.2125 17.3316L15.2613 22.8479L16.5741 22.1223ZM12.2006 16.6285L9.38435 22.1598L10.7211 22.8404L13.5373 17.3091L12.2006 16.6285ZM9.41326 22.1082C9.46395 22.0255 9.59424 21.8796 9.83616 21.8513C9.96572 21.8361 10.1339 21.8581 10.2894 21.9652C10.4471 22.0739 10.5252 22.2241 10.5553 22.3444L9.1001 22.7082C9.14332 22.8811 9.24722 23.0688 9.43848 23.2005C9.62748 23.3307 9.83689 23.3614 10.0105 23.3411C10.3406 23.3025 10.5702 23.091 10.6922 22.892L9.41326 22.1082ZM10.5707 22.4238L10.0944 18.9738L8.60851 19.1789L9.08476 22.6289L10.5707 22.4238ZM10.0863 18.9262C10.0626 18.8101 10.0146 18.7004 9.94542 18.6042L8.72731 19.4795C8.67299 19.4039 8.63526 19.3177 8.61663 19.2264L10.0863 18.9262ZM9.94542 18.6042C9.87627 18.5079 9.78755 18.4274 9.68507 18.3679L8.93187 19.6651C8.85136 19.6184 8.78164 19.5551 8.72731 19.4795L9.94542 18.6042ZM9.68507 18.3679C9.58261 18.3084 9.46871 18.2713 9.35085 18.2589L9.19448 19.7508C9.10187 19.741 9.01238 19.7119 8.93187 19.6651L9.68507 18.3679ZM9.35085 18.2589C9.23303 18.2466 9.1139 18.2593 9.00129 18.2962L9.46913 19.7214C9.38065 19.7505 9.28705 19.7605 9.19448 19.7508L9.35085 18.2589ZM8.93818 18.3202L5.79943 19.6739L6.39349 21.0513L9.53224 19.6975L8.93818 18.3202ZM5.89042 19.6414C6.01266 19.6065 6.17921 19.6015 6.34743 19.6807C6.51294 19.7586 6.61722 19.8885 6.67105 20.01C6.77387 20.242 6.70803 20.44 6.65135 20.5355L5.36157 19.7697C5.23364 19.9851 5.1603 20.3032 5.29969 20.6177C5.3718 20.7804 5.50537 20.9422 5.70874 21.0379C5.91481 21.1349 6.12776 21.1337 6.3025 21.0837L5.89042 19.6414ZM6.65659 20.5265L9.28159 15.9628L7.98133 15.2149L5.35633 19.7786L6.65659 20.5265ZM12.2297 6.66483L13.2422 8.72358L14.5882 8.0616L13.5757 6.00285L12.2297 6.66483ZM13.2647 8.76589C13.3292 8.87828 13.4204 8.97303 13.5304 9.04172L14.3254 7.76973C14.4248 7.83188 14.5074 7.91761 14.5657 8.01929L13.2647 8.76589ZM13.5304 9.04172C13.6403 9.11042 13.7654 9.15091 13.8947 9.15964L13.9957 7.66304C14.1127 7.67093 14.2259 7.70757 14.3254 7.76973L13.5304 9.04172ZM13.8364 9.1534L16.0864 9.4834L16.304 7.99928L14.054 7.66928L13.8364 9.1534ZM16.1952 9.49134C15.7886 9.49134 15.5792 9.1908 15.5171 9.01069C15.4564 8.83474 15.4342 8.48175 15.7376 8.22892L16.6979 9.38126C17.0237 9.10968 17.0052 8.72482 16.9352 8.52167C16.8637 8.31437 16.6318 7.99134 16.1952 7.99134V9.49134ZM15.6942 8.26806L14.0517 9.86931L15.0988 10.9434L16.7413 9.34212L15.6942 8.26806ZM13.9257 10.0313C13.8569 10.1505 13.8207 10.2856 13.8207 10.4232L15.3207 10.4232C15.3207 10.5489 15.2876 10.6724 15.2247 10.7813L13.9257 10.0313ZM13.8207 10.4232C13.8207 10.5608 13.8569 10.6959 13.9257 10.8151L15.2247 10.0651C15.2876 10.174 15.3207 10.2975 15.3207 10.4232L13.8207 10.4232ZM13.8354 10.5634L14.2104 12.8134L15.69 12.5668L15.315 10.3168L13.8354 10.5634ZM14.2141 12.834C14.189 12.7052 14.1998 12.572 14.2456 12.449L15.6516 12.9717C15.7021 12.8358 15.7141 12.6885 15.6863 12.5462L14.2141 12.834ZM14.2456 12.449C14.2913 12.3261 14.37 12.2181 14.4732 12.137L15.3999 13.3165C15.514 13.2269 15.601 13.1076 15.6516 12.9717L14.2456 12.449ZM14.4732 12.137C14.5764 12.056 14.6999 12.005 14.8302 11.9897L15.0054 13.4794C15.1494 13.4625 15.2859 13.4061 15.3999 13.3165L14.4732 12.137ZM14.8302 11.9897C14.9605 11.9743 15.0925 11.9953 15.2116 12.0502L14.5838 13.4125C14.7155 13.4732 14.8614 13.4963 15.0054 13.4794L14.8302 11.9897ZM15.2468 12.0675L13.2143 10.9988L12.5162 12.3264L14.5487 13.3952L15.2468 12.0675ZM13.3474 11.0881C13.2076 10.9708 13.031 10.9064 12.8483 10.9064V12.4064C12.6781 12.4064 12.5133 12.3464 12.3831 12.2371L13.3474 11.0881ZM12.8483 10.9064C12.6658 10.9064 12.4891 10.9708 12.3493 11.0881L13.3136 12.2371C13.1833 12.3465 13.0186 12.4064 12.8483 12.4064V10.9064ZM12.4746 11.0029L10.4646 12.0904L11.1784 13.4097L13.1884 12.3222L12.4746 11.0029ZM10.5469 12.0521C10.6582 12.0084 10.7789 11.9934 10.8975 12.0088L10.7046 13.4964C10.8371 13.5136 10.9717 13.4969 11.096 13.448L10.5469 12.0521ZM10.8975 12.0088C11.0162 12.0242 11.129 12.0694 11.2255 12.1402L10.3384 13.3498C10.4461 13.4287 10.5721 13.4792 10.7046 13.4964L10.8975 12.0088ZM11.2255 12.1402C11.322 12.2109 11.399 12.3049 11.4493 12.4135L10.0886 13.0446C10.1448 13.1658 10.2307 13.2708 10.3384 13.3498L11.2255 12.1402ZM11.4493 12.4135C11.4997 12.5221 11.5217 12.6416 11.5134 12.7609L10.017 12.6568C10.0078 12.79 10.0323 12.9234 10.0886 13.0446L11.4493 12.4135ZM11.505 12.8321L11.88 10.5821L10.4004 10.3355L10.0254 12.5855L11.505 12.8321ZM11.81 10.7963C11.8654 10.6864 11.8942 10.565 11.8942 10.442H10.3942C10.3942 10.3306 10.4203 10.2208 10.4704 10.1213L11.81 10.7963ZM11.8942 10.442C11.8942 10.3189 11.8654 10.1975 11.81 10.0876L10.4704 10.7626C10.4203 10.6631 10.3942 10.5533 10.3942 10.442H11.8942ZM11.6631 9.88746L10.0169 8.28621L8.97103 9.36147L10.6173 10.9627L11.6631 9.88746ZM10.1039 8.38736C10.1702 8.4801 10.2132 8.58745 10.2292 8.70028L8.7441 8.91097C8.76197 9.03694 8.80996 9.15678 8.88405 9.26032L10.1039 8.38736ZM10.2292 8.70028C10.2452 8.81314 10.2338 8.92821 10.1958 9.03572L8.78136 8.53649C8.739 8.65651 8.72622 8.78497 8.7441 8.91097L10.2292 8.70028ZM10.1958 9.03572C10.1579 9.1432 10.0946 9.23997 10.0113 9.3178L8.98742 8.22158C8.89439 8.30846 8.82372 8.41649 8.78136 8.53649L10.1958 9.03572ZM10.0113 9.3178C9.92795 9.39563 9.82709 9.45219 9.71728 9.4827L9.31564 8.03748C9.19305 8.07155 9.08045 8.13469 8.98742 8.22158L10.0113 9.3178ZM9.62441 9.50228L11.8932 9.17228L11.6773 7.6879L9.4085 8.0179L9.62441 9.50228ZM11.7904 9.18007C11.9354 9.17907 12.0774 9.13783 12.2004 9.06096L11.4054 7.78896C11.5178 7.71871 11.6475 7.68103 11.78 7.68011L11.7904 9.18007ZM12.2004 9.06096C12.3234 8.98409 12.4226 8.8746 12.4871 8.74466L11.1433 8.07802C11.2023 7.95927 11.293 7.85921 11.4054 7.78896L12.2004 9.06096ZM12.4877 8.74332L13.504 6.68457L12.1589 6.02061L11.1427 8.07936L12.4877 8.74332ZM13.5797 6.30078C13.5911 6.46626 13.5445 6.63051 13.4479 6.76525L12.2289 5.89104C12.1221 6.03996 12.0706 6.2215 12.0833 6.4044L13.5797 6.30078ZM13.4479 6.76525C13.3512 6.90002 13.2106 6.99684 13.0502 7.03904L12.6685 5.58843C12.4912 5.63507 12.3358 5.74208 12.2289 5.89104L13.4479 6.76525ZM13.0502 7.03904C12.8899 7.08124 12.7198 7.0662 12.5693 6.99645L13.2 5.6355C13.0337 5.55841 12.8457 5.54179 12.6685 5.58843L13.0502 7.03904ZM12.5693 6.99645C12.4188 6.92672 12.2974 6.80668 12.2259 6.65703L13.5795 6.01065C13.5005 5.84525 13.3663 5.71258 13.2 5.6355L12.5693 6.99645Z" fill="#C79569"/>
<path d="M17.6542 4.18525L17.9767 5.164C18.0729 5.47098 18.2715 5.7357 18.5392 5.914L19.3755 6.454C19.6494 6.63801 19.852 6.91031 19.9496 7.22554C20.0472 7.54077 20.0338 7.87992 19.9117 8.1865L19.5967 8.97025C19.4562 9.31654 19.4562 9.70396 19.5967 10.0502L19.908 10.8002C20.0317 11.1003 20.0501 11.4335 19.9602 11.7454C19.8703 12.0573 19.6774 12.3295 19.413 12.5177L18.6742 13.0502C18.4089 13.241 18.216 13.5159 18.1267 13.8302L17.8755 14.7452C17.7846 15.0657 17.5854 15.3447 17.3119 15.5348C17.0384 15.7249 16.7075 15.8143 16.3755 15.7877L15.588 15.7202C15.2178 15.6903 14.8502 15.803 14.5605 16.0352L13.8105 16.6465C13.5539 16.8564 13.2326 16.9711 12.9011 16.9711C12.5696 16.9711 12.2483 16.8564 11.9917 16.6465L11.328 16.1252C11.0693 15.9119 10.7445 15.7952 10.4092 15.7952H9.25047C8.92357 15.7953 8.60642 15.6839 8.35141 15.4793C8.09641 15.2748 7.91882 14.9894 7.84797 14.6702L7.64172 13.789C7.56092 13.4357 7.34919 13.1261 7.04922 12.9227L6.36297 12.4465C6.0987 12.2666 5.90182 12.0038 5.80337 11.6996C5.70492 11.3954 5.7105 11.0672 5.81922 10.7665L6.14172 9.8815C6.25991 9.5595 6.25991 9.20599 6.14172 8.884L5.85297 8.1115C5.73835 7.80346 5.73196 7.46558 5.83488 7.15344C5.93779 6.84129 6.14387 6.57346 6.41922 6.394L7.16922 5.90275C7.46315 5.711 7.67764 5.41924 7.77297 5.0815L8.00172 4.264C8.09252 3.94324 8.29152 3.66379 8.56494 3.47308C8.83836 3.28237 9.16935 3.19215 9.50172 3.21775L10.2255 3.2815C10.5956 3.31147 10.9632 3.19877 11.253 2.9665L11.9392 2.4115C12.1967 2.20035 12.5194 2.08496 12.8523 2.08496C13.1853 2.08496 13.508 2.20035 13.7655 2.4115L14.388 2.929C14.6753 3.16968 15.0455 3.28815 15.4192 3.259L16.1692 3.20275C16.4911 3.17629 16.8125 3.25877 17.0818 3.43696C17.3511 3.61515 17.5527 3.87869 17.6542 4.18525V4.18525Z" stroke="#C79569" stroke-width="1.5"/>
</svg>
