<svg width="25" height="24" viewBox="0 0 25 24" fill="none" xmlns="http://www.w3.org/2000/svg">
<path d="M19.6256 14.9075C18.9891 14.9075 18.3786 14.6935 17.9285 14.3127C17.4784 13.9319 17.2256 13.4153 17.2256 12.8767V9.83057C17.2256 9.29198 17.4784 8.77545 17.9285 8.3946C18.3786 8.01376 18.9891 7.7998 19.6256 7.7998C20.2621 7.7998 20.8726 8.01376 21.3226 8.3946C21.7727 8.77545 22.0256 9.29198 22.0256 9.83057V12.8767C22.0256 13.4153 21.7727 13.9319 21.3226 14.3127C20.8726 14.6935 20.2621 14.9075 19.6256 14.9075ZM19.6256 14.9075V20.9998M19.6256 14.9075V12.5998" stroke="#C79569" stroke-width="1.5" stroke-linecap="round" stroke-linejoin="round"/>
<path d="M3.62529 21H21.6253M8.62529 8.99998V21M8.62529 8.99998L10.1253 7.5M8.62529 8.99998L7.62539 8.00008M13.6253 8.49998C13.6259 7.82112 13.4285 7.15682 13.0573 6.58845C12.6861 6.02007 12.1571 5.5723 11.5353 5.29998C11.3727 4.6513 10.9981 4.07554 10.4708 3.66414C9.9436 3.25274 9.29403 3.0293 8.62529 3.0293C7.95655 3.0293 7.30697 3.25274 6.77975 3.66414C6.25252 4.07554 5.87786 4.6513 5.71529 5.29998C5.09211 5.57124 4.56169 6.01855 4.18915 6.587C3.81661 7.15546 3.61816 7.82033 3.61816 8.49998C3.61816 9.17964 3.81661 9.8445 4.18915 10.413C4.56169 10.9814 5.09211 11.4287 5.71529 11.7C5.87786 12.3487 6.25252 12.9244 6.77975 13.3358C7.30697 13.7472 7.95655 13.9707 8.62529 13.9707C9.29403 13.9707 9.9436 13.7472 10.4708 13.3358C10.9981 12.9244 11.3727 12.3487 11.5353 11.7C12.1571 11.4277 12.6861 10.9799 13.0573 10.4115C13.4285 9.84314 13.6259 9.17884 13.6253 8.49998Z" stroke="#C79569" stroke-width="1.5" stroke-linecap="round" stroke-linejoin="round"/>
</svg>
