<svg width="25" height="24" viewBox="0 0 25 24" fill="none" xmlns="http://www.w3.org/2000/svg">
<g clip-path="url(#clip0_1607_10486)">
<path d="M5.61573 15.494L9.08093 13.3127C9.19239 13.2432 9.31667 13.1968 9.44639 13.1762C9.57612 13.1556 9.70866 13.1612 9.83617 13.1928C11.0668 13.5127 14.7674 14.5256 16.1313 15.0054C17.1575 15.3652 17.5707 16.3781 17.1575 17.0489C16.5977 17.9374 15.7448 17.8486 15.1317 17.6753C15.048 17.6524 14.9663 17.6226 14.8874 17.5865L12.4617 16.5558M5.58019 21.8736L2.28826 16.9201C2.21048 16.8015 2.18271 16.657 2.211 16.518C2.2393 16.3791 2.32135 16.2569 2.4393 16.1782L4.51842 14.8454C4.63452 14.7698 4.77552 14.7423 4.91152 14.7689C5.04752 14.7954 5.16785 14.8738 5.247 14.9876L8.60558 19.8744C8.68562 19.9923 8.7156 20.1371 8.68895 20.277C8.66229 20.4169 8.58117 20.5406 8.46342 20.6208L6.3221 22.0557C6.2617 22.0934 6.19435 22.1186 6.12403 22.1299C6.05372 22.1411 5.98186 22.1382 5.91271 22.1212C5.84355 22.1042 5.7785 22.0736 5.72139 22.031C5.66428 21.9885 5.61627 21.935 5.58019 21.8736V21.8736Z" stroke="#C79569" stroke-width="1.5" stroke-linecap="round"/>
<path d="M8.30371 19.4299L9.43656 18.7813L15.8472 20.5583C15.9131 20.576 15.9819 20.5797 16.0493 20.569C16.1167 20.5582 16.181 20.5334 16.2381 20.4961C17.1266 19.9141 20.9961 17.3552 22.902 16.0091C23.0565 15.9234 23.1873 15.8006 23.2826 15.6517C23.3779 15.5029 23.4347 15.3328 23.4479 15.1565C23.4611 14.9803 23.4303 14.8036 23.3583 14.6422C23.2863 14.4808 23.1753 14.3399 23.0353 14.2321C22.813 14.0331 22.5321 13.9116 22.2349 13.886C21.9376 13.8603 21.6401 13.9319 21.3871 14.0899C20.7207 14.4631 18.8681 15.8358 18.8681 15.8358" stroke="#C79569" stroke-width="1.5" stroke-linecap="round"/>
<circle cx="17.6987" cy="7.99068" r="5.32369" stroke="#C79569" stroke-width="1.5"/>
<circle cx="17.7083" cy="8.00033" r="3.33333" stroke="#C79569" stroke-width="1.5"/>
</g>
<defs>
<clipPath id="clip0_1607_10486">
<rect width="24" height="24" fill="white" transform="translate(0.625)"/>
</clipPath>
</defs>
</svg>
