<svg width="25" height="24" viewBox="0 0 25 24" fill="none" xmlns="http://www.w3.org/2000/svg">
<path d="M17.5779 13.3132H17.7691M4.0166 7.36052L15.9761 4.04145C16.0659 4.01676 16.1603 4.01287 16.2519 4.03009C16.3435 4.04731 16.4299 4.08518 16.5047 4.14082C16.5795 4.19647 16.6406 4.26843 16.6834 4.35123C16.7262 4.43403 16.7496 4.5255 16.7517 4.61868L16.8491 7.14406L4.0166 7.36052Z" stroke="#EE5238" stroke-width="1.5" stroke-linecap="round"/>
<path d="M17.5781 13.3135H17.7693" stroke="#EE5238" stroke-width="1.5" stroke-linecap="round"/>
<path d="M20.3311 15.3235V19.2667C20.3311 19.458 20.2551 19.6416 20.1198 19.7769C19.9844 19.9122 19.8009 19.9882 19.6096 19.9882H4.09654C3.90517 19.9882 3.72165 19.9122 3.58633 19.7769C3.45102 19.6416 3.375 19.458 3.375 19.2667V8.08286C3.375 7.8915 3.45102 7.70798 3.58633 7.57266C3.72165 7.43735 3.90517 7.36133 4.09654 7.36133H19.6096C19.8009 7.36133 19.9844 7.43735 20.1198 7.57266C20.2551 7.70798 20.3311 7.8915 20.3311 8.08286V11.3045" stroke="#EE5238" stroke-width="1.5" stroke-linecap="round"/>
<path d="M21.5175 11.3037H15.738C15.5408 11.3037 15.3809 11.4636 15.3809 11.6609V14.9655C15.3809 15.1628 15.5408 15.3227 15.738 15.3227H21.5175C21.7148 15.3227 21.8747 15.1628 21.8747 14.9655V11.6609C21.8747 11.4636 21.7148 11.3037 21.5175 11.3037Z" stroke="#EE5238" stroke-width="1.5" stroke-linecap="round"/>
</svg>
