<svg width="25" height="24" viewBox="0 0 25 24" fill="none" xmlns="http://www.w3.org/2000/svg">
<path d="M20.2566 21.5887H4.99414V2.83875C4.99414 2.83179 4.99608 2.82496 4.99974 2.81904C5.0034 2.81311 5.00864 2.80832 5.01487 2.80521C5.0211 2.8021 5.02807 2.80078 5.03501 2.8014C5.04194 2.80203 5.04857 2.80457 5.05414 2.80875L6.59539 4.2525C6.60266 4.25718 6.61112 4.25967 6.61977 4.25967C6.62841 4.25967 6.63687 4.25718 6.64414 4.2525L7.88164 2.79375C7.88783 2.78822 7.89584 2.78516 7.90414 2.78516C7.91244 2.78516 7.92045 2.78822 7.92664 2.79375L9.32164 4.25625C9.32871 4.26143 9.33725 4.26422 9.34602 4.26422C9.35478 4.26422 9.36332 4.26143 9.37039 4.25625L10.6041 2.7975C10.6073 2.79421 10.6111 2.79159 10.6153 2.7898C10.6195 2.78802 10.624 2.78709 10.6285 2.78709C10.6331 2.78709 10.6376 2.78802 10.6418 2.7898C10.646 2.79159 10.6497 2.79421 10.6529 2.7975L11.7254 4.24875C11.7328 4.25485 11.7421 4.25818 11.7516 4.25818C11.7612 4.25818 11.7705 4.25485 11.7779 4.24875L13.0004 2.7975C13.0035 2.79421 13.0073 2.79159 13.0115 2.7898C13.0157 2.78802 13.0202 2.78709 13.0248 2.78709C13.0293 2.78709 13.0338 2.78802 13.038 2.7898C13.0422 2.79159 13.046 2.79421 13.0491 2.7975L14.0579 4.245C14.0649 4.25187 14.0743 4.25572 14.0841 4.25572C14.094 4.25572 14.1034 4.25187 14.1104 4.245L15.1904 2.7975C15.1974 2.79063 15.2068 2.78678 15.2166 2.78678C15.2265 2.78678 15.2359 2.79063 15.2429 2.7975L16.3116 4.245C16.3187 4.25187 16.3281 4.25572 16.3379 4.25572C16.3477 4.25572 16.3571 4.25187 16.3641 4.245L17.3879 2.805C17.391 2.80036 17.3951 2.79655 17.4001 2.79392C17.405 2.79128 17.4104 2.78991 17.416 2.78991C17.4216 2.78991 17.4271 2.79128 17.432 2.79392C17.4369 2.79655 17.4411 2.80036 17.4441 2.805L18.2879 4.245C18.295 4.25018 18.3035 4.25297 18.3123 4.25297C18.321 4.25297 18.3296 4.25018 18.3366 4.245L20.2116 2.79375C20.2174 2.7904 20.224 2.78866 20.2307 2.78871C20.2374 2.78877 20.244 2.79061 20.2497 2.79406C20.2554 2.7975 20.2602 2.80242 20.2634 2.8083C20.2666 2.81418 20.2681 2.82081 20.2679 2.8275L20.2566 21.5887Z" stroke="#C79569" stroke-width="1.5" stroke-linecap="round"/>
<path d="M7.9082 15.6611H17.8832M7.9082 18.0011H17.8832" stroke="#C79569" stroke-width="1.5" stroke-linecap="round"/>
<path d="M10.708 9.66667L12.2636 11.3333L15.3747 8" stroke="#C79569" stroke-width="1.5" stroke-linecap="round"/>
</svg>
