<svg xmlns="http://www.w3.org/2000/svg" viewBox="0 0 310 170"><path d="M136.862 168.33c-38.732-6.675-66.574-30.204-100.236-84.707C25.74 65.994 1.184 18.043 1.184 14.41c0-1.455 1.07-3.29 2.635-4.522C6.33 7.914 7.666 7.816 32.07 7.82c23.692.003 25.857.15 28.835 1.967 2.596 1.582 4.857 5.315 11.66 19.246 13.774 28.2 31.154 52.373 39.09 54.364 3.668.921 7.21-2.628 9.015-9.035 3.55-12.597 2.628-44.485-1.523-52.622-1.977-3.875-6.49-7.276-11.221-8.457-1.518-.379-3.02-1.109-3.336-1.622-.997-1.613 2.463-5.737 6.57-7.832 3.68-1.878 5.858-2.013 32.337-2.013 27.9 0 28.451.04 31.79 2.281 5.211 3.499 5.726 7.084 5.818 40.509.074 27.011.232 29.588 2.038 33.126 3.514 6.89 8.252 6.97 14.97.252 11.308-11.309 23.905-31.269 33.728-53.444 2.978-6.724 6.549-13.237 7.935-14.474 2.494-2.227 2.833-2.25 32.215-2.249 26.267.002 30.098.204 33.194 1.75 2.91 1.454 3.551 2.363 3.804 5.387.704 8.437-7.114 21.643-30.705 51.862-19.376 24.82-21.145 28.2-17.962 34.316.625 1.2 10.206 11.184 21.29 22.184 14.87 14.756 21.127 21.698 23.864 26.477 4.747 8.29 4.96 12.926.786 17.1l-2.923 2.923h-28.54c-37.699 0-34.875 1.004-55.614-19.784-8.525-8.545-16.85-16.363-18.5-17.373-9.536-5.836-16.488 1.934-19.012 21.25-1.133 8.666-1.726 10.6-3.93 12.807-2.551 2.553-2.87 2.603-17.828 2.781-9.104.108-18.376-.361-23.052-1.167z"/></svg>