<svg width="453" height="90" viewBox="0 0 453 90" fill="none" xmlns="http://www.w3.org/2000/svg">
<path d="M10.3838 66.8618L15.2884 77.2594H15.3565L20.3293 66.8618L15.3565 61.8682L10.3838 66.8618Z" fill="#ED5338"/>
<path d="M15.355 17.541C14.2651 18.0883 0.504883 25.4077 0.504883 37.105C0.504883 47.0923 8.61112 62.2783 8.61112 62.2783L15.355 55.5062L22.0988 62.2783C22.0988 62.2783 30.2051 47.1607 30.2051 37.105C30.1369 25.4077 16.3768 18.0883 15.355 17.541ZM19.7827 50.923L15.355 46.4766L10.9272 50.923C10.7228 50.3073 7.72557 42.2355 7.72557 36.9682C7.72557 29.854 14.81 25.8865 15.355 25.6129C15.8999 25.8181 22.9844 29.854 22.9844 36.9682C22.9844 42.2355 19.9871 50.3073 19.7827 50.923Z" fill="#C59368"/>
<path d="M30.1728 12.4886L25.1152 17.5674L30.1728 22.6462L35.2304 17.5674L30.1728 12.4886Z" fill="#C59368"/>
<path d="M18.8965 36.6254C18.8965 38.5408 17.3297 40.1141 15.4223 40.1141C13.515 40.1141 11.9482 38.5408 11.9482 36.6254C11.9482 34.71 13.515 33.1367 15.4223 33.1367C17.3297 33.1367 18.8965 34.71 18.8965 36.6254Z" fill="#C59368"/>
<path d="M49.1719 41.479V25.8818H53.8254L58.4789 31.1618L62.7698 25.8818H67.3025V41.479H62.1051V33.8321L58.3581 38.1411H58.2372L54.3089 33.8321V41.479H49.1719Z" fill="#562212"/>
<path d="M69.5801 33.6501C69.5801 31.2832 70.3657 29.3411 71.9371 27.7632C73.5084 26.1853 75.6236 25.457 78.2223 25.457C80.8211 25.457 82.9363 26.246 84.4472 27.7632C86.0185 29.3411 86.8042 31.2832 86.8042 33.6501C86.8042 36.0169 86.0185 37.959 84.4472 39.5369C82.8759 41.1148 80.8211 41.8431 78.2223 41.8431C75.6236 41.8431 73.5084 41.0541 71.9371 39.5369C70.3657 38.0197 69.5801 36.0776 69.5801 33.6501ZM78.1619 37.0487C79.975 37.0487 81.2441 35.7742 81.2441 33.7108C81.2441 31.7687 79.9145 30.3729 78.1619 30.3729C76.4093 30.3729 75.0797 31.708 75.0797 33.7108C75.0797 35.5921 76.3488 37.0487 78.1619 37.0487Z" fill="#562212"/>
<path d="M94.1175 41.4792H88.9805V25.882H94.1779V34.0144L99.6776 25.882H104.875V41.4792H99.6776V33.3468L94.1175 41.4792ZM95.5679 18.2959C95.5679 19.6311 96.0514 20.2986 97.0184 20.2986C97.8645 20.2986 98.348 19.6311 98.348 18.2959H102.82C102.82 21.6945 100.765 24.1827 97.0184 24.1827C92.9692 24.1827 91.0957 21.8159 91.0957 18.2959H95.5679Z" fill="#562212"/>
<path d="M121.614 19.0844C121.07 19.8733 120.405 20.3588 119.619 20.6623C118.834 20.9657 117.867 21.2085 116.718 21.3299C115.57 21.5119 114.603 21.8154 113.697 22.1795C111.34 23.2719 110.07 25.7602 109.768 29.705H109.829C110.856 27.5202 113.334 26.0636 115.933 26.0636C120.344 26.0636 123.124 29.0981 123.124 33.8318C123.124 36.0166 122.339 37.9587 120.888 39.4759C119.377 41.0538 117.504 41.7821 115.147 41.7821C112.609 41.7821 110.614 40.9325 109.164 39.1725C107.653 37.4732 106.988 35.1063 106.988 32.0718C106.988 25.3353 108.922 21.1478 112.73 19.5092C113.636 19.0844 114.664 18.8416 115.751 18.6595C117.927 18.2954 119.136 18.0527 120.042 16.8389L121.614 19.0844ZM115.207 39.2332C116.718 39.2332 117.927 38.687 118.834 37.7159C119.801 36.6842 120.284 35.4704 120.284 33.9532C120.284 30.7974 118.471 28.6733 115.328 28.6733C113.938 28.6733 112.79 29.0374 111.823 29.8263C110.856 30.6153 110.252 31.5863 110.01 32.618C109.95 36.6235 112.125 39.2332 115.207 39.2332Z" fill="#562212"/>
<path d="M128.444 41.479H125.664V25.8818H128.444V37.4735L137.389 25.8818H140.169V41.479H137.389V29.8873L128.444 41.479Z" fill="#562212"/>
<path d="M145.063 41.2366C143.794 40.8118 142.888 40.3263 142.404 39.7194L143.794 37.656C145.063 38.6877 146.937 39.3553 148.387 39.3553C150.744 39.3553 152.437 38.3235 152.437 36.8063C152.437 35.5318 151.288 34.8036 149.415 34.8036H146.816V32.5581H149.233C150.805 32.5581 151.893 31.587 151.893 30.3733C151.893 28.9774 150.623 28.1278 148.569 28.1278C146.937 28.1278 145.366 28.7347 143.915 29.8877L142.827 27.7636C144.096 26.4892 146.453 25.7002 148.931 25.7002C152.678 25.7002 154.733 27.2781 154.733 29.8877C154.733 31.7084 153.827 32.9222 152.013 33.5291V33.5898C154.068 33.8325 155.277 35.3498 155.277 37.2311C155.277 40.0835 152.618 41.9042 148.69 41.9042C147.602 41.7828 146.333 41.6007 145.063 41.2366Z" fill="#562212"/>
<path d="M169.478 41.479V34.8638H160.836V41.4183H158.056V25.8818H160.836V32.2542H169.478V25.8818H172.258V41.479H169.478Z" fill="#562212"/>
<path d="M188.819 39.7783C187.308 41.1134 185.374 41.8417 183.017 41.8417C180.479 41.8417 178.484 41.1134 176.973 39.6569C175.462 38.1397 174.677 36.1976 174.677 33.77C174.677 31.4032 175.402 29.4611 176.792 27.9439C178.182 26.366 180.176 25.6377 182.654 25.6377C184.709 25.6377 186.401 26.3053 187.791 27.6404C189.181 28.9756 189.846 30.6749 189.846 32.7383C189.846 33.4666 189.786 34.0735 189.665 34.6197H177.819C178.061 37.5328 180.176 39.2928 183.198 39.2928C185.253 39.2928 186.824 38.7465 187.973 37.6541L188.819 39.7783ZM177.638 32.3135H187.066C186.945 29.7039 185.253 28.1866 182.594 28.1866C179.814 28.126 177.94 29.8252 177.638 32.3135Z" fill="#562212"/>
<path d="M205.196 39.233C203.927 40.8716 201.691 41.8427 199.213 41.8427C196.735 41.8427 194.741 41.1144 193.17 39.6579C191.659 38.1406 190.873 36.1986 190.873 33.771C190.873 31.4648 191.659 29.5228 193.109 28.0055C194.62 26.4276 196.494 25.6387 198.73 25.6387C201.449 25.6387 203.504 26.3063 204.834 27.7021L203.564 29.8869C202.416 28.7945 200.905 28.2483 199.092 28.2483C197.642 28.2483 196.433 28.7945 195.345 29.8262C194.318 30.8579 193.774 32.1931 193.774 33.771C193.774 35.4096 194.318 36.8055 195.345 37.7765C196.433 38.8082 197.763 39.2937 199.334 39.2937C201.147 39.2937 202.598 38.6261 203.806 37.291L205.196 39.233Z" fill="#562212"/>
<path d="M50.033 77.4072H48.8174L53.0722 67.751H54.1041L58.3589 77.4072H57.0726L55.8004 74.4994H51.2911L50.033 77.4072ZM55.3339 73.4021L53.5528 69.301L51.7717 73.4021H55.3339Z" fill="#C59368"/>
<path d="M60.127 77.3935V67.8196C61.4369 67.783 62.3416 67.7648 62.841 67.7648C63.9154 67.7648 64.7117 67.9751 65.23 68.3957C65.7577 68.8072 66.0216 69.3878 66.0216 70.1377C66.0216 70.6954 65.8708 71.1618 65.5692 71.5367C65.2677 71.9116 64.853 72.1859 64.3253 72.3597V72.3871C64.9661 72.4877 65.4656 72.7346 65.8237 73.1278C66.1912 73.521 66.375 74.033 66.375 74.664C66.375 75.5784 66.0545 76.2733 65.4137 76.7488C64.7729 77.2152 63.8965 77.4484 62.7845 77.4484C61.7008 77.4484 60.8149 77.4301 60.127 77.3935ZM62.9259 73.0318H61.3285V76.2962C61.7149 76.3328 62.2238 76.3511 62.8552 76.3511C63.5997 76.3511 64.1698 76.2048 64.5656 75.9121C64.9708 75.6104 65.1734 75.1715 65.1734 74.5954C65.1734 74.0925 64.9755 73.7084 64.5797 73.4432C64.1934 73.1689 63.6421 73.0318 62.9259 73.0318ZM62.8128 68.8621C62.5301 68.8621 62.0353 68.8758 61.3285 68.9032V72.003H62.9117C63.4677 72.003 63.9248 71.8613 64.2829 71.5778C64.641 71.2852 64.82 70.892 64.82 70.3983C64.82 69.3741 64.1509 68.8621 62.8128 68.8621Z" fill="#C59368"/>
<path d="M71.0424 68.9032H67.5791V67.8059H75.7071V68.9032H72.2439V77.4072H71.0424V68.9032Z" fill="#C59368"/>
<path d="M76.1527 72.6066C76.1527 71.2167 76.6286 70.0462 77.5804 69.0952C78.5322 68.1442 79.7385 67.6687 81.1992 67.6687C82.6504 67.6687 83.8519 68.1305 84.8037 69.0541C85.765 69.9776 86.2456 71.1618 86.2456 72.6066C86.2456 74.0147 85.765 75.1943 84.8037 76.1453C83.8425 77.078 82.641 77.5444 81.1992 77.5444C79.7573 77.5444 78.5511 77.0826 77.5804 76.159C76.6286 75.2355 76.1527 74.0513 76.1527 72.6066ZM77.4249 72.6066C77.4249 73.6856 77.7878 74.6 78.5134 75.3498C79.239 76.0813 80.1343 76.4471 81.1992 76.4471C82.3112 76.4471 83.2158 76.0813 83.9132 75.3498C84.62 74.6183 84.9734 73.7038 84.9734 72.6066C84.9734 71.5093 84.6106 70.5949 83.8849 69.8633C83.1593 69.1318 82.264 68.766 81.1992 68.766C80.1154 68.766 79.2155 69.1272 78.4992 69.8496C77.783 70.572 77.4249 71.491 77.4249 72.6066Z" fill="#C59368"/>
<path d="M96.359 77.4072H95.1574V73.0592H89.7152V77.4072H88.5137V67.8059H89.7152V71.9619H95.1574V67.8059H96.359V77.4072Z" fill="#C59368"/>
<path d="M98.6157 72.6066C98.6157 71.2167 99.0916 70.0462 100.043 69.0952C100.995 68.1442 102.201 67.6687 103.662 67.6687C105.113 67.6687 106.315 68.1305 107.267 69.0541C108.228 69.9776 108.709 71.1618 108.709 72.6066C108.709 74.0147 108.228 75.1943 107.267 76.1453C106.305 77.078 105.104 77.5444 103.662 77.5444C102.22 77.5444 101.014 77.0826 100.043 76.159C99.0916 75.2355 98.6157 74.0513 98.6157 72.6066ZM99.8879 72.6066C99.8879 73.6856 100.251 74.6 100.976 75.3498C101.702 76.0813 102.597 76.4471 103.662 76.4471C104.774 76.4471 105.679 76.0813 106.376 75.3498C107.083 74.6183 107.436 73.7038 107.436 72.6066C107.436 71.5093 107.074 70.5949 106.348 69.8633C105.622 69.1318 104.727 68.766 103.662 68.766C102.578 68.766 101.678 69.1272 100.962 69.8496C100.246 70.572 99.8879 71.491 99.8879 72.6066Z" fill="#C59368"/>
<path d="M112.178 77.4072H110.977V67.8059H112.192L115.91 72.73L119.472 67.8059H120.617V77.4072H119.416V69.6439L115.91 74.4171H115.726L112.178 69.685V77.4072Z" fill="#C59368"/>
<path d="M131.496 77.4072H130.294V73.0592H124.852V77.4072H123.651V67.8059H124.852V71.9619H130.294V67.8059H131.496V77.4072Z" fill="#C59368"/>
<path d="M143.506 77.4072H142.305V67.8059H143.506V77.4072ZM136.961 72.4008C136.632 72.4008 136.222 72.4282 135.732 72.4831V76.2962C136.495 76.3236 136.891 76.3373 136.919 76.3373C138.597 76.3373 139.435 75.6561 139.435 74.2936C139.435 73.681 139.223 73.2146 138.799 72.8946C138.375 72.5654 137.763 72.4008 136.961 72.4008ZM134.53 67.8059H135.732V71.3721C136.391 71.3264 136.83 71.3035 137.046 71.3035C138.243 71.3035 139.153 71.5641 139.774 72.0853C140.396 72.5974 140.707 73.3244 140.707 74.2662C140.707 75.2721 140.363 76.0539 139.676 76.6117C138.988 77.1603 138.022 77.4346 136.778 77.4346C136.307 77.4346 135.897 77.4301 135.548 77.4209C135.209 77.4118 134.869 77.4072 134.53 77.4072V67.8059Z" fill="#C59368"/>
<path d="M153.609 69.7262L147.602 77.4072H146.542V67.8059H147.743V75.4869L153.751 67.8059H154.811V77.4072H153.609V69.7262ZM148.125 65.6113H149.256C149.482 66.2057 149.986 66.5029 150.768 66.5029C151.597 66.5029 152.083 66.2057 152.224 65.6113H153.355C153.289 66.1234 153.011 66.5395 152.521 66.8595C152.04 67.1704 151.456 67.3258 150.768 67.3258C150.043 67.3258 149.439 67.1704 148.959 66.8595C148.488 66.5486 148.21 66.1325 148.125 65.6113Z" fill="#C59368"/>
<path d="M160.317 72.6066C160.317 71.2167 160.793 70.0462 161.745 69.0952C162.697 68.1442 163.903 67.6687 165.364 67.6687C166.815 67.6687 168.016 68.1305 168.968 69.0541C169.929 69.9776 170.41 71.1618 170.41 72.6066C170.41 74.0147 169.929 75.1943 168.968 76.1453C168.007 77.078 166.805 77.5444 165.364 77.5444C163.922 77.5444 162.716 77.0826 161.745 76.159C160.793 75.2355 160.317 74.0513 160.317 72.6066ZM161.589 72.6066C161.589 73.6856 161.952 74.6 162.678 75.3498C163.403 76.0813 164.299 76.4471 165.364 76.4471C166.476 76.4471 167.38 76.0813 168.078 75.3498C168.784 74.6183 169.138 73.7038 169.138 72.6066C169.138 71.5093 168.775 70.5949 168.049 69.8633C167.324 69.1318 166.429 68.766 165.364 68.766C164.28 68.766 163.38 69.1272 162.664 69.8496C161.948 70.572 161.589 71.491 161.589 72.6066Z" fill="#C59368"/>
<path d="M178.46 67.8059H179.916L175.505 72.3185L180.142 77.4072H178.601L174.12 72.4008L178.46 67.8059ZM173.88 77.4072H172.678V67.8059H173.88V77.4072Z" fill="#C59368"/>
<path d="M183.185 73.7176V77.4072H181.984V67.8059C182.38 67.8059 182.799 67.8013 183.242 67.7922C183.685 67.7831 184.128 67.7785 184.571 67.7785C185.871 67.7785 186.804 68.0619 187.37 68.6289C187.944 69.1867 188.232 69.8953 188.232 70.7549C188.232 71.587 187.921 72.3002 187.299 72.8946C186.696 73.4798 185.819 73.7724 184.67 73.7724C184.067 73.7724 183.572 73.7541 183.185 73.7176ZM184.684 68.8758C184.514 68.8758 184.015 68.8849 183.185 68.9032V72.6066C183.779 72.6523 184.26 72.6751 184.627 72.6751C185.353 72.6751 185.923 72.506 186.338 72.1676C186.752 71.8202 186.96 71.3447 186.96 70.7412C186.96 70.1468 186.767 69.6896 186.38 69.3696C186.003 69.0404 185.438 68.8758 184.684 68.8758Z" fill="#C59368"/>
<path d="M196.536 67.8059H197.752L194.331 75.2126C193.982 75.9807 193.615 76.5385 193.228 76.886C192.851 77.2335 192.399 77.4072 191.871 77.4072C191.362 77.4072 190.962 77.2929 190.67 77.0643L191.094 76.0767C191.339 76.2413 191.593 76.3236 191.857 76.3236C192.338 76.3236 192.743 75.999 193.073 75.3498L193.242 74.9932L188.761 67.8059H190.118L193.822 73.8273L196.536 67.8059Z" fill="#C59368"/>
<path d="M200.72 77.4072H199.519V67.8059H205.032V68.9032H200.72V77.4072Z" fill="#C59368"/>
<path d="M57.2711 61.0657H55.9219V56.9623H53.8426L50.9697 61.0657H49.446L52.5252 56.7255C51.8692 56.4625 51.3401 56.0627 50.938 55.5261C50.5359 54.9789 50.3348 54.3476 50.3348 53.6322C50.3348 52.5695 50.6999 51.6962 51.43 51.0123C52.1602 50.3179 53.2395 49.9707 54.668 49.9707C54.7103 49.9707 55.1548 49.9812 56.0013 50.0022C56.4245 50.0127 56.8478 50.018 57.2711 50.018V61.0657ZM53.6839 55.6997H55.9219V51.2806C55.1918 51.249 54.6892 51.2332 54.414 51.2332C53.5887 51.2332 52.9379 51.4489 52.4617 51.8803C51.9962 52.3012 51.7634 52.8588 51.7634 53.5533C51.7634 54.1214 51.9538 54.6002 52.3348 54.9895C52.7157 55.3893 53.1654 55.626 53.6839 55.6997Z" fill="#C59368"/>
<path d="M62.0335 61.0657H60.6844V50.018H62.0494L66.2238 55.6839L70.2237 50.018H71.5093V61.0657H70.1602V52.1328L66.2238 57.6251H66.0175L62.0335 52.1802V61.0657Z" fill="#C59368"/>
<path d="M74.8521 61.0657H73.4871L78.2646 49.9549H79.4233L84.2009 61.0657H82.7565L81.328 57.7198H76.2647L74.8521 61.0657ZM80.8042 56.4572L78.8043 51.7383L76.8044 56.4572H80.8042Z" fill="#C59368"/>
<path d="M94.1903 61.0657H92.8412V51.2806H88.8096L88.6191 53.3639C88.4921 54.7317 88.3281 55.9048 88.1271 56.8833C87.926 57.8513 87.7091 58.6142 87.4763 59.1718C87.2435 59.7294 86.9684 60.1608 86.651 60.466C86.3441 60.7711 86.0425 60.9605 85.7462 61.0341C85.4499 61.1078 85.1113 61.1183 84.7304 61.0657L84.7463 59.7242C84.9685 59.7557 85.159 59.74 85.3177 59.6768C85.4764 59.6032 85.6563 59.4401 85.8573 59.1876C86.0795 58.9245 86.2806 58.53 86.4605 58.0039C86.8838 56.8255 87.1906 54.9 87.3811 52.2275L87.5398 50.018H94.1903V61.0657Z" fill="#C59368"/>
<path d="M96.7233 55.5418C96.7233 53.9426 97.2577 52.5958 98.3265 51.5015C99.3952 50.4073 100.75 49.8602 102.39 49.8602C104.019 49.8602 105.368 50.3915 106.437 51.4542C107.517 52.5169 108.056 53.8794 108.056 55.5418C108.056 57.1622 107.517 58.5195 106.437 59.6137C105.358 60.6869 104.009 61.2235 102.39 61.2235C100.771 61.2235 99.4164 60.6922 98.3265 59.6295C97.2577 58.5668 96.7233 57.2043 96.7233 55.5418ZM98.1519 55.5418C98.1519 56.7834 98.5592 57.8356 99.374 58.6983C100.189 59.5401 101.194 59.9609 102.39 59.9609C103.638 59.9609 104.654 59.5401 105.437 58.6983C106.231 57.8566 106.628 56.8044 106.628 55.5418C106.628 54.2793 106.22 53.2271 105.406 52.3854C104.591 51.5436 103.585 51.1228 102.39 51.1228C101.173 51.1228 100.162 51.5384 99.3582 52.3696C98.554 53.2008 98.1519 54.2582 98.1519 55.5418Z" fill="#C59368"/>
<path d="M114.106 57.3568H110.313V56.1731H114.106V57.3568Z" fill="#C59368"/>
<path d="M125.847 61.0657H124.498V56.0627H118.387V61.0657H117.037V50.018H118.387V54.8001H124.498V50.018H125.847V61.0657Z" fill="#C59368"/>
<path d="M135.682 61.0657H129.254V50.018H135.523V51.2806H130.603V54.8474H135.047V56.11H130.603V59.8031H135.682V61.0657Z" fill="#C59368"/>
<path d="M147.272 61.0657H145.923V56.0627H139.812V61.0657H138.463V50.018H139.812V54.8001H145.923V50.018H147.272V61.0657Z" fill="#C59368"/>
<path d="M157.107 61.0657H150.679V50.018H156.948V51.2806H152.028V54.8474H156.472V56.11H152.028V59.8031H157.107V61.0657Z" fill="#C59368"/>
<path d="M168.776 61.0657H159.888V50.018H161.237V59.8031H167.189V50.018H168.538V59.8031H170.046V63.1174H168.776V61.0657Z" fill="#C59368"/>
<path d="M178.766 50.018H180.401L175.449 55.2104L180.655 61.0657H178.925L173.894 55.3051L178.766 50.018ZM173.624 61.0657H172.275V50.018H173.624V61.0657Z" fill="#C59368"/>
<path d="M190.66 52.2275L183.914 61.0657H182.724V50.018H184.073V58.8562L190.819 50.018H192.009V61.0657H190.66V52.2275Z" fill="#C59368"/>
<path d="M203.357 52.2275L196.611 61.0657H195.42V50.018H196.77V58.8562L203.515 50.018H204.706V61.0657H203.357V52.2275ZM197.198 47.4928H198.468C198.722 48.1767 199.288 48.5187 200.166 48.5187C201.097 48.5187 201.642 48.1767 201.801 47.4928H203.071C202.997 48.082 202.685 48.5608 202.134 48.929C201.595 49.2867 200.939 49.4656 200.166 49.4656C199.351 49.4656 198.674 49.2867 198.135 48.929C197.605 48.5713 197.293 48.0925 197.198 47.4928Z" fill="#C59368"/>
<path fill-rule="evenodd" clip-rule="evenodd" d="M57.5971 61.3896H55.5959V57.2861H54.013L51.1401 61.3896H48.8174L52.0328 56.8575C51.4906 56.5798 51.0369 56.2005 50.6765 55.7195L50.6747 55.717C50.2295 55.1113 50.0089 54.4122 50.0089 53.6322C50.0089 52.4873 50.406 51.5268 51.2055 50.7775C52.0175 50.0058 53.1909 49.6468 54.668 49.6468C54.7157 49.6468 55.1673 49.6575 56.0094 49.6785C56.43 49.6889 56.8505 49.6941 57.2711 49.6941H57.5971V61.3896ZM51.43 51.0123C50.6999 51.6962 50.3348 52.5695 50.3348 53.6322C50.3348 54.3476 50.5359 54.9789 50.938 55.5261C51.2763 55.9775 51.7045 56.3322 52.2226 56.59C52.3202 56.6386 52.4211 56.6838 52.5252 56.7255L49.446 61.0657H50.9697L53.8426 56.9623H55.9219V61.0657H57.2711V50.018C56.8478 50.018 56.4245 50.0127 56.0013 50.0022C55.1548 49.9812 54.7103 49.9707 54.668 49.9707C53.2395 49.9707 52.1602 50.3179 51.43 51.0123ZM52.6811 52.1199C52.2914 52.4722 52.0893 52.9388 52.0893 53.5533C52.0893 54.0415 52.2497 54.4379 52.5685 54.7637L52.5715 54.7668C52.8995 55.111 53.276 55.3097 53.708 55.3758H55.5959V51.5911C55.034 51.5683 54.6412 51.5571 54.414 51.5571C53.6464 51.5571 53.0818 51.7568 52.6811 52.1199ZM55.9219 51.2806V55.6997H53.6839C53.1654 55.626 52.7157 55.3893 52.3348 54.9895C51.9538 54.6002 51.7634 54.1214 51.7634 53.5533C51.7634 52.8588 51.9962 52.3012 52.4617 51.8803C52.9379 51.4489 53.5887 51.2332 54.414 51.2332C54.6892 51.2332 55.1918 51.249 55.9219 51.2806ZM62.3595 61.3896H60.3584V49.6941H62.2148L66.2182 55.1279L70.0541 49.6941H71.8353V61.3896H69.8342V53.1461L66.3919 57.949H65.8514L62.3595 53.1765V61.3896ZM62.0335 52.1802L66.0175 57.6251H66.2238L70.1602 52.1328V61.0657H71.5093V50.018H70.2237L66.2238 55.6839L62.0494 50.018H60.6844V61.0657H62.0335V52.1802ZM75.0688 61.3896H72.9933L78.0494 49.631H79.6385L84.4084 60.7239L84.4247 59.3513L84.7924 59.4036C84.9695 59.4287 85.0966 59.4136 85.1877 59.3796C85.2766 59.3355 85.4153 59.2207 85.6017 58.9867L85.6046 58.983L85.6076 58.9794C85.7928 58.7602 85.9779 58.4084 86.1518 57.8997L86.1534 57.895C86.5607 56.761 86.8657 54.8733 87.0559 52.2047L87.2363 49.6941H94.5163V61.3896H92.5152V51.6045H89.1073L88.9438 53.3932C88.8161 54.7687 88.6506 55.9547 88.4465 56.9481L88.4464 56.9488C88.2434 57.9259 88.0215 58.7112 87.7774 59.2959C87.534 59.8789 87.2378 60.3518 86.8796 60.6968C86.5482 61.0258 86.1975 61.2558 85.8254 61.3483C85.4819 61.4337 85.1026 61.4432 84.6938 61.3876L84.6947 61.3896H82.5407L81.1122 58.0437H76.4815L75.0688 61.3896ZM76.2647 57.7198H81.328L82.7565 61.0657H84.2009L79.4233 49.9549H78.2646L73.4871 61.0657H74.8521L76.2647 57.7198ZM88.8096 51.2806H92.8412V61.0657H94.1903V50.018H87.5398L87.3811 52.2275C87.1906 54.9 86.8838 56.8255 86.4605 58.0039C86.2806 58.53 86.0795 58.9245 85.8573 59.1876C85.6563 59.4401 85.4764 59.6032 85.3177 59.6768C85.2429 59.7066 85.161 59.7258 85.0722 59.7345C84.9724 59.7443 84.8638 59.7409 84.7463 59.7242L84.7304 61.0657C85.1113 61.1183 85.4499 61.1078 85.7462 61.0341C86.0425 60.9605 86.3441 60.7711 86.651 60.466C86.9684 60.1608 87.2435 59.7294 87.4763 59.1718C87.7091 58.6142 87.926 57.8513 88.1271 56.8833C88.3281 55.9048 88.4921 54.7317 88.6191 53.3639L88.8096 51.2806ZM106.67 59.8404L106.668 59.8426C105.523 60.9806 104.089 61.5474 102.39 61.5474C100.691 61.5474 99.2529 60.9866 98.0981 59.8606L98.0958 59.8584C96.9592 58.7282 96.3974 57.2801 96.3974 55.5418C96.3974 53.8629 96.9616 52.4339 98.0925 51.276C99.2272 50.1143 100.668 49.5363 102.39 49.5363C104.098 49.5363 105.532 50.0966 106.667 51.2247C107.815 52.3546 108.382 53.8029 108.382 55.5418C108.382 57.2415 107.813 58.6818 106.67 59.8404ZM106.437 51.4542C107.517 52.5169 108.056 53.8794 108.056 55.5418C108.056 57.1622 107.517 58.5195 106.437 59.6137C105.358 60.6869 104.009 61.2235 102.39 61.2235C100.771 61.2235 99.4164 60.6922 98.3265 59.6295C97.2577 58.5668 96.7233 57.2043 96.7233 55.5418C96.7233 53.9426 97.2577 52.5958 98.3265 51.5015C99.3952 50.4073 100.75 49.8602 102.39 49.8602C104.019 49.8602 105.368 50.3915 106.437 51.4542ZM105.198 58.4785L105.199 58.4769C105.931 57.7011 106.302 56.7307 106.302 55.5418C106.302 54.3555 105.922 53.3861 105.171 52.6099C104.418 51.8328 103.499 51.4466 102.39 51.4466C101.257 51.4466 100.333 51.8297 99.5932 52.594C98.8542 53.3578 98.4778 54.3316 98.4778 55.5418C98.4778 56.7048 98.8562 57.6759 99.6103 58.4752C100.362 59.2513 101.282 59.6371 102.39 59.6371C103.556 59.6371 104.482 59.248 105.198 58.4785ZM99.374 58.6983C98.5592 57.8356 98.1519 56.7834 98.1519 55.5418C98.1519 54.2582 98.554 53.2008 99.3582 52.3696C100.162 51.5384 101.173 51.1228 102.39 51.1228C103.585 51.1228 104.591 51.5436 105.406 52.3854C106.22 53.2271 106.628 54.2793 106.628 55.5418C106.628 56.8044 106.231 57.8566 105.437 58.6983C104.654 59.5401 103.638 59.9609 102.39 59.9609C101.194 59.9609 100.189 59.5401 99.374 58.6983ZM114.432 57.6807H109.987V55.8493H114.432V57.6807ZM126.173 61.3896H124.172V56.3865H118.713V61.3896H116.712V49.6941H118.713V54.4762H124.172V49.6941H126.173V61.3896ZM124.498 50.018H125.847V61.0657H124.498V56.0627H118.387V61.0657H117.037V50.018H118.387V54.8001H124.498V50.018ZM136.008 61.3896H128.928V49.6941H135.849V51.6045H130.929V54.5236H135.373V56.4339H130.929V59.4792H136.008V61.3896ZM130.603 59.8031V56.11H135.047V54.8474H130.603V51.2806H135.523V50.018H129.254V61.0657H135.682V59.8031H130.603ZM147.598 61.3896H145.597V56.3865H140.138V61.3896H138.137V49.6941H140.138V54.4762H145.597V49.6941H147.598V61.3896ZM145.923 50.018H147.272V61.0657H145.923V56.0627H139.812V61.0657H138.463V50.018H139.812V54.8001H145.923V50.018ZM157.433 61.3896H150.353V49.6941H157.274V51.6045H152.354V54.5236H156.798V56.4339H152.354V59.4792H157.433V61.3896ZM152.028 59.8031V56.11H156.472V54.8474H152.028V51.2806H156.948V50.018H150.679V61.0657H157.107V59.8031H152.028ZM159.562 61.3896V49.6941H161.563V59.4792H166.863V49.6941H168.864V59.4792H170.372V63.4413H168.45V61.3896H159.562ZM168.776 61.0657V63.1174H170.046V59.8031H168.538V50.018H167.189V59.8031H161.237V50.018H159.888V61.0657H168.776ZM178.623 49.6941H181.159L175.891 55.2181L181.378 61.3896H178.776L173.95 55.8636V61.3896H171.949V49.6941H173.95V54.7646L178.623 49.6941ZM178.766 50.018H180.401L175.449 55.2104L180.655 61.0657H178.925L173.894 55.3051L178.766 50.018ZM173.624 50.018H172.275V61.0657H173.624V50.018ZM184.076 61.3896H182.398V49.6941H184.399V57.893L190.657 49.6941H192.335V61.3896H190.334V53.1906L184.076 61.3896ZM190.66 52.2275V61.0657H192.009V50.018H190.819L184.073 58.8562V50.018H182.724V61.0657H183.914L190.66 52.2275ZM196.773 61.3896H195.094V49.6941H197.096V57.893L203.353 49.6941H205.032V61.3896H203.031V53.1906L196.773 61.3896ZM203.357 52.2275V61.0657H204.706V50.018H203.515L196.77 58.8562V50.018H195.42V61.0657H196.611L203.357 52.2275ZM196.817 47.1689H198.695L198.774 47.3807C198.878 47.6619 199.039 47.8566 199.252 47.9855C199.47 48.1171 199.768 48.1948 200.166 48.1948C200.596 48.1948 200.897 48.1152 201.099 47.9884C201.292 47.8676 201.421 47.6876 201.483 47.42L201.542 47.1689H203.44L203.394 47.5329C203.307 48.2259 202.935 48.7835 202.316 49.1976L202.315 49.1984C201.713 49.598 200.991 49.7895 200.166 49.7895C199.303 49.7895 198.559 49.5998 197.954 49.1984L197.951 49.1968C197.352 48.7914 196.986 48.2359 196.876 47.5433L196.817 47.1689ZM78.8043 51.7383L76.8044 56.4572H80.8042L78.8043 51.7383ZM78.8043 52.5729L77.2953 56.1334H80.3133L78.8043 52.5729ZM197.198 47.4928C197.216 47.605 197.241 47.713 197.274 47.8167C197.418 48.2674 197.704 48.6382 198.135 48.929C198.674 49.2867 199.351 49.4656 200.166 49.4656C200.939 49.4656 201.595 49.2867 202.134 48.929C202.58 48.6307 202.87 48.2599 203.003 47.8167C203.034 47.7127 203.057 47.6048 203.071 47.4928H201.801C201.642 48.1767 201.097 48.5187 200.166 48.5187C199.288 48.5187 198.722 48.1767 198.468 47.4928H197.198ZM114.106 57.3568V56.1731H110.313V57.3568H114.106Z" fill="#C59368"/>
<line x1="230.183" y1="-2.81002e-08" x2="230.183" y2="90" stroke="url(#paint0_linear_1219_8133)"/>
<path d="M266.863 55.2511H263.495V45.4389H260.009L259.921 46.8448C259.668 49.2271 259.297 51.0431 258.808 52.2928C258.34 53.5425 257.734 54.3919 256.992 54.841C256.27 55.2706 255.264 55.4952 253.976 55.5147L253.683 52.2342C254.112 52.2537 254.513 52.1366 254.884 51.8827C255.313 51.5703 255.694 50.9162 256.026 49.9203C256.358 48.9244 256.573 47.6747 256.67 46.1711L256.875 42.0705H266.863V55.2511Z" fill="#562212"/>
<path d="M279.255 46.9034L273.104 55.2511H269.735V42.0705H273.104V50.4182L279.255 42.0705H282.623V55.2511H279.255V46.9034Z" fill="#562212"/>
<path d="M292.768 42.0705H296.136V55.2511H292.768V50.7111C291.792 51.2188 290.698 51.4727 289.488 51.4727C287.847 51.4727 286.637 51.0431 285.856 50.1839C285.094 49.3247 284.713 48.0262 284.713 46.2883V42.0705H288.316V45.8782C288.316 47.499 289.029 48.3093 290.454 48.3093C291.372 48.3093 292.143 48.1336 292.768 47.7821V42.0705Z" fill="#562212"/>
<path d="M311.52 55.2511H308.152V50.2132H302.381V55.2511H299.013V42.0705H302.381V47.0498H308.152V42.0705H311.52V55.2511Z" fill="#562212"/>
<path d="M319.126 55.2511H314.381V42.0705H317.75V45.6732H319.39C321.362 45.6732 322.817 46.0833 323.754 46.9034C324.711 47.7235 325.189 48.8366 325.189 50.2425C325.189 51.746 324.682 52.9567 323.666 53.8745C322.651 54.7922 321.138 55.2511 319.126 55.2511ZM330.432 55.2511H327.064V42.0705H330.432V55.2511ZM319.097 48.3679H317.75V52.3221H319.068C320.767 52.3221 321.616 51.6679 321.616 50.3596C321.616 49.0318 320.776 48.3679 319.097 48.3679Z" fill="#562212"/>
<path d="M342.816 46.9034L336.665 55.2511H333.296V42.0705H336.665V50.4182L342.816 42.0705H346.184V55.2511H342.816V46.9034ZM335.259 35.4802H338.334C338.334 36.1246 338.461 36.6421 338.715 37.0326C338.969 37.4231 339.35 37.6184 339.857 37.6184C340.306 37.6184 340.648 37.4231 340.882 37.0326C341.136 36.6225 341.263 36.1051 341.263 35.4802H344.339C344.339 36.8471 343.938 37.9504 343.138 38.79C342.337 39.6101 341.244 40.0202 339.857 40.0202C338.334 40.0202 337.182 39.6199 336.401 38.8193C335.64 37.9992 335.259 36.8862 335.259 35.4802Z" fill="#562212"/>
<path d="M362.624 42.0705H366.871L361.804 48.3386L367.486 55.2511H363.092L357.879 48.6022L362.624 42.0705ZM357.762 55.2511H354.393V42.0705H357.762V55.2511Z" fill="#562212"/>
<path d="M369.614 45.4682L368.764 43.0078C370.19 42.1682 371.742 41.7483 373.422 41.7483C375.257 41.7483 376.595 42.1974 377.434 43.0957C378.274 43.9939 378.694 45.3705 378.694 47.2256V55.2511H375.765V53.728C374.984 54.8606 373.685 55.4268 371.869 55.4268C370.619 55.4268 369.614 55.0656 368.852 54.3431C368.11 53.6011 367.739 52.615 367.739 51.3848C367.739 50.0179 368.179 48.9635 369.057 48.2215C369.936 47.4794 371.098 47.1084 372.543 47.1084C373.734 47.1084 374.73 47.3916 375.53 47.9578C375.57 46.7862 375.394 45.9271 375.003 45.3803C374.632 44.8336 373.988 44.5602 373.07 44.5602C372.055 44.5602 370.903 44.8628 369.614 45.4682ZM372.982 52.5857C374.115 52.5857 374.964 52.1854 375.53 51.3848V50.0374C374.984 49.6079 374.212 49.3931 373.217 49.3931C372.592 49.3931 372.084 49.5395 371.693 49.8324C371.303 50.1253 371.108 50.5256 371.108 51.0333C371.108 51.502 371.283 51.8827 371.635 52.1756C371.986 52.449 372.435 52.5857 372.982 52.5857Z" fill="#562212"/>
<path d="M391.168 34.4258L392.926 37.1791C392.457 37.7649 391.871 38.1945 391.168 38.4678C390.543 38.6826 389.762 38.8974 388.825 39.1122C387.907 39.288 387.146 39.532 386.54 39.8445C384.92 40.606 383.973 42.2463 383.699 44.7652H383.758C384.168 44.0427 384.802 43.4569 385.662 43.0078C386.521 42.5392 387.429 42.3048 388.386 42.3048C390.202 42.3048 391.656 42.8906 392.75 44.0623C393.843 45.2534 394.39 46.8253 394.39 48.778C394.39 50.6721 393.746 52.283 392.457 53.6108C391.168 54.9191 389.508 55.5733 387.478 55.5733C385.271 55.5733 383.523 54.8215 382.235 53.3179C380.965 51.8144 380.331 49.7836 380.331 47.2256C380.331 41.6019 381.991 38.0675 385.31 36.6225C386.033 36.3101 386.833 36.0758 387.712 35.9196C388.708 35.7243 389.44 35.5388 389.909 35.3631C390.377 35.1678 390.797 34.8554 391.168 34.4258ZM383.934 47.9286C383.953 49.2564 384.275 50.3401 384.9 51.1798C385.525 52.0194 386.355 52.4392 387.39 52.4392C388.405 52.4392 389.225 52.1073 389.85 51.4434C390.475 50.7795 390.787 49.9398 390.787 48.9244C390.787 47.8895 390.495 47.0498 389.909 46.4055C389.342 45.7611 388.552 45.4389 387.536 45.4389C386.658 45.4389 385.896 45.6732 385.252 46.1419C384.607 46.591 384.168 47.1865 383.934 47.9286Z" fill="#562212"/>
<path d="M405.955 46.9034L399.804 55.2511H396.436V42.0705H399.804V50.4182L405.955 42.0705H409.324V55.2511H405.955V46.9034Z" fill="#562212"/>
<path d="M424.712 55.2511H421.343V50.2132H415.573V55.2511H412.205V42.0705H415.573V47.0498H421.343V42.0705H424.712V55.2511Z" fill="#562212"/>
<path d="M437.912 51.5605L438.879 53.933C437.571 55.0265 435.891 55.5733 433.841 55.5733C431.732 55.5733 430.014 54.9387 428.686 53.6694C427.397 52.4197 426.753 50.7502 426.753 48.6608C426.753 46.7081 427.387 45.0679 428.657 43.7401C429.926 42.4122 431.615 41.7483 433.724 41.7483C435.462 41.7483 436.936 42.3244 438.147 43.4764C439.357 44.6285 439.963 46.093 439.963 47.87C439.963 48.651 439.894 49.2564 439.758 49.686H430.238C430.375 50.6428 430.795 51.3946 431.498 51.9413C432.22 52.4881 433.119 52.7614 434.193 52.7614C435.657 52.7614 436.897 52.3611 437.912 51.5605ZM433.577 44.5602C431.664 44.5602 430.512 45.517 430.121 47.4306H436.594C436.614 46.591 436.34 45.9075 435.774 45.3803C435.227 44.8336 434.495 44.5602 433.577 44.5602Z" fill="#562212"/>
<path d="M444.612 45.4389H440.277V42.0705H452.286V45.4389H447.981V55.2511H444.612V45.4389Z" fill="#562212"/>
<defs>
<linearGradient id="paint0_linear_1219_8133" x1="229.683" y1="0" x2="229.683" y2="90" gradientUnits="userSpaceOnUse">
<stop stop-color="#231F20" stop-opacity="0"/>
<stop offset="0.50008" stop-color="#231F20" stop-opacity="0.2"/>
<stop offset="1" stop-color="#231F20" stop-opacity="0"/>
</linearGradient>
</defs>
</svg>
