<svg width="453" height="90" fill="none" xmlns="http://www.w3.org/2000/svg"><path d="M10.384 66.862l4.904 10.397h.069l4.972-10.397-4.973-4.994-4.972 4.994z" fill="#ED5338"/><path d="M15.355 17.541c-1.09.547-14.85 7.867-14.85 19.564 0 9.987 8.106 25.173 8.106 25.173l6.744-6.772 6.744 6.772s8.106-15.117 8.106-25.173c-.068-11.697-13.828-19.017-14.85-19.564zm4.428 33.382l-4.428-4.446-4.428 4.446c-.204-.616-3.201-8.688-3.201-13.955 0-7.114 7.084-11.082 7.629-11.355.545.205 7.63 4.241 7.63 11.355 0 5.267-2.998 13.34-3.202 13.955zm10.39-38.434l-5.058 5.078 5.058 5.08 5.057-5.08-5.057-5.078z" fill="#C59368"/><path d="M18.896 36.625c0 1.916-1.566 3.49-3.474 3.49-1.907 0-3.474-1.574-3.474-3.49 0-1.915 1.567-3.488 3.474-3.488 1.908 0 3.474 1.573 3.474 3.488z" fill="#C59368"/><path d="M49.172 41.479V25.882h4.653l4.654 5.28 4.29-5.28h4.533v15.597h-5.197v-7.647l-3.747 4.31h-.12l-3.93-4.31v7.647h-5.136zM69.58 33.65c0-2.367.786-4.309 2.357-5.887 1.571-1.578 3.687-2.306 6.285-2.306 2.6 0 4.714.789 6.225 2.306 1.572 1.578 2.357 3.52 2.357 5.887 0 2.367-.785 4.309-2.357 5.887-1.571 1.578-3.626 2.306-6.225 2.306-2.598 0-4.714-.789-6.285-2.306-1.571-1.517-2.357-3.46-2.357-5.887zm8.582 3.399c1.813 0 3.082-1.275 3.082-3.338 0-1.942-1.33-3.338-3.082-3.338-1.753 0-3.082 1.335-3.082 3.338 0 1.881 1.269 3.338 3.082 3.338zm15.956 4.431H88.98V25.881h5.197v8.132l5.5-8.132h5.197v15.597h-5.197v-8.132l-5.56 8.132zm1.45-23.184c0 1.335.483 2.003 1.45 2.003.847 0 1.33-.668 1.33-2.003h4.472c0 3.399-2.055 5.887-5.802 5.887-4.049 0-5.922-2.367-5.922-5.887h4.472zm26.046.788a4.158 4.158 0 01-1.995 1.578c-.785.304-1.752.547-2.901.668a13.65 13.65 0 00-3.021.85c-2.357 1.092-3.627 3.58-3.929 7.525h.061c1.027-2.185 3.505-3.641 6.104-3.641 4.411 0 7.191 3.034 7.191 7.768 0 2.185-.785 4.127-2.236 5.644-1.511 1.578-3.384 2.306-5.741 2.306-2.538 0-4.533-.85-5.983-2.61-1.511-1.699-2.176-4.066-2.176-7.1 0-6.737 1.934-10.924 5.742-12.563.906-.425 1.934-.667 3.021-.85 2.176-.364 3.385-.606 4.291-1.82l1.572 2.245zm-6.407 20.15c1.511 0 2.72-.547 3.627-1.518.967-1.032 1.45-2.246 1.45-3.763 0-3.156-1.813-5.28-4.956-5.28-1.39 0-2.538.364-3.505 1.153-.967.79-1.571 1.76-1.813 2.792-.06 4.005 2.115 6.615 5.197 6.615zm13.237 2.245h-2.78V25.882h2.78v11.591l8.945-11.591h2.78v15.597h-2.78V29.887l-8.945 11.592zm16.619-.242c-1.269-.425-2.175-.91-2.659-1.518l1.39-2.063c1.269 1.032 3.143 1.7 4.593 1.7 2.357 0 4.05-1.032 4.05-2.55 0-1.274-1.149-2.002-3.022-2.002h-2.599v-2.246h2.417c1.572 0 2.66-.971 2.66-2.185 0-1.396-1.27-2.245-3.324-2.245-1.632 0-3.203.607-4.654 1.76l-1.088-2.124c1.269-1.275 3.626-2.064 6.104-2.064 3.747 0 5.802 1.578 5.802 4.188 0 1.82-.906 3.034-2.72 3.641v.06c2.055.244 3.264 1.76 3.264 3.642 0 2.852-2.659 4.673-6.587 4.673-1.088-.121-2.357-.303-3.627-.667zm24.415.242v-6.615h-8.642v6.554h-2.78V25.882h2.78v6.372h8.642v-6.372h2.78v15.597h-2.78zm19.341-1.701c-1.511 1.335-3.445 2.064-5.802 2.064-2.538 0-4.533-.729-6.044-2.185-1.511-1.517-2.296-3.46-2.296-5.887 0-2.367.725-4.309 2.115-5.826 1.39-1.578 3.384-2.306 5.862-2.306 2.055 0 3.747.667 5.137 2.002 1.39 1.336 2.055 3.035 2.055 5.098 0 .729-.06 1.336-.181 1.882h-11.846c.242 2.913 2.357 4.673 5.379 4.673 2.055 0 3.626-.547 4.775-1.639l.846 2.124zm-11.181-7.465h9.428c-.121-2.61-1.813-4.126-4.472-4.126-2.78-.061-4.654 1.638-4.956 4.126zm27.558 6.92c-1.269 1.639-3.505 2.61-5.983 2.61-2.478 0-4.472-.729-6.043-2.185-1.511-1.517-2.297-3.46-2.297-5.887 0-2.306.786-4.248 2.236-5.765 1.511-1.578 3.385-2.367 5.621-2.367 2.719 0 4.774.667 6.104 2.063l-1.27 2.185c-1.148-1.093-2.659-1.639-4.472-1.639-1.45 0-2.659.546-3.747 1.578-1.027 1.032-1.571 2.367-1.571 3.945 0 1.639.544 3.035 1.571 4.005 1.088 1.032 2.418 1.518 3.989 1.518 1.813 0 3.264-.668 4.472-2.003l1.39 1.942z" fill="#562212"/><path d="M50.033 77.407h-1.216l4.255-9.656h1.032l4.255 9.656h-1.286L55.8 74.5h-4.509l-1.258 2.908zm5.3-4.005l-1.78-4.101-1.781 4.101h3.562zm4.794 3.992V67.82a115.32 115.32 0 012.714-.055c1.074 0 1.87.21 2.389.63.528.412.792.993.792 1.743 0 .557-.151 1.024-.453 1.399-.301.375-.716.649-1.244.823v.027c.641.1 1.14.348 1.499.74.367.394.551.906.551 1.537 0 .914-.32 1.61-.961 2.085-.641.466-1.517.7-2.63.7-1.083 0-1.97-.019-2.657-.055zm2.799-4.362h-1.598v3.264c.387.037.896.055 1.527.055.745 0 1.315-.146 1.71-.439.406-.302.608-.74.608-1.317 0-.502-.198-.887-.593-1.152-.387-.274-.938-.411-1.654-.411zm-.113-4.17c-.283 0-.778.014-1.485.041v3.1h1.584c.556 0 1.013-.142 1.37-.425.359-.293.538-.686.538-1.18 0-1.024-.67-1.536-2.007-1.536zm8.229.041H67.58v-1.097h8.128v1.097h-3.463v8.504h-1.202v-8.504zm5.111 3.704c0-1.39.476-2.56 1.427-3.512.952-.95 2.159-1.426 3.62-1.426 1.45 0 2.652.462 3.604 1.385.961.924 1.442 2.108 1.442 3.553 0 1.408-.481 2.587-1.442 3.538-.962.933-2.163 1.4-3.605 1.4-1.442 0-2.648-.462-3.619-1.386-.951-.924-1.427-2.108-1.427-3.552zm1.272 0c0 1.079.363 1.993 1.088 2.743.726.731 1.621 1.097 2.686 1.097 1.112 0 2.017-.366 2.714-1.097.707-.732 1.06-1.646 1.06-2.743 0-1.098-.362-2.012-1.088-2.744-.726-.731-1.621-1.097-2.686-1.097-1.084 0-1.983.361-2.7 1.084-.716.722-1.074 1.641-1.074 2.757zm18.934 4.8h-1.202V73.06h-5.442v4.348h-1.201v-9.601h1.201v4.156h5.442v-4.156h1.202v9.601zm2.257-4.8c0-1.39.476-2.56 1.427-3.512.952-.95 2.158-1.426 3.619-1.426 1.451 0 2.653.462 3.605 1.385.961.924 1.442 2.108 1.442 3.553 0 1.408-.481 2.587-1.442 3.538-.962.933-2.163 1.4-3.605 1.4-1.442 0-2.648-.462-3.619-1.386-.951-.924-1.427-2.108-1.427-3.552zm1.272 0c0 1.079.363 1.993 1.088 2.743.726.731 1.621 1.097 2.686 1.097 1.112 0 2.017-.366 2.714-1.097.707-.732 1.06-1.646 1.06-2.743 0-1.098-.362-2.012-1.088-2.744-.726-.731-1.621-1.097-2.686-1.097-1.084 0-1.984.361-2.7 1.084-.716.722-1.074 1.641-1.074 2.757zm12.29 4.8h-1.201v-9.601h1.215l3.718 4.924 3.562-4.924h1.145v9.601h-1.201v-7.763l-3.506 4.773h-.184l-3.548-4.732v7.722zm19.318 0h-1.202V73.06h-5.442v4.348h-1.201v-9.601h1.201v4.156h5.442v-4.156h1.202v9.601zm12.01 0h-1.201v-9.601h1.201v9.601zm-6.545-5.006c-.329 0-.739.027-1.229.082v3.813c.763.028 1.159.041 1.187.041 1.678 0 2.516-.68 2.516-2.043 0-.613-.212-1.08-.636-1.4-.424-.329-1.036-.493-1.838-.493zm-2.431-4.595h1.202v3.566a23.96 23.96 0 011.314-.069c1.197 0 2.107.261 2.728.782.622.512.933 1.24.933 2.181 0 1.006-.344 1.788-1.031 2.346-.688.548-1.654.823-2.898.823-.471 0-.881-.005-1.23-.014-.339-.01-.679-.014-1.018-.014v-9.601zm19.079 1.92l-6.007 7.681h-1.06v-9.601h1.201v7.68l6.008-7.68h1.06v9.601h-1.202v-7.68zm-5.484-4.115h1.131c.226.595.73.892 1.512.892.829 0 1.315-.297 1.456-.892h1.131c-.066.512-.344.928-.834 1.248-.481.311-1.065.467-1.753.467-.725 0-1.329-.156-1.809-.466-.471-.311-.749-.728-.834-1.249zm12.192 6.996c0-1.39.476-2.56 1.428-3.512.952-.95 2.158-1.426 3.619-1.426 1.451 0 2.652.462 3.604 1.385.961.924 1.442 2.108 1.442 3.553 0 1.408-.481 2.587-1.442 3.538-.961.933-2.163 1.4-3.604 1.4-1.442 0-2.648-.462-3.619-1.386-.952-.924-1.428-2.108-1.428-3.552zm1.272 0c0 1.079.363 1.993 1.089 2.743.725.731 1.621 1.097 2.686 1.097 1.112 0 2.016-.366 2.714-1.097.706-.732 1.06-1.646 1.06-2.743 0-1.098-.363-2.012-1.089-2.744-.725-.731-1.62-1.097-2.685-1.097-1.084 0-1.984.361-2.7 1.084-.716.722-1.075 1.641-1.075 2.757zm16.871-4.801h1.456l-4.411 4.513 4.637 5.088h-1.541l-4.481-5.006 4.34-4.595zm-4.58 9.601h-1.202v-9.601h1.202v9.601zm9.305-3.689v3.69h-1.201v-9.602c.396 0 .815-.005 1.258-.014.443-.009.886-.014 1.329-.014 1.3 0 2.233.284 2.799.85.574.559.862 1.267.862 2.127 0 .832-.311 1.545-.933 2.14-.603.585-1.48.877-2.629.877-.603 0-1.098-.018-1.485-.054zm1.499-4.842c-.17 0-.669.009-1.499.027v3.704c.594.045 1.075.068 1.442.068.726 0 1.296-.169 1.711-.507.414-.348.622-.823.622-1.427 0-.594-.193-1.051-.58-1.371-.377-.33-.942-.494-1.696-.494zm11.852-1.07h1.216l-3.421 7.407c-.349.768-.716 1.326-1.103 1.673a1.932 1.932 0 01-1.357.521c-.509 0-.909-.114-1.201-.343l.424-.987c.245.164.499.247.763.247.481 0 .886-.325 1.216-.974l.169-.357-4.481-7.187h1.357l3.704 6.021 2.714-6.021zm4.184 9.601h-1.201v-9.601h5.513v1.097h-4.312v8.504zM57.271 61.066h-1.35v-4.104h-2.078l-2.873 4.104h-1.524l3.08-4.34a3.621 3.621 0 01-1.588-1.2c-.402-.547-.603-1.178-.603-1.894 0-1.063.365-1.936 1.095-2.62.73-.694 1.81-1.041 3.238-1.041.042 0 .487.01 1.333.031.424.01.847.016 1.27.016v11.048zM53.684 55.7h2.238v-4.42a41.626 41.626 0 00-1.508-.047c-.825 0-1.476.216-1.952.647-.466.421-.699.979-.699 1.673 0 .568.19 1.047.572 1.437.38.4.83.636 1.349.71zm8.349 5.366h-1.349V50.018h1.365l4.175 5.666 4-5.666h1.285v11.048H70.16v-8.933l-3.936 5.492h-.207l-3.983-5.445v8.886zm12.819 0h-1.365l4.778-11.111h1.158l4.778 11.11h-1.444l-1.429-3.345h-5.063l-1.413 3.346zm5.952-4.609l-2-4.719-2 4.72h4zm13.386 4.609h-1.349V51.28H88.81l-.19 2.083c-.128 1.368-.292 2.54-.493 3.52-.201.967-.418 1.73-.65 2.288-.234.557-.509.989-.826 1.294-.307.305-.608.495-.905.568a2.686 2.686 0 01-1.016.032l.016-1.342c.223.032.413.016.572-.047.158-.074.338-.237.54-.49.221-.262.423-.657.602-1.183.424-1.178.73-3.104.921-5.776l.159-2.21h6.65v11.048zm2.533-5.524c0-1.6.535-2.946 1.603-4.04 1.07-1.095 2.424-1.642 4.064-1.642 1.629 0 2.978.532 4.047 1.594 1.08 1.063 1.619 2.425 1.619 4.088 0 1.62-.539 2.977-1.619 4.072-1.079 1.073-2.428 1.61-4.047 1.61-1.619 0-2.974-.532-4.064-1.594-1.068-1.063-1.603-2.426-1.603-4.088zm1.429 0c0 1.241.407 2.294 1.222 3.156.815.842 1.82 1.263 3.016 1.263 1.248 0 2.264-.42 3.047-1.263.794-.841 1.191-1.894 1.191-3.156 0-1.263-.408-2.315-1.222-3.157-.815-.841-1.821-1.262-3.016-1.262-1.217 0-2.228.415-3.032 1.247-.804.83-1.206 1.888-1.206 3.172zm15.954 1.815h-3.793v-1.184h3.793v1.184zm11.741 3.709h-1.349v-5.003h-6.111v5.003h-1.35V50.018h1.35V54.8h6.111v-4.782h1.349v11.048zm9.835 0h-6.428V50.018h6.269v1.263h-4.92v3.566h4.444v1.263h-4.444v3.693h5.079v1.263zm11.59 0h-1.349v-5.003h-6.111v5.003h-1.349V50.018h1.349V54.8h6.111v-4.782h1.349v11.048zm9.835 0h-6.428V50.018h6.269v1.263h-4.92v3.566h4.444v1.263h-4.444v3.693h5.079v1.263zm11.669 0h-8.888V50.018h1.349v9.785h5.952v-9.785h1.349v9.785h1.508v3.314h-1.27v-2.051zm9.99-11.048h1.635l-4.952 5.192 5.206 5.856h-1.73l-5.031-5.76 4.872-5.288zm-5.142 11.048h-1.349V50.018h1.349v11.048zm17.036-8.839l-6.746 8.839h-1.19V50.018h1.349v8.838l6.746-8.838h1.19v11.048h-1.349v-8.839zm12.697 0l-6.746 8.839h-1.191V50.018h1.35v8.838l6.745-8.838h1.191v11.048h-1.349v-8.839zm-6.159-4.734h1.27c.254.684.82 1.026 1.698 1.026.931 0 1.476-.342 1.635-1.026h1.27c-.074.589-.386 1.068-.937 1.436-.539.358-1.195.537-1.968.537-.815 0-1.492-.18-2.031-.537-.53-.358-.842-.837-.937-1.436z" fill="#C59368"/><path fill-rule="evenodd" clip-rule="evenodd" d="M57.597 61.39h-2.001v-4.104h-1.583L51.14 61.39h-2.323l3.216-4.532a3.884 3.884 0 01-1.357-1.139l-.001-.002a3.438 3.438 0 01-.666-2.085c0-1.145.397-2.105 1.197-2.854.811-.772 1.985-1.131 3.462-1.131.048 0 .5.01 1.341.032.421.01.841.015 1.262.015h.326V61.39zM51.43 51.012c-.73.684-1.095 1.557-1.095 2.62 0 .716.2 1.347.603 1.894a3.57 3.57 0 001.285 1.064c.097.049.198.094.302.135l-3.079 4.34h1.524l2.873-4.103h2.079v4.104h1.35V50.018c-.424 0-.847-.005-1.27-.016l-1.334-.031c-1.428 0-2.508.347-3.238 1.041zm1.251 1.108c-.39.352-.592.819-.592 1.433 0 .489.16.885.48 1.21l.002.004c.329.344.705.543 1.137.609h1.888V51.59a33.797 33.797 0 00-1.182-.034c-.768 0-1.332.2-1.733.563zm3.24-.84v4.42h-2.237a2.263 2.263 0 01-1.35-.71c-.38-.39-.57-.869-.57-1.437 0-.694.232-1.252.698-1.673.476-.431 1.127-.647 1.952-.647.275 0 .778.016 1.508.048zm6.438 10.11h-2V49.694h1.856l4.003 5.434 3.836-5.434h1.781V61.39h-2v-8.244l-3.443 4.803h-.54l-3.493-4.773v8.214zm-.326-9.21l3.984 5.445h.207l3.936-5.492v8.933h1.35V50.018h-1.286l-4 5.666-4.175-5.666h-1.365v11.048h1.35V52.18zm13.036 9.21h-2.076l5.057-11.76h1.59l4.77 11.093.016-1.373.367.053c.177.025.305.01.396-.024.089-.044.227-.16.414-.393l.003-.004.003-.004c.185-.219.37-.57.544-1.08l.001-.004c.408-1.134.713-3.022.903-5.69l.18-2.51h7.28V61.39h-2v-9.785h-3.409l-.163 1.788c-.128 1.376-.293 2.562-.498 3.555-.203.978-.424 1.763-.669 2.348-.243.583-.54 1.056-.897 1.4-.332.33-.682.56-1.055.652a3.007 3.007 0 01-1.131.04v.002h-2.153l-1.429-3.346h-4.63L75.07 61.39zm1.196-3.67h5.063l1.428 3.346h1.445l-4.778-11.111h-1.158l-4.778 11.11h1.365l1.413-3.345zm12.545-6.44h4.031v9.786h1.35V50.018H87.54l-.159 2.21c-.19 2.672-.497 4.597-.92 5.776-.18.526-.382.92-.604 1.184-.2.252-.38.415-.54.489a.897.897 0 01-.245.057c-.1.01-.208.007-.326-.01l-.016 1.342c.381.052.72.042 1.016-.032.297-.073.598-.263.905-.568.317-.305.593-.737.825-1.294.233-.558.45-1.32.651-2.289.201-.978.365-2.151.492-3.52l.19-2.082zm17.86 8.56l-.002.003c-1.145 1.138-2.579 1.704-4.278 1.704-1.699 0-3.137-.56-4.292-1.686l-.002-.003c-1.137-1.13-1.699-2.578-1.699-4.316 0-1.68.565-3.108 1.695-4.266 1.135-1.162 2.576-1.74 4.298-1.74 1.708 0 3.142.56 4.277 1.689 1.148 1.13 1.715 2.578 1.715 4.317 0 1.7-.569 3.14-1.712 4.298zm-.233-8.386c1.08 1.063 1.619 2.425 1.619 4.088 0 1.62-.539 2.977-1.619 4.072-1.079 1.073-2.428 1.61-4.047 1.61-1.619 0-2.974-.532-4.064-1.594-1.068-1.063-1.603-2.426-1.603-4.088 0-1.6.535-2.946 1.603-4.04 1.07-1.095 2.424-1.642 4.064-1.642 1.629 0 2.978.532 4.047 1.594zm-1.239 7.024l.001-.001c.732-.776 1.103-1.746 1.103-2.935 0-1.187-.38-2.156-1.131-2.932-.753-.777-1.672-1.163-2.781-1.163-1.133 0-2.057.383-2.797 1.147-.739.764-1.115 1.738-1.115 2.948 0 1.163.378 2.134 1.132 2.933.752.776 1.672 1.162 2.78 1.162 1.166 0 2.092-.389 2.808-1.159zm-5.824.22c-.815-.862-1.222-1.915-1.222-3.156 0-1.284.402-2.341 1.206-3.172.804-.832 1.815-1.247 3.032-1.247 1.195 0 2.201.42 3.016 1.262.814.842 1.222 1.894 1.222 3.157 0 1.262-.397 2.315-1.191 3.156-.783.842-1.799 1.263-3.047 1.263-1.196 0-2.201-.42-3.016-1.263zm15.058-1.017h-4.445v-1.832h4.445v1.832zm11.741 3.709h-2.001v-5.004h-5.459v5.004h-2.001V49.694h2.001v4.782h5.459v-4.782h2.001V61.39zm-1.675-11.372h1.349v11.048h-1.349v-5.003h-6.111v5.003h-1.35V50.018h1.35V54.8h6.111v-4.782zm11.51 11.372h-7.08V49.694h6.921v1.91h-4.92v2.92h4.444v1.91h-4.444v3.045h5.079v1.91zm-5.405-1.587V56.11h4.444v-1.263h-4.444v-3.566h4.92v-1.263h-6.269v11.048h6.428v-1.263h-5.079zm16.995 1.587h-2.001v-5.004h-5.459v5.004h-2.001V49.694h2.001v4.782h5.459v-4.782h2.001V61.39zm-1.675-11.372h1.349v11.048h-1.349v-5.003h-6.111v5.003h-1.349V50.018h1.349V54.8h6.111v-4.782zm11.51 11.372h-7.08V49.694h6.921v1.91h-4.92v2.92h4.444v1.91h-4.444v3.045h5.079v1.91zm-5.405-1.587V56.11h4.444v-1.263h-4.444v-3.566h4.92v-1.263h-6.269v11.048h6.428v-1.263h-5.079zm7.534 1.587V49.694h2.001v9.785h5.3v-9.785h2.001v9.785h1.508v3.962h-1.922V61.39h-8.888zm9.214-.324v2.051h1.27v-3.314h-1.508v-9.785h-1.349v9.785h-5.952v-9.785h-1.349v11.048h8.888zm9.847-11.372h2.536l-5.268 5.524 5.487 6.172h-2.602l-4.826-5.526v5.526h-2.001V49.694h2.001v5.07l4.673-5.07zm.143.324h1.635l-4.952 5.192 5.206 5.856h-1.73l-5.031-5.76 4.872-5.288zm-5.142 0h-1.349v11.048h1.349V50.018zm10.452 11.372h-1.678V49.694h2.001v8.199l6.258-8.199h1.678V61.39h-2.001v-8.2l-6.258 8.2zm6.584-9.163v8.839h1.349V50.018h-1.19l-6.746 8.838v-8.838h-1.349v11.048h1.19l6.746-8.839zm6.113 9.163h-1.679V49.694h2.002v8.199l6.257-8.199h1.679V61.39h-2.001v-8.2l-6.258 8.2zm6.584-9.163v8.839h1.349V50.018h-1.191l-6.745 8.838v-8.838h-1.35v11.048h1.191l6.746-8.839zm-6.54-5.058h1.878l.079.212c.104.28.265.476.478.605.218.131.516.209.914.209.43 0 .731-.08.933-.207.193-.12.322-.3.384-.568l.059-.251h1.898l-.046.364c-.087.693-.459 1.25-1.078 1.665h-.001c-.602.4-1.324.591-2.149.591-.863 0-1.607-.19-2.212-.59l-.003-.002c-.599-.406-.965-.961-1.075-1.654l-.059-.374zm-118.013 4.57l-2 4.718h4l-2-4.719zm0 .834l-1.509 3.56h3.018l-1.509-3.56zm118.394-5.08c.018.112.043.22.076.324.144.45.43.821.861 1.112.539.358 1.216.537 2.031.537.773 0 1.429-.18 1.968-.537.446-.298.736-.67.869-1.112a2 2 0 00.068-.324h-1.27c-.159.684-.704 1.026-1.635 1.026-.878 0-1.444-.342-1.698-1.026h-1.27zm-83.092 9.864v-1.184h-3.793v1.184h3.793z" fill="#C59368"/><path stroke="url(#paint0_linear_1219_8133)" d="M230.183 0v90"/><path d="M266.863 55.251h-3.368V45.44h-3.486l-.088 1.406c-.253 2.382-.624 4.198-1.113 5.448-.468 1.25-1.074 2.099-1.816 2.548-.722.43-1.728.654-3.016.674l-.293-3.28c.429.019.83-.098 1.201-.352.429-.313.81-.967 1.142-1.963.332-.996.547-2.245.644-3.749l.205-4.1h9.988v13.18zm12.392-8.348l-6.151 8.348h-3.369v-13.18h3.369v8.347l6.151-8.347h3.368v13.18h-3.368v-8.348zm13.513-4.833h3.368v13.181h-3.368v-4.54c-.976.508-2.07.762-3.28.762-1.641 0-2.851-.43-3.632-1.29-.762-.858-1.143-2.157-1.143-3.895v-4.217h3.603v3.807c0 1.621.713 2.431 2.138 2.431.918 0 1.689-.175 2.314-.527v-5.711zm18.752 13.181h-3.368v-5.038h-5.771v5.038h-3.368v-13.18h3.368v4.979h5.771v-4.98h3.368v13.181zm7.606 0h-4.745v-13.18h3.369v3.602h1.64c1.972 0 3.427.41 4.364 1.23.957.82 1.435 1.934 1.435 3.34 0 1.503-.507 2.714-1.523 3.631-1.015.918-2.528 1.377-4.54 1.377zm11.306 0h-3.368v-13.18h3.368v13.18zm-11.335-6.883h-1.347v3.954h1.318c1.699 0 2.548-.654 2.548-1.962 0-1.328-.84-1.992-2.519-1.992zm23.719-1.465l-6.151 8.348h-3.369v-13.18h3.369v8.347l6.151-8.347h3.368v13.18h-3.368v-8.348zm-7.557-11.423h3.075c0 .645.127 1.162.381 1.553.254.39.635.585 1.142.585.449 0 .791-.195 1.025-.585.254-.41.381-.928.381-1.553h3.076c0 1.367-.401 2.47-1.201 3.31-.801.82-1.894 1.23-3.281 1.23-1.523 0-2.675-.4-3.456-1.2-.761-.82-1.142-1.934-1.142-3.34zm27.365 6.59h4.247l-5.067 6.269 5.682 6.912h-4.394l-5.213-6.649 4.745-6.531zm-4.862 13.181h-3.369v-13.18h3.369v13.18zm11.852-9.783l-.85-2.46a9.016 9.016 0 014.658-1.26c1.835 0 3.173.45 4.012 1.348.84.898 1.26 2.275 1.26 4.13v8.025h-2.929v-1.523c-.781 1.133-2.08 1.699-3.896 1.699-1.25 0-2.255-.361-3.017-1.084-.742-.742-1.113-1.728-1.113-2.958 0-1.367.44-2.421 1.318-3.163.879-.743 2.041-1.114 3.486-1.114 1.191 0 2.187.284 2.987.85.04-1.172-.136-2.03-.527-2.578-.371-.546-1.015-.82-1.933-.82-1.015 0-2.167.303-3.456.908zm3.368 7.118c1.133 0 1.982-.4 2.548-1.201v-1.348c-.546-.43-1.318-.644-2.313-.644-.625 0-1.133.146-1.524.44-.39.292-.585.693-.585 1.2 0 .469.175.85.527 1.143.351.273.8.41 1.347.41zm18.186-18.16l1.758 2.753a4.13 4.13 0 01-1.758 1.289 23.6 23.6 0 01-2.343.644c-.918.176-1.679.42-2.285.732-1.62.762-2.567 2.402-2.841 4.921h.059c.41-.722 1.044-1.308 1.904-1.757a5.606 5.606 0 012.724-.703c1.816 0 3.27.586 4.364 1.757 1.093 1.191 1.64 2.763 1.64 4.716 0 1.894-.644 3.505-1.933 4.833-1.289 1.308-2.949 1.962-4.979 1.962-2.207 0-3.955-.752-5.243-2.255-1.27-1.504-1.904-3.534-1.904-6.092 0-5.624 1.66-9.158 4.979-10.603a10.803 10.803 0 012.402-.703c.996-.196 1.728-.381 2.197-.557a3.383 3.383 0 001.259-.937zm-7.234 13.503c.019 1.327.341 2.411.966 3.25.625.84 1.455 1.26 2.49 1.26 1.015 0 1.835-.332 2.46-.996.625-.663.937-1.503.937-2.519 0-1.035-.292-1.874-.878-2.518-.567-.645-1.357-.967-2.373-.967-.878 0-1.64.234-2.284.703a3.35 3.35 0 00-1.318 1.787zm22.021-1.026l-6.151 8.348h-3.368v-13.18h3.368v8.347l6.151-8.347h3.369v13.18h-3.369v-8.348zm18.757 8.348h-3.369v-5.038h-5.77v5.038h-3.368v-13.18h3.368v4.979h5.77v-4.98h3.369v13.181zm13.2-3.691l.967 2.373c-1.308 1.093-2.988 1.64-5.038 1.64-2.109 0-3.827-.634-5.155-1.904-1.289-1.25-1.933-2.919-1.933-5.008 0-1.953.634-3.593 1.904-4.92 1.269-1.329 2.958-1.993 5.067-1.993 1.738 0 3.212.576 4.423 1.728 1.21 1.153 1.816 2.617 1.816 4.394 0 .781-.069 1.386-.205 1.816h-9.52c.137.957.557 1.709 1.26 2.255.722.547 1.621.82 2.695.82 1.464 0 2.704-.4 3.719-1.2zm-4.335-7c-1.913 0-3.065.957-3.456 2.87h6.473c.02-.839-.254-1.523-.82-2.05-.547-.546-1.279-.82-2.197-.82zm11.035.879h-4.335V42.07h12.009v3.368h-4.305v9.812h-3.369v-9.81z" fill="#562212"/><defs><linearGradient id="paint0_linear_1219_8133" x1="229.683" y1="0" x2="229.683" y2="90" gradientUnits="userSpaceOnUse"><stop stop-color="#231F20" stop-opacity="0"/><stop offset=".5" stop-color="#231F20" stop-opacity=".2"/><stop offset="1" stop-color="#231F20" stop-opacity="0"/></linearGradient></defs></svg>