<svg fill="none" xmlns="http://www.w3.org/2000/svg" viewBox="0 0 131 51"><path d="M40.803 2.126c0 .894-.444 1.416-1.11 1.416-.74 0-1.11-.522-1.11-1.416h-3.625c.074 2.683 1.628 4.546 4.81 4.546 2.959 0 4.587-1.863 4.735-4.546h-3.7zm-7.695 18.185V7.641h4.217v5.888c0 .447-.074.894-.074.894h.148l4.588-6.857h4.07v12.67h-4.218v-5.962c0-.447.074-.82.074-.82h-.148l-4.662 6.857h-3.995zM24.377 7.343c3.995 0 7.029 2.832 7.029 6.708 0 3.8-2.96 6.633-7.03 6.633-3.995 0-6.955-2.832-6.955-6.633 0-3.876 2.96-6.708 6.956-6.708zm0 9.39c1.553 0 2.515-1.192 2.515-2.682 0-1.566-1.036-2.758-2.515-2.758-1.48 0-2.516 1.193-2.516 2.758-.074 1.49 1.036 2.683 2.515 2.683zM12.316 7.641s-3.552 4.621-3.7 4.77a2.2 2.2 0 01-.222.298h-.148s0-.149-.222-.298c-.148-.298-3.848-4.77-3.848-4.77H.846v12.67h4.07V15.02c0-.597-.074-.895-.074-.895h.148l3.256 3.801h.222l3.034-3.8h.148s-.074.372-.074.894v5.291h4.07V7.641h-3.33zm45.548-.014c-2.146 0-4.366 1.192-5.18 2.98h-.148c.074-.148.148-.372.148-.52.222-2.758 1.258-4.92 3.404-5.665 1.332-.447 2.664-.671 3.626-.894 1.036-.224 2.145-.522 2.811-.671l-.74-2.162c-1.183.298-2.293.597-4.07.97-.74.148-1.627.297-2.589.745-3.33 1.341-4.81 4.173-4.81 9.54 0 4.844 2.368 8.645 6.956 8.645 4.218 0 6.733-3.28 6.733-6.633.074-3.801-2.367-6.335-6.141-6.335zm-.592 10.807c-2.812 0-4.44-2.609-4.44-5.59.666-1.714 2.738-3.13 4.514-3.13 2.516 0 4.144 1.565 4.144 4.322 0 2.609-1.85 4.398-4.218 4.398zm11.025-1.864h-.148a2.69 2.69 0 00.148-.82V7.478h-2.516v12.67h2.22l7.177-9.093h.148a2.696 2.696 0 00-.148.82v8.273h2.516V7.478h-2.22l-7.177 9.092zm19.016-2.906c1.48-.596 2.22-1.565 2.22-3.056 0-2.087-1.702-3.503-4.736-3.503a8.84 8.84 0 00-5.105 1.64l.962 1.789c1.11-.895 2.59-1.342 3.773-1.342 1.628 0 2.516.671 2.516 1.79 0 1.043-.814 1.713-2.072 1.713h-1.997v1.938h2.219c1.554 0 2.294.522 2.294 1.565 0 1.267-1.258 2.087-3.108 2.087-1.331 0-2.885-.596-3.847-1.416l-.962 1.789c1.11.969 2.96 1.714 5.179 1.714 3.034 0 5.328-1.565 5.328-3.95-.074-1.342-.962-2.534-2.664-2.758zm13.615-.969h-6.733V7.478h-2.516v12.67h2.516v-5.515h6.733v5.515h2.516V7.478h-2.516v5.217zm10.359-5.515c-3.7 0-6.141 2.906-6.141 6.782 0 3.801 2.441 6.633 6.807 6.633 2.146 0 3.922-.67 5.254-1.714l-.962-1.789a6.905 6.905 0 01-4.144 1.416c-2.738 0-4.07-1.49-4.292-3.726h9.62c0-.224.074-.522.074-.82-.074-3.876-1.924-6.782-6.216-6.782zm-3.478 5.59c.296-1.938 1.776-3.503 3.626-3.503 2.294 0 3.404 1.565 3.552 3.503h-7.178zm18.277 5.664c-2.59 0-4.44-1.938-4.44-4.695 0-2.385 1.48-4.398 4.292-4.398 1.258 0 2.59.373 3.995 1.267 0 0 .666-1.192 1.036-1.863a8.868 8.868 0 00-5.105-1.64c-4.07 0-6.808 2.833-6.808 6.708 0 3.727 2.738 6.708 6.808 6.708 1.998 0 3.773-.596 5.105-1.64l-.962-1.788a6.531 6.531 0 01-3.921 1.341zM7.897 36.497H6.274v-3.162H4.928l-2.09 3.162H1l2.384-3.488a3.078 3.078 0 01-1.199-1.02c-.293-.435-.44-.94-.44-1.515 0-.915.32-1.668.96-2.26.639-.601 1.597-.902 2.876-.902l1.171.026c.39.01.773.014 1.146.014v9.145zm-3.115-4.664h1.491v-2.979c-.453-.026-.795-.04-1.025-.04-.533 0-.963.145-1.292.432-.32.287-.48.662-.48 1.124 0 .383.12.705.36.966.249.253.564.419.946.497zm7.334 4.664H10.48v-9.145h1.65l3.183 4.272 3.036-4.272h1.545v9.145h-1.625v-6.61l-2.943 4.063h-.24l-2.969-4.025v6.572zm10.817 0h-1.65l3.94-9.172h1.439l3.941 9.172H28.86l-.972-2.339h-3.981l-.973 2.34zm4.328-3.841l-1.358-3.253-1.372 3.253h2.73zm11.784 3.841h-1.624v-7.643h-2.717l-.186 1.725c-.107 1.045-.244 1.938-.413 2.678-.168.74-.355 1.333-.56 1.777-.203.444-.447.784-.732 1.019a1.915 1.915 0 01-.865.444 3.353 3.353 0 01-1.025 0l.04-1.594c.195.026.355.018.479-.026.124-.043.27-.165.44-.366.186-.226.337-.527.452-.901.32-.932.555-2.409.706-4.43l.133-1.828h5.872v9.145zm1.885-4.573c0-1.332.452-2.452 1.358-3.357.923-.906 2.086-1.36 3.489-1.36 1.402 0 2.56.436 3.475 1.307.923.88 1.385 2.017 1.385 3.41 0 1.368-.462 2.496-1.385 3.384-.923.889-2.082 1.333-3.476 1.333-1.402 0-2.56-.436-3.475-1.307-.914-.87-1.371-2.007-1.371-3.41zm1.73 0c0 .924.298 1.69.893 2.3.595.61 1.336.914 2.224.914.958 0 1.717-.304 2.276-.914.569-.61.853-1.376.853-2.3 0-.932-.302-1.703-.906-2.312-.603-.601-1.345-.902-2.224-.902-.896 0-1.642.3-2.237.902-.585.6-.878 1.372-.878 2.312zm12.996 1.699H52.3v-1.398h3.356v1.398zm9.64 2.874H63.67v-3.906h-4.26v3.906h-1.639v-9.145h1.638v3.736h4.261v-3.736h1.625v9.145zm8.106 0h-5.526v-9.145h5.393v1.502h-3.755v2.273h3.356v1.503h-3.356v2.365h3.888v1.502zm9.657 0h-1.625v-3.906h-4.26v3.906h-1.639v-9.145h1.638v3.736h4.261v-3.736h1.625v9.145zm8.106 0h-5.526v-9.145h5.393v1.502h-3.755v2.273h3.355v1.503h-3.355v2.365h3.888v1.502zm9.23 0h-7.097v-9.145h1.638v7.643h4.088v-7.643h1.638v7.643h1.265v3.135h-1.532v-1.633zm4.788 0h-1.638v-9.145h1.638v4.337l3.675-4.337h1.971l-3.835 4.259 4.074 4.886h-2.077l-3.808-4.716v4.716zm13.633-6.493l-4.887 6.493h-1.438v-9.145h1.638v6.506l4.887-6.506h1.438v9.145h-1.638v-6.493zm10.546 0l-4.887 6.493h-1.438v-9.145h1.638v6.506l4.887-6.506H131v9.145h-1.638v-6.493zm-4.847-4.874h1.532c.106.506.483.758 1.131.758.675 0 1.03-.252 1.066-.758h1.531c-.009.55-.262 1.002-.759 1.36-.497.339-1.11.509-1.838.509-.781 0-1.411-.166-1.89-.497a1.79 1.79 0 01-.773-1.372zM2.019 50.015H1l3.565-8.092h.865l3.565 8.092H7.917L6.85 47.58H3.073l-1.054 2.436zM6.46 46.66l-1.492-3.437-1.493 3.437H6.46zm3.957 3.344V41.98a96.983 96.983 0 012.274-.046c.9 0 1.567.176 2.002.529.442.345.663.831.663 1.46 0 .467-.127.858-.38 1.172-.252.314-.6.544-1.042.69v.023c.537.084.956.29 1.256.62.308.33.462.759.462 1.288 0 .766-.269 1.348-.805 1.747-.537.39-1.272.586-2.204.586-.908 0-1.65-.015-2.226-.046zm2.345-3.655h-1.338v2.735c.323.031.75.046 1.279.046.623 0 1.101-.122 1.433-.367.34-.253.51-.621.51-1.104 0-.421-.167-.743-.498-.965-.324-.23-.786-.345-1.386-.345zm-.095-3.494c-.237 0-.651.011-1.243.034v2.598h1.326c.466 0 .849-.12 1.149-.357.3-.245.45-.574.45-.988 0-.858-.56-1.288-1.682-1.288zm6.836.034h-2.901v-.92h6.81v.92H20.51v7.126h-1.007V42.89zm4.223 3.103c0-1.164.399-2.145 1.196-2.942.798-.797 1.808-1.195 3.032-1.195 1.216 0 2.223.387 3.02 1.16.806.774 1.208 1.767 1.208 2.977 0 1.18-.402 2.169-1.208 2.966-.805.782-1.812 1.172-3.02 1.172s-2.219-.387-3.032-1.16c-.797-.774-1.196-1.767-1.196-2.978zm1.066 0c0 .905.304 1.67.912 2.3.608.612 1.358.919 2.25.919.932 0 1.69-.307 2.274-.92.592-.613.889-1.379.889-2.299 0-.92-.304-1.685-.912-2.298-.608-.613-1.358-.92-2.25-.92-.909 0-1.663.303-2.263.908-.6.605-.9 1.376-.9 2.31zm15.805 4.023H39.59v-3.643h-4.56v3.643h-1.006V41.97h1.007v3.483h4.56V41.97h1.006v8.046zm1.832-4.023c0-1.164.398-2.145 1.196-2.942.797-.797 1.808-1.195 3.032-1.195 1.216 0 2.223.387 3.02 1.16.806.774 1.208 1.767 1.208 2.977 0 1.18-.402 2.169-1.208 2.966-.805.782-1.812 1.172-3.02 1.172s-2.219-.387-3.032-1.16c-.797-.774-1.196-1.767-1.196-2.978zm1.066 0c0 .905.304 1.67.912 2.3.608.612 1.358.919 2.25.919.932 0 1.69-.307 2.274-.92.592-.613.888-1.379.888-2.299 0-.92-.304-1.685-.912-2.298-.608-.613-1.358-.92-2.25-.92-.908 0-1.662.303-2.262.908-.6.605-.9 1.376-.9 2.31zm10.238 4.023h-1.006V41.97h1.018l3.115 4.127 2.985-4.127h.959v8.046h-1.007V43.51l-2.937 4h-.154l-2.973-3.966v6.471zm16.127 0h-1.007v-3.643h-4.56v3.643h-1.007V41.97h1.007v3.483h4.56V41.97h1.007v8.046zm10.004 0h-1.007V41.97h1.007v8.046zM74.38 45.82c-.276 0-.62.023-1.03.069v3.195l.995.035c1.405 0 2.108-.571 2.108-1.713 0-.513-.178-.904-.533-1.172-.356-.276-.869-.414-1.54-.414zm-2.037-3.85h1.007v2.988c.552-.038.92-.057 1.101-.057 1.003 0 1.765.218 2.286.655.521.429.782 1.038.782 1.827 0 .843-.288 1.498-.865 1.966-.576.46-1.386.69-2.428.69-.395 0-.738-.004-1.03-.012a31.9 31.9 0 00-.853-.012V41.97zm15.927 1.609l-5.034 6.436h-.888V41.97h1.007v6.437l5.033-6.437h.888v8.046H88.27V43.58zm-4.596-3.449h.948c.19.498.612.747 1.267.747.695 0 1.102-.248 1.22-.747h.948c-.056.43-.289.778-.7 1.046-.402.26-.891.391-1.468.391-.608 0-1.113-.13-1.516-.39-.395-.261-.628-.61-.699-1.047zm10.098 5.862c0-1.164.398-2.145 1.196-2.942.797-.797 1.808-1.195 3.032-1.195 1.216 0 2.223.387 3.02 1.16.806.774 1.208 1.767 1.208 2.977 0 1.18-.402 2.169-1.208 2.966-.805.782-1.812 1.172-3.02 1.172s-2.219-.387-3.032-1.16c-.798-.774-1.196-1.767-1.196-2.978zm1.066 0c0 .905.304 1.67.912 2.3.608.612 1.358.919 2.25.919.932 0 1.69-.307 2.274-.92.592-.613.888-1.379.888-2.299 0-.92-.304-1.685-.912-2.298-.608-.613-1.358-.92-2.25-.92-.908 0-1.662.303-2.262.908-.6.605-.9 1.376-.9 2.31zm14.076-4.022h1.219l-3.695 3.781 3.885 4.264h-1.291l-3.755-4.195 3.637-3.85zm-3.838 8.045h-1.007V41.97h1.007v8.046zm7.738-3.092v3.092h-1.007V41.97c.332 0 .683-.003 1.054-.011.372-.008.743-.011 1.114-.011 1.089 0 1.871.237 2.345.712.481.468.722 1.061.722 1.782 0 .697-.26 1.295-.781 1.793-.506.49-1.24.735-2.203.735-.506 0-.92-.015-1.244-.046zm1.255-4.057c-.142 0-.56.008-1.255.023v3.103c.497.039.9.058 1.208.058.608 0 1.086-.142 1.433-.425.348-.292.521-.69.521-1.196 0-.498-.162-.881-.485-1.15-.316-.275-.79-.413-1.422-.413zm9.872-.896h1.018l-2.866 6.206c-.292.644-.6 1.111-.924 1.403a1.616 1.616 0 01-1.137.436c-.426 0-.762-.095-1.006-.287l.355-.828c.205.138.418.207.639.207.403 0 .743-.272 1.019-.816l.142-.299-3.754-6.023h1.137l3.103 5.046 2.274-5.046zm3.447 8.045h-1.007V41.97H131v.92h-3.612v7.126z" fill="#fff"/></svg>