<svg fill="none" xmlns="http://www.w3.org/2000/svg" viewBox="0 0 29 55" id="logo-r-footer"><path d="M16.459 45.34l-4.133-4.162-4.133 4.163 4.133 8.763 4.133-8.764zm-4.133-22.275a2.91 2.91 0 002.9-2.921 2.91 2.91 0 00-2.9-2.921 2.91 2.91 0 00-2.9 2.921 2.91 2.91 0 002.9 2.921z" fill="#fff"></path> <path d="M12.326 4.223C11.456 4.66 0 10.796 0 20.509c0 8.325 6.743 20.96 6.743 20.96l5.583-5.623 5.583 5.623s6.743-12.635 6.743-20.96c0-9.713-11.456-15.848-12.326-16.286zm3.698 27.825l-3.698-3.725-3.698 3.725c-.217-.511-2.683-7.23-2.683-11.685 0-5.916 5.873-9.275 6.381-9.494.435.219 6.38 3.578 6.38 9.494-.072 4.455-2.537 11.174-2.682 11.685zM28.857 4.235L24.653 0 20.45 4.235l4.204 4.234 4.204-4.234z" fill="#fff"></path></svg>
