<svg width="222" height="54" fill="none" xmlns="http://www.w3.org/2000/svg"><path d="M33.565 27.029V12.374h4.359l4.358 4.961 4.02-4.961h4.244v14.655H45.68v-7.185l-3.51 4.048h-.113l-3.68-4.048v7.185h-4.81zm19.019-7.356c0-2.224.736-4.049 2.207-5.531 1.472-1.483 3.453-2.167 5.887-2.167 2.434 0 4.415.74 5.83 2.167 1.472 1.482 2.208 3.307 2.208 5.53 0 2.224-.736 4.05-2.208 5.532-1.471 1.482-3.396 2.167-5.83 2.167s-4.415-.742-5.886-2.167c-1.472-1.426-2.208-3.25-2.208-5.531zm8.038 3.193c1.698 0 2.886-1.198 2.886-3.136 0-1.825-1.245-3.137-2.886-3.137-1.642 0-2.887 1.255-2.887 3.137 0 1.767 1.188 3.136 2.887 3.136zm14.943 4.163h-4.811V12.374h4.868v7.64l5.15-7.64h4.868v14.655h-4.867v-7.641l-5.208 7.64zm1.359-21.783c0 1.255.452 1.882 1.358 1.882.793 0 1.245-.627 1.245-1.882h4.189c0 3.193-1.924 5.531-5.434 5.531-3.792 0-5.547-2.224-5.547-5.53h4.189zm24.395.741a3.893 3.893 0 01-1.868 1.483c-.736.285-1.641.513-2.717.627a12.767 12.767 0 00-2.83.798c-2.207 1.027-3.396 3.365-3.68 7.071h.057c.963-2.053 3.283-3.421 5.717-3.421 4.132 0 6.736 2.85 6.736 7.299 0 2.052-.736 3.877-2.094 5.303-1.415 1.482-3.17 2.167-5.377 2.167-2.378 0-4.246-.799-5.604-2.452-1.415-1.597-2.038-3.82-2.038-6.672 0-6.33 1.811-10.264 5.377-11.804.85-.399 1.812-.627 2.83-.798 2.038-.342 3.17-.57 4.02-1.71l1.471 2.11zm-6 18.932c1.415 0 2.547-.514 3.396-1.426.906-.97 1.359-2.11 1.359-3.535 0-2.965-1.698-4.961-4.642-4.961-1.302 0-2.377.342-3.283 1.083-.905.742-1.471 1.654-1.698 2.623-.056 3.764 1.981 6.216 4.868 6.216zm12.396 2.11h-2.604V12.374h2.604v10.891l8.377-10.891h2.604v14.655h-2.604V16.137l-8.377 10.892zm15.567-.229c-1.189-.399-2.038-.855-2.491-1.425l1.302-1.939c1.189.97 2.943 1.597 4.302 1.597 2.207 0 3.792-.97 3.792-2.395 0-1.198-1.075-1.882-2.83-1.882h-2.434v-2.11h2.264c1.472 0 2.491-.912 2.491-2.053 0-1.311-1.189-2.11-3.113-2.11-1.529 0-3 .57-4.359 1.654l-1.019-1.996c1.189-1.197 3.396-1.938 5.717-1.938 3.51 0 5.434 1.482 5.434 3.934 0 1.71-.849 2.851-2.547 3.421v.058c1.924.228 3.056 1.653 3.056 3.42 0 2.68-2.49 4.391-6.169 4.391-1.019-.113-2.208-.285-3.396-.627zm22.867.229v-6.216h-8.094v6.159h-2.604V12.374h2.604v5.987h8.094v-5.987h2.604v14.655h-2.604zm18.113-1.597c-1.415 1.254-3.227 1.938-5.434 1.938-2.377 0-4.245-.684-5.66-2.052-1.416-1.426-2.151-3.25-2.151-5.532 0-2.223.679-4.048 1.981-5.474 1.302-1.482 3.169-2.166 5.49-2.166 1.925 0 3.51.627 4.811 1.881 1.302 1.255 1.925 2.851 1.925 4.79 0 .684-.057 1.255-.17 1.768H153.96c.226 2.737 2.207 4.39 5.038 4.39 1.924 0 3.396-.513 4.471-1.54l.793 1.997zm-10.472-7.014h8.83c-.113-2.452-1.698-3.878-4.188-3.878-2.604-.057-4.359 1.54-4.642 3.878zm25.811 6.501c-1.188 1.54-3.283 2.451-5.603 2.451-2.321 0-4.189-.684-5.661-2.052-1.415-1.426-2.15-3.25-2.15-5.532 0-2.166.735-3.991 2.094-5.417 1.415-1.482 3.17-2.223 5.264-2.223 2.547 0 4.472.627 5.717 1.938l-1.189 2.053c-1.075-1.026-2.49-1.54-4.188-1.54-1.359 0-2.491.514-3.51 1.483-.962.97-1.472 2.224-1.472 3.707 0 1.54.51 2.85 1.472 3.763 1.019.97 2.264 1.425 3.736 1.425 1.698 0 3.056-.627 4.189-1.881l1.301 1.825zm3.736-1.369c.962 0 1.698.855 1.698 1.71 0 1.027-.736 1.825-1.698 1.825-1.076 0-1.812-.855-1.812-1.825-.056-.912.736-1.71 1.812-1.71zm3.905 9.124v-20.3h2.604v1.71c1.019-1.197 2.943-2.052 4.924-2.052 2.038 0 3.68.684 4.868 2.053 1.246 1.368 1.812 3.136 1.812 5.303 0 2.223-.736 4.105-2.095 5.645-1.415 1.482-3.226 2.224-5.434 2.224-1.698 0-3.113-.343-4.075-1.027v6.33h-2.604v.114zm2.604-16.137v7.241a6.937 6.937 0 003.849 1.14c3.057 0 5.038-2.223 5.038-5.302 0-3.023-1.755-5.075-4.698-5.075-1.699-.057-3.17.627-4.189 1.995zm21.227 16.137v-5.36h-.34c-2.434 0-4.358-.742-5.773-2.167-1.416-1.426-2.095-3.25-2.095-5.474 0-2.11.736-3.878 2.151-5.417 1.415-1.483 3.34-2.224 5.717-2.224h.396V9.694h2.604v2.338h.396c2.378 0 4.245.741 5.661 2.167 1.415 1.482 2.151 3.307 2.151 5.474 0 2.224-.68 4.105-2.038 5.53-1.359 1.426-3.283 2.11-5.717 2.11h-.396v5.36h-2.717zm-.283-7.755h.283V14.484h-.397c-3.169 0-5.037 2.224-5.037 5.189-.057 3.136 1.924 5.246 5.151 5.246zm2.83-10.435v10.378h.283c3.339 0 5.207-2.053 5.207-5.19 0-1.425-.452-2.68-1.358-3.649-.906-1.026-2.151-1.54-3.736-1.54h-.396z" fill="#562212"/><path d="M8.207 45.333L12.282 54h.057l4.132-8.667-4.132-4.163-4.132 4.163z" fill="#ED5338"/><path d="M12.34 4.22C11.433 4.676 0 10.777 0 20.528c0 8.325 6.736 20.984 6.736 20.984l5.603-5.645 5.604 5.645S24.68 28.91 24.68 20.528c-.057-9.75-11.49-15.852-12.34-16.308zm3.679 27.827l-3.68-3.707-3.679 3.707C8.49 31.533 6 24.805 6 20.414c0-5.93 5.887-9.238 6.34-9.466.452.171 6.339 3.536 6.339 9.466 0 4.39-2.49 11.12-2.66 11.633zM24.653.008L20.45 4.24l4.203 4.234 4.202-4.234L24.653.008z" fill="#C59368"/><path d="M15.283 20.129c0 1.596-1.302 2.908-2.886 2.908-1.585 0-2.887-1.311-2.887-2.908s1.302-2.908 2.886-2.908c1.585 0 2.887 1.311 2.887 2.908z" fill="#C59368"/><path d="M38.617 35.432H36.4a87.72 87.72 0 01-.294 4.748c-.122 1.272-.309 2.252-.561 2.94-.159.452-.355.781-.589.989-.234.207-.5.31-.8.31-.27 0-.5-.047-.686-.14l.154-.976a.7.7 0 00.519-.028c.159-.076.308-.292.449-.65.102-.255.196-.594.28-1.018.093-.433.173-.98.238-1.639.075-.66.136-1.442.183-2.346.046-.904.079-1.96.098-3.165h4.276v9.892h-1.051v-8.917zm7.767 2.445l.084-1.3h-.042l-.49 1.328-3.632 6.444h-.701v-9.892h1.051v6.57l-.098 1.273h.056l.491-1.329 3.646-6.514h.687v9.892h-1.052v-6.472zm3.912-3.42v3.448c0 .688.117 1.168.35 1.441.234.264.575.396 1.024.396.327 0 .64-.061.94-.184a2.02 2.02 0 00.742-.48v-4.621h1.052v9.892h-1.052v-4.24a3.349 3.349 0 01-.785.41 3.05 3.05 0 01-1.121.198c-.3 0-.585-.038-.856-.113a1.738 1.738 0 01-.7-.396 2.17 2.17 0 01-.478-.791c-.112-.33-.168-.754-.168-1.272v-3.688h1.052zm10.717 5.327h-3.618v4.565h-1.052v-9.892h1.052v4.352h3.618v-4.352h1.051v9.892h-1.051v-4.565zm8.864-5.327h1.051v9.892h-1.051v-9.892zm-5.876 0h1.052V38.3a6.26 6.26 0 01.42-.07c.197-.038.389-.057.576-.057.364 0 .71.043 1.037.127.337.085.631.24.884.467.252.216.453.518.603.904.15.386.224.876.224 1.47 0 1.15-.266 1.992-.8 2.53-.523.527-1.257.79-2.2.79a10.8 10.8 0 01-.842-.041 4.39 4.39 0 01-.954-.156v-9.807zm1.893 9.03c.561 0 1-.184 1.318-.551.318-.368.477-.933.477-1.696 0-.415-.047-.754-.14-1.018a1.587 1.587 0 00-.393-.65 1.21 1.21 0 00-.575-.325 2.574 2.574 0 00-1.178-.056 2.143 2.143 0 00-.35.084v4.113c.187.066.467.099.841.099zm11.752-5.61l.084-1.3h-.042l-.49 1.328-3.633 6.444h-.7v-9.892h1.05v6.57l-.097 1.273h.056l.49-1.329 3.646-6.514h.687v9.892h-1.051v-6.472zm-2.749-5.823c.02.349.113.627.28.834.178.207.417.31.716.31.3 0 .528-.103.687-.31.168-.207.267-.48.294-.82l.898.212c-.075.537-.267.952-.575 1.244-.308.292-.748.438-1.318.438-.552 0-1.01-.132-1.374-.396-.355-.264-.561-.687-.617-1.272l1.01-.24zM85.3 39.77h-.505v4.579h-1.052v-9.892h1.052v4.606l.49-.197 2.553-4.41h1.206l-2.566 4.268-.491.453.575.565 2.846 4.607h-1.332L85.3 39.77zm9.27 1.809h-2.776l-.785 2.77h-1.038l2.96-10.048h.574l2.959 10.048H95.37l-.8-2.77zm-2.495-.947h2.243l-.855-3.052-.266-1.484h-.029l-.266 1.512-.827 3.024zm5.492-6.175h4.388v.975h-3.337v3.038c.131-.028.29-.056.477-.085a4.207 4.207 0 011.669.099c.345.085.645.236.897.452.262.217.467.514.617.89.15.368.224.834.224 1.4 0 .565-.074 1.055-.224 1.47-.14.404-.341.739-.603 1.003a2.477 2.477 0 01-.911.58 3.599 3.599 0 01-1.178.183 8.81 8.81 0 01-.463-.014c-.168 0-.346-.01-.533-.029a5.681 5.681 0 01-.547-.056 4.665 4.665 0 01-.476-.099v-9.807zm1.051 8.945c.103.038.257.061.463.07.215.01.416.015.603.015.505 0 .916-.165 1.234-.495.318-.33.477-.852.477-1.569 0-.452-.052-.814-.155-1.088-.093-.282-.224-.499-.392-.65a1.26 1.26 0 00-.603-.296 3.555 3.555 0 00-.73-.071c-.065 0-.14.005-.224.014-.084.01-.173.019-.266.028-.084.01-.164.024-.239.043l-.168.042v3.957zm10.114-5.525l.085-1.3h-.042l-.491 1.328-3.632 6.444h-.701v-9.892h1.052v6.57l-.099 1.273h.057l.49-1.329 3.646-6.514h.687v9.892h-1.052v-6.472zm7.656 1.907h-3.618v4.565h-1.052v-9.892h1.052v4.352h3.618v-4.352h1.051v9.892h-1.051v-4.565zm2.988-5.327h4.361v.975h-3.309v3.349h3.043v.975h-3.043v3.618h3.379v.975h-4.431v-9.892zm11.326.975h-2.412v8.917h-1.051v-8.917h-2.412v-.975h5.875v.975z" fill="#562212"/></svg>