<svg width="365" height="70" viewBox="0 0 365 70" fill="none" xmlns="http://www.w3.org/2000/svg">
<path d="M8.07617 50.3156L11.8909 58.4026H11.9439L15.8115 50.3156L11.9439 46.4316L8.07617 50.3156Z" fill="#ED5338"/>
<path d="M11.9426 11.9556C11.0949 12.3812 0.392578 18.0741 0.392578 27.172C0.392578 34.9399 6.69743 46.7513 6.69743 46.7513L11.9426 41.484L17.1879 46.7513C17.1879 46.7513 23.4927 34.9931 23.4927 27.172C23.4397 18.0741 12.7374 12.3812 11.9426 11.9556ZM15.3865 37.9193L11.9426 34.461L8.49882 37.9193C8.33987 37.4405 6.00867 31.1624 6.00867 27.0656C6.00867 21.5324 11.5188 18.4465 11.9426 18.2337C12.3665 18.3933 17.8766 21.5324 17.8766 27.0656C17.8766 31.1624 15.5454 37.4405 15.3865 37.9193Z" fill="#C59368"/>
<path d="M23.4678 8.0254L19.5342 11.9756L23.4678 15.9258L27.4015 11.9756L23.4678 8.0254Z" fill="#C59368"/>
<path d="M14.6971 26.7989C14.6971 28.2886 13.4785 29.5123 11.995 29.5123C10.5116 29.5123 9.29297 28.2886 9.29297 26.7989C9.29297 25.3092 10.5116 24.0854 11.995 24.0854C13.4785 24.0854 14.6971 25.3092 14.6971 26.7989Z" fill="#C59368"/>
<path d="M38.2451 30.5735V18.4424H41.8645L45.4839 22.549L48.8213 18.4424H52.3467V30.5735H48.3043V24.6259L45.3899 27.9773H45.2959L42.2406 24.6259V30.5735H38.2451Z" fill="#562212"/>
<path d="M54.1182 24.4842C54.1182 22.6433 54.7292 21.1328 55.9514 19.9055C57.1735 18.6782 58.8187 18.1118 60.8399 18.1118C62.8611 18.1118 64.5063 18.7255 65.6815 19.9055C66.9036 21.1328 67.5147 22.6433 67.5147 24.4842C67.5147 26.3251 66.9036 27.8356 65.6815 29.0628C64.4593 30.2901 62.8611 30.8565 60.8399 30.8565C58.8187 30.8565 57.1735 30.2429 55.9514 29.0628C54.7292 27.8828 54.1182 26.3723 54.1182 24.4842ZM60.7929 27.1275C62.2031 27.1275 63.1902 26.1363 63.1902 24.5314C63.1902 23.0209 62.1561 21.9352 60.7929 21.9352C59.4298 21.9352 58.3956 22.9737 58.3956 24.5314C58.3956 25.9947 59.3828 27.1275 60.7929 27.1275Z" fill="#562212"/>
<path d="M73.2025 30.5734H69.207V18.4423H73.2495V24.7675L77.527 18.4423H81.5695V30.5734H77.527V24.2483L73.2025 30.5734ZM74.3306 12.542C74.3306 13.5805 74.7067 14.0997 75.4588 14.0997C76.1168 14.0997 76.4929 13.5805 76.4929 12.542H79.9713C79.9713 15.1853 78.3731 17.1207 75.4588 17.1207C72.3094 17.1207 70.8522 15.2797 70.8522 12.542H74.3306Z" fill="#562212"/>
<path d="M94.5881 13.1557C94.1651 13.7693 93.648 14.1469 93.037 14.3829C92.4259 14.619 91.6738 14.8078 90.7807 14.9022C89.8876 15.0438 89.1355 15.2798 88.4305 15.563C86.5973 16.4127 85.6101 18.348 85.3751 21.4161H85.4221C86.2212 19.7169 88.1484 18.584 90.1697 18.584C93.601 18.584 95.7633 20.9441 95.7633 24.6259C95.7633 26.3252 95.1522 27.8357 94.0241 29.0158C92.8489 30.243 91.3918 30.8095 89.5586 30.8095C87.5844 30.8095 86.0332 30.1486 84.9051 28.7798C83.7299 27.4581 83.2129 25.6172 83.2129 23.2571C83.2129 18.0176 84.7171 14.7606 87.6784 13.4861C88.3835 13.1557 89.1825 12.9669 90.0286 12.8253C91.7208 12.542 92.6609 12.3532 93.366 11.4092L94.5881 13.1557ZM89.6056 28.827C90.7807 28.827 91.7208 28.4021 92.4259 27.6469C93.178 26.8445 93.554 25.9004 93.554 24.7203C93.554 22.2658 92.1439 20.6137 89.6996 20.6137C88.6185 20.6137 87.7254 20.8969 86.9733 21.5106C86.2212 22.1242 85.7512 22.8794 85.5631 23.6819C85.5161 26.7973 87.2083 28.827 89.6056 28.827Z" fill="#562212"/>
<path d="M99.9015 30.5735H97.7393V18.4424H99.9015V27.4581L106.858 18.4424H109.021V30.5735H106.858V21.5578L99.9015 30.5735Z" fill="#562212"/>
<path d="M112.828 30.3847C111.841 30.0542 111.136 29.6766 110.76 29.2046L111.841 27.5997C112.828 28.4022 114.285 28.9214 115.413 28.9214C117.246 28.9214 118.563 28.1189 118.563 26.9389C118.563 25.9476 117.67 25.3812 116.212 25.3812H114.191V23.6347H116.071C117.293 23.6347 118.14 22.8794 118.14 21.9354C118.14 20.8497 117.152 20.1889 115.554 20.1889C114.285 20.1889 113.063 20.6609 111.935 21.5578L111.089 19.9057C112.076 18.9144 113.909 18.3008 115.836 18.3008C118.751 18.3008 120.349 19.5281 120.349 21.5578C120.349 22.9738 119.644 23.9179 118.234 24.3899V24.4371C119.832 24.6259 120.772 25.806 120.772 27.2693C120.772 29.4878 118.704 30.9039 115.648 30.9039C114.802 30.8095 113.815 30.6679 112.828 30.3847Z" fill="#562212"/>
<path d="M131.817 30.5735V25.4284H125.095V30.5263H122.933V18.4424H125.095V23.3987H131.817V18.4424H133.979V30.5735H131.817Z" fill="#562212"/>
<path d="M146.86 29.2511C145.684 30.2896 144.18 30.856 142.347 30.856C140.373 30.856 138.822 30.2896 137.647 29.1567C136.471 27.9767 135.86 26.4662 135.86 24.5781C135.86 22.7372 136.424 21.2267 137.506 20.0466C138.587 18.8194 140.138 18.2529 142.065 18.2529C143.663 18.2529 144.979 18.7722 146.061 19.8106C147.142 20.8491 147.659 22.1708 147.659 23.7756C147.659 24.3421 147.612 24.8141 147.518 25.2389H138.305C138.493 27.5047 140.138 28.8735 142.488 28.8735C144.086 28.8735 145.308 28.4487 146.202 27.5991L146.86 29.2511ZM138.164 23.4452H145.496C145.402 21.4155 144.086 20.2354 142.018 20.2354C139.856 20.1882 138.399 21.5099 138.164 23.4452Z" fill="#562212"/>
<path d="M159.597 28.8263C158.61 30.1008 156.871 30.856 154.944 30.856C153.017 30.856 151.465 30.2896 150.243 29.1567C149.068 27.9767 148.457 26.4662 148.457 24.5781C148.457 22.7844 149.068 21.2739 150.196 20.0938C151.371 18.8666 152.829 18.2529 154.568 18.2529C156.683 18.2529 158.281 18.7722 159.315 19.8578L158.328 21.5571C157.435 20.7075 156.26 20.2826 154.85 20.2826C153.722 20.2826 152.782 20.7075 151.935 21.5099C151.136 22.3124 150.713 23.3508 150.713 24.5781C150.713 25.8526 151.136 26.9382 151.935 27.6935C152.782 28.4959 153.816 28.8735 155.038 28.8735C156.448 28.8735 157.576 28.3543 158.516 27.3158L159.597 28.8263Z" fill="#562212"/>
<path d="M38.9143 58.5183H37.9688L41.2781 51.008H42.0807L45.39 58.5183H44.3895L43.4 56.2567H39.8928L38.9143 58.5183ZM43.0372 55.4032L41.6519 52.2135L40.2666 55.4032H43.0372Z" fill="#C59368"/>
<path d="M46.7651 58.5077V51.0613C47.7839 51.0329 48.4876 51.0186 48.876 51.0186C49.7116 51.0186 50.331 51.1822 50.7341 51.5094C51.1445 51.8294 51.3498 52.281 51.3498 52.8642C51.3498 53.2981 51.2325 53.6608 50.998 53.9524C50.7634 54.244 50.4409 54.4573 50.0305 54.5925V54.6138C50.5289 54.692 50.9173 54.8841 51.1959 55.1899C51.4817 55.4957 51.6246 55.894 51.6246 56.3847C51.6246 57.0959 51.3754 57.6364 50.877 58.0063C50.3786 58.369 49.697 58.5503 48.8321 58.5503C47.9892 58.5503 47.3002 58.5361 46.7651 58.5077ZM48.942 55.1152H47.6996V57.6542C48.0002 57.6827 48.396 57.6969 48.887 57.6969C49.4661 57.6969 49.9095 57.5831 50.2174 57.3555C50.5325 57.1208 50.6901 56.7794 50.6901 56.3314C50.6901 55.9402 50.5362 55.6415 50.2284 55.4352C49.9278 55.2219 49.4991 55.1152 48.942 55.1152ZM48.8541 51.8721C48.6342 51.8721 48.2494 51.8828 47.6996 51.9041V54.3151H48.931C49.3635 54.3151 49.7189 54.2048 49.9975 53.9844C50.276 53.7568 50.4153 53.451 50.4153 53.0669C50.4153 52.2704 49.8949 51.8721 48.8541 51.8721Z" fill="#C59368"/>
<path d="M55.2548 51.9041H52.5612V51.0506H58.883V51.9041H56.1894V58.5183H55.2548V51.9041Z" fill="#C59368"/>
<path d="M59.2296 54.7845C59.2296 53.7034 59.5997 52.7931 60.34 52.0534C61.0803 51.3138 62.0185 50.944 63.1546 50.944C64.2833 50.944 65.2179 51.3031 65.9581 52.0214C66.7058 52.7398 67.0796 53.6608 67.0796 54.7845C67.0796 55.8797 66.7058 56.7972 65.9581 57.5369C65.2105 58.2623 64.276 58.625 63.1546 58.625C62.0331 58.625 61.095 58.2658 60.34 57.5475C59.5997 56.8292 59.2296 55.9082 59.2296 54.7845ZM60.2191 54.7845C60.2191 55.6237 60.5013 56.3349 61.0656 56.9181C61.63 57.4871 62.3263 57.7716 63.1546 57.7716C64.0195 57.7716 64.7231 57.4871 65.2655 56.9181C65.8152 56.3491 66.0901 55.6379 66.0901 54.7845C66.0901 53.931 65.8079 53.2198 65.2435 52.6509C64.6791 52.0819 63.9828 51.7974 63.1546 51.7974C62.3117 51.7974 61.6117 52.0783 61.0546 52.6402C60.4976 53.202 60.2191 53.9168 60.2191 54.7845Z" fill="#C59368"/>
<path d="M74.9455 58.5183H74.011V55.1365H69.7782V58.5183H68.8437V51.0506H69.7782V54.2831H74.011V51.0506H74.9455V58.5183Z" fill="#C59368"/>
<path d="M76.7008 54.7845C76.7008 53.7034 77.0709 52.7931 77.8112 52.0534C78.5515 51.3138 79.4897 50.944 80.6258 50.944C81.7545 50.944 82.689 51.3031 83.4293 52.0214C84.177 52.7398 84.5508 53.6608 84.5508 54.7845C84.5508 55.8797 84.177 56.7972 83.4293 57.5369C82.6817 58.2623 81.7472 58.625 80.6258 58.625C79.5043 58.625 78.5662 58.2658 77.8112 57.5475C77.0709 56.8292 76.7008 55.9082 76.7008 54.7845ZM77.6903 54.7845C77.6903 55.6237 77.9725 56.3349 78.5368 56.9181C79.1012 57.4871 79.7975 57.7716 80.6258 57.7716C81.4907 57.7716 82.1943 57.4871 82.7367 56.9181C83.2864 56.3491 83.5613 55.6379 83.5613 54.7845C83.5613 53.931 83.2791 53.2198 82.7147 52.6509C82.1503 52.0819 81.454 51.7974 80.6258 51.7974C79.7829 51.7974 79.0829 52.0783 78.5258 52.6402C77.9688 53.202 77.6903 53.9168 77.6903 54.7845Z" fill="#C59368"/>
<path d="M87.2494 58.5183H86.3148V51.0506H87.2604L90.1519 54.8805L92.9225 51.0506H93.813V58.5183H92.8785V52.4802L90.1519 56.1927H90.009L87.2494 52.5122V58.5183Z" fill="#C59368"/>
<path d="M102.274 58.5183H101.34V55.1365H97.107V58.5183H96.1724V51.0506H97.107V54.2831H101.34V51.0506H102.274V58.5183Z" fill="#C59368"/>
<path d="M111.616 58.5183H110.681V51.0506H111.616V58.5183ZM106.525 54.6245C106.269 54.6245 105.95 54.6458 105.569 54.6885V57.6542C106.162 57.6755 106.47 57.6862 106.492 57.6862C107.797 57.6862 108.449 57.1564 108.449 56.0967C108.449 55.6202 108.284 55.2574 107.955 55.0085C107.625 54.7525 107.148 54.6245 106.525 54.6245ZM104.634 51.0506H105.569V53.8244C106.082 53.7888 106.423 53.771 106.591 53.771C107.522 53.771 108.229 53.9737 108.713 54.3791C109.197 54.7774 109.439 55.3428 109.439 56.0753C109.439 56.8577 109.171 57.4657 108.636 57.8996C108.101 58.3263 107.35 58.5397 106.382 58.5397C106.016 58.5397 105.697 58.5361 105.426 58.529C105.162 58.5219 104.898 58.5183 104.634 58.5183V51.0506Z" fill="#C59368"/>
<path d="M119.474 52.5442L114.801 58.5183H113.976V51.0506H114.911V57.0248L119.584 51.0506H120.408V58.5183H119.474V52.5442ZM115.208 49.3438H116.087C116.263 49.806 116.655 50.0372 117.264 50.0372C117.909 50.0372 118.286 49.806 118.396 49.3438H119.276C119.224 49.742 119.008 50.0656 118.627 50.3145C118.253 50.5564 117.799 50.6773 117.264 50.6773C116.699 50.6773 116.23 50.5564 115.857 50.3145C115.49 50.0727 115.274 49.7491 115.208 49.3438Z" fill="#C59368"/>
<path d="M124.691 54.7845C124.691 53.7034 125.061 52.7931 125.801 52.0534C126.542 51.3138 127.48 50.944 128.616 50.944C129.745 50.944 130.679 51.3031 131.419 52.0214C132.167 52.7398 132.541 53.6608 132.541 54.7845C132.541 55.8797 132.167 56.7972 131.419 57.5369C130.672 58.2623 129.737 58.625 128.616 58.625C127.494 58.625 126.556 58.2658 125.801 57.5475C125.061 56.8292 124.691 55.9082 124.691 54.7845ZM125.68 54.7845C125.68 55.6237 125.963 56.3349 126.527 56.9181C127.091 57.4871 127.788 57.7716 128.616 57.7716C129.481 57.7716 130.184 57.4871 130.727 56.9181C131.276 56.3491 131.551 55.6379 131.551 54.7845C131.551 53.931 131.269 53.2198 130.705 52.6509C130.14 52.0819 129.444 51.7974 128.616 51.7974C127.773 51.7974 127.073 52.0783 126.516 52.6402C125.959 53.202 125.68 53.9168 125.68 54.7845Z" fill="#C59368"/>
<path d="M138.802 51.0506H139.934L136.504 54.5605L140.11 58.5183H138.912L135.426 54.6245L138.802 51.0506ZM135.239 58.5183H134.305V51.0506H135.239V58.5183Z" fill="#C59368"/>
<path d="M142.477 55.6486V58.5183H141.543V51.0506C141.851 51.0506 142.177 51.0471 142.521 51.04C142.866 51.0329 143.21 51.0293 143.555 51.0293C144.566 51.0293 145.292 51.2498 145.732 51.6907C146.179 52.1246 146.402 52.6758 146.402 53.3443C146.402 53.9915 146.16 54.5462 145.677 55.0085C145.208 55.4637 144.526 55.6913 143.632 55.6913C143.163 55.6913 142.778 55.677 142.477 55.6486ZM143.643 51.8828C143.511 51.8828 143.122 51.8899 142.477 51.9041V54.7845C142.939 54.82 143.313 54.8378 143.599 54.8378C144.163 54.8378 144.607 54.7062 144.929 54.4431C145.252 54.1728 145.413 53.803 145.413 53.3336C145.413 52.8713 145.263 52.5157 144.962 52.2668C144.669 52.0108 144.229 51.8828 143.643 51.8828Z" fill="#C59368"/>
<path d="M152.861 51.0506H153.806L151.146 56.8114C150.875 57.4088 150.589 57.8427 150.288 58.1129C149.995 58.3832 149.643 58.5183 149.233 58.5183C148.837 58.5183 148.525 58.4294 148.298 58.2516L148.628 57.4835C148.819 57.6115 149.017 57.6755 149.222 57.6755C149.596 57.6755 149.911 57.4231 150.167 56.9181L150.299 56.6407L146.814 51.0506H147.87L150.75 55.7339L152.861 51.0506Z" fill="#C59368"/>
<path d="M156.115 58.5183H155.181V51.0506H159.469V51.9041H156.115V58.5183Z" fill="#C59368"/>
<path d="M44.5438 45.8086H43.4945V42.617H41.8773L39.6428 45.8086H38.4577L40.8526 42.4329C40.3424 42.2283 39.9309 41.9173 39.6181 41.5C39.3054 41.0744 39.149 40.5834 39.149 40.027C39.149 39.2004 39.4329 38.5212 40.0008 37.9893C40.5687 37.4492 41.4082 37.1791 42.5192 37.1791C42.5521 37.1791 42.8978 37.1873 43.5562 37.2037C43.8854 37.2118 44.2146 37.2159 44.5438 37.2159V45.8086ZM41.7538 41.635H43.4945V38.1979C42.9266 38.1734 42.5357 38.1611 42.3217 38.1611C41.6798 38.1611 41.1736 38.3289 40.8032 38.6644C40.4411 38.9917 40.2601 39.4255 40.2601 39.9656C40.2601 40.4075 40.4082 40.7798 40.7045 41.0826C41.0008 41.3936 41.3506 41.5777 41.7538 41.635Z" fill="#C59368"/>
<path d="M48.248 45.8086H47.1986V37.2159H48.2603L51.5071 41.6227L54.6181 37.2159H55.618V45.8086H54.5687V38.8608L51.5071 43.1326H51.3466L48.248 38.8976V45.8086Z" fill="#C59368"/>
<path d="M58.218 45.8086H57.1563L60.8722 37.1668H61.7734L65.4893 45.8086H64.3659L63.2548 43.2062H59.3167L58.218 45.8086ZM62.8474 42.2242L61.2919 38.5539L59.7364 42.2242H62.8474Z" fill="#C59368"/>
<path d="M73.2588 45.8086H72.2095V38.1979H69.0738L68.9257 39.8183C68.8269 40.8821 68.6993 41.7946 68.543 42.5556C68.3866 43.3085 68.2179 43.9018 68.0368 44.3355C67.8557 44.7693 67.6418 45.1048 67.3949 45.3421C67.1562 45.5794 66.9216 45.7267 66.6912 45.784C66.4607 45.8413 66.1974 45.8495 65.9011 45.8086L65.9134 44.7652C66.0863 44.7897 66.2344 44.7775 66.3579 44.7284C66.4813 44.6711 66.6212 44.5442 66.7776 44.3478C66.9504 44.1432 67.1068 43.8364 67.2467 43.4272C67.5759 42.5106 67.8146 41.0131 67.9627 38.9345L68.0862 37.2159H73.2588V45.8086Z" fill="#C59368"/>
<path d="M75.2289 41.5123C75.2289 40.2684 75.6446 39.2209 76.4758 38.3698C77.307 37.5187 78.3605 37.0932 79.6362 37.0932C80.9036 37.0932 81.9529 37.5064 82.7842 38.333C83.6237 39.1595 84.0434 40.2193 84.0434 41.5123C84.0434 42.7725 83.6237 43.8282 82.7842 44.6793C81.9447 45.514 80.8954 45.9313 79.6362 45.9313C78.377 45.9313 77.3235 45.5181 76.4758 44.6915C75.6446 43.865 75.2289 42.8052 75.2289 41.5123ZM76.34 41.5123C76.34 42.4779 76.6569 43.2962 77.2906 43.9673C77.9243 44.622 78.7062 44.9493 79.6362 44.9493C80.6073 44.9493 81.3974 44.622 82.0064 43.9673C82.6237 43.3126 82.9323 42.4943 82.9323 41.5123C82.9323 40.5302 82.6155 39.7119 81.9818 39.0572C81.348 38.4025 80.5662 38.0752 79.6362 38.0752C78.6897 38.0752 77.9037 38.3984 77.2782 39.0449C76.6527 39.6914 76.34 40.5139 76.34 41.5123Z" fill="#C59368"/>
<path d="M88.749 42.9239H85.7985V42.0033H88.749V42.9239Z" fill="#C59368"/>
<path d="M97.8804 45.8086H96.8311V41.9173H92.0782V45.8086H91.0288V37.2159H92.0782V40.9353H96.8311V37.2159H97.8804V45.8086Z" fill="#C59368"/>
<path d="M105.53 45.8086H100.53V37.2159H105.407V38.1979H101.58V40.9721H105.036V41.9542H101.58V44.8266H105.53V45.8086Z" fill="#C59368"/>
<path d="M114.544 45.8086H113.495V41.9173H108.742V45.8086H107.693V37.2159H108.742V40.9353H113.495V37.2159H114.544V45.8086Z" fill="#C59368"/>
<path d="M122.194 45.8086H117.194V37.2159H122.071V38.1979H118.244V40.9721H121.7V41.9542H118.244V44.8266H122.194V45.8086Z" fill="#C59368"/>
<path d="M131.27 45.8086H124.357V37.2159H125.406V44.8266H130.036V37.2159H131.085V44.8266H132.258V47.4044H131.27V45.8086Z" fill="#C59368"/>
<path d="M139.04 37.2159H140.312L136.46 41.2545L140.509 45.8086H139.164L135.25 41.3281L139.04 37.2159ZM135.04 45.8086H133.991V37.2159H135.04V45.8086Z" fill="#C59368"/>
<path d="M148.291 38.9345L143.044 45.8086H142.118V37.2159H143.167V44.09L148.414 37.2159H149.34V45.8086H148.291V38.9345Z" fill="#C59368"/>
<path d="M158.166 38.9345L152.919 45.8086H151.993V37.2159H153.043V44.09L158.289 37.2159H159.215V45.8086H158.166V38.9345ZM153.376 35.2519H154.364C154.561 35.7838 155.001 36.0498 155.684 36.0498C156.409 36.0498 156.833 35.7838 156.956 35.2519H157.944C157.886 35.7102 157.643 36.0825 157.215 36.3689C156.796 36.6472 156.285 36.7863 155.684 36.7863C155.051 36.7863 154.524 36.6472 154.104 36.3689C153.693 36.0907 153.45 35.7184 153.376 35.2519Z" fill="#C59368"/>
<path fill-rule="evenodd" clip-rule="evenodd" d="M44.7974 46.0605H43.241V42.8689H42.0098L39.7753 46.0605H37.9688L40.4696 42.5355C40.0479 42.3196 39.6951 42.0245 39.4147 41.6504L39.4133 41.6485C39.067 41.1773 38.8954 40.6336 38.8954 40.027C38.8954 39.1365 39.2043 38.3895 39.8262 37.8066C40.4577 37.2064 41.3704 36.9272 42.5192 36.9272C42.5564 36.9272 42.9076 36.9356 43.5626 36.9518C43.8897 36.96 44.2167 36.964 44.5438 36.964H44.7974V46.0605ZM40.0008 37.9893C39.4329 38.5212 39.149 39.2004 39.149 40.027C39.149 40.5834 39.3054 41.0744 39.6181 41.5C39.8812 41.8511 40.2143 42.127 40.6172 42.3275C40.6932 42.3653 40.7717 42.4004 40.8526 42.4329L38.4577 45.8086H39.6428L41.8773 42.617H43.4945V45.8086H44.5438V37.2159C44.2146 37.2159 43.8854 37.2118 43.5562 37.2037C42.8978 37.1873 42.5521 37.1791 42.5192 37.1791C41.4082 37.1791 40.5687 37.4492 40.0008 37.9893ZM40.9739 38.8507C40.6707 39.1248 40.5136 39.4877 40.5136 39.9656C40.5136 40.3453 40.6383 40.6536 40.8863 40.907L40.8886 40.9094C41.1437 41.1771 41.4366 41.3317 41.7725 41.3831H43.241V38.4394C42.8039 38.4217 42.4984 38.413 42.3217 38.413C41.7246 38.413 41.2856 38.5684 40.9739 38.8507ZM43.4945 38.1979V41.635H41.7538C41.3506 41.5777 41.0008 41.3936 40.7045 41.0826C40.4082 40.7798 40.2601 40.4075 40.2601 39.9656C40.2601 39.4255 40.4411 38.9917 40.8032 38.6644C41.1736 38.3289 41.6798 38.1611 42.3217 38.1611C42.5357 38.1611 42.9266 38.1734 43.4945 38.1979ZM48.5015 46.0605H46.9451V36.964H48.3889L51.5027 41.1903L54.4862 36.964H55.8716V46.0605H54.3152V39.6489L51.6378 43.3845H51.2175L48.5015 39.6726V46.0605ZM48.248 38.8976L51.3466 43.1326H51.5071L54.5687 38.8608V45.8086H55.618V37.2159H54.6181L51.5071 41.6227L48.2603 37.2159H47.1986V45.8086H48.248V38.8976ZM58.3866 46.0605H56.7722L60.7048 36.9149H61.9408L65.6507 45.5427L65.6633 44.4752L65.9493 44.5158C66.087 44.5354 66.1859 44.5236 66.2568 44.4972C66.3259 44.4628 66.4338 44.3736 66.5787 44.1916L66.581 44.1887L66.5834 44.1859C66.7274 44.0154 66.8714 43.7418 67.0066 43.3462L67.0079 43.3425C67.3247 42.4605 67.5619 40.9923 67.7098 38.9167L67.8501 36.964H73.5124V46.0605H71.9559V38.4498H69.3054L69.1782 39.8411C69.0788 40.9109 68.9501 41.8333 68.7914 42.606L68.7913 42.6065C68.6334 43.3665 68.4608 43.9773 68.271 44.4321C68.0817 44.8856 67.8513 45.2533 67.5727 45.5217C67.315 45.7776 67.0422 45.9564 66.7527 46.0284C66.4856 46.0948 66.1906 46.1022 65.8726 46.059L65.8733 46.0605H64.198L63.0869 43.4581H59.4853L58.3866 46.0605ZM59.3167 43.2062H63.2548L64.3659 45.8086H65.4893L61.7734 37.1668H60.8722L57.1563 45.8086H58.218L59.3167 43.2062ZM69.0738 38.1979H72.2095V45.8086H73.2588V37.2159H68.0862L67.9627 38.9345C67.8146 41.0131 67.5759 42.5106 67.2467 43.4272C67.1068 43.8364 66.9504 44.1432 66.7776 44.3478C66.6212 44.5442 66.4813 44.6711 66.3579 44.7284C66.2997 44.7515 66.236 44.7665 66.1669 44.7732C66.0893 44.7808 66.0048 44.7782 65.9134 44.7652L65.9011 45.8086C66.1974 45.8495 66.4607 45.8413 66.6912 45.784C66.9216 45.7267 67.1562 45.5794 67.3949 45.3421C67.6418 45.1048 67.8557 44.7693 68.0368 44.3355C68.2179 43.9018 68.3866 43.3085 68.543 42.5556C68.6993 41.7946 68.8269 40.8821 68.9257 39.8183L69.0738 38.1979ZM82.9653 44.8556L82.9636 44.8573C82.0734 45.7424 80.9582 46.1832 79.6362 46.1832C78.315 46.1832 77.1964 45.7471 76.2982 44.8713L76.2964 44.8696C75.4124 43.9906 74.9754 42.8642 74.9754 41.5123C74.9754 40.2064 75.4143 39.095 76.2938 38.1944C77.1764 37.2908 78.2972 36.8413 79.6362 36.8413C80.9649 36.8413 82.0804 37.2771 82.9631 38.1545C83.8554 39.0333 84.2969 40.1598 84.2969 41.5123C84.2969 42.8342 83.8541 43.9545 82.9653 44.8556ZM82.7842 38.333C83.6237 39.1595 84.0434 40.2193 84.0434 41.5123C84.0434 42.7725 83.6237 43.8282 82.7842 44.6793C81.9447 45.514 80.8954 45.9313 79.6362 45.9313C78.377 45.9313 77.3235 45.5181 76.4758 44.6915C75.6446 43.865 75.2289 42.8052 75.2289 41.5123C75.2289 40.2684 75.6446 39.2209 76.4758 38.3698C77.307 37.5187 78.3605 37.0932 79.6362 37.0932C80.9036 37.0932 81.9529 37.5064 82.7842 38.333ZM81.8202 43.7963L81.8214 43.7951C82.3903 43.1917 82.6788 42.4369 82.6788 41.5123C82.6788 40.5895 82.3834 39.8355 81.799 39.2318C81.214 38.6275 80.4986 38.3271 79.6362 38.3271C78.7549 38.3271 78.0362 38.625 77.461 39.2195C76.8862 39.8136 76.5936 40.5709 76.5936 41.5123C76.5936 42.4168 76.8878 43.1721 77.4744 43.7937C78.0592 44.3974 78.7743 44.6974 79.6362 44.6974C80.5431 44.6974 81.2635 44.3948 81.8202 43.7963ZM77.2906 43.9673C76.6569 43.2962 76.34 42.4779 76.34 41.5123C76.34 40.5139 76.6527 39.6914 77.2782 39.0449C77.9037 38.3984 78.6897 38.0752 79.6362 38.0752C80.5662 38.0752 81.348 38.4025 81.9818 39.0572C82.6155 39.7119 82.9323 40.5302 82.9323 41.5123C82.9323 42.4943 82.6237 43.3126 82.0064 43.9673C81.3974 44.622 80.6073 44.9493 79.6362 44.9493C78.7062 44.9493 77.9243 44.622 77.2906 43.9673ZM89.0026 43.1758H85.545V41.7514H89.0026V43.1758ZM98.134 46.0605H96.5775V42.1692H92.3317V46.0605H90.7753V36.964H92.3317V40.6834H96.5775V36.964H98.134V46.0605ZM96.8311 37.2159H97.8804V45.8086H96.8311V41.9173H92.0782V45.8086H91.0288V37.2159H92.0782V40.9353H96.8311V37.2159ZM105.784 46.0605H100.277V36.964H105.66V38.4498H101.833V40.7202H105.29V42.2061H101.833V44.5747H105.784V46.0605ZM101.58 44.8266V41.9542H105.036V40.9721H101.58V38.1979H105.407V37.2159H100.53V45.8086H105.53V44.8266H101.58ZM114.798 46.0605H113.242V42.1692H108.996V46.0605H107.439V36.964H108.996V40.6834H113.242V36.964H114.798V46.0605ZM113.495 37.2159H114.544V45.8086H113.495V41.9173H108.742V45.8086H107.693V37.2159H108.742V40.9353H113.495V37.2159ZM122.448 46.0605H116.941V36.964H122.324V38.4498H118.497V40.7202H121.954V42.2061H118.497V44.5747H122.448V46.0605ZM118.244 44.8266V41.9542H121.7V40.9721H118.244V38.1979H122.071V37.2159H117.194V45.8086H122.194V44.8266H118.244ZM124.103 46.0605V36.964H125.66V44.5747H129.782V36.964H131.339V44.5747H132.511V47.6562H131.017V46.0605H124.103ZM131.27 45.8086V47.4044H132.258V44.8266H131.085V37.2159H130.036V44.8266H125.406V37.2159H124.357V45.8086H131.27ZM138.929 36.964H140.901L136.804 41.2604L141.072 46.0605H139.048L135.294 41.7625V46.0605H133.737V36.964H135.294V40.9077L138.929 36.964ZM139.04 37.2159H140.312L136.46 41.2545L140.509 45.8086H139.164L135.25 41.3281L139.04 37.2159ZM135.04 37.2159H133.991V45.8086H135.04V37.2159ZM143.17 46.0605H141.865V36.964H143.421V43.3409L148.288 36.964H149.594V46.0605H148.037V39.6835L143.17 46.0605ZM148.291 38.9345V45.8086H149.34V37.2159H148.414L143.167 44.09V37.2159H142.118V45.8086H143.044L148.291 38.9345ZM153.045 46.0605H151.74V36.964H153.296V43.3409L158.163 36.964H159.469V46.0605H157.912V39.6835L153.045 46.0605ZM158.166 38.9345V45.8086H159.215V37.2159H158.289L153.043 44.09V37.2159H151.993V45.8086H152.919L158.166 38.9345ZM153.079 35H154.54L154.601 35.1647C154.683 35.3834 154.808 35.5348 154.974 35.6351C155.143 35.7375 155.375 35.7979 155.684 35.7979C156.019 35.7979 156.253 35.736 156.41 35.6373C156.56 35.5434 156.661 35.4034 156.709 35.1953L156.754 35H158.231L158.195 35.2831C158.127 35.8221 157.838 36.2558 157.357 36.5779L157.356 36.5785C156.887 36.8892 156.326 37.0382 155.684 37.0382C155.013 37.0382 154.435 36.8906 153.964 36.5785L153.962 36.5772C153.495 36.2619 153.211 35.8299 153.125 35.2911L153.079 35ZM61.2919 38.5539L59.7364 42.2242H62.8474L61.2919 38.5539ZM61.2919 39.2031L60.1183 41.9723H62.4655L61.2919 39.2031ZM153.376 35.2519C153.39 35.3392 153.41 35.4231 153.435 35.5038C153.547 35.8544 153.77 36.1427 154.104 36.3689C154.524 36.6472 155.051 36.7863 155.684 36.7863C156.285 36.7863 156.796 36.6472 157.215 36.3689C157.562 36.1369 157.787 35.8486 157.891 35.5038C157.915 35.4229 157.933 35.339 157.944 35.2519H156.956C156.833 35.7838 156.409 36.0498 155.684 36.0498C155.001 36.0498 154.561 35.7838 154.364 35.2519H153.376ZM88.749 42.9239V42.0033H85.7985V42.9239H88.749Z" fill="#C59368"/>
<path d="M220.353 30.9475H217.733V23.3158H215.022L214.954 24.4093C214.757 26.2621 214.468 27.6746 214.088 28.6466C213.724 29.6186 213.253 30.2792 212.676 30.6285C212.114 30.9627 211.332 31.1373 210.329 31.1525L210.102 28.601C210.436 28.6162 210.747 28.5251 211.036 28.3276C211.37 28.0846 211.666 27.5758 211.924 26.8013C212.182 26.0267 212.349 25.0547 212.425 23.8853L212.585 20.6959H220.353V30.9475Z" fill="#562212"/>
<path d="M229.991 24.4548L225.207 30.9475H222.587V20.6959H225.207V27.1886L229.991 20.6959H232.611V30.9475H229.991V24.4548Z" fill="#562212"/>
<path d="M240.501 20.6959H243.121V30.9475H240.501V27.4164C239.742 27.8113 238.891 28.0087 237.95 28.0087C236.674 28.0087 235.732 27.6746 235.125 27.0063C234.533 26.3381 234.237 25.3281 234.237 23.9764V20.6959H237.039V23.6575C237.039 24.918 237.593 25.5483 238.702 25.5483C239.415 25.5483 240.015 25.4116 240.501 25.1383V20.6959Z" fill="#562212"/>
<path d="M255.086 30.9475H252.466V27.0291H247.978V30.9475H245.359V20.6959H247.978V24.5687H252.466V20.6959H255.086V30.9475Z" fill="#562212"/>
<path d="M261.002 30.9475H257.312V20.6959H259.931V23.498H261.207C262.741 23.498 263.873 23.8169 264.602 24.4548C265.346 25.0927 265.718 25.9584 265.718 27.0519C265.718 28.2213 265.323 29.1629 264.533 29.8768C263.744 30.5906 262.566 30.9475 261.002 30.9475ZM269.796 30.9475H267.176V20.6959H269.796V30.9475ZM260.979 25.5939H259.931V28.6693H260.957C262.278 28.6693 262.939 28.1606 262.939 27.143C262.939 26.1103 262.286 25.5939 260.979 25.5939Z" fill="#562212"/>
<path d="M279.427 24.4548L274.643 30.9475H272.023V20.6959H274.643V27.1886L279.427 20.6959H282.047V30.9475H279.427V24.4548ZM273.55 15.5701H275.942C275.942 16.0713 276.04 16.4738 276.238 16.7775C276.435 17.0813 276.731 17.2332 277.126 17.2332C277.476 17.2332 277.741 17.0813 277.924 16.7775C278.121 16.4586 278.22 16.0561 278.22 15.5701H280.612C280.612 16.6333 280.3 17.4913 279.678 18.1444C279.055 18.7823 278.205 19.1012 277.126 19.1012C275.942 19.1012 275.046 18.7899 274.438 18.1672C273.846 17.5293 273.55 16.6636 273.55 15.5701Z" fill="#562212"/>
<path d="M294.834 20.6959H298.137L294.196 25.5711L298.615 30.9475H295.198L291.143 25.7761L294.834 20.6959ZM291.052 30.9475H288.432V20.6959H291.052V30.9475Z" fill="#562212"/>
<path d="M300.27 23.3385L299.61 21.4249C300.718 20.7718 301.926 20.4453 303.232 20.4453C304.659 20.4453 305.7 20.7946 306.353 21.4932C307.006 22.1919 307.332 23.2626 307.332 24.7054V30.9475H305.054V29.7628C304.447 30.6437 303.437 31.0842 302.024 31.0842C301.052 31.0842 300.27 30.8032 299.678 30.2413C299.101 29.6641 298.812 28.8972 298.812 27.9403C298.812 26.8772 299.154 26.0571 299.837 25.48C300.521 24.9028 301.425 24.6143 302.548 24.6143C303.475 24.6143 304.249 24.8345 304.872 25.2749C304.902 24.3637 304.766 23.6954 304.462 23.2702C304.173 22.8449 303.672 22.6323 302.958 22.6323C302.169 22.6323 301.273 22.8677 300.27 23.3385ZM302.89 28.8744C303.771 28.8744 304.432 28.563 304.872 27.9403V26.8924C304.447 26.5583 303.847 26.3912 303.072 26.3912C302.586 26.3912 302.191 26.5051 301.888 26.7329C301.584 26.9608 301.432 27.2721 301.432 27.667C301.432 28.0315 301.569 28.3276 301.842 28.5554C302.116 28.7681 302.465 28.8744 302.89 28.8744Z" fill="#562212"/>
<path d="M317.035 14.75L318.402 16.8914C318.037 17.3471 317.582 17.6812 317.035 17.8938C316.549 18.0609 315.941 18.2279 315.212 18.395C314.498 18.5317 313.906 18.7215 313.435 18.9645C312.175 19.5568 311.438 20.8326 311.226 22.7918H311.271C311.59 22.2298 312.084 21.7742 312.752 21.4249C313.42 21.0604 314.126 20.8782 314.871 20.8782C316.283 20.8782 317.414 21.3338 318.265 22.245C319.115 23.1715 319.541 24.3941 319.541 25.9128C319.541 27.386 319.04 28.639 318.037 29.6717C317.035 30.6893 315.744 31.1981 314.164 31.1981C312.448 31.1981 311.089 30.6133 310.087 29.4439C309.099 28.2745 308.606 26.695 308.606 24.7054C308.606 20.3314 309.897 17.5825 312.479 16.4586C313.04 16.2156 313.663 16.0333 314.347 15.9118C315.121 15.76 315.691 15.6157 316.055 15.479C316.42 15.3271 316.746 15.0841 317.035 14.75ZM311.408 25.2522C311.423 26.2849 311.674 27.1278 312.16 27.7809C312.646 28.4339 313.291 28.7605 314.096 28.7605C314.886 28.7605 315.524 28.5023 316.01 27.9859C316.496 27.4695 316.739 26.8165 316.739 26.0267C316.739 25.2218 316.511 24.5687 316.055 24.0675C315.615 23.5663 315 23.3158 314.21 23.3158C313.526 23.3158 312.934 23.498 312.433 23.8625C311.932 24.2118 311.59 24.675 311.408 25.2522Z" fill="#562212"/>
<path d="M328.536 24.4548L323.752 30.9475H321.132V20.6959H323.752V27.1886L328.536 20.6959H331.156V30.9475H328.536V24.4548Z" fill="#562212"/>
<path d="M343.124 30.9475H340.504V27.0291H336.016V30.9475H333.397V20.6959H336.016V24.5687H340.504V20.6959H343.124V30.9475Z" fill="#562212"/>
<path d="M353.391 28.077L354.143 29.9223C353.126 30.7728 351.819 31.1981 350.225 31.1981C348.585 31.1981 347.248 30.7045 346.215 29.7173C345.213 28.7453 344.712 27.4468 344.712 25.8217C344.712 24.3029 345.205 23.0272 346.192 21.9944C347.18 20.9617 348.493 20.4453 350.134 20.4453C351.485 20.4453 352.632 20.8933 353.574 21.7894C354.515 22.6855 354.986 23.8245 354.986 25.2066C354.986 25.8141 354.933 26.2849 354.827 26.619H347.423C347.529 27.3632 347.856 27.9479 348.402 28.3732C348.964 28.7984 349.663 29.0111 350.498 29.0111C351.637 29.0111 352.602 28.6997 353.391 28.077ZM350.02 22.6323C348.531 22.6323 347.635 23.3765 347.332 24.8649H352.366C352.381 24.2118 352.169 23.6803 351.728 23.2702C351.303 22.8449 350.734 22.6323 350.02 22.6323Z" fill="#562212"/>
<path d="M358.602 23.3158H355.231V20.6959H364.571V23.3158H361.222V30.9475H358.602V23.3158Z" fill="#562212"/>
<path d="M219.191 51.1975H217.571V43.6037H212.61V51.1975H210.99V42.085H219.191V51.1975Z" fill="#562212"/>
<path d="M223.339 55.2475H221.719V42.085H223.339V43.1582C223.663 42.7802 224.108 42.4765 224.675 42.247C225.242 42.004 225.829 41.8825 226.437 41.8825C227.733 41.8825 228.752 42.3145 229.495 43.1785C230.264 44.029 230.649 45.136 230.649 46.4995C230.649 47.89 230.21 49.0577 229.333 50.0027C228.469 50.9342 227.328 51.4 225.91 51.4C224.817 51.4 223.96 51.1907 223.339 50.7722V55.2475ZM225.971 43.4012C224.891 43.4012 224.014 43.8197 223.339 44.6567V49.1725C224.054 49.645 224.864 49.8812 225.769 49.8812C226.727 49.8812 227.49 49.5775 228.057 48.97C228.637 48.349 228.928 47.5457 228.928 46.5602C228.928 45.6017 228.664 44.839 228.138 44.272C227.611 43.6915 226.889 43.4012 225.971 43.4012Z" fill="#562212"/>
<path d="M239.755 48.9295L240.261 50.2052C239.383 51.0017 238.243 51.4 236.839 51.4C235.354 51.4 234.172 50.968 233.295 50.104C232.404 49.24 231.958 48.0857 231.958 46.6412C231.958 45.2777 232.377 44.1437 233.214 43.2392C234.037 42.3347 235.185 41.8825 236.656 41.8825C237.871 41.8825 238.877 42.274 239.674 43.057C240.484 43.8265 240.889 44.8255 240.889 46.054C240.889 46.4455 240.855 46.81 240.787 47.1475H233.781C233.848 47.998 234.166 48.6662 234.733 49.1522C235.313 49.6382 236.056 49.8812 236.96 49.8812C238.148 49.8812 239.08 49.564 239.755 48.9295ZM236.575 43.4012C235.779 43.4012 235.117 43.624 234.591 44.0695C234.078 44.515 233.774 45.1022 233.68 45.8312H239.208C239.167 45.0752 238.911 44.4812 238.438 44.0492C237.979 43.6172 237.358 43.4012 236.575 43.4012Z" fill="#562212"/>
<path d="M242.589 53.425H241.07V49.6787H242.204C242.541 49.2602 242.838 48.5852 243.095 47.6537C243.351 46.7087 243.52 45.6557 243.601 44.4947L243.743 42.085H249.96V49.6787H251.478V53.425H249.96V51.1975H242.589V53.425ZM245.262 43.6037L245.16 45.1225C245.079 46.135 244.917 47.0597 244.674 47.8967C244.431 48.7337 244.182 49.3277 243.925 49.6787H248.34V43.6037H245.262Z" fill="#562212"/>
<path d="M261.038 51.1975H259.418V43.6037H254.456V51.1975H252.836V42.085H261.038V51.1975Z" fill="#562212"/>
<path d="M265.185 55.2475H263.565V42.085H265.185V43.1582C265.509 42.7802 265.954 42.4765 266.521 42.247C267.088 42.004 267.676 41.8825 268.283 41.8825C269.579 41.8825 270.598 42.3145 271.341 43.1785C272.11 44.029 272.495 45.136 272.495 46.4995C272.495 47.89 272.056 49.0577 271.179 50.0027C270.315 50.9342 269.174 51.4 267.757 51.4C266.663 51.4 265.806 51.1907 265.185 50.7722V55.2475ZM267.817 43.4012C266.737 43.4012 265.86 43.8197 265.185 44.6567V49.1725C265.9 49.645 266.71 49.8812 267.615 49.8812C268.573 49.8812 269.336 49.5775 269.903 48.97C270.484 48.349 270.774 47.5457 270.774 46.5602C270.774 45.6017 270.511 44.839 269.984 44.272C269.458 43.6915 268.735 43.4012 267.817 43.4012Z" fill="#562212"/>
<path d="M281.297 44.4137L276.032 51.1975H274.412V42.085H276.032V48.8687L281.297 42.085H282.917V51.1975H281.297V44.4137Z" fill="#562212"/>
<path d="M293.76 51.1975H292.14V47.35H287.077V51.1975H285.457V42.085H287.077V45.8312H292.14V42.085H293.76V51.1975Z" fill="#562212"/>
<path d="M303.169 44.4137L297.904 51.1975H296.284V42.085H297.904V48.8687L303.169 42.085H304.789V51.1975H303.169V44.4137Z" fill="#562212"/>
<path d="M308.949 51.1975H307.329V42.085H308.808L312.311 46.6007L315.632 42.085H317.07V51.1975H315.45V44.5555L312.291 48.7877H312.23L308.949 44.5555V51.1975Z" fill="#562212"/>
<path d="M320.086 44.0087L319.661 42.7127C320.566 42.1592 321.578 41.8825 322.699 41.8825C323.927 41.8825 324.818 42.1862 325.372 42.7937C325.925 43.4012 326.202 44.3395 326.202 45.6085V51.1975H324.663V50.023C323.947 50.9005 322.975 51.3392 321.747 51.3392C320.91 51.3392 320.235 51.0895 319.722 50.59C319.209 50.077 318.952 49.3885 318.952 48.5245C318.952 47.6335 319.27 46.9315 319.904 46.4185C320.539 45.892 321.369 45.6287 322.395 45.6287C323.353 45.6287 324.109 45.8245 324.663 46.216C324.663 45.19 324.521 44.4542 324.238 44.0087C323.954 43.5632 323.407 43.3405 322.597 43.3405C321.774 43.3405 320.937 43.5632 320.086 44.0087ZM322.314 49.8812C323.218 49.8812 324.001 49.4897 324.663 48.7067V47.5525C324.096 47.1475 323.414 46.945 322.618 46.945C322.064 46.945 321.598 47.08 321.22 47.35C320.856 47.6065 320.674 47.971 320.674 48.4435C320.674 48.889 320.815 49.24 321.099 49.4965C321.396 49.753 321.801 49.8812 322.314 49.8812Z" fill="#562212"/>
<path d="M330.697 43.705H327.355V42.085H335.658V43.705H332.317V51.1975H330.697V43.705Z" fill="#562212"/>
<path d="M343.915 48.9295L344.422 50.2052C343.544 51.0017 342.403 51.4 340.999 51.4C339.514 51.4 338.333 50.968 337.456 50.104C336.565 49.24 336.119 48.0857 336.119 46.6412C336.119 45.2777 336.538 44.1437 337.375 43.2392C338.198 42.3347 339.346 41.8825 340.817 41.8825C342.032 41.8825 343.038 42.274 343.834 43.057C344.644 43.8265 345.049 44.8255 345.049 46.054C345.049 46.4455 345.016 46.81 344.948 47.1475H337.942C338.009 47.998 338.326 48.6662 338.893 49.1522C339.474 49.6382 340.216 49.8812 341.121 49.8812C342.309 49.8812 343.24 49.564 343.915 48.9295ZM340.736 43.4012C339.94 43.4012 339.278 43.624 338.752 44.0695C338.239 44.515 337.935 45.1022 337.84 45.8312H343.369C343.328 45.0752 343.072 44.4812 342.599 44.0492C342.14 43.6172 341.519 43.4012 340.736 43.4012Z" fill="#562212"/>
<path d="M354.343 51.1975H352.723V43.705H349.524L349.423 45.244C349.315 46.4995 349.153 47.5457 348.937 48.3827C348.734 49.2062 348.464 49.8272 348.126 50.2457C347.802 50.6507 347.458 50.9342 347.094 51.0962C346.729 51.2447 346.284 51.319 345.757 51.319L345.636 49.7395C345.784 49.753 345.939 49.7327 346.102 49.6787C346.264 49.6112 346.439 49.4762 346.628 49.2737C346.831 49.0712 347.006 48.8012 347.155 48.4637C347.317 48.1262 347.458 47.6537 347.58 47.0462C347.715 46.4252 347.803 45.7165 347.843 44.92L348.005 42.085H354.343V51.1975Z" fill="#562212"/>
<path d="M360.848 42.085H363.683V51.1975H362.063V48.16H360.301L358.074 51.1975H356.11L358.742 47.755C358.189 47.6335 357.723 47.3365 357.345 46.864C356.967 46.378 356.778 45.7975 356.778 45.1225C356.778 44.191 357.115 43.4552 357.79 42.9152C358.465 42.3617 359.485 42.085 360.848 42.085ZM358.499 45.163C358.499 45.595 358.668 45.9527 359.005 46.2362C359.343 46.5062 359.741 46.6412 360.2 46.6412H362.063V43.6037H360.585C359.896 43.6037 359.377 43.7455 359.026 44.029C358.675 44.3125 358.499 44.6905 358.499 45.163Z" fill="#562212"/>
<line x1="186.5" y1="-2.18557e-08" x2="186.5" y2="70" stroke="url(#paint0_linear_704_3573)"/>
<defs>
<linearGradient id="paint0_linear_704_3573" x1="186" y1="0" x2="186" y2="70" gradientUnits="userSpaceOnUse">
<stop stop-color="#231F20" stop-opacity="0"/>
<stop offset="0.50008" stop-color="#231F20" stop-opacity="0.2"/>
<stop offset="1" stop-color="#231F20" stop-opacity="0"/>
</linearGradient>
</defs>
</svg>
